<svg id="Layer_1" data-name="Layer 1" xmlns="http://www.w3.org/2000/svg" viewBox="0 0 510.04 493.07"><defs><style>.cls-1,.cls-2,.cls-3{fill-rule:evenodd;}.cls-2{fill:#fff;}.cls-3{fill:#d7df23;}</style></defs><title>ola</title><path class="cls-1" d="M506,218c-.93-12.25-4.07-28.46-8.77-44.05A223.59,223.59,0,0,0,448,87.32c-11.91-12.84-25.38-24.78-45.45-38.85Q379.6,37.15,357.44,24.3c-9.71-5.51-21.31-12.25-36.65-17.14a265.11,265.11,0,0,0-55.47-7,243.24,243.24,0,0,0-53.88,4.29C193,7.47,177.59,12.36,157.22,17.26,111.16,37.14,75.45,67.13,44.74,106.91c-107.16,149.61-10.33,359.2,168.57,384a242.23,242.23,0,0,0,86.79-4l19.74-5.2a5.89,5.89,0,0,1,2.19-.62l22.57-8.56c1.24-.62,2.19-.93,3.44-1.53l9.4-4.29A257.4,257.4,0,0,0,407.89,434a288,288,0,0,1-45.75,33.95l.93.62c3.15-.93,6-1.85,9.09-2.45,0,0,0,4.89-.62,4-5,3.68,2.83.31,12.85-4.9a158.63,158.63,0,0,0,28.51-19c12.86-10.7,24.13-22.34,40.11-41.29,16.29-28.47,36.67-53.25,46.07-86.6a199.62,199.62,0,0,0,11-63A251.13,251.13,0,0,0,506,218ZM274.1,469.48c54.83-8.58,100.89-38.86,138.49-80.17,10.34-15,18.49-28.77,28.51-43.75,12.53-30.61,11.6-57.83,15.66-77.1,5-34.9-6.88-63-16.9-93-15.36-34.88-35.73-60.88-71.45-81.07C278.17,38.68,155.35,54.27,96.76,137.5c-.31,0-1.89,2.14-5,6.42,4.07-17.12,14.42-27.22,24.75-37,30.71-25.08,66.44-45,107.17-54.76,46.07-4.9,91.79,0,132.84,19.89C417.92,106.9,458.66,161.68,469,226.52v60c-12.85,98.22-97.45,172.88-194.89,183ZM499.39,246.11C497.19,102.32,354,5.33,214.57,24.92,173.84,35,129.33,55.2,97.69,83.35c-15.35,10.08-22.55,28.76-37.91,43.74C-1.64,216.75,9,331.49,85.47,401.26a295.28,295.28,0,0,0,31.33,26.92C52.9,389.92,24.06,332.08,14,261.73c0-25.1,5-49.88,10.33-75C60.11,76.92,172.58-2.94,295.1,17.26c20.37,4.9,40.74,10.1,61.43,15,25.69,10.08,51.06,25.08,71.43,45s35.72,45,51.08,69.74c10.33,19.9,15.35,45,20.36,64.87a210.94,210.94,0,0,1,0,34.28Z"/><path class="cls-2" d="M372.16,248.25c0,61.82-52,112-116.24,112s-116.24-50.17-116.24-112,52-112,116.24-112,116.24,50.18,116.24,112Z"/><path class="cls-3" d="M372.8,229.28c-1.57-8.56-4.08-15.29-6.58-24.77-10-20.82-24.75-37-44.19-50.8-72.68-48-172.64-1.83-183.28,80.18-4.06,32.43,7.52,63.64,28.2,87.51-6.27-6.43-13.15-13.15-17.85-20.81l-.62.62c.62,1.83,3.13,3.05,3.75,4.88,0,0-2.51,0-1.88-.31-1.87-2.12-.31,1.25,2.5,5.82a62.12,62.12,0,0,0,9.4,12.86,138.09,138.09,0,0,0,20.37,18.06c13.8,7,26,16.2,42,20.49,4.38,1.24,9.4,2.45,14.42,3.36a90,90,0,0,0,16,1.24,100,100,0,0,0,17.85-1.86,129.52,129.52,0,0,0,21-4.26,109,109,0,0,0,41.37-23.27c5.95-5.49,14.42-12.53,21-21.72,5.34-10.39,6-15.6,8.47-20.19s5.63-9.79,7.84-16.83a144.68,144.68,0,0,0,3.13-25.39c-.31-8.57-.93-16.83-2.82-24.79Zm-74.58-56.89c10.66,6.11,12.22,7,6.58,3.05,8.16,1.83,13.17,6.42,18.18,11,12.22,13.77,22.24,30,27.25,48.64,2.82,21.11.62,42.22-8.45,60.9-16.29,28.44-42.3,47.41-73.32,52.61-3.45,0-7.2,0-10.66.31,8.78-1.53,14.42-7,30.4-12.86C305.42,330,324.85,301.5,334.27,285c27.56-45-5-86.59-36-112.58ZM239.33,349.22c-47.62-4.89-84.29-43.75-89.3-88.73,4.37,25.1,19.42,44.36,39.78,61.5,7.22,4.59,17.86,11,25.07,15.61,12.22,4.59,19.42,9.49,31.33,11.63h-6.88Zm128.13-81.69c-2.17,9.5-4.37,18.66-6.57,28.16-4.7,11.63-11.59,23.56-21,33s-21.31,16.83-33.21,23.87c-9.4,4.88-21.31,7.33-31,9.77-5.65.62-12.22-1.83-17.87-2.13C327.37,358.4,375,293.86,364.66,229.9c-5-18.66-15.05-34.88-27.27-51.09-5-7-14.74-11.32-21.94-18.37-43.55-27.22-101.19-21.71-134.09,14.09a149.15,149.15,0,0,0-12.86,15c17.56-25.7,45.76-43.74,79.59-48.95,11.91-.31,24.13,1.84,36,4,52.65,15.9,91.81,66.7,83.34,123Z"/></svg>