<svg xmlns="http://www.w3.org/2000/svg" height="800" width="1200" viewBox="-54 -90 468 540"><g fill-rule="evenodd" fill="none"><path fill="#EE2A24" d="M0 0h360v360H0z"/><path fill-rule="nonzero" fill="#FFF" d="M260.867 223.307c23.782 0 43.133-19.36 43.133-43.154C304 156.346 284.65 137 260.867 137c-23.787 0-43.133 19.346-43.133 43.153 0 23.793 19.346 43.154 43.133 43.154zm0-58.541c8.475 0 15.378 6.902 15.378 15.383 0 8.48-6.907 15.373-15.383 15.373-8.48 0-15.373-6.893-15.373-15.378 0-8.49 6.898-15.388 15.373-15.388zm-162.734 58.54c23.782 0 43.133-19.36 43.133-43.153 0-23.807-19.35-43.153-43.133-43.153C74.356 137 55 156.346 55 180.153c0 23.793 19.356 43.154 43.133 43.154zm0-58.54c8.48 0 15.378 6.902 15.378 15.383 0 8.48-6.898 15.373-15.378 15.373-8.475 0-15.368-6.893-15.368-15.378 0-8.49 6.897-15.388 15.368-15.388zm81.343-.972l-13.242-26.23h-31.006l28.96 57.38v27.015h30.581v-27.014l28.96-57.382h-31.02l-13.228 26.23z"/></g></svg>