<svg id="svg" version="1.1" xmlns="http://www.w3.org/2000/svg" xmlns:xlink="http://www.w3.org/1999/xlink" width="400" height="400" viewBox="0, 0, 400,400"><g id="svgg"><path id="path0" d="M44.000 0.692 C 43.230 0.783,42.429 1.024,42.220 1.229 C 42.011 1.433,41.291 1.606,40.620 1.614 C 39.949 1.622,38.950 1.886,38.400 2.200 C 37.850 2.514,36.984 2.778,36.476 2.786 C 35.882 2.795,35.655 2.965,35.838 3.262 C 36.017 3.551,35.948 3.615,35.652 3.432 C 35.171 3.135,32.800 3.985,32.800 4.455 C 32.800 4.598,32.521 4.822,32.179 4.953 C 31.823 5.089,31.663 5.022,31.803 4.795 C 31.937 4.578,31.857 4.400,31.624 4.400 C 31.391 4.400,31.200 4.580,31.200 4.800 C 31.200 5.020,30.853 5.200,30.429 5.200 C 30.004 5.200,29.419 5.431,29.129 5.713 C 28.229 6.586,26.000 8.069,26.000 7.794 C 26.000 7.650,25.299 8.088,24.442 8.766 C 23.586 9.445,22.700 10.000,22.473 10.000 C 22.247 10.000,21.477 10.585,20.762 11.300 C 20.047 12.015,19.276 12.600,19.049 12.600 C 18.822 12.600,18.511 13.050,18.358 13.600 C 18.205 14.150,18.062 14.355,18.040 14.057 C 17.994 13.431,13.600 17.686,13.600 18.357 C 13.600 18.600,13.383 18.755,13.118 18.700 C 12.853 18.645,12.628 18.793,12.618 19.029 C 12.608 19.264,12.285 19.772,11.900 20.157 C 11.515 20.542,11.197 21.159,11.194 21.529 C 11.189 22.067,11.119 22.091,10.838 21.647 C 10.567 21.220,10.420 21.311,10.190 22.047 C 10.027 22.571,9.398 23.630,8.792 24.400 C 8.187 25.170,7.664 25.931,7.632 26.092 C 7.501 26.733,6.181 28.795,5.900 28.797 C 5.735 28.799,5.600 28.991,5.600 29.224 C 5.600 29.457,5.778 29.537,5.995 29.403 C 6.222 29.263,6.289 29.423,6.153 29.779 C 6.022 30.121,5.754 30.400,5.557 30.400 C 5.361 30.400,5.200 30.747,5.200 31.171 C 5.200 31.596,4.930 32.213,4.600 32.543 C 4.270 32.873,4.000 33.426,4.000 33.771 C 4.000 34.117,3.799 34.400,3.553 34.400 C 3.304 34.400,3.199 34.753,3.316 35.201 C 3.431 35.641,3.362 35.900,3.163 35.777 C 2.963 35.654,2.800 35.935,2.800 36.403 C 2.800 36.870,2.621 37.588,2.401 37.998 C 2.182 38.408,1.918 39.405,1.814 40.215 C 1.710 41.025,1.440 41.911,1.212 42.185 C 0.651 42.862,0.708 36.568,0.539 116.900 L 0.388 189.200 2.770 189.200 C 4.081 189.200,5.254 189.365,5.379 189.566 C 5.503 189.767,8.667 189.954,12.409 189.981 C 16.152 190.008,19.463 190.126,19.767 190.243 C 20.070 190.359,20.438 190.262,20.583 190.027 C 20.914 189.491,24.400 189.459,24.400 189.992 C 24.400 190.525,56.678 190.522,57.007 189.989 C 57.333 189.462,58.800 189.493,58.800 190.027 C 58.800 190.280,59.146 190.344,59.648 190.185 C 60.114 190.037,61.779 189.916,63.348 189.917 C 64.916 189.917,66.296 189.764,66.413 189.576 C 66.530 189.388,68.510 189.130,70.813 189.003 C 73.116 188.876,75.360 188.612,75.800 188.417 C 76.514 188.100,78.562 187.519,79.267 187.433 C 79.413 187.415,79.668 187.265,79.833 187.100 C 79.998 186.935,80.444 186.800,80.824 186.800 C 81.204 186.800,81.622 186.519,81.754 186.175 C 81.886 185.831,82.176 185.661,82.397 185.798 C 82.619 185.935,82.800 185.837,82.800 185.581 C 82.800 185.324,83.063 185.215,83.385 185.339 C 83.719 185.467,84.280 185.171,84.689 184.650 C 85.085 184.147,85.630 183.810,85.900 183.900 C 86.171 183.990,86.677 183.780,87.025 183.432 C 87.373 183.084,87.914 182.800,88.229 182.800 C 88.543 182.800,88.800 182.530,88.800 182.200 C 88.800 181.659,89.275 181.422,90.100 181.553 C 90.265 181.579,90.400 181.319,90.400 180.976 C 90.400 180.633,90.568 180.456,90.772 180.583 C 90.977 180.709,91.260 180.627,91.400 180.400 C 91.540 180.173,91.851 180.108,92.089 180.255 C 92.338 180.409,92.409 180.339,92.256 180.091 C 92.109 179.852,92.342 179.545,92.774 179.408 C 93.206 179.271,93.675 178.795,93.816 178.351 C 93.969 177.868,94.300 177.629,94.636 177.759 C 94.970 177.886,95.200 177.725,95.200 177.364 C 95.200 177.028,95.380 176.864,95.600 177.000 C 95.820 177.136,96.000 176.967,96.000 176.624 C 96.000 176.281,96.250 176.000,96.556 176.000 C 96.862 176.000,97.807 175.374,98.656 174.609 C 99.505 173.844,100.380 173.212,100.600 173.203 C 100.820 173.195,100.730 173.013,100.400 172.800 C 99.872 172.459,99.874 172.412,100.422 172.406 C 100.764 172.403,102.654 170.772,104.622 168.781 C 106.590 166.791,108.534 164.825,108.943 164.412 C 109.351 163.999,109.565 163.467,109.419 163.231 C 109.273 162.994,109.393 162.800,109.687 162.800 C 110.223 162.800,111.588 161.450,111.613 160.895 C 111.636 160.382,113.109 158.800,113.564 158.800 C 113.804 158.800,114.000 158.530,114.000 158.200 C 114.000 157.870,114.267 157.600,114.592 157.600 C 114.918 157.600,115.297 157.151,115.435 156.603 C 115.573 156.054,115.821 155.690,115.987 155.792 C 116.154 155.895,117.283 154.912,118.496 153.608 C 119.710 152.303,120.815 151.348,120.952 151.485 C 121.088 151.622,121.200 151.423,121.200 151.043 C 121.200 150.663,121.387 150.468,121.614 150.609 C 121.842 150.750,122.762 150.132,123.658 149.236 C 124.554 148.340,125.476 147.723,125.705 147.865 C 125.939 148.010,126.005 147.932,125.856 147.691 C 125.709 147.452,125.951 147.143,126.394 147.002 C 126.837 146.861,127.200 146.478,127.200 146.149 C 127.200 145.821,127.375 145.661,127.589 145.793 C 127.803 145.926,128.293 145.666,128.678 145.217 C 129.063 144.768,129.542 144.400,129.742 144.400 C 129.942 144.400,130.424 144.034,130.812 143.586 C 131.200 143.139,131.675 142.824,131.867 142.886 C 132.205 142.996,132.796 142.583,134.443 141.085 C 134.876 140.692,135.404 140.479,135.617 140.611 C 135.831 140.743,136.114 140.569,136.246 140.225 C 136.378 139.881,136.745 139.600,137.062 139.600 C 137.379 139.600,138.109 139.105,138.685 138.500 C 139.260 137.895,139.585 137.651,139.406 137.958 C 139.041 138.585,141.591 137.293,142.085 136.600 C 142.364 136.209,142.543 136.153,143.824 136.050 C 144.167 136.023,144.336 135.820,144.200 135.600 C 144.064 135.380,144.323 135.200,144.776 135.200 C 145.229 135.200,145.600 135.026,145.600 134.813 C 145.600 134.599,145.870 134.529,146.200 134.655 C 146.530 134.782,146.800 134.686,146.800 134.443 C 146.800 134.199,147.070 134.000,147.400 134.000 C 147.730 134.000,148.000 133.809,148.000 133.576 C 148.000 133.343,148.180 133.264,148.399 133.399 C 148.802 133.648,151.285 132.459,151.534 131.898 C 151.608 131.731,151.834 131.698,152.037 131.823 C 152.240 131.948,152.689 131.768,153.035 131.422 C 153.381 131.076,153.810 130.882,153.987 130.992 C 154.164 131.102,154.532 130.923,154.804 130.596 C 155.076 130.268,155.667 130.000,156.117 130.000 C 156.568 130.000,157.277 129.692,157.693 129.316 C 158.301 128.766,158.513 128.735,158.776 129.161 C 159.037 129.583,159.138 129.587,159.273 129.180 C 159.431 128.706,159.989 128.504,161.672 128.311 C 162.042 128.269,162.269 128.112,162.177 127.962 C 161.978 127.641,163.417 127.213,164.724 127.205 C 165.355 127.202,165.552 127.042,165.347 126.700 C 165.143 126.360,165.263 126.376,165.723 126.749 C 166.098 127.053,166.400 127.114,166.400 126.887 C 166.400 126.660,167.313 126.350,168.428 126.196 C 169.544 126.043,170.537 125.711,170.635 125.459 C 170.733 125.206,171.727 124.948,172.844 124.885 C 173.961 124.821,175.264 124.514,175.740 124.202 C 176.216 123.890,176.965 123.629,177.403 123.621 C 177.841 123.614,178.999 123.606,179.976 123.604 C 180.953 123.602,181.864 123.420,182.000 123.200 C 182.329 122.668,187.408 122.315,193.662 122.387 C 196.852 122.424,198.821 122.290,198.986 122.023 C 199.331 121.465,200.800 121.477,200.800 122.038 C 200.800 122.338,202.541 122.457,206.300 122.414 C 213.320 122.334,218.750 122.661,219.403 123.202 C 219.683 123.435,220.608 123.598,221.456 123.563 C 223.776 123.470,227.611 123.912,228.136 124.335 C 228.391 124.540,230.011 124.821,231.737 124.959 C 233.462 125.098,235.172 125.365,235.537 125.552 C 235.901 125.740,236.740 125.912,237.400 125.934 C 238.935 125.985,239.864 126.186,242.166 126.968 C 244.413 127.731,244.937 127.760,244.565 127.100 C 244.339 126.700,244.390 126.700,244.821 127.100 C 245.118 127.375,245.669 127.600,246.047 127.600 C 246.424 127.600,246.797 127.792,246.875 128.026 C 246.953 128.260,247.758 128.507,248.664 128.575 C 249.570 128.643,250.556 128.853,250.855 129.042 C 251.155 129.231,251.850 129.421,252.400 129.464 C 254.093 129.595,255.329 129.961,255.609 130.414 C 255.764 130.666,256.320 130.735,256.938 130.580 C 257.522 130.433,258.000 130.474,258.000 130.672 C 258.000 130.869,258.402 131.060,258.894 131.097 C 259.386 131.134,259.851 131.352,259.927 131.582 C 260.004 131.812,260.732 132.000,261.544 132.000 C 262.357 132.000,263.412 132.273,263.889 132.607 C 264.366 132.941,264.901 133.183,265.078 133.144 C 265.446 133.063,266.664 133.478,267.716 134.043 C 268.110 134.254,268.605 134.320,268.816 134.190 C 269.027 134.060,269.200 134.105,269.200 134.291 C 269.200 134.590,269.789 134.744,271.482 134.891 C 271.748 134.914,271.871 135.085,271.756 135.271 C 271.641 135.457,272.103 135.721,272.782 135.856 C 273.461 135.992,274.109 136.252,274.221 136.434 C 274.334 136.616,274.690 136.664,275.013 136.540 C 275.336 136.416,275.600 136.514,275.600 136.757 C 275.600 137.001,275.855 137.200,276.168 137.200 C 276.480 137.200,277.245 137.454,277.868 137.765 C 278.490 138.076,279.630 138.603,280.400 138.936 C 281.170 139.268,282.457 139.824,283.260 140.170 C 284.064 140.517,284.919 140.800,285.160 140.800 C 285.402 140.800,285.600 140.980,285.600 141.200 C 285.600 141.420,285.791 141.600,286.024 141.600 C 286.257 141.600,286.333 141.375,286.194 141.100 C 286.055 140.825,286.199 140.915,286.514 141.300 C 286.830 141.685,287.293 142.000,287.544 142.000 C 287.795 142.000,288.000 142.201,288.000 142.447 C 288.000 142.709,288.418 142.813,289.014 142.699 C 289.571 142.593,289.929 142.604,289.809 142.724 C 289.535 142.999,293.042 144.800,293.851 144.800 C 294.179 144.800,294.336 144.980,294.200 145.200 C 294.064 145.420,294.304 145.600,294.734 145.600 C 295.163 145.600,295.618 145.870,295.745 146.200 C 295.871 146.530,296.258 146.800,296.604 146.800 C 297.166 146.800,299.488 148.204,300.000 148.854 C 300.110 148.993,300.560 149.184,301.000 149.277 C 301.440 149.371,301.755 149.662,301.700 149.924 C 301.645 150.186,301.857 150.400,302.171 150.400 C 302.486 150.400,303.034 150.691,303.390 151.048 C 303.747 151.404,304.148 151.585,304.282 151.451 C 304.636 151.098,305.634 152.022,305.366 152.455 C 305.242 152.656,305.289 152.794,305.470 152.763 C 305.652 152.731,305.935 152.749,306.100 152.803 C 306.265 152.856,306.625 152.922,306.900 152.950 C 307.175 152.978,307.408 153.270,307.418 153.600 C 307.428 153.930,307.658 154.153,307.929 154.096 C 308.200 154.039,308.526 154.263,308.653 154.594 C 308.780 154.925,309.045 155.096,309.242 154.974 C 309.439 154.852,309.600 154.943,309.600 155.176 C 309.600 155.409,309.851 155.600,310.157 155.600 C 310.464 155.600,310.819 155.872,310.946 156.204 C 311.073 156.536,311.400 156.761,311.671 156.704 C 311.942 156.647,312.172 156.870,312.182 157.200 C 312.192 157.530,312.393 157.800,312.629 157.800 C 312.864 157.800,313.372 158.115,313.757 158.500 C 314.142 158.885,314.635 159.200,314.852 159.200 C 315.069 159.200,315.117 159.411,314.958 159.668 C 314.757 159.994,314.898 160.048,315.422 159.847 C 315.837 159.688,316.057 159.676,315.912 159.821 C 315.768 159.966,316.085 160.488,316.618 160.982 C 317.151 161.476,317.470 161.997,317.327 162.140 C 317.184 162.283,317.476 162.400,317.976 162.400 C 318.584 162.400,318.815 162.583,318.674 162.950 C 318.544 163.291,318.718 163.481,319.132 163.450 C 319.518 163.421,319.780 163.673,319.753 164.047 C 319.727 164.411,319.989 164.673,320.353 164.647 C 320.790 164.615,320.955 164.860,320.862 165.400 C 320.786 165.840,320.850 166.076,321.004 165.925 C 321.301 165.633,323.200 167.478,323.200 168.058 C 323.200 168.246,323.470 168.400,323.800 168.400 C 324.130 168.400,324.400 168.651,324.400 168.957 C 324.400 169.264,324.670 169.618,325.000 169.745 C 325.330 169.871,325.600 170.261,325.600 170.611 C 325.600 170.961,325.735 171.170,325.900 171.075 C 326.065 170.980,326.560 171.267,327.000 171.713 C 327.440 172.158,327.575 172.394,327.299 172.237 C 327.024 172.080,327.177 172.592,327.638 173.375 C 328.100 174.158,328.626 174.708,328.807 174.596 C 328.987 174.484,329.254 174.935,329.399 175.597 C 329.545 176.258,329.829 176.800,330.032 176.800 C 330.234 176.800,330.400 177.070,330.400 177.400 C 330.400 177.730,330.568 178.000,330.774 178.000 C 330.980 178.000,331.375 178.628,331.653 179.396 C 331.947 180.209,332.274 180.604,332.435 180.343 C 332.590 180.092,332.841 180.492,333.003 181.247 C 333.162 181.991,333.488 182.843,333.728 183.139 C 333.967 183.435,334.221 184.065,334.293 184.539 C 334.365 185.013,334.598 185.460,334.812 185.533 C 335.025 185.607,335.200 185.939,335.200 186.273 C 335.200 186.606,335.451 187.446,335.757 188.140 C 336.723 190.325,336.925 190.981,336.842 191.665 C 336.798 192.030,336.950 192.446,337.181 192.588 C 337.411 192.731,337.600 193.387,337.600 194.047 C 337.600 194.707,337.762 195.147,337.960 195.025 C 338.163 194.899,338.240 195.572,338.137 196.563 C 338.032 197.572,338.134 198.436,338.377 198.586 C 338.939 198.933,338.922 202.277,338.356 202.627 C 338.099 202.786,338.002 203.457,338.125 204.215 C 338.242 204.938,338.225 205.641,338.087 205.779 C 337.949 205.917,337.771 206.515,337.692 207.108 C 337.613 207.700,337.335 208.323,337.074 208.493 C 336.715 208.725,336.726 208.881,337.119 209.135 C 337.534 209.403,337.514 209.574,337.019 209.984 C 336.679 210.267,336.400 210.836,336.400 211.249 C 336.400 211.662,336.201 212.000,335.957 212.000 C 335.714 212.000,335.610 212.248,335.726 212.551 C 335.842 212.854,335.736 213.304,335.489 213.551 C 335.157 213.883,335.188 214.000,335.609 214.000 C 335.977 214.000,335.880 214.208,335.335 214.591 C 334.871 214.916,334.367 215.681,334.215 216.291 C 334.062 216.901,333.548 218.030,333.071 218.800 C 332.595 219.570,332.181 220.335,332.152 220.500 C 332.124 220.665,332.056 220.935,332.003 221.100 C 331.949 221.265,331.931 221.548,331.963 221.730 C 331.994 221.911,331.844 221.951,331.630 221.819 C 331.121 221.504,330.280 223.082,330.643 223.670 C 330.809 223.938,330.746 224.014,330.489 223.855 C 329.964 223.531,328.800 225.087,328.800 226.113 C 328.800 226.517,328.620 226.736,328.400 226.600 C 328.040 226.378,327.827 226.903,327.953 227.700 C 327.979 227.865,327.807 228.000,327.571 228.000 C 326.832 228.000,325.535 229.542,324.542 231.600 C 324.383 231.930,323.923 232.437,323.520 232.727 C 323.116 233.017,322.893 233.427,323.023 233.637 C 323.153 233.848,323.111 233.972,322.930 233.913 C 322.348 233.725,320.704 235.120,320.980 235.568 C 321.128 235.807,320.968 236.000,320.624 236.000 C 319.812 236.000,318.505 237.314,318.708 237.925 C 318.796 238.189,318.502 238.400,318.046 238.400 C 317.445 238.400,317.293 238.578,317.481 239.066 C 317.643 239.488,317.578 239.634,317.304 239.464 C 317.066 239.317,316.253 239.798,315.497 240.532 C 314.740 241.267,313.813 241.986,313.435 242.131 C 313.058 242.276,312.853 242.563,312.980 242.768 C 313.108 242.974,312.804 243.270,312.306 243.425 C 311.808 243.581,311.272 243.909,311.115 244.154 C 310.958 244.399,310.683 244.600,310.505 244.600 C 310.137 244.600,309.163 245.365,307.783 246.736 C 307.265 247.251,306.652 247.556,306.421 247.413 C 306.189 247.270,306.000 247.444,306.000 247.800 C 306.000 248.156,305.820 248.336,305.600 248.200 C 305.380 248.064,305.200 248.143,305.200 248.376 C 305.200 248.609,304.975 248.755,304.700 248.700 C 304.425 248.645,304.260 248.870,304.333 249.200 C 304.407 249.530,304.333 249.667,304.170 249.503 C 304.007 249.340,303.632 249.407,303.337 249.652 C 303.042 249.897,302.800 249.958,302.800 249.788 C 302.800 249.617,302.474 249.853,302.076 250.312 C 301.678 250.771,300.867 251.268,300.273 251.418 C 299.678 251.567,299.076 251.876,298.934 252.106 C 298.784 252.349,298.870 252.404,299.138 252.238 C 299.392 252.081,299.600 252.143,299.600 252.376 C 299.600 252.609,299.465 252.812,299.300 252.828 C 297.519 252.991,296.648 253.242,296.261 253.704 C 296.007 254.007,294.945 254.692,293.900 255.226 C 292.855 255.761,292.000 256.328,292.000 256.487 C 292.000 256.645,291.769 256.686,291.486 256.578 C 291.203 256.469,290.592 256.734,290.129 257.166 C 289.665 257.598,289.180 257.847,289.052 257.719 C 288.924 257.591,288.573 257.690,288.273 257.940 C 287.972 258.189,287.593 258.260,287.430 258.097 C 287.267 257.933,287.193 258.070,287.267 258.400 C 287.340 258.730,287.182 258.957,286.916 258.905 C 286.650 258.853,285.576 259.245,284.530 259.775 C 283.483 260.306,282.486 260.653,282.313 260.546 C 282.141 260.440,282.000 260.529,282.000 260.745 C 282.000 260.960,281.458 261.255,280.797 261.401 C 280.135 261.546,279.681 261.808,279.789 261.983 C 279.897 262.157,279.292 262.411,278.445 262.546 C 277.597 262.682,276.680 263.062,276.407 263.392 C 276.133 263.722,275.722 263.876,275.494 263.734 C 275.266 263.593,274.828 263.820,274.522 264.239 C 274.216 264.658,273.883 264.955,273.783 264.900 C 273.238 264.602,271.979 264.878,271.443 265.414 C 271.105 265.752,270.687 266.013,270.514 265.994 C 270.341 265.975,269.840 266.077,269.400 266.222 C 268.960 266.366,268.420 266.521,268.200 266.565 C 267.980 266.609,267.485 266.770,267.100 266.923 C 265.292 267.639,264.948 267.752,264.200 267.880 C 263.760 267.955,263.130 268.038,262.800 268.063 C 262.470 268.088,261.958 268.301,261.662 268.535 C 261.365 268.770,260.735 268.982,260.262 269.007 C 258.000 269.126,257.571 269.229,257.800 269.600 C 258.045 269.996,257.507 270.164,256.459 270.020 C 256.161 269.979,255.621 270.075,255.259 270.233 C 254.295 270.654,254.053 270.721,251.210 271.358 C 249.786 271.677,248.559 272.122,248.484 272.347 C 248.410 272.571,248.120 272.667,247.841 272.560 C 247.144 272.293,243.844 273.068,243.688 273.536 C 243.619 273.744,243.225 273.827,242.814 273.720 C 242.403 273.612,241.076 273.812,239.865 274.164 C 238.654 274.516,236.876 274.884,235.913 274.981 C 234.950 275.078,233.676 275.343,233.082 275.569 C 232.488 275.794,231.057 276.073,229.901 276.188 C 227.558 276.421,226.352 276.634,225.070 277.041 C 224.594 277.192,223.708 277.302,223.102 277.285 C 222.496 277.268,221.997 277.466,221.994 277.727 C 221.990 278.007,221.829 277.955,221.600 277.600 C 221.387 277.270,221.209 277.180,221.206 277.401 C 221.203 277.636,220.188 277.757,218.750 277.693 C 217.402 277.634,216.097 277.750,215.850 277.952 C 214.342 279.179,186.118 279.301,184.238 278.088 C 183.997 277.933,183.440 277.788,183.000 277.767 C 180.823 277.663,177.307 277.102,176.563 276.740 C 176.102 276.515,175.158 276.422,174.465 276.531 C 173.771 276.640,173.102 276.565,172.978 276.365 C 172.854 276.164,172.303 276.000,171.753 276.000 C 171.166 276.000,170.858 275.829,171.008 275.586 C 171.169 275.326,170.878 275.243,170.224 275.361 C 169.634 275.468,169.284 275.388,169.415 275.175 C 169.543 274.969,169.367 274.800,169.024 274.800 C 168.681 274.800,168.400 274.993,168.400 275.229 C 168.400 275.464,168.107 275.364,167.748 275.006 C 167.390 274.647,166.811 274.464,166.461 274.598 C 166.111 274.732,165.960 274.706,166.127 274.540 C 166.504 274.163,163.200 273.153,162.666 273.483 C 162.450 273.616,162.404 273.517,162.562 273.262 C 162.739 272.974,162.536 272.777,162.024 272.740 C 161.571 272.707,160.975 272.662,160.700 272.640 C 160.425 272.618,159.969 272.382,159.687 272.116 C 159.405 271.849,158.552 271.515,157.791 271.372 C 157.030 271.229,156.509 270.947,156.634 270.745 C 156.763 270.536,156.331 270.471,155.630 270.595 C 154.923 270.719,154.400 270.639,154.400 270.406 C 154.400 270.183,154.029 270.000,153.576 270.000 C 153.123 270.000,152.848 269.847,152.963 269.659 C 153.145 269.365,150.932 268.472,149.240 268.157 C 148.932 268.100,148.530 267.816,148.346 267.527 C 148.163 267.237,148.009 267.157,148.006 267.349 C 148.003 267.541,147.730 267.474,147.400 267.200 C 147.070 266.926,146.794 266.859,146.787 267.051 C 146.780 267.243,146.555 267.111,146.286 266.758 C 146.017 266.405,145.361 265.978,144.829 265.809 C 144.297 265.640,143.499 265.164,143.055 264.751 C 142.612 264.338,141.932 264.000,141.544 264.000 C 141.157 264.000,140.656 263.685,140.432 263.300 C 140.150 262.816,140.021 262.771,140.012 263.155 C 140.005 263.503,139.599 263.308,138.920 262.629 C 138.282 261.991,137.550 261.624,137.133 261.733 C 136.745 261.835,136.443 261.801,136.461 261.659 C 136.567 260.846,136.328 260.400,135.787 260.400 C 135.451 260.400,135.065 260.115,134.932 259.766 C 134.736 259.256,134.623 259.237,134.350 259.666 C 134.097 260.066,134.011 260.074,134.006 259.700 C 134.003 259.425,133.730 259.200,133.400 259.200 C 133.070 259.200,132.800 258.942,132.800 258.627 C 132.800 258.312,132.440 257.940,132.000 257.800 C 131.560 257.660,131.200 257.393,131.200 257.205 C 131.200 257.017,130.648 256.742,129.973 256.594 C 129.298 256.446,128.649 256.072,128.530 255.762 C 128.412 255.453,128.074 255.200,127.781 255.200 C 127.487 255.200,127.119 254.992,126.962 254.738 C 126.770 254.428,126.861 254.383,127.238 254.600 C 127.547 254.777,127.440 254.558,127.000 254.113 C 126.560 253.667,126.054 253.387,125.875 253.490 C 125.696 253.594,124.742 252.778,123.756 251.678 C 122.770 250.578,121.523 249.567,120.984 249.432 C 120.445 249.297,120.049 249.048,120.102 248.879 C 120.242 248.440,117.414 245.600,116.836 245.600 C 116.570 245.600,116.472 245.408,116.617 245.173 C 116.762 244.938,116.504 244.648,116.045 244.528 C 115.585 244.407,115.291 244.176,115.392 244.013 C 115.492 243.851,114.950 243.197,114.187 242.561 C 113.424 241.925,112.800 241.088,112.800 240.702 C 112.800 240.076,112.365 239.821,111.514 239.948 C 111.357 239.971,111.344 239.691,111.484 239.326 C 111.676 238.825,111.575 238.724,111.074 238.916 C 110.709 239.056,110.444 239.043,110.487 238.886 C 110.634 238.344,109.228 236.096,108.589 235.851 C 108.237 235.716,108.061 235.424,108.198 235.203 C 108.335 234.981,108.167 234.800,107.824 234.800 C 107.481 234.800,107.200 234.584,107.200 234.320 C 107.200 233.783,103.308 230.000,102.755 230.000 C 102.560 230.000,102.400 229.734,102.400 229.409 C 102.400 229.084,101.905 228.499,101.300 228.109 C 100.695 227.719,99.681 226.860,99.047 226.200 C 98.413 225.540,98.036 225.253,98.209 225.562 C 98.419 225.937,98.370 226.029,98.062 225.838 C 97.808 225.681,97.600 225.333,97.600 225.065 C 97.600 224.412,96.275 223.308,95.715 223.495 C 95.469 223.577,95.146 223.261,94.998 222.793 C 94.835 222.282,94.505 222.028,94.169 222.157 C 93.861 222.275,93.652 222.169,93.705 221.921 C 93.757 221.673,93.350 221.338,92.800 221.175 C 92.250 221.013,91.980 220.861,92.200 220.838 C 92.420 220.816,92.015 220.440,91.300 220.004 C 90.585 219.568,90.000 219.049,90.000 218.849 C 90.000 218.650,89.580 218.381,89.066 218.252 C 88.553 218.124,87.451 217.477,86.619 216.815 C 85.786 216.153,84.946 215.710,84.752 215.829 C 84.559 215.949,84.399 215.902,84.397 215.724 C 84.395 215.546,83.945 215.192,83.396 214.937 C 82.642 214.587,82.455 214.587,82.629 214.937 C 82.756 215.192,82.601 215.085,82.286 214.700 C 81.970 214.315,81.192 213.997,80.556 213.994 C 79.663 213.989,79.536 213.900,80.000 213.600 C 80.489 213.284,80.440 213.211,79.733 213.206 C 79.257 213.203,78.807 213.035,78.733 212.834 C 78.660 212.632,77.767 212.378,76.748 212.268 C 75.730 212.157,74.515 211.829,74.048 211.537 C 73.374 211.116,73.040 211.108,72.419 211.496 C 71.876 211.835,71.557 211.853,71.373 211.557 C 71.228 211.322,70.796 211.212,70.412 211.313 C 70.028 211.413,69.430 211.337,69.083 211.143 C 68.700 210.928,68.356 210.948,68.203 211.195 C 68.065 211.418,67.738 211.597,67.476 211.594 C 67.190 211.590,67.239 211.433,67.600 211.200 C 68.133 210.855,68.133 210.812,67.600 210.812 C 67.270 210.812,66.740 210.977,66.422 211.178 C 66.063 211.405,65.546 211.385,65.063 211.127 C 64.634 210.897,61.384 210.626,57.841 210.525 C 54.299 210.423,51.229 210.174,51.020 209.970 C 50.523 209.486,33.476 209.487,32.980 209.971 C 32.674 210.270,22.153 210.697,8.700 210.957 C 7.655 210.978,6.800 211.115,6.800 211.262 C 6.800 211.409,6.305 211.439,5.700 211.329 C 5.095 211.218,3.653 211.037,2.496 210.927 L 0.392 210.725 0.543 283.263 C 0.626 323.158,0.772 356.250,0.868 356.800 C 0.964 357.350,1.153 358.070,1.288 358.400 C 1.423 358.730,1.642 359.778,1.776 360.728 C 1.909 361.679,2.305 362.894,2.655 363.428 C 3.005 363.963,3.153 364.400,2.984 364.400 C 2.815 364.400,3.019 364.791,3.438 365.269 C 3.857 365.747,3.992 366.016,3.737 365.868 C 3.387 365.664,3.387 365.842,3.737 366.596 C 3.992 367.145,4.347 367.595,4.527 367.597 C 4.707 367.599,4.740 367.960,4.600 368.400 C 4.460 368.840,4.524 369.200,4.741 369.200 C 4.959 369.200,5.252 369.725,5.393 370.367 C 5.534 371.008,5.919 371.637,6.250 371.764 C 6.580 371.891,6.739 372.176,6.602 372.397 C 6.465 372.619,6.563 372.800,6.819 372.800 C 7.076 372.800,7.182 373.070,7.055 373.400 C 6.929 373.730,6.999 374.000,7.213 374.000 C 7.426 374.000,7.600 374.270,7.600 374.600 C 7.600 374.930,7.784 375.200,8.010 375.200 C 8.235 375.200,8.595 375.605,8.809 376.100 C 9.381 377.424,10.070 378.413,11.255 379.615 C 11.836 380.204,12.520 381.077,12.775 381.554 C 13.031 382.032,13.411 382.317,13.620 382.188 C 13.829 382.058,14.001 382.188,14.002 382.476 C 14.005 383.250,16.736 386.087,17.201 385.800 C 17.420 385.664,17.600 385.923,17.600 386.376 C 17.600 386.941,17.859 387.200,18.424 387.200 C 18.877 387.200,19.149 387.360,19.028 387.555 C 18.771 387.971,19.765 388.902,20.104 388.562 C 20.231 388.435,20.539 388.712,20.788 389.177 C 21.037 389.642,21.412 389.916,21.623 389.786 C 21.833 389.656,22.114 389.831,22.246 390.175 C 22.378 390.519,22.717 390.800,23.000 390.800 C 23.283 390.800,23.625 391.089,23.761 391.442 C 23.906 391.819,24.260 391.986,24.624 391.846 C 24.977 391.711,25.137 391.778,24.997 392.005 C 24.863 392.222,25.134 392.400,25.600 392.400 C 26.066 392.400,26.348 392.561,26.226 392.758 C 26.104 392.955,26.283 393.223,26.623 393.354 C 26.973 393.488,27.137 393.421,27.000 393.200 C 26.863 392.978,27.027 392.912,27.379 393.047 C 27.721 393.178,28.000 393.556,28.000 393.886 C 28.000 394.234,28.234 394.396,28.556 394.272 C 28.862 394.155,29.494 394.415,29.961 394.850 C 30.428 395.285,30.988 395.531,31.205 395.397 C 31.422 395.263,31.600 395.354,31.600 395.600 C 31.600 395.846,31.746 395.957,31.925 395.846 C 32.104 395.736,32.779 395.994,33.425 396.420 C 34.071 396.846,35.095 397.196,35.700 397.197 C 36.305 397.199,36.800 397.399,36.800 397.643 C 36.800 397.886,37.064 397.984,37.387 397.860 C 37.710 397.736,38.081 397.807,38.211 398.017 C 38.341 398.228,38.887 398.400,39.424 398.400 C 39.961 398.400,40.400 398.569,40.400 398.776 C 40.400 398.983,40.895 399.104,41.500 399.046 C 42.105 398.988,42.853 399.134,43.161 399.370 C 43.878 399.919,351.802 400.117,355.400 399.570 C 356.720 399.370,358.250 399.144,358.800 399.068 C 359.350 398.992,360.070 398.812,360.400 398.669 C 360.730 398.526,361.360 398.357,361.800 398.293 C 362.240 398.229,362.825 398.036,363.100 397.865 C 363.375 397.693,363.765 397.655,363.966 397.779 C 364.167 397.903,364.392 397.829,364.466 397.614 C 364.579 397.284,365.629 396.949,366.924 396.830 C 367.102 396.813,367.136 396.620,367.000 396.400 C 366.864 396.180,367.033 396.000,367.376 396.000 C 368.464 396.000,368.585 395.956,369.300 395.310 C 369.685 394.961,370.000 394.804,370.000 394.961 C 370.000 395.238,372.403 394.036,372.800 393.560 C 373.034 393.279,374.863 392.258,375.300 392.164 C 375.465 392.129,375.825 392.075,376.100 392.044 C 376.448 392.005,376.418 391.870,376.000 391.600 C 375.532 391.298,375.643 391.211,376.500 391.206 C 377.105 391.203,377.600 391.011,377.600 390.781 C 377.600 390.550,378.185 390.107,378.900 389.796 C 379.615 389.486,380.058 389.224,379.884 389.216 C 379.711 389.207,379.801 388.949,380.084 388.642 C 380.368 388.335,380.716 388.154,380.858 388.240 C 381.000 388.325,381.220 388.125,381.347 387.794 C 381.474 387.463,381.784 387.239,382.036 387.296 C 382.288 387.353,382.549 387.069,382.617 386.663 C 382.763 385.786,383.200 385.257,383.200 385.957 C 383.200 386.227,383.383 386.334,383.607 386.196 C 383.830 386.058,383.926 385.803,383.819 385.631 C 383.624 385.315,385.517 383.312,385.832 383.500 C 386.345 383.805,386.502 383.524,386.000 383.200 C 385.582 382.930,385.552 382.795,385.900 382.756 C 387.236 382.606,387.393 382.529,387.296 382.071 C 387.239 381.800,387.463 381.474,387.794 381.347 C 388.125 381.220,388.325 381.000,388.240 380.858 C 388.154 380.716,388.335 380.368,388.642 380.084 C 388.949 379.801,389.207 379.711,389.216 379.884 C 389.224 380.058,389.486 379.615,389.796 378.900 C 390.107 378.185,390.550 377.600,390.781 377.600 C 391.011 377.600,391.203 377.105,391.206 376.500 C 391.211 375.643,391.298 375.532,391.600 376.000 C 391.870 376.418,392.005 376.448,392.044 376.100 C 392.075 375.825,392.145 375.420,392.200 375.200 C 392.255 374.980,392.322 374.609,392.350 374.376 C 392.378 374.143,392.580 374.064,392.800 374.200 C 393.020 374.336,393.200 374.077,393.200 373.624 C 393.200 373.171,393.336 372.800,393.502 372.800 C 393.789 372.800,394.968 370.516,394.990 369.920 C 394.995 369.766,395.225 369.415,395.500 369.140 C 395.775 368.865,396.000 368.215,396.000 367.696 C 396.000 367.177,396.160 366.852,396.356 366.973 C 396.552 367.094,396.830 366.565,396.974 365.796 C 397.118 365.028,397.378 364.400,397.551 364.400 C 397.725 364.400,397.835 363.995,397.797 363.500 C 397.758 363.005,397.865 362.330,398.034 362.000 C 398.556 360.981,398.923 359.844,399.068 358.800 C 399.144 358.250,399.370 356.720,399.570 355.400 C 400.080 352.039,399.922 43.988,399.410 43.200 C 399.195 42.870,399.075 42.265,399.143 41.856 C 399.230 41.328,399.111 41.205,398.733 41.433 C 398.309 41.688,398.313 41.615,398.749 41.077 C 399.051 40.705,399.119 40.400,398.900 40.400 C 398.681 40.400,398.383 39.654,398.237 38.742 C 398.091 37.830,397.644 36.615,397.243 36.042 C 396.842 35.469,396.588 34.791,396.678 34.537 C 396.768 34.282,396.653 33.956,396.421 33.813 C 396.190 33.670,396.000 33.203,396.000 32.776 C 396.000 32.349,395.826 32.000,395.613 32.000 C 395.399 32.000,395.337 31.708,395.474 31.350 C 395.625 30.958,395.458 30.553,395.053 30.326 C 394.685 30.120,394.488 29.782,394.615 29.575 C 394.743 29.369,394.646 29.200,394.400 29.200 C 394.154 29.200,394.064 29.020,394.200 28.800 C 394.336 28.580,394.271 28.400,394.055 28.400 C 393.840 28.400,393.545 27.858,393.399 27.197 C 393.254 26.535,392.982 26.087,392.796 26.202 C 392.610 26.318,392.395 26.004,392.319 25.506 C 392.243 25.008,391.960 24.645,391.691 24.700 C 391.421 24.755,391.200 24.453,391.200 24.029 C 391.200 23.604,390.965 23.019,390.678 22.729 C 390.390 22.438,390.036 21.885,389.890 21.500 C 389.744 21.115,389.339 20.800,388.989 20.800 C 388.639 20.800,388.457 20.631,388.585 20.425 C 388.712 20.218,388.584 19.903,388.299 19.725 C 388.014 19.546,387.466 18.905,387.081 18.300 C 386.696 17.695,386.071 17.197,385.691 17.194 C 385.117 17.189,385.098 17.126,385.579 16.821 C 386.031 16.535,385.913 16.393,385.041 16.175 C 384.264 15.979,384.081 15.797,384.441 15.575 C 384.803 15.351,384.635 15.174,383.882 14.985 C 383.290 14.836,382.890 14.578,382.993 14.411 C 383.226 14.035,382.188 13.105,380.600 12.266 C 379.940 11.917,379.542 11.625,379.716 11.616 C 379.889 11.607,379.800 11.353,379.518 11.050 C 379.235 10.748,378.800 10.579,378.550 10.674 C 378.301 10.770,377.722 10.373,377.264 9.791 C 376.807 9.209,376.244 8.849,376.013 8.992 C 375.783 9.134,375.487 8.970,375.355 8.628 C 375.224 8.285,374.943 8.112,374.731 8.243 C 374.519 8.373,374.247 8.102,374.126 7.640 C 374.005 7.177,373.582 6.800,373.182 6.800 C 372.783 6.800,372.187 6.530,371.857 6.200 C 371.527 5.870,370.987 5.600,370.657 5.600 C 370.327 5.600,369.776 5.319,369.433 4.975 C 369.089 4.632,368.401 4.331,367.904 4.306 C 367.407 4.281,366.654 3.977,366.231 3.630 C 365.808 3.284,365.586 3.212,365.737 3.472 C 365.888 3.731,365.182 3.502,364.168 2.963 C 363.154 2.423,362.116 2.016,361.862 2.056 C 361.169 2.167,359.107 1.615,358.200 1.076 C 357.434 0.620,47.813 0.242,44.000 0.692 M192.562 141.139 C 192.677 141.325,190.313 141.595,187.309 141.739 C 184.305 141.883,181.746 142.153,181.623 142.339 C 181.500 142.525,180.590 142.795,179.600 142.938 C 177.044 143.309,176.650 143.393,176.200 143.660 C 175.980 143.791,174.900 144.028,173.800 144.186 C 172.700 144.345,171.578 144.657,171.307 144.880 C 171.036 145.103,170.136 145.377,169.307 145.487 C 168.478 145.598,167.708 145.835,167.596 146.013 C 167.484 146.191,166.854 146.460,166.196 146.612 C 164.501 147.002,162.000 148.099,162.000 148.452 C 162.000 148.617,161.190 148.872,160.200 149.021 C 159.210 149.169,158.400 149.450,158.400 149.645 C 158.400 149.840,158.143 150.000,157.829 150.000 C 157.514 150.000,157.019 150.238,156.729 150.529 C 156.438 150.819,156.020 151.112,155.800 151.178 C 154.437 151.592,153.805 151.936,153.836 152.246 C 153.910 152.963,153.496 154.000,153.135 154.000 C 152.558 154.000,153.041 156.985,153.806 158.154 C 154.256 158.840,154.855 159.202,155.546 159.206 C 156.194 159.210,156.413 159.331,156.115 159.520 C 155.848 159.690,156.609 159.829,157.805 159.829 C 159.208 159.829,160.050 159.646,160.178 159.314 C 160.286 159.031,160.651 158.800,160.987 158.800 C 161.324 158.800,161.600 158.623,161.600 158.408 C 161.600 158.192,162.089 157.893,162.687 157.743 C 163.284 157.593,164.114 157.152,164.530 156.764 C 164.947 156.376,165.538 156.155,165.844 156.272 C 166.150 156.390,166.400 156.286,166.400 156.043 C 166.400 155.799,166.856 155.600,167.413 155.600 C 167.969 155.600,168.517 155.360,168.630 155.067 C 168.742 154.773,169.052 154.511,169.317 154.483 C 170.681 154.340,172.246 153.811,172.725 153.332 C 173.022 153.035,173.438 152.900,173.650 153.031 C 173.862 153.162,174.465 152.988,174.989 152.644 C 175.514 152.300,176.721 151.897,177.672 151.749 C 178.622 151.600,179.504 151.320,179.632 151.126 C 179.759 150.933,180.749 150.667,181.832 150.536 C 182.914 150.406,183.890 150.165,184.000 150.001 C 184.220 149.673,186.853 149.186,188.359 149.195 C 188.886 149.198,189.527 149.026,189.784 148.813 C 190.276 148.405,192.926 148.063,196.481 147.947 C 197.647 147.909,198.732 147.681,198.894 147.439 C 199.084 147.155,199.192 147.211,199.200 147.600 C 199.210 148.093,199.274 148.103,199.559 147.653 C 200.017 146.930,226.336 146.849,226.781 147.569 C 226.962 147.862,228.394 147.979,230.929 147.908 C 233.058 147.849,234.800 147.912,234.800 148.049 C 234.800 148.187,236.097 148.325,237.682 148.358 C 239.267 148.391,240.677 148.602,240.817 148.827 C 240.956 149.052,242.134 149.208,243.435 149.173 C 244.736 149.139,245.935 149.153,246.100 149.205 C 246.875 149.450,247.326 149.503,249.024 149.550 C 250.027 149.578,250.754 149.751,250.640 149.935 C 250.526 150.119,251.146 150.298,252.017 150.332 C 253.211 150.379,253.600 150.241,253.600 149.770 C 253.600 149.316,253.369 149.219,252.750 149.416 C 252.178 149.597,251.989 149.541,252.174 149.243 C 252.351 148.956,252.016 148.800,251.224 148.800 C 250.551 148.800,250.000 148.612,250.000 148.382 C 250.000 148.153,249.775 148.009,249.500 148.063 C 248.519 148.256,244.800 147.566,244.800 147.191 C 244.800 146.981,244.395 146.807,243.900 146.804 C 242.135 146.795,239.600 146.310,239.600 145.983 C 239.600 145.800,239.285 145.645,238.900 145.639 C 237.086 145.612,234.000 145.063,234.000 144.768 C 234.000 144.587,233.462 144.506,232.805 144.589 C 232.148 144.672,231.507 144.574,231.382 144.370 C 231.256 144.167,230.342 144.000,229.350 144.000 C 228.359 144.000,227.208 143.818,226.794 143.597 C 226.379 143.375,224.636 143.077,222.920 142.936 C 221.204 142.794,219.665 142.481,219.500 142.239 C 219.294 141.937,219.077 141.987,218.806 142.400 C 218.506 142.858,218.411 142.872,218.406 142.461 C 218.402 142.064,217.876 141.959,216.400 142.061 C 215.300 142.138,214.400 142.088,214.400 141.951 C 214.400 141.814,212.645 141.669,210.500 141.630 C 208.355 141.590,206.429 141.387,206.220 141.179 C 206.011 140.970,205.021 140.828,204.020 140.863 L 202.200 140.926 204.200 141.200 L 206.200 141.474 204.324 141.537 C 203.292 141.572,202.336 141.420,202.200 141.200 C 202.057 140.969,199.921 140.800,197.153 140.800 C 194.513 140.800,192.447 140.952,192.562 141.139 M195.505 141.475 C 195.122 141.575,194.402 141.579,193.905 141.483 C 193.407 141.387,193.720 141.305,194.600 141.301 C 195.480 141.296,195.887 141.375,195.505 141.475 M46.300 210.298 C 43.935 210.369,40.065 210.369,37.700 210.298 C 35.335 210.228,37.270 210.170,42.000 210.170 C 46.730 210.170,48.665 210.228,46.300 210.298 " stroke="none" fill="#cc343c" fill-rule="evenodd"></path><path id="path1" d="M377.400 10.000 C 377.798 10.440,378.276 10.800,378.462 10.800 C 378.648 10.800,378.440 10.440,378.000 10.000 C 377.560 9.560,377.082 9.200,376.938 9.200 C 376.794 9.200,377.002 9.560,377.400 10.000 M157.626 129.369 C 157.239 129.835,157.302 129.898,157.977 129.722 C 158.430 129.604,158.800 129.348,158.800 129.153 C 158.800 128.614,158.154 128.732,157.626 129.369 M202.262 141.300 C 202.364 141.465,203.236 141.600,204.200 141.600 C 205.164 141.600,206.036 141.465,206.138 141.300 C 206.240 141.135,205.368 141.000,204.200 141.000 C 203.032 141.000,202.160 141.135,202.262 141.300 M193.905 141.483 C 194.402 141.579,195.122 141.575,195.505 141.475 C 195.887 141.375,195.480 141.296,194.600 141.301 C 193.720 141.305,193.407 141.387,193.905 141.483 M211.300 147.091 C 212.125 147.178,213.475 147.178,214.300 147.091 C 215.125 147.005,214.450 146.934,212.800 146.934 C 211.150 146.934,210.475 147.005,211.300 147.091 M318.407 162.671 C 318.415 163.049,319.911 164.495,320.800 164.986 C 321.130 165.169,321.040 164.965,320.600 164.533 C 320.160 164.102,319.485 163.433,319.100 163.046 C 318.715 162.659,318.403 162.491,318.407 162.671 M326.000 171.357 C 326.000 171.659,326.360 172.001,326.800 172.116 C 327.240 172.231,327.600 172.292,327.600 172.251 C 327.600 172.211,327.240 171.870,326.800 171.493 C 326.187 170.968,326.000 170.937,326.000 171.357 M20.600 190.000 C 20.448 190.247,21.129 190.400,22.376 190.400 C 23.489 190.400,24.400 190.220,24.400 190.000 C 24.400 189.780,23.601 189.600,22.624 189.600 C 21.647 189.600,20.736 189.780,20.600 190.000 M57.000 190.000 C 56.860 190.227,57.196 190.400,57.776 190.400 C 58.339 190.400,58.800 190.220,58.800 190.000 C 58.800 189.780,58.451 189.600,58.024 189.600 C 57.597 189.600,57.136 189.780,57.000 190.000 M37.700 210.298 C 40.065 210.369,43.935 210.369,46.300 210.298 C 48.665 210.228,46.730 210.170,42.000 210.170 C 37.270 210.170,35.335 210.228,37.700 210.298 M19.305 210.687 C 19.914 210.779,20.814 210.777,21.305 210.682 C 21.797 210.587,21.300 210.511,20.200 210.514 C 19.100 210.517,18.697 210.595,19.305 210.687 M4.520 211.054 C 4.935 211.469,6.800 211.560,6.800 211.165 C 6.800 210.964,6.230 210.800,5.533 210.800 C 4.837 210.800,4.381 210.914,4.520 211.054 M8.305 211.083 C 8.802 211.179,9.522 211.175,9.905 211.075 C 10.287 210.975,9.880 210.896,9.000 210.901 C 8.120 210.905,7.807 210.987,8.305 211.083 M80.581 213.894 C 81.231 213.990,82.006 214.368,82.303 214.734 C 82.776 215.316,82.789 215.286,82.408 214.500 C 82.078 213.820,81.658 213.615,80.686 213.660 L 79.400 213.720 80.581 213.894 M196.319 279.098 C 198.144 279.172,201.024 279.172,202.719 279.097 C 204.414 279.022,202.920 278.961,199.400 278.962 C 195.880 278.962,194.494 279.024,196.319 279.098 " stroke="none" fill="#d0343c" fill-rule="evenodd"></path><path id="path2" d="M377.400 10.000 C 377.798 10.440,378.276 10.800,378.462 10.800 C 378.648 10.800,378.440 10.440,378.000 10.000 C 377.560 9.560,377.082 9.200,376.938 9.200 C 376.794 9.200,377.002 9.560,377.400 10.000 M157.626 129.369 C 157.239 129.835,157.302 129.898,157.977 129.722 C 158.430 129.604,158.800 129.348,158.800 129.153 C 158.800 128.614,158.154 128.732,157.626 129.369 M202.262 141.300 C 202.364 141.465,203.236 141.600,204.200 141.600 C 205.164 141.600,206.036 141.465,206.138 141.300 C 206.240 141.135,205.368 141.000,204.200 141.000 C 203.032 141.000,202.160 141.135,202.262 141.300 M193.905 141.483 C 194.402 141.579,195.122 141.575,195.505 141.475 C 195.887 141.375,195.480 141.296,194.600 141.301 C 193.720 141.305,193.407 141.387,193.905 141.483 M211.300 147.091 C 212.125 147.178,213.475 147.178,214.300 147.091 C 215.125 147.005,214.450 146.934,212.800 146.934 C 211.150 146.934,210.475 147.005,211.300 147.091 M318.407 162.671 C 318.415 163.049,319.911 164.495,320.800 164.986 C 321.130 165.169,321.040 164.965,320.600 164.533 C 320.160 164.102,319.485 163.433,319.100 163.046 C 318.715 162.659,318.403 162.491,318.407 162.671 M326.000 171.357 C 326.000 171.659,326.360 172.001,326.800 172.116 C 327.240 172.231,327.600 172.292,327.600 172.251 C 327.600 172.211,327.240 171.870,326.800 171.493 C 326.187 170.968,326.000 170.937,326.000 171.357 M20.600 190.000 C 20.448 190.247,21.129 190.400,22.376 190.400 C 23.489 190.400,24.400 190.220,24.400 190.000 C 24.400 189.780,23.601 189.600,22.624 189.600 C 21.647 189.600,20.736 189.780,20.600 190.000 M57.000 190.000 C 56.860 190.227,57.196 190.400,57.776 190.400 C 58.339 190.400,58.800 190.220,58.800 190.000 C 58.800 189.780,58.451 189.600,58.024 189.600 C 57.597 189.600,57.136 189.780,57.000 190.000 M37.700 210.298 C 40.065 210.369,43.935 210.369,46.300 210.298 C 48.665 210.228,46.730 210.170,42.000 210.170 C 37.270 210.170,35.335 210.228,37.700 210.298 M19.305 210.687 C 19.914 210.779,20.814 210.777,21.305 210.682 C 21.797 210.587,21.300 210.511,20.200 210.514 C 19.100 210.517,18.697 210.595,19.305 210.687 M4.520 211.054 C 4.935 211.469,6.800 211.560,6.800 211.165 C 6.800 210.964,6.230 210.800,5.533 210.800 C 4.837 210.800,4.381 210.914,4.520 211.054 M8.305 211.083 C 8.802 211.179,9.522 211.175,9.905 211.075 C 10.287 210.975,9.880 210.896,9.000 210.901 C 8.120 210.905,7.807 210.987,8.305 211.083 M80.581 213.894 C 81.231 213.990,82.006 214.368,82.303 214.734 C 82.776 215.316,82.789 215.286,82.408 214.500 C 82.078 213.820,81.658 213.615,80.686 213.660 L 79.400 213.720 80.581 213.894 M196.319 279.098 C 198.144 279.172,201.024 279.172,202.719 279.097 C 204.414 279.022,202.920 278.961,199.400 278.962 C 195.880 278.962,194.494 279.024,196.319 279.098 " stroke="none" fill="#d0343c" fill-rule="evenodd"></path><path id="path3" d="M377.400 10.000 C 377.798 10.440,378.276 10.800,378.462 10.800 C 378.648 10.800,378.440 10.440,378.000 10.000 C 377.560 9.560,377.082 9.200,376.938 9.200 C 376.794 9.200,377.002 9.560,377.400 10.000 M157.626 129.369 C 157.239 129.835,157.302 129.898,157.977 129.722 C 158.430 129.604,158.800 129.348,158.800 129.153 C 158.800 128.614,158.154 128.732,157.626 129.369 M202.262 141.300 C 202.364 141.465,203.236 141.600,204.200 141.600 C 205.164 141.600,206.036 141.465,206.138 141.300 C 206.240 141.135,205.368 141.000,204.200 141.000 C 203.032 141.000,202.160 141.135,202.262 141.300 M193.905 141.483 C 194.402 141.579,195.122 141.575,195.505 141.475 C 195.887 141.375,195.480 141.296,194.600 141.301 C 193.720 141.305,193.407 141.387,193.905 141.483 M211.300 147.091 C 212.125 147.178,213.475 147.178,214.300 147.091 C 215.125 147.005,214.450 146.934,212.800 146.934 C 211.150 146.934,210.475 147.005,211.300 147.091 M318.407 162.671 C 318.415 163.049,319.911 164.495,320.800 164.986 C 321.130 165.169,321.040 164.965,320.600 164.533 C 320.160 164.102,319.485 163.433,319.100 163.046 C 318.715 162.659,318.403 162.491,318.407 162.671 M326.000 171.357 C 326.000 171.659,326.360 172.001,326.800 172.116 C 327.240 172.231,327.600 172.292,327.600 172.251 C 327.600 172.211,327.240 171.870,326.800 171.493 C 326.187 170.968,326.000 170.937,326.000 171.357 M20.600 190.000 C 20.448 190.247,21.129 190.400,22.376 190.400 C 23.489 190.400,24.400 190.220,24.400 190.000 C 24.400 189.780,23.601 189.600,22.624 189.600 C 21.647 189.600,20.736 189.780,20.600 190.000 M57.000 190.000 C 56.860 190.227,57.196 190.400,57.776 190.400 C 58.339 190.400,58.800 190.220,58.800 190.000 C 58.800 189.780,58.451 189.600,58.024 189.600 C 57.597 189.600,57.136 189.780,57.000 190.000 M37.700 210.298 C 40.065 210.369,43.935 210.369,46.300 210.298 C 48.665 210.228,46.730 210.170,42.000 210.170 C 37.270 210.170,35.335 210.228,37.700 210.298 M19.305 210.687 C 19.914 210.779,20.814 210.777,21.305 210.682 C 21.797 210.587,21.300 210.511,20.200 210.514 C 19.100 210.517,18.697 210.595,19.305 210.687 M4.520 211.054 C 4.935 211.469,6.800 211.560,6.800 211.165 C 6.800 210.964,6.230 210.800,5.533 210.800 C 4.837 210.800,4.381 210.914,4.520 211.054 M8.305 211.083 C 8.802 211.179,9.522 211.175,9.905 211.075 C 10.287 210.975,9.880 210.896,9.000 210.901 C 8.120 210.905,7.807 210.987,8.305 211.083 M80.581 213.894 C 81.231 213.990,82.006 214.368,82.303 214.734 C 82.776 215.316,82.789 215.286,82.408 214.500 C 82.078 213.820,81.658 213.615,80.686 213.660 L 79.400 213.720 80.581 213.894 M196.319 279.098 C 198.144 279.172,201.024 279.172,202.719 279.097 C 204.414 279.022,202.920 278.961,199.400 278.962 C 195.880 278.962,194.494 279.024,196.319 279.098 " stroke="none" fill="#d0343c" fill-rule="evenodd"></path><path id="path4" d="M377.400 10.000 C 377.798 10.440,378.276 10.800,378.462 10.800 C 378.648 10.800,378.440 10.440,378.000 10.000 C 377.560 9.560,377.082 9.200,376.938 9.200 C 376.794 9.200,377.002 9.560,377.400 10.000 M157.626 129.369 C 157.239 129.835,157.302 129.898,157.977 129.722 C 158.430 129.604,158.800 129.348,158.800 129.153 C 158.800 128.614,158.154 128.732,157.626 129.369 M202.262 141.300 C 202.364 141.465,203.236 141.600,204.200 141.600 C 205.164 141.600,206.036 141.465,206.138 141.300 C 206.240 141.135,205.368 141.000,204.200 141.000 C 203.032 141.000,202.160 141.135,202.262 141.300 M193.905 141.483 C 194.402 141.579,195.122 141.575,195.505 141.475 C 195.887 141.375,195.480 141.296,194.600 141.301 C 193.720 141.305,193.407 141.387,193.905 141.483 M211.300 147.091 C 212.125 147.178,213.475 147.178,214.300 147.091 C 215.125 147.005,214.450 146.934,212.800 146.934 C 211.150 146.934,210.475 147.005,211.300 147.091 M318.407 162.671 C 318.415 163.049,319.911 164.495,320.800 164.986 C 321.130 165.169,321.040 164.965,320.600 164.533 C 320.160 164.102,319.485 163.433,319.100 163.046 C 318.715 162.659,318.403 162.491,318.407 162.671 M326.000 171.357 C 326.000 171.659,326.360 172.001,326.800 172.116 C 327.240 172.231,327.600 172.292,327.600 172.251 C 327.600 172.211,327.240 171.870,326.800 171.493 C 326.187 170.968,326.000 170.937,326.000 171.357 M20.600 190.000 C 20.448 190.247,21.129 190.400,22.376 190.400 C 23.489 190.400,24.400 190.220,24.400 190.000 C 24.400 189.780,23.601 189.600,22.624 189.600 C 21.647 189.600,20.736 189.780,20.600 190.000 M57.000 190.000 C 56.860 190.227,57.196 190.400,57.776 190.400 C 58.339 190.400,58.800 190.220,58.800 190.000 C 58.800 189.780,58.451 189.600,58.024 189.600 C 57.597 189.600,57.136 189.780,57.000 190.000 M37.700 210.298 C 40.065 210.369,43.935 210.369,46.300 210.298 C 48.665 210.228,46.730 210.170,42.000 210.170 C 37.270 210.170,35.335 210.228,37.700 210.298 M19.305 210.687 C 19.914 210.779,20.814 210.777,21.305 210.682 C 21.797 210.587,21.300 210.511,20.200 210.514 C 19.100 210.517,18.697 210.595,19.305 210.687 M4.520 211.054 C 4.935 211.469,6.800 211.560,6.800 211.165 C 6.800 210.964,6.230 210.800,5.533 210.800 C 4.837 210.800,4.381 210.914,4.520 211.054 M8.305 211.083 C 8.802 211.179,9.522 211.175,9.905 211.075 C 10.287 210.975,9.880 210.896,9.000 210.901 C 8.120 210.905,7.807 210.987,8.305 211.083 M80.581 213.894 C 81.231 213.990,82.006 214.368,82.303 214.734 C 82.776 215.316,82.789 215.286,82.408 214.500 C 82.078 213.820,81.658 213.615,80.686 213.660 L 79.400 213.720 80.581 213.894 M196.319 279.098 C 198.144 279.172,201.024 279.172,202.719 279.097 C 204.414 279.022,202.920 278.961,199.400 278.962 C 195.880 278.962,194.494 279.024,196.319 279.098 " stroke="none" fill="#d0343c" fill-rule="evenodd"></path></g></svg>