<svg id="svg" version="1.1" xmlns="http://www.w3.org/2000/svg" xmlns:xlink="http://www.w3.org/1999/xlink" width="400" height="400" viewBox="0, 0, 400,400"><g id="svgg"><path id="path0" d="M291.667 90.548 C 290.429 91.764,286.154 95.943,282.167 99.834 C 278.179 103.725,273.135 108.673,270.958 110.829 C 268.780 112.986,266.826 114.816,266.615 114.896 C 265.828 115.195,256.252 112.155,248.833 109.251 C 233.002 103.053,225.753 101.496,208.750 100.640 C 182.992 99.343,163.924 102.185,143.800 110.318 C 139.491 112.059,133.616 114.828,130.083 116.783 C 129.258 117.239,127.983 117.938,127.250 118.335 C 109.965 127.695,85.828 147.906,73.808 163.083 C 65.515 173.555,54.178 190.872,52.342 195.871 C 50.546 200.761,51.321 204.489,55.533 211.221 C 56.557 212.860,63.594 223.405,65.227 225.750 C 77.685 243.640,96.225 262.330,108.292 269.164 C 110.046 270.158,109.999 270.060,109.330 271.315 C 107.893 274.011,104.600 277.551,99.000 282.421 C 92.975 287.660,90.127 290.802,88.464 294.043 C 87.671 295.587,87.674 295.610,88.783 296.498 C 89.297 296.909,91.149 298.747,92.899 300.581 C 97.693 305.609,100.612 308.479,102.000 309.531 C 103.533 310.692,105.176 311.692,105.450 311.630 C 105.562 311.604,109.388 307.871,113.952 303.333 C 146.036 271.434,190.390 227.297,205.250 212.481 C 214.967 202.794,223.217 194.590,223.583 194.252 C 223.950 193.913,232.351 185.562,242.252 175.693 C 252.154 165.824,264.154 153.928,268.919 149.257 C 297.216 121.520,311.500 106.687,311.500 105.041 C 311.500 104.548,304.828 97.328,301.890 94.641 C 298.597 91.630,294.502 88.330,294.064 88.335 C 293.983 88.336,292.904 89.332,291.667 90.548 M208.917 138.243 C 218.292 139.491,226.788 142.975,231.625 147.553 C 232.301 148.193,232.311 148.101,231.417 149.408 C 228.286 153.981,221.507 160.990,217.833 163.452 C 214.812 165.478,214.360 165.483,204.250 163.608 C 193.973 161.703,188.546 162.705,179.405 168.197 C 165.068 176.810,160.361 189.482,163.750 210.333 C 164.251 213.411,164.665 216.254,164.666 216.614 C 164.667 216.965,163.088 218.510,151.762 229.243 C 150.211 230.714,148.825 232.048,148.683 232.208 C 147.401 233.661,142.312 225.810,140.339 219.333 C 140.129 218.646,139.858 217.772,139.736 217.391 C 137.650 210.872,137.255 198.740,138.848 190.083 C 144.271 160.616,167.102 140.486,198.000 137.930 C 199.774 137.784,207.028 137.991,208.917 138.243 M306.640 145.543 C 302.572 148.255,295.305 155.283,280.834 170.500 C 273.105 178.628,266.230 185.540,263.595 187.833 C 262.594 188.704,261.569 189.604,261.317 189.833 L 260.859 190.250 261.013 192.000 C 263.629 221.770,248.248 247.806,222.250 257.615 C 213.759 260.819,205.390 262.149,195.083 261.932 C 188.526 261.794,189.556 261.264,183.500 267.897 C 182.171 269.353,179.358 272.178,177.250 274.176 C 173.614 277.620,165.633 285.696,162.786 288.811 C 161.333 290.401,160.275 291.822,159.613 293.071 L 159.178 293.892 159.881 294.207 C 163.490 295.828,169.276 297.178,177.500 298.320 C 185.865 299.482,204.937 300.051,213.956 299.408 C 239.190 297.610,261.847 289.708,283.657 275.097 C 297.834 265.600,312.292 252.355,323.506 238.594 C 330.551 229.948,335.646 222.901,341.286 214.000 C 348.700 202.300,349.333 200.669,347.831 197.132 C 342.182 183.827,322.209 157.149,310.083 146.712 C 307.662 144.628,307.895 144.707,306.640 145.543 " stroke="none" fill="#04fc04" fill-rule="evenodd"></path><path id="path1" d="M191.667 0.097 C 191.438 0.130,189.150 0.275,186.583 0.418 C 184.017 0.562,181.692 0.715,181.417 0.758 C 181.142 0.801,180.054 0.909,179.000 1.000 C 177.946 1.090,176.633 1.240,176.083 1.333 C 175.533 1.426,174.183 1.613,173.083 1.749 C 170.686 2.045,168.608 2.357,165.917 2.827 C 164.817 3.019,163.467 3.248,162.917 3.337 C 162.367 3.426,161.654 3.568,161.333 3.653 C 161.012 3.738,159.925 3.970,158.917 4.167 C 156.406 4.660,151.627 5.799,148.000 6.770 C 147.496 6.905,146.783 7.090,146.417 7.182 C 145.796 7.338,144.526 7.713,141.000 8.781 C 137.930 9.711,130.760 12.147,129.583 12.659 C 129.217 12.818,128.429 13.122,127.833 13.335 C 127.237 13.547,126.675 13.775,126.583 13.840 C 126.492 13.906,126.229 14.014,126.000 14.081 C 125.771 14.149,125.358 14.300,125.083 14.418 C 124.808 14.536,123.983 14.875,123.250 15.171 C 122.517 15.468,121.504 15.892,121.000 16.115 C 119.985 16.563,119.960 16.574,118.113 17.410 C 117.396 17.734,116.769 18.000,116.721 18.000 C 116.497 18.000,106.820 22.859,104.512 24.131 C 95.852 28.902,88.559 33.572,80.657 39.405 C 79.176 40.499,77.878 41.474,77.774 41.572 C 77.669 41.670,77.283 41.971,76.917 42.241 C 76.550 42.511,76.212 42.778,76.167 42.833 C 76.121 42.889,75.333 43.524,74.417 44.246 C 73.057 45.316,69.770 48.090,67.667 49.943 C 67.438 50.145,67.069 50.466,66.848 50.656 C 64.023 53.091,55.338 61.678,52.340 65.000 C 50.295 67.266,49.400 68.270,48.833 68.935 C 48.604 69.204,47.773 70.172,46.986 71.087 C 45.659 72.630,43.543 75.226,42.454 76.647 C 42.200 76.978,41.891 77.371,41.767 77.519 C 41.643 77.667,41.101 78.380,40.563 79.102 C 40.024 79.825,39.527 80.491,39.459 80.583 C 36.651 84.341,34.121 88.016,30.912 93.000 C 28.950 96.047,25.333 102.192,25.333 102.479 C 25.333 102.582,25.258 102.667,25.167 102.667 C 25.075 102.667,25.000 102.744,25.000 102.839 C 25.000 102.934,24.650 103.628,24.223 104.381 C 23.261 106.074,19.669 113.161,18.630 115.417 C 17.318 118.262,16.833 119.339,16.833 119.409 C 16.833 119.446,16.604 119.988,16.325 120.613 C 16.045 121.239,15.660 122.125,15.469 122.583 C 15.277 123.042,15.024 123.642,14.906 123.917 C 14.397 125.103,14.196 125.609,14.081 126.000 C 14.014 126.229,13.906 126.492,13.842 126.583 C 13.777 126.675,13.589 127.125,13.425 127.583 C 13.014 128.728,12.339 130.513,12.166 130.917 C 11.977 131.356,10.034 137.015,9.705 138.083 C 9.563 138.542,9.390 139.067,9.320 139.250 C 9.249 139.433,8.994 140.258,8.752 141.083 C 8.510 141.908,8.245 142.771,8.162 143.000 C 8.030 143.366,7.810 144.154,6.731 148.124 C 6.246 149.910,6.017 150.819,5.338 153.667 C 4.531 157.046,4.194 158.628,3.421 162.667 C 2.901 165.386,2.189 169.823,1.838 172.526 C 1.644 174.024,1.414 175.700,1.326 176.250 C 1.239 176.800,1.092 178.177,0.999 179.310 C 0.906 180.444,0.799 181.420,0.762 181.480 C -0.090 182.859,-0.087 212.944,0.766 218.417 C 0.809 218.692,0.912 219.704,0.997 220.667 C 1.376 225.012,2.733 233.933,3.925 239.917 C 4.435 242.482,4.658 243.504,5.141 245.500 C 5.418 246.646,5.804 248.258,5.999 249.083 C 6.193 249.908,6.421 250.808,6.504 251.083 C 6.588 251.358,6.767 251.996,6.902 252.500 C 7.150 253.420,8.478 258.024,8.946 259.583 C 9.084 260.042,9.259 260.567,9.336 260.750 C 9.412 260.933,9.700 261.796,9.976 262.667 C 10.559 264.505,11.415 266.984,12.163 269.000 C 12.452 269.779,12.826 270.792,12.993 271.250 C 13.344 272.208,14.240 274.476,14.606 275.333 C 14.931 276.091,14.879 275.972,16.757 280.333 C 18.902 285.315,22.877 293.358,24.844 296.696 C 25.205 297.308,25.500 297.841,25.500 297.880 C 25.500 298.048,28.287 302.768,29.753 305.083 C 30.159 305.725,30.544 306.357,30.608 306.488 C 30.673 306.619,30.974 307.107,31.277 307.572 C 33.472 310.932,35.733 314.279,36.020 314.594 C 36.192 314.783,36.333 314.993,36.333 315.059 C 36.333 315.126,36.411 315.271,36.505 315.382 C 36.656 315.559,37.450 316.633,38.300 317.809 C 39.347 319.258,42.577 323.490,43.710 324.896 C 45.400 326.995,48.306 330.493,48.655 330.850 C 48.799 330.997,49.329 331.597,49.833 332.184 C 53.979 337.010,62.809 345.842,67.747 350.102 C 68.478 350.734,69.195 351.363,69.340 351.500 C 69.730 351.871,71.477 353.355,72.085 353.833 C 72.377 354.063,73.771 355.177,75.183 356.311 C 78.448 358.932,78.448 358.932,80.333 360.317 C 81.204 360.957,82.248 361.729,82.653 362.032 C 83.651 362.780,85.177 363.854,86.583 364.799 C 87.225 365.231,87.825 365.644,87.916 365.717 C 88.258 365.991,92.524 368.780,93.830 369.583 C 94.575 370.042,95.612 370.696,96.134 371.037 C 96.656 371.378,97.177 371.659,97.292 371.662 C 97.406 371.665,97.500 371.742,97.500 371.833 C 97.500 371.925,97.574 372.000,97.663 372.000 C 97.753 372.000,98.222 372.252,98.705 372.559 C 99.563 373.105,101.008 373.911,105.750 376.490 C 110.873 379.276,116.842 382.095,124.000 385.110 C 124.321 385.245,124.733 385.424,124.917 385.507 C 125.371 385.713,130.216 387.553,131.250 387.912 C 131.708 388.072,132.233 388.266,132.417 388.343 C 132.600 388.421,133.350 388.681,134.083 388.920 C 134.817 389.158,135.567 389.416,135.750 389.493 C 136.303 389.723,137.467 390.104,139.833 390.829 C 141.071 391.209,142.458 391.637,142.917 391.782 C 143.375 391.926,143.975 392.102,144.250 392.172 C 144.525 392.242,145.405 392.494,146.207 392.732 C 147.008 392.970,147.983 393.245,148.373 393.343 C 151.104 394.029,153.678 394.649,156.917 395.402 C 158.898 395.863,163.109 396.671,166.167 397.177 C 170.153 397.836,171.268 398.006,174.333 398.415 C 177.263 398.807,178.441 398.929,183.083 399.320 C 188.629 399.788,190.313 399.862,197.250 399.947 C 204.330 400.034,207.398 399.957,214.917 399.505 C 216.383 399.417,218.146 399.268,218.833 399.175 C 219.521 399.082,220.983 398.927,222.083 398.830 C 224.966 398.577,233.104 397.369,237.250 396.579 C 237.983 396.439,238.996 396.249,239.500 396.157 C 241.280 395.833,248.000 394.275,251.643 393.343 C 252.043 393.240,253.393 392.855,254.643 392.485 C 255.894 392.116,257.704 391.590,258.667 391.315 C 259.629 391.041,260.567 390.750,260.750 390.669 C 260.933 390.588,261.458 390.413,261.917 390.280 C 262.881 390.000,268.292 388.107,270.250 387.364 C 270.983 387.086,272.296 386.589,273.167 386.259 C 274.037 385.929,275.012 385.543,275.333 385.401 C 275.654 385.260,276.067 385.078,276.250 384.997 C 276.433 384.916,277.333 384.539,278.250 384.158 C 279.167 383.777,280.391 383.249,280.970 382.983 C 281.549 382.717,282.053 382.500,282.089 382.500 C 282.274 382.500,291.773 377.867,293.000 377.178 C 294.009 376.611,298.039 374.395,299.083 373.833 C 300.673 372.976,303.114 371.524,304.879 370.385 C 305.775 369.806,306.547 369.333,306.594 369.333 C 306.641 369.333,306.883 369.192,307.132 369.018 C 307.380 368.845,308.971 367.783,310.667 366.658 C 312.362 365.534,314.050 364.399,314.417 364.138 C 316.522 362.635,321.279 359.157,321.832 358.716 C 321.970 358.606,323.133 357.681,324.417 356.660 C 327.179 354.463,327.761 353.984,329.670 352.333 C 330.465 351.646,331.595 350.671,332.181 350.167 C 337.141 345.900,345.849 337.184,350.167 332.164 C 350.671 331.578,351.388 330.758,351.760 330.341 C 353.183 328.747,357.032 324.038,358.500 322.094 C 359.637 320.589,361.386 318.238,361.667 317.835 C 361.804 317.638,362.042 317.313,362.196 317.114 C 363.175 315.838,363.667 315.149,363.667 315.051 C 363.667 314.989,363.807 314.783,363.979 314.594 C 364.376 314.157,368.746 307.611,369.413 306.455 C 369.507 306.293,370.156 305.243,370.856 304.122 C 372.119 302.098,374.500 298.045,374.500 297.918 C 374.500 297.881,374.754 297.416,375.064 296.884 C 376.880 293.771,380.882 285.763,382.732 281.541 C 383.425 279.960,384.144 278.333,384.329 277.926 C 384.515 277.518,384.667 277.139,384.667 277.083 C 384.667 277.027,384.808 276.667,384.982 276.283 C 385.489 275.156,387.392 270.253,388.164 268.083 C 388.555 266.983,389.079 265.521,389.327 264.833 C 389.575 264.146,389.947 263.021,390.154 262.333 C 390.362 261.646,390.594 260.933,390.671 260.750 C 390.747 260.567,390.972 259.854,391.170 259.167 C 391.368 258.479,391.782 257.092,392.090 256.083 C 392.959 253.234,393.710 250.346,394.821 245.583 C 395.206 243.933,395.626 242.133,395.755 241.583 C 395.883 241.033,396.060 240.171,396.148 239.667 C 396.236 239.162,396.422 238.112,396.563 237.333 C 397.431 232.512,397.700 230.888,398.148 227.750 C 398.423 225.825,398.730 223.313,398.832 222.167 C 398.933 221.021,399.089 219.596,399.178 219.000 C 399.266 218.404,399.415 216.642,399.508 215.083 C 399.600 213.525,399.729 211.762,399.793 211.167 C 399.949 209.723,399.942 189.457,399.785 188.500 C 399.718 188.088,399.588 186.475,399.497 184.917 C 399.405 183.358,399.257 181.558,399.167 180.917 C 399.077 180.275,398.925 178.850,398.829 177.750 C 398.536 174.389,397.085 164.922,396.250 160.917 C 396.193 160.642,395.995 159.667,395.811 158.750 C 395.495 157.176,394.564 153.203,393.819 150.250 C 393.634 149.517,393.371 148.467,393.236 147.917 C 392.979 146.876,392.076 143.793,391.064 140.500 C 390.415 138.388,388.070 131.445,387.828 130.917 C 387.743 130.733,387.341 129.683,386.934 128.583 C 386.203 126.609,385.796 125.567,385.500 124.917 C 385.417 124.733,385.154 124.096,384.917 123.500 C 384.679 122.904,384.418 122.267,384.335 122.083 C 384.252 121.900,384.022 121.375,383.823 120.917 C 383.366 119.863,382.997 119.034,382.377 117.667 C 382.107 117.071,381.632 116.021,381.321 115.333 C 381.011 114.646,379.829 112.246,378.694 110.000 C 375.870 104.411,375.997 104.655,375.587 104.001 C 375.386 103.680,374.898 102.817,374.503 102.083 C 373.758 100.700,370.196 94.710,369.251 93.250 C 367.743 90.923,364.759 86.436,363.985 85.333 C 363.502 84.646,362.949 83.858,362.757 83.583 C 362.465 83.166,358.950 78.487,357.500 76.586 C 355.203 73.574,352.063 69.878,347.590 64.922 C 344.396 61.383,336.258 53.375,332.833 50.401 C 332.421 50.043,332.008 49.670,331.917 49.572 C 331.825 49.474,331.226 48.949,330.585 48.405 C 329.944 47.861,329.324 47.326,329.206 47.216 C 329.088 47.106,328.637 46.731,328.204 46.383 C 327.771 46.035,327.379 45.710,327.333 45.661 C 327.176 45.494,323.747 42.749,323.082 42.259 C 322.716 41.989,322.379 41.725,322.333 41.673 C 322.268 41.599,320.554 40.297,319.419 39.459 C 319.326 39.390,318.721 38.940,318.075 38.459 C 317.429 37.977,316.679 37.427,316.408 37.237 C 314.537 35.917,313.803 35.410,311.538 33.881 C 303.135 28.206,291.153 21.488,282.917 17.833 C 282.733 17.751,282.208 17.523,281.750 17.325 C 280.441 16.759,279.996 16.563,278.780 16.013 C 278.155 15.731,277.602 15.500,277.551 15.500 C 277.500 15.500,276.999 15.303,276.438 15.062 C 274.693 14.314,274.429 14.207,274.000 14.081 C 273.771 14.014,273.508 13.905,273.417 13.838 C 273.325 13.771,272.650 13.505,271.917 13.247 C 271.183 12.988,270.508 12.723,270.417 12.657 C 270.228 12.521,265.064 10.726,262.667 9.962 C 261.796 9.685,260.933 9.392,260.750 9.310 C 260.567 9.229,260.042 9.060,259.583 8.935 C 259.125 8.810,257.962 8.468,257.000 8.174 C 252.744 6.876,245.152 4.965,241.083 4.167 C 240.075 3.970,238.987 3.738,238.667 3.653 C 238.346 3.568,237.596 3.420,237.000 3.324 C 236.404 3.228,235.054 3.002,234.000 2.820 C 230.604 2.237,229.126 2.011,227.000 1.751 C 225.854 1.611,224.429 1.420,223.833 1.327 C 223.237 1.234,221.925 1.085,220.917 0.997 C 219.908 0.908,218.830 0.798,218.521 0.752 C 215.478 0.300,193.895 -0.227,191.667 0.097 M295.965 89.542 C 300.584 92.998,310.255 102.525,311.511 104.855 C 312.135 106.014,298.421 120.511,275.417 143.010 C 273.217 145.162,269.467 148.828,267.083 151.157 C 263.035 155.113,256.897 161.214,212.749 205.160 C 189.468 228.334,165.172 252.511,143.833 273.738 C 133.979 283.540,121.331 296.132,115.726 301.721 L 105.534 311.881 104.432 311.265 C 102.400 310.129,100.605 308.617,97.500 305.427 C 95.804 303.684,92.918 300.757,91.087 298.921 C 89.147 296.976,87.780 295.479,87.812 295.333 C 87.922 294.833,89.207 292.406,89.795 291.589 C 91.656 289.003,93.503 287.144,99.167 282.159 C 105.268 276.788,107.988 273.794,109.556 270.726 L 109.824 270.202 108.203 269.241 C 93.652 260.609,76.058 242.129,61.041 219.703 C 48.551 201.051,48.521 200.624,58.534 184.667 C 68.551 168.703,77.023 158.063,87.583 148.183 C 109.890 127.314,129.513 114.842,152.250 107.084 C 161.400 103.962,171.319 101.918,183.167 100.713 C 187.407 100.282,206.372 100.286,212.250 100.719 C 226.928 101.801,233.592 103.263,246.280 108.183 C 254.134 111.228,266.265 115.274,266.599 114.960 C 266.623 114.936,268.055 113.528,269.780 111.831 C 271.505 110.134,276.217 105.524,280.250 101.587 C 284.283 97.650,289.008 93.020,290.750 91.299 C 292.492 89.577,293.964 88.168,294.022 88.168 C 294.080 88.167,294.954 88.785,295.965 89.542 M197.083 138.102 C 163.348 141.486,140.180 165.067,137.989 198.250 C 137.105 211.621,141.474 226.969,147.614 232.065 L 148.195 232.547 149.472 231.312 C 151.161 229.679,153.589 227.368,157.245 223.913 C 158.892 222.357,161.217 220.149,162.412 219.007 L 164.583 216.930 164.533 216.174 C 164.505 215.757,164.297 214.292,164.070 212.917 C 162.875 205.675,162.500 202.192,162.500 198.347 C 162.500 182.827,170.122 171.672,185.222 165.092 C 191.691 162.273,195.713 161.910,203.789 163.420 C 213.352 165.207,214.071 165.273,215.743 164.515 C 219.634 162.751,227.489 155.092,231.372 149.276 L 232.134 148.136 231.525 147.603 C 229.960 146.231,229.018 145.547,226.693 144.095 C 222.589 141.531,216.570 139.509,210.000 138.487 C 207.837 138.151,199.172 137.892,197.083 138.102 M309.415 146.036 C 320.206 154.721,336.672 176.080,346.263 193.833 C 349.714 200.223,349.687 200.427,344.118 209.583 C 310.038 265.617,263.413 297.208,211.167 299.663 C 198.425 300.262,181.401 299.290,170.739 297.356 C 166.484 296.584,160.008 294.688,159.275 293.999 C 158.786 293.541,161.116 290.378,164.491 286.917 C 165.922 285.450,167.802 283.503,168.671 282.591 C 170.958 280.188,174.165 276.987,179.000 272.279 C 181.338 270.004,183.662 267.675,184.167 267.104 C 189.323 261.264,188.032 261.809,196.818 261.759 C 205.883 261.706,209.836 261.231,216.500 259.393 C 245.421 251.415,263.024 225.345,261.003 193.486 L 260.789 190.106 261.436 189.595 C 264.492 187.181,270.755 180.961,281.667 169.502 C 296.062 154.386,302.337 148.325,306.406 145.606 C 307.850 144.641,307.644 144.611,309.415 146.036 " stroke="none" fill="#c3fc93" fill-rule="evenodd"></path><path id="path2" d="M292.073 90.042 L 291.583 90.583 292.125 90.094 C 292.630 89.638,292.743 89.500,292.615 89.500 C 292.586 89.500,292.342 89.744,292.073 90.042 M277.158 104.625 L 276.583 105.250 277.208 104.676 C 277.552 104.360,277.833 104.078,277.833 104.051 C 277.833 103.923,277.692 104.043,277.158 104.625 M269.324 112.292 L 268.750 112.917 269.375 112.342 C 269.719 112.026,270.000 111.745,270.000 111.717 C 270.000 111.590,269.859 111.710,269.324 112.292 M282.991 135.458 L 282.417 136.083 283.042 135.509 C 283.623 134.974,283.743 134.833,283.616 134.833 C 283.588 134.833,283.307 135.115,282.991 135.458 M315.500 151.917 C 316.091 152.512,316.611 153.000,316.657 153.000 C 316.703 153.000,316.257 152.512,315.667 151.917 C 315.076 151.321,314.555 150.833,314.510 150.833 C 314.464 150.833,314.909 151.321,315.500 151.917 M290.906 159.875 L 290.417 160.417 290.958 159.927 C 291.463 159.471,291.577 159.333,291.448 159.333 C 291.419 159.333,291.175 159.577,290.906 159.875 M244.663 173.292 L 243.250 174.750 244.708 173.337 C 246.063 172.025,246.243 171.833,246.121 171.833 C 246.096 171.833,245.440 172.490,244.663 173.292 M211.333 206.417 C 210.650 207.104,210.129 207.667,210.175 207.667 C 210.221 207.667,210.817 207.104,211.500 206.417 C 212.183 205.729,212.704 205.167,212.658 205.167 C 212.612 205.167,212.016 205.729,211.333 206.417 M209.077 208.708 L 208.250 209.583 209.125 208.756 C 209.606 208.301,210.000 207.908,210.000 207.881 C 210.000 207.757,209.846 207.895,209.077 208.708 M176.747 240.875 L 175.250 242.417 176.792 240.920 C 178.224 239.530,178.409 239.333,178.288 239.333 C 178.263 239.333,177.570 240.027,176.747 240.875 M197.125 261.954 C 197.423 261.991,197.910 261.991,198.208 261.954 C 198.506 261.917,198.262 261.887,197.667 261.887 C 197.071 261.887,196.827 261.917,197.125 261.954 M141.330 276.125 L 139.917 277.583 141.375 276.170 C 142.729 274.858,142.909 274.667,142.788 274.667 C 142.763 274.667,142.107 275.323,141.330 276.125 M201.294 299.785 C 201.501 299.824,201.801 299.823,201.960 299.781 C 202.120 299.739,201.950 299.707,201.583 299.709 C 201.217 299.711,201.086 299.745,201.294 299.785 M109.073 308.208 L 108.583 308.750 109.125 308.260 C 109.423 307.991,109.667 307.748,109.667 307.719 C 109.667 307.590,109.529 307.703,109.073 308.208 M106.494 310.792 L 105.583 311.750 106.542 310.839 C 107.069 310.338,107.500 309.907,107.500 309.881 C 107.500 309.757,107.341 309.901,106.494 310.792 " stroke="none" fill="#70fc36" fill-rule="evenodd"></path><path id="path3" d="M293.242 88.875 L 292.583 89.583 293.292 88.925 C 293.950 88.312,294.077 88.167,293.950 88.167 C 293.923 88.167,293.605 88.485,293.242 88.875 M286.333 95.583 C 285.650 96.271,285.129 96.833,285.175 96.833 C 285.221 96.833,285.817 96.271,286.500 95.583 C 287.183 94.896,287.704 94.333,287.658 94.333 C 287.612 94.333,287.016 94.896,286.333 95.583 M188.208 100.448 C 188.369 100.490,188.631 100.490,188.792 100.448 C 188.952 100.406,188.821 100.372,188.500 100.372 C 188.179 100.372,188.048 100.406,188.208 100.448 M204.544 100.453 C 204.797 100.491,205.172 100.490,205.377 100.451 C 205.582 100.411,205.375 100.380,204.917 100.381 C 204.458 100.382,204.291 100.415,204.544 100.453 M185.208 100.615 C 185.369 100.657,185.631 100.657,185.792 100.615 C 185.952 100.573,185.821 100.539,185.500 100.539 C 185.179 100.539,185.048 100.573,185.208 100.615 M208.960 100.618 C 209.168 100.658,209.468 100.656,209.627 100.615 C 209.786 100.573,209.617 100.540,209.250 100.542 C 208.883 100.544,208.753 100.578,208.960 100.618 M279.740 102.042 L 279.250 102.583 279.792 102.094 C 280.297 101.638,280.410 101.500,280.281 101.500 C 280.252 101.500,280.009 101.744,279.740 102.042 M278.409 103.375 L 277.750 104.083 278.458 103.425 C 278.848 103.062,279.167 102.743,279.167 102.716 C 279.167 102.590,279.022 102.716,278.409 103.375 M271.328 110.292 L 270.417 111.250 271.375 110.339 C 272.265 109.493,272.410 109.333,272.286 109.333 C 272.260 109.333,271.829 109.765,271.328 110.292 M302.324 115.958 L 301.750 116.583 302.375 116.009 C 302.957 115.474,303.077 115.333,302.949 115.333 C 302.922 115.333,302.640 115.615,302.324 115.958 M297.829 120.625 L 296.750 121.750 297.875 120.671 C 298.920 119.670,299.076 119.500,298.954 119.500 C 298.928 119.500,298.422 120.006,297.829 120.625 M280.996 137.458 L 279.583 138.917 281.042 137.504 C 281.844 136.727,282.500 136.070,282.500 136.045 C 282.500 135.924,282.309 136.104,280.996 137.458 M201.048 137.957 C 201.578 137.990,202.403 137.990,202.881 137.956 C 203.359 137.922,202.925 137.895,201.917 137.896 C 200.908 137.896,200.517 137.924,201.048 137.957 M272.667 145.583 C 271.984 146.271,271.463 146.833,271.508 146.833 C 271.554 146.833,272.150 146.271,272.833 145.583 C 273.516 144.896,274.037 144.333,273.992 144.333 C 273.946 144.333,273.350 144.896,272.667 145.583 M313.583 150.000 C 314.035 150.458,314.442 150.833,314.487 150.833 C 314.533 150.833,314.201 150.458,313.750 150.000 C 313.299 149.542,312.892 149.167,312.846 149.167 C 312.800 149.167,313.132 149.542,313.583 150.000 M85.740 149.875 L 85.250 150.417 85.792 149.927 C 86.090 149.658,86.333 149.414,86.333 149.385 C 86.333 149.257,86.196 149.370,85.740 149.875 M265.994 152.125 L 265.083 153.083 266.042 152.172 C 266.932 151.326,267.076 151.167,266.953 151.167 C 266.927 151.167,266.495 151.598,265.994 152.125 M298.740 152.042 L 298.250 152.583 298.792 152.094 C 299.297 151.638,299.410 151.500,299.281 151.500 C 299.252 151.500,299.009 151.744,298.740 152.042 M317.167 153.583 C 317.478 153.904,317.770 154.167,317.815 154.167 C 317.861 154.167,317.644 153.904,317.333 153.583 C 317.022 153.262,316.730 153.000,316.685 153.000 C 316.639 153.000,316.856 153.262,317.167 153.583 M80.406 155.208 L 79.917 155.750 80.458 155.260 C 80.963 154.804,81.077 154.667,80.948 154.667 C 80.919 154.667,80.675 154.910,80.406 155.208 M155.658 156.958 L 155.083 157.583 155.708 157.009 C 156.052 156.693,156.333 156.412,156.333 156.384 C 156.333 156.257,156.192 156.377,155.658 156.958 M224.909 157.042 L 224.250 157.750 224.958 157.091 C 225.617 156.478,225.743 156.333,225.617 156.333 C 225.590 156.333,225.271 156.652,224.909 157.042 M222.324 159.625 L 221.750 160.250 222.375 159.676 C 222.957 159.141,223.077 159.000,222.949 159.000 C 222.922 159.000,222.640 159.281,222.324 159.625 M289.324 161.458 L 288.750 162.083 289.375 161.509 C 289.957 160.974,290.077 160.833,289.949 160.833 C 289.922 160.833,289.640 161.115,289.324 161.458 M194.460 162.618 C 194.668 162.658,194.968 162.656,195.127 162.615 C 195.286 162.573,195.117 162.540,194.750 162.542 C 194.383 162.544,194.253 162.578,194.460 162.618 M197.292 162.618 C 197.498 162.657,197.835 162.657,198.042 162.618 C 198.248 162.578,198.079 162.545,197.667 162.545 C 197.254 162.545,197.085 162.578,197.292 162.618 M285.491 165.458 L 284.917 166.083 285.542 165.509 C 286.123 164.974,286.243 164.833,286.116 164.833 C 286.088 164.833,285.807 165.115,285.491 165.458 M171.324 174.458 L 170.750 175.083 171.375 174.509 C 171.719 174.193,172.000 173.912,172.000 173.884 C 172.000 173.757,171.859 173.877,171.324 174.458 M274.742 176.708 L 274.083 177.417 274.792 176.758 C 275.450 176.145,275.577 176.000,275.450 176.000 C 275.423 176.000,275.105 176.319,274.742 176.708 M237.332 180.625 L 233.083 184.917 237.375 180.668 C 241.363 176.720,241.742 176.333,241.624 176.333 C 241.600 176.333,239.669 178.265,237.332 180.625 M260.872 191.667 C 260.872 191.987,260.906 192.119,260.948 191.958 C 260.990 191.798,260.990 191.535,260.948 191.375 C 260.906 191.215,260.872 191.346,260.872 191.667 M162.545 195.833 C 162.545 196.246,162.578 196.415,162.618 196.208 C 162.657 196.002,162.657 195.665,162.618 195.458 C 162.578 195.252,162.545 195.421,162.545 195.833 M137.872 199.000 C 137.872 199.321,137.906 199.452,137.948 199.292 C 137.990 199.131,137.990 198.869,137.948 198.708 C 137.906 198.548,137.872 198.679,137.872 199.000 M162.548 200.917 C 162.549 201.375,162.581 201.543,162.620 201.289 C 162.658 201.036,162.657 200.661,162.617 200.456 C 162.578 200.251,162.546 200.458,162.548 200.917 M137.872 205.000 C 137.872 205.321,137.906 205.452,137.948 205.292 C 137.990 205.131,137.990 204.869,137.948 204.708 C 137.906 204.548,137.872 204.679,137.872 205.000 M207.406 210.375 L 206.917 210.917 207.458 210.427 C 207.963 209.971,208.077 209.833,207.948 209.833 C 207.919 209.833,207.675 210.077,207.406 210.375 M201.582 216.208 L 197.083 220.750 201.625 216.251 C 204.123 213.777,206.167 211.733,206.167 211.709 C 206.167 211.592,205.763 211.988,201.582 216.208 M163.075 218.375 L 162.417 219.083 163.125 218.425 C 163.784 217.812,163.910 217.667,163.784 217.667 C 163.757 217.667,163.438 217.985,163.075 218.375 M159.740 221.542 L 159.250 222.083 159.792 221.594 C 160.090 221.325,160.333 221.081,160.333 221.052 C 160.333 220.923,160.196 221.037,159.740 221.542 M153.491 227.458 L 152.917 228.083 153.542 227.509 C 154.123 226.974,154.243 226.833,154.116 226.833 C 154.088 226.833,153.807 227.115,153.491 227.458 M150.240 230.542 L 149.750 231.083 150.292 230.594 C 150.590 230.325,150.833 230.081,150.833 230.052 C 150.833 229.923,150.696 230.037,150.240 230.542 M242.500 244.750 C 242.095 245.162,241.801 245.500,241.847 245.500 C 241.893 245.500,242.262 245.162,242.667 244.750 C 243.072 244.338,243.365 244.000,243.319 244.000 C 243.274 244.000,242.905 244.338,242.500 244.750 M169.165 248.458 L 165.083 252.583 169.208 248.501 C 173.041 244.708,173.408 244.333,173.290 244.333 C 173.267 244.333,171.411 246.190,169.165 248.458 M310.329 253.125 L 309.250 254.250 310.375 253.171 C 311.420 252.170,311.576 252.000,311.454 252.000 C 311.428 252.000,310.922 252.506,310.329 253.125 M190.961 261.787 C 191.261 261.825,191.711 261.824,191.961 261.786 C 192.212 261.748,191.967 261.717,191.417 261.718 C 190.867 261.719,190.662 261.750,190.961 261.787 M172.664 278.458 L 170.750 280.417 172.708 278.503 C 174.527 276.725,174.742 276.500,174.622 276.500 C 174.598 276.500,173.717 277.381,172.664 278.458 M135.749 281.708 L 132.083 285.417 135.792 281.751 C 139.237 278.346,139.575 278.000,139.457 278.000 C 139.433 278.000,137.764 279.669,135.749 281.708 M131.406 286.042 L 130.917 286.583 131.458 286.094 C 131.756 285.825,132.000 285.581,132.000 285.552 C 132.000 285.423,131.862 285.537,131.406 286.042 M93.329 287.458 L 92.250 288.583 93.375 287.505 C 94.420 286.503,94.576 286.333,94.454 286.333 C 94.428 286.333,93.922 286.840,93.329 287.458 M91.167 298.917 C 92.034 299.787,92.781 300.500,92.827 300.500 C 92.873 300.500,92.201 299.787,91.333 298.917 C 90.466 298.046,89.719 297.333,89.673 297.333 C 89.627 297.333,90.299 298.046,91.167 298.917 M189.042 299.448 C 189.202 299.490,189.465 299.490,189.625 299.448 C 189.785 299.406,189.654 299.372,189.333 299.372 C 189.012 299.372,188.881 299.406,189.042 299.448 M192.627 299.618 C 192.834 299.658,193.134 299.656,193.294 299.615 C 193.453 299.573,193.283 299.540,192.917 299.542 C 192.550 299.544,192.420 299.578,192.627 299.618 M198.880 299.789 C 199.318 299.824,199.993 299.823,200.380 299.788 C 200.767 299.754,200.408 299.725,199.583 299.726 C 198.758 299.726,198.442 299.755,198.880 299.789 M207.458 299.787 C 207.756 299.824,208.244 299.824,208.542 299.787 C 208.840 299.750,208.596 299.720,208.000 299.720 C 207.404 299.720,207.160 299.750,207.458 299.787 M98.083 306.167 C 98.812 306.900,99.446 307.500,99.492 307.500 C 99.538 307.500,98.979 306.900,98.250 306.167 C 97.521 305.433,96.887 304.833,96.841 304.833 C 96.795 304.833,97.354 305.433,98.083 306.167 " stroke="none" fill="#88fc50" fill-rule="evenodd"></path><path id="path4" d="M290.495 91.625 L 289.417 92.750 290.542 91.671 C 291.587 90.670,291.743 90.500,291.620 90.500 C 291.595 90.500,291.088 91.006,290.495 91.625 M283.161 98.792 L 282.250 99.750 283.208 98.839 C 284.099 97.993,284.243 97.833,284.119 97.833 C 284.093 97.833,283.662 98.265,283.161 98.792 M306.000 98.750 C 306.311 99.071,306.603 99.333,306.649 99.333 C 306.695 99.333,306.478 99.071,306.167 98.750 C 305.856 98.429,305.564 98.167,305.518 98.167 C 305.472 98.167,305.689 98.429,306.000 98.750 M189.708 100.448 C 189.869 100.490,190.131 100.490,190.292 100.448 C 190.452 100.406,190.321 100.372,190.000 100.372 C 189.679 100.372,189.548 100.406,189.708 100.448 M202.375 100.453 C 202.627 100.491,203.040 100.491,203.292 100.453 C 203.544 100.415,203.338 100.383,202.833 100.383 C 202.329 100.383,202.123 100.415,202.375 100.453 M207.208 100.615 C 207.369 100.657,207.631 100.657,207.792 100.615 C 207.952 100.573,207.821 100.539,207.500 100.539 C 207.179 100.539,207.048 100.573,207.208 100.615 M275.661 106.125 L 274.750 107.083 275.708 106.172 C 276.599 105.326,276.743 105.167,276.619 105.167 C 276.593 105.167,276.162 105.598,275.661 106.125 M267.745 113.875 L 266.750 114.917 267.792 113.922 C 268.365 113.375,268.833 112.906,268.833 112.880 C 268.833 112.757,268.669 112.907,267.745 113.875 M300.740 117.542 L 300.250 118.083 300.792 117.594 C 301.297 117.138,301.410 117.000,301.281 117.000 C 301.252 117.000,301.009 117.244,300.740 117.542 M289.832 128.625 L 284.583 133.917 289.875 128.668 C 294.793 123.789,295.242 123.333,295.124 123.333 C 295.101 123.333,292.719 125.715,289.832 128.625 M196.375 138.115 C 196.535 138.157,196.798 138.157,196.958 138.115 C 197.119 138.073,196.987 138.039,196.667 138.039 C 196.346 138.039,196.215 138.073,196.375 138.115 M206.708 138.115 C 206.869 138.157,207.131 138.157,207.292 138.115 C 207.452 138.073,207.321 138.039,207.000 138.039 C 206.679 138.039,206.548 138.073,206.708 138.115 M276.495 141.792 L 275.417 142.917 276.542 141.838 C 277.160 141.245,277.667 140.739,277.667 140.713 C 277.667 140.590,277.497 140.747,276.495 141.792 M268.824 149.292 L 268.250 149.917 268.875 149.342 C 269.457 148.808,269.577 148.667,269.449 148.667 C 269.422 148.667,269.140 148.948,268.824 149.292 M82.746 152.875 L 81.417 154.250 82.792 152.921 C 84.069 151.686,84.243 151.500,84.121 151.500 C 84.096 151.500,83.477 152.119,82.746 152.875 M294.498 156.292 L 291.417 159.417 294.542 156.335 C 297.445 153.472,297.742 153.167,297.623 153.167 C 297.599 153.167,296.193 154.573,294.498 156.292 M287.333 163.583 C 286.928 163.996,286.635 164.333,286.681 164.333 C 286.726 164.333,287.095 163.996,287.500 163.583 C 287.905 163.171,288.199 162.833,288.153 162.833 C 288.107 162.833,287.738 163.171,287.333 163.583 M251.665 166.292 L 249.250 168.750 251.708 166.335 C 253.992 164.092,254.242 163.833,254.123 163.833 C 254.099 163.833,252.992 164.940,251.665 166.292 M276.824 174.625 L 276.250 175.250 276.875 174.676 C 277.457 174.141,277.577 174.000,277.449 174.000 C 277.422 174.000,277.140 174.281,276.824 174.625 M270.331 181.292 L 267.917 183.750 270.375 181.335 C 272.659 179.092,272.909 178.833,272.790 178.833 C 272.765 178.833,271.659 179.940,270.331 181.292 M267.240 184.375 L 266.750 184.917 267.292 184.427 C 267.797 183.971,267.910 183.833,267.781 183.833 C 267.752 183.833,267.509 184.077,267.240 184.375 M219.415 198.375 L 215.750 202.083 219.458 198.418 C 222.904 195.012,223.242 194.667,223.124 194.667 C 223.100 194.667,221.431 196.335,219.415 198.375 M162.542 197.417 C 162.544 197.783,162.578 197.914,162.618 197.706 C 162.658 197.499,162.656 197.199,162.615 197.040 C 162.573 196.880,162.540 197.050,162.542 197.417 M162.542 199.250 C 162.544 199.617,162.578 199.747,162.618 199.540 C 162.658 199.332,162.656 199.032,162.615 198.873 C 162.573 198.714,162.540 198.883,162.542 199.250 M214.578 203.208 L 213.583 204.250 214.625 203.255 C 215.198 202.708,215.667 202.239,215.667 202.214 C 215.667 202.090,215.502 202.241,214.578 203.208 M158.406 222.875 L 157.917 223.417 158.458 222.927 C 158.756 222.658,159.000 222.414,159.000 222.385 C 159.000 222.257,158.862 222.370,158.406 222.875 M155.240 225.875 L 154.750 226.417 155.292 225.927 C 155.797 225.471,155.910 225.333,155.781 225.333 C 155.752 225.333,155.509 225.577,155.240 225.875 M183.999 233.625 L 180.417 237.250 184.042 233.668 C 186.035 231.698,187.667 230.067,187.667 230.043 C 187.667 229.925,187.327 230.257,183.999 233.625 M313.824 249.458 L 313.250 250.083 313.875 249.509 C 314.219 249.193,314.500 248.912,314.500 248.884 C 314.500 248.757,314.359 248.877,313.824 249.458 M90.333 255.052 C 90.333 255.081,90.577 255.325,90.875 255.594 L 91.417 256.083 90.927 255.542 C 90.471 255.037,90.333 254.923,90.333 255.052 M306.658 256.625 L 306.083 257.250 306.708 256.676 C 307.052 256.360,307.333 256.078,307.333 256.051 C 307.333 255.923,307.192 256.043,306.658 256.625 M194.547 261.956 C 194.985 261.990,195.660 261.990,196.047 261.955 C 196.434 261.920,196.075 261.892,195.250 261.892 C 194.425 261.893,194.109 261.922,194.547 261.956 M199.208 261.955 C 199.552 261.991,200.115 261.991,200.458 261.955 C 200.802 261.919,200.521 261.889,199.833 261.889 C 199.146 261.889,198.865 261.919,199.208 261.955 M187.658 263.292 L 187.083 263.917 187.708 263.342 C 188.290 262.808,188.410 262.667,188.283 262.667 C 188.255 262.667,187.974 262.948,187.658 263.292 M148.832 268.625 L 145.417 272.083 148.875 268.668 C 150.777 266.790,152.333 265.234,152.333 265.210 C 152.333 265.091,152.005 265.412,148.832 268.625 M180.497 270.958 L 178.583 272.917 180.542 271.003 C 181.619 269.950,182.500 269.069,182.500 269.044 C 182.500 268.924,182.275 269.139,180.497 270.958 M175.991 275.292 L 175.417 275.917 176.042 275.342 C 176.385 275.026,176.667 274.745,176.667 274.717 C 176.667 274.590,176.526 274.710,175.991 275.292 M103.073 278.708 L 102.583 279.250 103.125 278.760 C 103.423 278.491,103.667 278.248,103.667 278.219 C 103.667 278.090,103.529 278.203,103.073 278.708 M169.158 282.125 L 168.583 282.750 169.208 282.176 C 169.790 281.641,169.910 281.500,169.783 281.500 C 169.755 281.500,169.474 281.781,169.158 282.125 M163.240 288.208 L 162.750 288.750 163.292 288.260 C 163.590 287.991,163.833 287.748,163.833 287.719 C 163.833 287.590,163.696 287.703,163.240 288.208 M116.082 301.208 L 111.750 305.583 116.125 301.251 C 120.191 297.225,120.575 296.833,120.457 296.833 C 120.434 296.833,118.465 298.802,116.082 301.208 M190.542 299.448 C 190.702 299.490,190.965 299.490,191.125 299.448 C 191.285 299.406,191.154 299.372,190.833 299.372 C 190.512 299.372,190.381 299.406,190.542 299.448 M203.125 299.790 C 203.698 299.823,204.635 299.823,205.208 299.790 C 205.781 299.758,205.313 299.731,204.167 299.731 C 203.021 299.731,202.552 299.758,203.125 299.790 M93.000 300.719 C 93.000 300.748,93.244 300.991,93.542 301.260 L 94.083 301.750 93.594 301.208 C 93.138 300.703,93.000 300.590,93.000 300.719 " stroke="none" fill="#5cfc24" fill-rule="evenodd"></path></g></svg>