<svg id="svg" version="1.1" xmlns="http://www.w3.org/2000/svg" xmlns:xlink="http://www.w3.org/1999/xlink" width="400" height="400" viewBox="0, 0, 400,400"><g id="svgg"><path id="path0" d="M177.187 95.845 C 174.868 96.306,174.934 97.339,177.570 101.823 C 178.516 103.433,181.577 108.725,184.371 113.583 C 189.580 122.639,191.773 126.448,197.133 135.750 C 198.823 138.683,201.198 142.808,202.411 144.917 C 203.624 147.025,206.216 151.525,208.170 154.917 C 210.124 158.308,212.672 162.733,213.831 164.750 C 216.268 168.988,219.341 174.324,225.878 185.667 C 228.440 190.112,231.852 196.037,233.459 198.833 C 235.067 201.629,237.485 205.829,238.833 208.167 C 240.182 210.504,242.731 214.929,244.499 218.000 C 246.267 221.071,248.988 225.796,250.545 228.500 C 252.103 231.204,254.391 235.179,255.629 237.333 C 257.954 241.377,262.628 249.483,267.499 257.917 C 269.034 260.575,270.851 263.725,271.536 264.917 C 272.220 266.108,274.495 270.046,276.591 273.667 C 278.686 277.287,282.674 284.222,285.452 289.076 C 290.697 298.239,291.296 299.149,292.498 299.785 C 294.227 300.700,294.480 300.639,311.667 295.161 C 315.169 294.045,332.941 288.428,335.917 287.497 C 336.742 287.239,338.279 286.753,339.333 286.417 C 340.387 286.081,342.412 285.443,343.833 285.001 C 359.957 279.977,360.818 279.655,361.400 278.429 C 362.222 276.697,361.544 275.435,350.964 259.000 C 348.970 255.902,341.759 244.583,340.134 242.000 C 339.355 240.762,337.182 237.313,335.304 234.333 C 332.268 229.516,329.102 224.475,321.751 212.750 C 317.095 205.322,311.699 196.801,308.611 192.000 C 308.110 191.221,306.768 189.121,305.627 187.333 C 304.487 185.546,301.618 181.121,299.251 177.500 C 290.405 163.967,288.109 160.359,274.169 138.083 C 268.190 128.528,264.359 122.440,262.424 119.417 C 262.131 118.958,261.634 118.177,261.321 117.681 C 261.007 117.184,260.225 115.968,259.583 114.978 C 258.942 113.988,258.068 112.632,257.641 111.964 C 257.214 111.296,255.864 109.198,254.641 107.300 C 253.418 105.403,251.929 103.041,251.333 102.052 C 249.379 98.806,247.167 96.935,244.250 96.060 C 243.146 95.729,178.808 95.522,177.187 95.845 M158.409 100.064 C 157.639 100.405,156.611 101.682,155.737 103.385 C 155.304 104.228,154.070 106.454,152.993 108.333 C 151.183 111.494,146.991 118.850,135.706 138.667 C 129.417 149.710,129.373 149.787,128.448 151.167 C 126.612 153.903,125.511 154.713,118.083 158.783 C 115.242 160.341,111.342 162.499,109.417 163.578 C 106.351 165.298,102.172 167.623,96.833 170.580 C 94.677 171.775,85.377 176.791,82.000 178.581 C 80.487 179.383,78.650 180.358,77.917 180.749 C 75.941 181.802,69.696 185.056,66.083 186.916 C 64.342 187.812,62.392 188.824,61.750 189.165 C 58.162 191.072,46.053 197.135,43.917 198.095 C 36.695 201.339,36.602 202.645,43.116 209.366 C 54.657 221.274,63.007 232.657,68.583 244.083 C 71.420 249.895,71.138 253.107,67.253 259.250 C 66.712 260.107,65.184 262.880,61.333 270.000 C 60.118 272.246,58.917 274.458,58.665 274.917 C 58.412 275.375,56.239 279.387,53.835 283.833 C 51.432 288.279,48.725 293.267,47.821 294.917 C 45.147 299.798,44.749 301.982,46.281 303.369 C 47.196 304.197,46.355 304.167,68.096 304.167 L 88.369 304.167 89.416 303.667 C 91.911 302.476,93.602 300.162,96.053 294.583 C 97.243 291.873,98.480 289.217,105.792 273.667 C 107.581 269.862,109.251 266.300,109.503 265.750 C 109.756 265.200,110.316 264.000,110.749 263.083 C 111.182 262.167,111.782 260.892,112.082 260.250 C 112.869 258.569,115.011 254.002,115.835 252.250 C 117.977 247.694,120.501 242.307,121.419 240.333 C 121.995 239.096,122.855 237.258,123.332 236.250 C 123.808 235.242,125.722 231.154,127.584 227.167 C 129.446 223.179,131.304 219.204,131.712 218.333 C 132.480 216.696,134.281 212.792,136.768 207.375 C 142.959 193.892,147.686 184.073,148.904 182.167 L 149.489 181.250 149.536 238.667 L 149.583 296.083 149.970 297.417 C 151.097 301.308,153.315 303.125,157.897 303.912 C 159.204 304.137,165.891 304.167,214.987 304.167 L 270.596 304.167 271.338 303.792 C 273.812 302.542,273.160 298.939,269.363 292.880 C 268.521 291.537,266.052 287.207,258.832 274.417 C 249.925 258.637,245.303 250.463,242.337 245.250 C 235.889 233.915,234.747 231.899,226.666 217.583 C 224.711 214.120,218.650 203.321,214.458 195.833 C 212.996 193.221,211.478 190.521,211.086 189.833 C 210.694 189.146,208.779 185.733,206.831 182.250 C 204.883 178.767,202.820 175.092,202.246 174.083 C 201.672 173.075,198.970 168.275,196.242 163.417 C 193.514 158.558,188.770 150.158,185.701 144.750 C 182.632 139.342,179.204 133.267,178.083 131.250 C 165.169 108.010,161.094 100.974,160.167 100.312 C 159.571 99.887,158.993 99.805,158.409 100.064 M146.227 161.766 C 145.053 164.371,141.442 171.546,136.841 180.417 C 134.939 184.083,131.654 190.496,129.540 194.667 C 127.427 198.838,125.493 202.625,125.241 203.083 C 124.990 203.542,123.213 207.029,121.294 210.833 C 114.884 223.533,109.052 235.015,105.335 242.250 C 103.310 246.192,100.674 251.404,99.478 253.833 C 94.413 264.114,93.268 266.068,92.622 265.532 C 92.203 265.184,91.532 263.142,90.477 259.000 C 85.416 239.139,76.727 222.817,64.235 209.704 C 60.254 205.525,60.121 205.944,66.500 202.559 C 74.559 198.282,76.650 197.172,79.167 195.833 C 82.292 194.171,86.338 192.026,90.208 189.980 C 91.790 189.144,93.683 188.141,94.417 187.750 C 95.932 186.941,100.194 184.684,102.917 183.246 C 108.194 180.460,114.890 176.865,118.667 174.789 C 121.004 173.505,124.475 171.604,126.379 170.565 C 128.284 169.526,131.247 167.857,132.963 166.856 C 141.778 161.717,146.929 159.051,147.134 159.521 C 147.162 159.586,146.754 160.596,146.227 161.766 " stroke="none" fill="#049404" fill-rule="evenodd"></path><path id="path1" d="M189.000 0.251 C 187.213 0.363,184.813 0.510,183.667 0.578 C 182.521 0.646,181.536 0.730,181.478 0.765 C 181.420 0.800,180.483 0.903,179.395 0.993 C 178.307 1.084,176.854 1.236,176.167 1.331 C 175.479 1.426,173.754 1.659,172.333 1.848 C 169.029 2.288,163.796 3.174,160.083 3.922 C 157.127 4.517,156.339 4.684,155.250 4.942 C 153.948 5.251,149.414 6.394,148.000 6.771 C 147.496 6.905,146.783 7.091,146.417 7.183 C 145.546 7.403,139.682 9.154,139.250 9.323 C 139.067 9.395,138.467 9.591,137.917 9.760 C 135.494 10.503,127.286 13.490,124.917 14.492 C 115.808 18.342,106.984 22.563,103.224 24.869 C 102.871 25.085,102.391 25.345,102.157 25.446 C 101.636 25.671,93.284 30.665,93.167 30.821 C 93.121 30.883,92.708 31.149,92.250 31.414 C 88.760 33.430,79.397 40.206,73.850 44.731 C 59.344 56.561,48.130 68.587,36.177 85.133 C 35.544 86.009,32.659 90.320,31.637 91.917 C 31.227 92.558,30.552 93.608,30.138 94.250 C 29.412 95.374,26.746 99.899,25.080 102.833 C 23.538 105.548,20.463 111.533,19.171 114.333 C 18.685 115.388,18.043 116.775,17.745 117.417 C 13.808 125.890,9.867 136.795,7.053 147.000 C 6.914 147.504,6.696 148.292,6.568 148.750 C 5.928 151.055,4.494 157.233,3.900 160.250 C 3.156 164.024,1.999 170.971,1.666 173.667 C 1.570 174.446,1.419 175.608,1.331 176.250 C 1.243 176.892,1.091 178.387,0.993 179.572 C 0.895 180.758,0.791 181.770,0.762 181.822 C 0.705 181.923,0.635 182.992,0.248 189.667 C -0.308 199.266,0.266 217.304,1.327 223.583 C 1.420 224.133,1.576 225.333,1.673 226.250 C 1.771 227.167,1.920 228.329,2.006 228.833 C 2.091 229.338,2.398 231.175,2.687 232.917 C 2.976 234.658,3.319 236.646,3.448 237.333 C 3.578 238.021,3.723 238.808,3.772 239.083 C 3.887 239.740,4.627 243.232,4.831 244.083 C 4.919 244.450,5.292 246.025,5.660 247.583 C 6.029 249.142,6.401 250.642,6.488 250.917 C 6.575 251.192,6.842 252.167,7.082 253.083 C 7.322 254.000,7.584 254.938,7.664 255.167 C 7.743 255.396,7.970 256.146,8.167 256.833 C 8.364 257.521,8.587 258.271,8.664 258.500 C 8.740 258.729,9.005 259.592,9.253 260.417 C 10.371 264.135,13.821 273.648,14.995 276.250 C 15.077 276.433,15.608 277.671,16.174 279.000 C 16.740 280.329,17.427 281.904,17.700 282.500 C 17.973 283.096,18.386 283.996,18.616 284.500 C 20.475 288.563,25.211 297.557,27.394 301.167 C 27.865 301.946,28.325 302.710,28.417 302.864 C 30.441 306.276,32.905 310.072,36.075 314.667 C 44.845 327.377,57.534 341.405,69.418 351.526 C 71.292 353.122,73.524 355.003,73.937 355.335 C 76.971 357.769,80.596 360.556,82.065 361.583 C 82.327 361.767,82.739 362.073,82.979 362.265 C 84.659 363.602,96.895 371.667,97.244 371.667 C 97.280 371.667,97.904 372.032,98.630 372.478 C 99.357 372.924,100.469 373.571,101.101 373.917 C 101.733 374.263,102.813 374.867,103.500 375.261 C 105.196 376.231,109.146 378.296,111.593 379.492 C 113.383 380.366,114.409 380.852,117.417 382.255 C 120.558 383.719,130.248 387.667,130.702 387.667 C 130.829 387.667,131.005 387.735,131.092 387.818 C 131.179 387.901,131.512 388.044,131.833 388.136 C 132.154 388.227,133.692 388.751,135.250 389.299 C 137.952 390.250,140.431 391.043,143.167 391.831 C 143.854 392.029,144.604 392.256,144.833 392.336 C 145.063 392.415,146.000 392.678,146.917 392.919 C 147.833 393.161,148.996 393.469,149.500 393.604 C 151.623 394.172,151.394 394.116,155.833 395.148 C 156.612 395.330,158.000 395.628,158.917 395.812 C 159.833 395.996,160.808 396.193,161.083 396.250 C 162.002 396.441,164.060 396.809,166.583 397.235 C 174.100 398.503,178.301 398.987,187.917 399.696 C 191.797 399.982,208.411 399.989,211.833 399.707 C 213.162 399.598,215.075 399.462,216.083 399.406 C 217.092 399.350,218.104 399.270,218.333 399.228 C 218.563 399.185,219.575 399.079,220.583 398.990 C 222.725 398.803,227.071 398.265,229.333 397.907 C 232.757 397.366,237.135 396.607,238.917 396.247 C 239.192 396.191,240.167 395.996,241.083 395.812 C 245.971 394.832,251.263 393.480,258.250 391.425 C 259.854 390.953,267.028 388.587,267.583 388.346 C 267.767 388.266,268.592 387.958,269.417 387.661 C 270.897 387.128,275.603 385.298,276.250 385.004 C 276.433 384.921,277.971 384.256,279.667 383.527 C 288.536 379.713,297.084 375.225,305.778 369.818 C 308.162 368.335,313.656 364.680,315.455 363.380 C 315.935 363.034,317.097 362.194,318.039 361.514 C 320.922 359.432,328.034 353.847,328.667 353.168 C 328.712 353.119,329.162 352.746,329.667 352.339 C 330.171 351.932,330.705 351.483,330.853 351.341 C 331.001 351.199,331.638 350.633,332.269 350.083 C 337.638 345.401,346.009 337.018,350.161 332.167 C 350.750 331.479,351.312 330.842,351.412 330.750 C 352.265 329.965,357.605 323.297,360.785 319.045 C 362.977 316.114,368.394 308.170,369.833 305.773 C 370.154 305.239,370.569 304.566,370.756 304.276 C 371.374 303.318,372.667 301.156,372.667 301.081 C 372.667 301.040,372.917 300.611,373.224 300.128 C 373.530 299.645,374.103 298.650,374.497 297.917 C 374.891 297.183,375.267 296.508,375.331 296.417 C 376.135 295.283,383.000 281.430,383.000 280.942 C 383.000 280.899,383.250 280.313,383.556 279.640 C 383.862 278.967,384.250 278.079,384.419 277.667 C 384.922 276.438,385.342 275.438,385.504 275.083 C 386.251 273.455,388.797 266.460,390.083 262.500 C 390.337 261.721,390.604 260.933,390.677 260.750 C 390.750 260.567,390.962 259.892,391.149 259.250 C 391.335 258.608,391.758 257.183,392.088 256.083 C 392.937 253.252,393.577 250.808,394.820 245.656 C 395.923 241.080,396.674 237.151,397.923 229.417 C 398.295 227.115,399.000 221.204,399.004 220.347 C 399.006 219.927,399.074 219.283,399.155 218.917 C 399.237 218.550,399.354 217.350,399.416 216.250 C 399.477 215.150,399.601 213.350,399.689 212.250 C 400.438 202.936,399.831 184.638,398.423 174.083 C 397.810 169.488,396.532 162.067,395.595 157.667 C 394.726 153.585,393.103 147.271,391.899 143.289 C 391.476 141.893,391.053 140.450,390.959 140.083 C 390.864 139.717,390.723 139.345,390.644 139.258 C 390.565 139.171,390.500 138.970,390.500 138.811 C 390.500 138.553,388.197 131.740,387.832 130.917 C 387.750 130.733,387.259 129.458,386.740 128.083 C 386.221 126.708,385.696 125.358,385.573 125.083 C 385.449 124.808,385.189 124.171,384.995 123.667 C 384.632 122.728,384.565 122.572,383.680 120.613 C 383.398 119.988,383.167 119.445,383.167 119.406 C 383.167 119.367,382.904 118.766,382.583 118.072 C 382.262 117.377,382.000 116.775,382.000 116.734 C 382.000 116.602,377.546 107.637,376.791 106.250 C 376.392 105.517,375.701 104.242,375.255 103.417 C 374.178 101.425,371.263 96.451,370.076 94.580 C 369.553 93.757,368.967 92.821,368.773 92.500 C 366.932 89.462,361.172 81.269,358.402 77.750 C 357.285 76.331,354.371 72.695,354.060 72.333 C 353.863 72.104,352.966 71.054,352.065 70.000 C 351.164 68.946,350.262 67.896,350.060 67.667 C 349.858 67.438,349.481 67.008,349.221 66.713 C 346.297 63.380,339.017 56.013,335.327 52.653 C 331.846 49.484,331.876 49.510,327.539 45.819 C 327.332 45.643,326.094 44.657,324.789 43.629 C 323.484 42.601,322.379 41.716,322.333 41.661 C 322.203 41.506,316.705 37.448,315.000 36.249 C 314.496 35.894,313.650 35.299,313.121 34.927 C 312.591 34.555,312.029 34.175,311.871 34.083 C 311.713 33.991,310.608 33.269,309.417 32.478 C 301.630 27.310,289.699 20.775,281.917 17.415 C 280.908 16.980,279.633 16.418,279.083 16.167 C 278.533 15.915,277.483 15.469,276.750 15.174 C 276.017 14.879,275.267 14.573,275.083 14.493 C 274.900 14.413,273.850 14.003,272.750 13.582 C 271.650 13.161,270.487 12.711,270.167 12.582 C 269.174 12.182,265.523 10.903,263.250 10.158 C 262.058 9.768,260.933 9.392,260.750 9.322 C 260.052 9.056,256.482 7.996,254.083 7.342 C 252.708 6.967,251.358 6.591,251.083 6.506 C 250.372 6.286,245.423 5.102,241.667 4.253 C 241.071 4.118,240.171 3.934,239.667 3.844 C 239.162 3.754,238.188 3.575,237.500 3.445 C 232.481 2.499,226.281 1.580,222.083 1.158 C 221.258 1.075,219.946 0.932,219.167 0.840 C 217.644 0.660,217.071 0.619,210.836 0.245 C 205.915 -0.050,193.767 -0.047,189.000 0.251 M243.333 95.843 C 247.080 96.444,248.979 98.034,252.151 103.222 C 252.945 104.521,254.267 106.617,255.089 107.879 C 258.385 112.944,259.969 115.402,262.038 118.667 C 263.230 120.546,264.375 122.346,264.583 122.667 C 264.976 123.270,266.370 125.478,268.003 128.083 C 268.520 128.908,270.171 131.533,271.671 133.917 C 273.172 136.300,274.816 138.931,275.325 139.763 C 276.533 141.738,283.074 152.160,285.906 156.621 C 286.358 157.334,287.440 159.042,288.310 160.417 C 289.181 161.792,290.376 163.667,290.967 164.583 C 291.557 165.500,292.209 166.512,292.416 166.833 C 293.153 167.978,294.979 170.789,296.585 173.250 C 297.483 174.625,298.631 176.387,299.136 177.167 C 299.642 177.946,300.519 179.296,301.086 180.167 C 303.551 183.956,304.441 185.334,307.157 189.568 C 308.740 192.034,310.827 195.296,311.796 196.818 C 313.474 199.454,314.424 200.956,318.497 207.417 C 322.804 214.248,323.645 215.587,325.458 218.500 C 326.514 220.196,327.921 222.446,328.584 223.500 C 329.248 224.554,330.428 226.429,331.208 227.667 C 331.987 228.904,333.355 231.079,334.249 232.500 C 335.910 235.140,336.636 236.291,340.501 242.417 C 342.481 245.553,344.403 248.571,348.119 254.373 C 348.780 255.405,349.550 256.625,349.831 257.083 C 350.111 257.542,351.093 259.079,352.012 260.500 C 352.931 261.921,354.090 263.721,354.588 264.500 C 364.063 279.330,364.077 278.780,354.167 281.829 C 352.929 282.210,350.792 282.882,349.417 283.323 C 346.374 284.298,342.355 285.565,339.333 286.502 C 338.096 286.886,336.558 287.372,335.917 287.582 C 334.844 287.933,330.920 289.178,327.250 290.331 C 321.924 292.004,319.540 292.757,318.000 293.251 C 317.037 293.559,315.012 294.196,313.500 294.666 C 311.987 295.136,310.450 295.622,310.083 295.747 C 309.717 295.871,308.104 296.386,306.500 296.890 C 304.896 297.394,302.383 298.185,300.917 298.647 C 291.876 301.496,292.484 301.887,285.013 288.442 C 284.715 287.906,283.852 286.406,283.094 285.109 C 282.336 283.811,281.527 282.412,281.296 282.000 C 280.557 280.682,278.452 277.033,276.053 272.917 C 274.771 270.717,273.533 268.579,273.302 268.167 C 273.071 267.754,272.319 266.442,271.631 265.250 C 270.944 264.058,268.931 260.571,267.159 257.500 C 261.821 248.250,258.711 242.852,255.588 237.417 C 253.955 234.575,251.952 231.103,251.135 229.700 C 250.319 228.298,249.457 226.798,249.219 226.367 C 248.981 225.936,247.869 224.008,246.747 222.083 C 245.626 220.158,244.375 217.983,243.967 217.250 C 243.259 215.977,241.139 212.299,235.608 202.750 C 234.227 200.367,232.936 198.117,232.738 197.750 C 232.540 197.383,231.121 194.908,229.585 192.250 C 228.049 189.592,225.626 185.392,224.200 182.917 C 222.774 180.442,220.396 176.317,218.915 173.750 C 215.861 168.459,211.206 160.375,210.708 159.500 C 210.525 159.179,209.706 157.754,208.886 156.333 C 208.067 154.912,206.473 152.137,205.344 150.167 C 204.216 148.196,202.487 145.196,201.503 143.500 C 198.391 138.137,194.289 131.010,192.871 128.500 C 192.638 128.087,191.683 126.438,190.748 124.833 C 189.813 123.229,188.859 121.579,188.629 121.167 C 188.398 120.754,187.539 119.254,186.719 117.833 C 185.899 116.412,184.063 113.225,182.639 110.750 C 178.557 103.657,177.093 101.139,176.599 100.356 C 175.051 97.909,175.149 96.238,176.864 95.832 C 177.735 95.625,242.046 95.637,243.333 95.843 M160.222 100.175 C 160.857 100.674,166.552 110.242,170.089 116.750 C 170.338 117.208,170.785 117.996,171.082 118.500 C 171.378 119.004,171.905 119.942,172.252 120.583 C 172.598 121.225,173.385 122.650,173.999 123.750 C 174.613 124.850,175.362 126.200,175.664 126.750 C 175.965 127.300,176.492 128.237,176.833 128.833 C 177.175 129.429,177.701 130.367,178.003 130.917 C 179.107 132.931,180.935 136.183,183.294 140.333 C 185.491 144.198,186.310 145.639,189.587 151.417 C 190.536 153.089,191.474 154.757,194.885 160.833 C 195.528 161.979,196.443 163.592,196.918 164.417 C 197.394 165.242,198.745 167.642,199.921 169.750 C 201.096 171.858,202.270 173.943,202.529 174.382 C 202.788 174.822,203.000 175.213,203.000 175.252 C 203.000 175.291,203.366 175.944,203.812 176.703 C 204.259 177.462,204.846 178.496,205.116 179.000 C 205.386 179.504,206.850 182.129,208.368 184.833 C 209.886 187.537,211.336 190.125,211.590 190.583 C 211.844 191.042,212.453 192.113,212.943 192.964 C 213.433 193.815,213.833 194.540,213.833 194.575 C 213.833 194.610,214.157 195.189,214.554 195.861 C 214.950 196.533,215.561 197.608,215.912 198.250 C 216.655 199.606,224.155 212.973,225.826 215.917 C 226.450 217.017,227.155 218.272,227.393 218.707 C 227.631 219.141,228.305 220.341,228.892 221.373 C 229.478 222.406,230.615 224.412,231.417 225.833 C 233.835 230.114,234.883 231.962,236.377 234.583 C 237.161 235.958,238.049 237.533,238.349 238.083 C 238.649 238.633,239.369 239.894,239.947 240.885 C 240.526 241.875,241.000 242.715,241.000 242.750 C 241.000 242.785,241.497 243.662,242.104 244.699 C 242.711 245.735,243.883 247.783,244.710 249.250 C 248.246 255.527,253.415 264.666,253.994 265.667 C 254.339 266.262,254.866 267.200,255.166 267.750 C 255.466 268.300,256.142 269.500,256.668 270.417 C 258.021 272.774,262.511 280.722,263.165 281.917 C 264.228 283.859,268.080 290.572,269.799 293.476 C 273.478 299.693,273.920 302.791,271.292 303.940 C 270.454 304.306,164.174 304.531,159.783 304.175 C 153.589 303.674,150.743 301.545,149.744 296.667 C 149.471 295.335,149.455 291.835,149.481 238.333 L 149.508 181.417 149.024 182.175 C 148.437 183.096,146.149 187.562,144.630 190.750 C 144.018 192.033,142.952 194.272,142.259 195.725 C 141.567 197.178,141.000 198.393,141.000 198.424 C 141.000 198.456,140.512 199.505,139.917 200.756 C 139.321 202.007,138.833 203.053,138.833 203.080 C 138.833 203.107,138.504 203.831,138.102 204.689 C 137.700 205.548,136.995 207.075,136.535 208.083 C 136.076 209.092,135.355 210.655,134.933 211.557 C 134.512 212.459,134.167 213.222,134.167 213.251 C 134.167 213.281,133.802 214.080,133.356 215.027 C 132.910 215.975,132.318 217.237,132.041 217.833 C 129.481 223.340,128.667 225.082,127.249 228.083 C 126.424 229.828,125.588 231.620,124.877 233.167 C 124.645 233.671,123.978 235.087,123.394 236.313 C 122.811 237.540,122.333 238.563,122.333 238.586 C 122.333 238.610,121.949 239.444,121.478 240.440 C 120.078 243.406,119.163 245.351,118.628 246.500 C 118.351 247.096,117.526 248.853,116.795 250.404 C 116.064 251.955,115.220 253.755,114.920 254.404 C 114.620 255.053,114.020 256.333,113.587 257.250 C 112.221 260.140,111.513 261.648,109.753 265.417 C 108.811 267.433,107.685 269.833,107.250 270.750 C 106.816 271.667,105.653 274.142,104.667 276.250 C 103.680 278.358,102.571 280.721,102.201 281.500 C 99.663 286.857,97.301 291.965,96.326 294.204 C 93.796 300.017,92.044 302.468,89.538 303.701 L 88.424 304.250 68.004 304.250 L 47.583 304.250 46.889 303.879 C 44.881 302.805,44.801 300.408,46.658 296.917 C 47.097 296.092,48.676 293.167,50.167 290.417 C 51.658 287.667,53.140 284.929,53.461 284.333 C 53.782 283.737,54.231 282.912,54.459 282.500 C 54.986 281.547,60.162 271.995,61.051 270.333 C 61.419 269.646,62.233 268.153,62.860 267.016 C 63.487 265.879,64.000 264.926,64.000 264.897 C 64.000 264.807,66.336 260.654,67.531 258.621 C 71.808 251.342,71.463 248.547,64.915 237.417 C 59.121 227.569,52.403 219.044,41.801 208.085 C 36.593 202.702,37.057 200.820,44.333 197.824 C 45.190 197.472,56.068 192.012,60.917 189.501 C 62.108 188.884,64.208 187.797,65.583 187.087 C 72.311 183.609,73.279 183.104,77.167 181.041 C 77.854 180.676,79.317 179.904,80.417 179.324 C 81.517 178.745,83.573 177.648,84.986 176.886 C 86.399 176.124,87.586 175.500,87.624 175.500 C 87.661 175.500,88.192 175.211,88.804 174.858 C 89.416 174.504,90.629 173.839,91.500 173.378 C 92.371 172.918,93.421 172.355,93.833 172.126 C 94.246 171.898,95.408 171.262,96.417 170.712 C 98.484 169.585,98.752 169.437,102.917 167.116 C 104.567 166.196,106.179 165.298,106.500 165.120 C 106.821 164.942,108.358 164.080,109.917 163.204 C 111.475 162.329,113.162 161.390,113.667 161.118 C 114.171 160.845,114.808 160.492,115.083 160.332 C 115.666 159.993,116.073 159.770,120.083 157.587 C 126.681 153.996,127.529 153.118,131.670 145.583 C 131.972 145.033,133.547 142.258,135.170 139.417 C 136.793 136.575,139.829 131.250,141.917 127.583 C 144.004 123.917,146.444 119.642,147.339 118.083 C 150.512 112.558,154.926 104.724,155.583 103.452 C 157.222 100.279,158.873 99.113,160.222 100.175 M146.500 159.618 C 145.080 160.139,140.194 162.789,132.583 167.168 C 130.475 168.381,128.262 169.637,127.667 169.959 C 127.071 170.281,124.596 171.634,122.167 172.965 C 119.737 174.297,117.450 175.550,117.083 175.749 C 116.717 175.949,115.645 176.537,114.702 177.056 C 113.760 177.575,112.957 178.000,112.920 178.000 C 112.882 178.000,112.416 178.251,111.884 178.559 C 111.352 178.866,110.017 179.589,108.917 180.165 C 104.860 182.291,103.731 182.887,102.917 183.333 C 102.458 183.585,101.371 184.165,100.500 184.624 C 97.349 186.282,95.895 187.051,94.750 187.667 C 93.489 188.345,88.724 190.867,86.167 192.211 C 85.296 192.669,84.208 193.250,83.750 193.501 C 83.292 193.753,82.204 194.334,81.333 194.793 C 80.462 195.251,77.275 196.937,74.250 198.539 C 71.225 200.142,67.850 201.924,66.750 202.500 C 60.027 206.021,60.133 205.452,65.232 210.667 C 76.409 222.098,85.726 239.876,90.562 259.000 C 91.503 262.722,92.140 264.751,92.552 265.340 C 93.128 266.161,94.299 264.193,99.401 253.833 C 100.732 251.129,102.692 247.229,103.756 245.167 C 107.001 238.872,114.701 223.714,121.745 209.750 C 123.826 205.625,125.588 202.175,125.661 202.083 C 125.734 201.992,127.462 198.617,129.502 194.583 C 131.542 190.550,133.810 186.088,134.543 184.667 C 135.275 183.246,136.550 180.771,137.374 179.167 C 138.199 177.563,139.044 175.950,139.252 175.583 C 139.692 174.808,145.667 162.866,146.049 162.000 C 147.194 159.402,147.202 159.361,146.500 159.618 " stroke="none" fill="#74dba3" fill-rule="evenodd"></path><path id="path2" d="M126.575 153.375 L 125.917 154.083 126.625 153.425 C 127.284 152.812,127.410 152.667,127.284 152.667 C 127.257 152.667,126.938 152.985,126.575 153.375 M65.667 211.250 C 65.978 211.571,66.270 211.833,66.315 211.833 C 66.361 211.833,66.144 211.571,65.833 211.250 C 65.522 210.929,65.230 210.667,65.185 210.667 C 65.139 210.667,65.356 210.929,65.667 211.250 M45.000 211.417 C 45.311 211.737,45.603 212.000,45.649 212.000 C 45.695 212.000,45.478 211.737,45.167 211.417 C 44.856 211.096,44.564 210.833,44.518 210.833 C 44.472 210.833,44.689 211.096,45.000 211.417 M149.395 290.833 C 149.395 291.796,149.423 292.190,149.456 291.708 C 149.490 291.227,149.490 290.440,149.456 289.958 C 149.423 289.477,149.395 289.871,149.395 290.833 M272.872 301.333 C 272.872 301.654,272.906 301.785,272.948 301.625 C 272.990 301.465,272.990 301.202,272.948 301.042 C 272.906 300.881,272.872 301.012,272.872 301.333 M58.195 304.292 C 63.574 304.316,72.424 304.316,77.862 304.292 C 83.300 304.267,78.900 304.247,68.083 304.247 C 57.267 304.247,52.817 304.267,58.195 304.292 M188.055 304.292 C 203.073 304.315,227.598 304.315,242.555 304.292 C 257.512 304.268,245.225 304.249,215.250 304.249 C 185.275 304.249,173.037 304.268,188.055 304.292 " stroke="none" fill="#0fc568" fill-rule="evenodd"></path><path id="path3" d="M149.396 287.333 C 149.396 288.387,149.423 288.819,149.456 288.292 C 149.490 287.765,149.490 286.902,149.456 286.375 C 149.423 285.848,149.396 286.279,149.396 287.333 M149.383 293.333 C 149.383 293.837,149.415 294.044,149.453 293.792 C 149.491 293.540,149.491 293.127,149.453 292.875 C 149.415 292.623,149.383 292.829,149.383 293.333 " stroke="none" fill="#3ccc7c" fill-rule="evenodd"></path><path id="path4" d="M149.372 285.000 C 149.372 285.321,149.406 285.452,149.448 285.292 C 149.490 285.131,149.490 284.869,149.448 284.708 C 149.406 284.548,149.372 284.679,149.372 285.000 " stroke="none" fill="#44cc84" fill-rule="evenodd"></path></g></svg>