<svg id="svg" version="1.1" xmlns="http://www.w3.org/2000/svg" xmlns:xlink="http://www.w3.org/1999/xlink" width="400" height="399.90234375" viewBox="0, 0, 400,399.90234375"><g id="svgg"><path id="path0" d="M187.667 72.607 C 187.438 72.640,186.704 72.748,186.037 72.847 C 183.827 73.173,179.513 74.841,172.527 78.069 C 171.275 78.648,169.837 79.312,169.333 79.545 C 164.815 81.633,158.051 84.888,149.417 89.129 C 142.586 92.484,116.885 105.357,109.417 109.164 C 107.125 110.332,102.850 112.507,99.917 113.998 C 96.983 115.489,93.008 117.515,91.083 118.500 C 89.158 119.485,85.521 121.342,83.000 122.626 C 80.479 123.910,76.654 125.860,74.500 126.959 C 65.077 131.767,59.200 134.646,56.553 135.752 C 53.874 136.870,47.538 140.052,45.139 141.484 C 34.386 147.902,32.756 153.690,40.068 159.485 C 40.942 160.177,43.527 161.793,54.833 168.713 C 55.887 169.358,57.200 170.166,57.750 170.509 C 58.300 170.851,62.462 173.397,67.000 176.166 C 71.537 178.934,75.539 181.386,75.893 181.614 C 76.247 181.842,78.047 182.949,79.893 184.073 C 85.360 187.402,92.842 191.985,93.917 192.663 C 94.467 193.010,97.167 194.667,99.917 196.343 C 105.042 199.469,110.297 202.684,121.417 209.499 C 124.900 211.634,129.250 214.298,131.083 215.419 C 132.917 216.540,137.042 219.067,140.250 221.033 C 151.019 227.635,153.008 228.846,159.142 232.543 C 162.501 234.567,167.398 237.518,170.023 239.100 C 190.598 251.500,195.366 250.852,226.333 231.447 C 229.908 229.207,245.794 219.131,247.667 217.916 C 254.159 213.703,271.625 202.833,283.417 195.666 C 289.650 191.878,296.250 187.864,298.083 186.747 C 318.309 174.421,329.889 167.415,333.000 165.623 C 343.531 159.554,346.324 156.733,346.331 152.155 C 346.339 147.440,343.058 144.196,334.397 140.357 C 332.839 139.666,293.320 119.993,251.750 99.214 C 238.183 92.432,225.453 85.975,223.460 84.863 C 211.804 78.364,206.725 75.977,200.750 74.194 C 196.373 72.888,190.559 72.182,187.667 72.607 M331.358 189.493 C 328.067 190.434,324.352 193.249,323.322 195.583 C 321.920 198.762,321.540 217.042,322.099 254.500 C 322.565 285.780,322.602 285.377,319.028 287.889 C 307.061 296.302,312.234 314.977,327.000 316.672 C 338.875 318.036,347.476 308.711,344.871 297.297 C 344.006 293.508,343.237 292.198,339.993 288.992 C 336.535 285.573,336.433 285.327,336.140 279.667 C 335.950 275.998,336.065 257.891,336.351 246.583 C 337.123 216.015,336.527 191.257,334.975 189.387 C 334.709 189.066,332.637 189.127,331.358 189.493 M305.238 201.994 C 301.223 203.047,296.002 205.905,286.167 212.434 C 283.462 214.229,280.237 216.302,279.000 217.042 C 268.289 223.441,257.561 230.066,251.021 234.322 C 245.259 238.071,241.196 240.567,229.583 247.491 C 226.467 249.349,223.467 251.153,222.917 251.499 C 222.367 251.845,220.379 253.101,218.500 254.290 C 206.698 261.755,200.541 264.011,191.917 264.030 C 182.102 264.051,169.377 258.694,149.616 246.222 C 145.191 243.429,144.948 243.272,134.458 236.390 C 128.695 232.609,124.578 230.054,109.284 220.768 C 98.541 214.245,96.927 213.254,93.083 210.832 C 84.509 205.427,82.370 204.169,80.194 203.252 C 74.265 200.751,72.638 203.301,72.166 215.836 C 72.002 220.180,72.175 254.399,72.403 262.750 C 72.907 281.223,88.470 298.920,114.833 310.996 C 116.254 311.647,117.567 312.249,117.750 312.333 C 128.387 317.229,145.507 322.071,159.583 324.164 C 170.068 325.724,170.585 325.750,190.750 325.750 C 210.930 325.750,211.429 325.725,221.964 324.157 C 264.247 317.866,299.098 297.594,307.617 274.333 C 309.712 268.614,309.913 267.033,310.197 254.000 C 310.859 223.625,310.319 207.558,308.466 202.542 L 308.143 201.667 307.280 201.676 C 306.805 201.681,305.886 201.824,305.238 201.994 " stroke="none" fill="#440484" fill-rule="evenodd"></path><path id="path1" d="M190.083 0.181 C 188.983 0.254,186.658 0.396,184.917 0.497 C 183.175 0.597,181.225 0.751,180.583 0.840 C 179.942 0.928,178.667 1.076,177.750 1.167 C 175.947 1.348,175.525 1.398,172.750 1.758 C 170.755 2.017,169.008 2.291,165.917 2.830 C 164.817 3.022,163.394 3.258,162.755 3.353 C 162.116 3.449,161.465 3.596,161.308 3.680 C 161.150 3.765,160.825 3.833,160.583 3.833 C 159.916 3.833,152.195 5.623,147.917 6.770 C 145.254 7.483,141.201 8.643,140.750 8.821 C 140.567 8.893,139.179 9.351,137.667 9.839 C 135.047 10.683,132.739 11.477,130.917 12.160 C 128.824 12.945,126.874 13.704,126.417 13.913 C 126.142 14.038,125.710 14.193,125.457 14.256 C 125.204 14.319,124.956 14.437,124.905 14.518 C 124.855 14.600,124.687 14.669,124.532 14.672 C 124.377 14.675,123.950 14.823,123.583 15.000 C 123.217 15.177,122.867 15.325,122.807 15.328 C 122.746 15.331,122.108 15.602,121.390 15.931 C 119.345 16.867,119.040 17.000,118.933 17.000 C 118.877 17.000,117.735 17.525,116.393 18.167 C 115.052 18.808,113.923 19.333,113.886 19.333 C 113.743 19.333,107.334 22.585,105.417 23.630 C 104.317 24.229,103.117 24.881,102.750 25.078 C 97.242 28.039,86.976 34.649,81.333 38.868 C 76.120 42.766,69.590 48.042,67.985 49.651 C 67.840 49.797,67.282 50.292,66.747 50.750 C 64.836 52.387,63.692 53.482,58.824 58.333 C 54.144 62.998,52.160 65.088,49.324 68.340 C 48.198 69.631,47.634 70.291,45.833 72.424 C 45.512 72.804,44.875 73.583,44.417 74.156 C 43.958 74.728,43.497 75.289,43.392 75.402 C 42.720 76.128,37.209 83.539,35.822 85.583 C 35.324 86.317,34.855 86.992,34.780 87.083 C 34.589 87.316,30.993 92.788,30.563 93.500 C 30.369 93.821,29.725 94.871,29.132 95.833 C 26.692 99.789,23.964 104.709,21.509 109.583 C 19.114 114.337,18.410 115.795,17.285 118.333 C 17.062 118.837,16.727 119.587,16.542 120.000 C 16.357 120.412,16.001 121.237,15.752 121.833 C 15.503 122.429,15.170 123.217,15.012 123.583 C 14.581 124.586,14.249 125.421,13.584 127.167 C 13.253 128.037,12.825 129.162,12.633 129.667 C 12.441 130.171,12.182 130.820,12.058 131.109 C 11.935 131.397,11.833 131.717,11.833 131.819 C 11.833 131.921,11.763 132.135,11.677 132.294 C 11.512 132.599,10.020 136.936,9.254 139.333 C 8.627 141.299,6.934 147.153,6.724 148.083 C 6.682 148.267,6.540 148.792,6.408 149.250 C 6.007 150.639,4.710 156.180,4.066 159.250 C 3.931 159.892,3.745 160.762,3.651 161.184 C 3.558 161.607,3.413 162.394,3.330 162.934 C 3.246 163.475,3.022 164.817,2.831 165.917 C 2.251 169.250,1.694 173.011,1.584 174.333 C 1.527 175.021,1.411 175.921,1.326 176.333 C 1.241 176.746,1.097 177.946,1.007 179.000 C 0.917 180.054,0.808 181.084,0.765 181.288 C -0.171 185.762,-0.132 212.527,0.821 219.000 C 0.908 219.596,1.022 220.646,1.074 221.333 C 1.126 222.021,1.242 223.108,1.332 223.750 C 1.423 224.392,1.655 226.117,1.849 227.583 C 2.042 229.050,2.426 231.563,2.702 233.167 C 2.978 234.771,3.264 236.481,3.338 236.967 C 3.413 237.453,3.553 238.203,3.649 238.634 C 3.746 239.064,3.939 239.979,4.079 240.667 C 4.340 241.949,5.124 245.379,5.698 247.750 C 5.875 248.483,6.094 249.421,6.184 249.833 C 6.273 250.246,6.419 250.714,6.507 250.873 C 6.595 251.032,6.667 251.272,6.667 251.407 C 6.667 253.721,13.400 272.950,17.029 281.000 C 18.823 284.979,22.021 291.531,23.375 294.000 C 25.414 297.719,26.123 298.961,27.844 301.833 C 30.795 306.760,31.296 307.563,32.928 310.000 C 35.291 313.528,36.639 315.476,37.693 316.885 C 38.229 317.601,38.667 318.223,38.667 318.267 C 38.667 318.311,38.744 318.438,38.839 318.549 C 38.934 318.659,40.137 320.210,41.512 321.994 C 42.888 323.777,44.266 325.540,44.575 325.910 C 44.883 326.280,45.636 327.183,46.248 327.917 C 47.694 329.650,48.687 330.826,48.907 331.065 C 49.004 331.170,49.413 331.630,49.816 332.086 C 54.251 337.109,60.404 343.381,64.765 347.323 C 65.215 347.729,66.033 348.479,66.583 348.989 C 67.133 349.499,67.992 350.254,68.492 350.667 C 68.992 351.079,69.520 351.529,69.665 351.667 C 71.670 353.570,79.876 359.997,84.281 363.115 C 88.152 365.856,94.196 369.833,94.488 369.833 C 94.571 369.833,94.664 369.894,94.694 369.968 C 94.740 370.080,96.888 371.402,99.083 372.670 C 102.820 374.828,103.708 375.333,103.765 375.333 C 103.802 375.333,104.523 375.717,105.368 376.186 C 108.306 377.817,115.063 381.134,119.083 382.918 C 120.008 383.328,124.410 385.183,125.083 385.446 C 125.450 385.589,125.900 385.770,126.083 385.847 C 126.690 386.102,130.235 387.447,131.083 387.744 C 131.542 387.904,132.067 388.101,132.250 388.181 C 133.780 388.849,143.568 391.947,147.250 392.927 C 148.167 393.171,149.329 393.481,149.833 393.615 C 150.337 393.749,151.350 393.994,152.083 394.160 C 152.817 394.326,154.575 394.736,155.992 395.070 C 158.942 395.766,161.254 396.224,165.750 397.004 C 169.265 397.613,170.658 397.814,175.000 398.338 C 177.338 398.620,179.813 398.924,180.500 399.013 C 181.188 399.102,182.950 399.252,184.417 399.345 C 185.883 399.438,187.833 399.567,188.750 399.632 C 192.204 399.876,211.125 399.771,213.250 399.496 C 213.800 399.425,215.197 399.319,216.354 399.261 C 217.511 399.203,218.636 399.116,218.854 399.068 C 219.072 399.020,220.075 398.913,221.083 398.829 C 224.005 398.587,227.997 398.037,233.333 397.141 C 237.975 396.361,238.046 396.348,238.833 396.172 C 239.246 396.080,240.371 395.849,241.333 395.659 C 243.058 395.318,248.030 394.159,249.167 393.832 C 249.487 393.740,250.069 393.590,250.458 393.499 C 252.502 393.021,252.406 393.048,256.500 391.833 C 257.462 391.548,258.775 391.159,259.417 390.969 C 260.823 390.554,263.834 389.551,266.000 388.776 C 266.871 388.465,267.733 388.158,267.917 388.094 C 268.100 388.029,269.450 387.520,270.917 386.963 C 272.383 386.405,273.883 385.845,274.250 385.717 C 274.617 385.590,275.312 385.301,275.796 385.076 C 276.280 384.851,276.719 384.667,276.773 384.667 C 276.874 384.667,279.806 383.410,281.250 382.747 C 281.708 382.537,282.496 382.178,283.000 381.950 C 285.692 380.731,286.814 380.196,289.167 379.011 C 301.285 372.905,310.797 366.959,321.659 358.702 C 323.922 356.983,328.459 353.356,329.100 352.755 C 329.200 352.661,329.688 352.235,330.183 351.809 C 330.678 351.383,331.276 350.858,331.511 350.643 C 331.747 350.427,332.204 350.025,332.529 349.750 C 333.153 349.221,335.573 347.010,337.144 345.534 C 343.060 339.978,351.642 330.761,355.250 326.090 C 355.525 325.733,355.945 325.211,356.184 324.929 C 356.678 324.346,360.450 319.430,361.333 318.218 C 363.572 315.148,364.712 313.529,365.893 311.750 C 366.319 311.108,366.744 310.471,366.838 310.333 C 367.092 309.961,369.259 306.600,370.169 305.167 C 371.050 303.779,374.805 297.368,375.197 296.583 C 375.334 296.308,375.859 295.333,376.362 294.417 C 377.418 292.495,380.829 285.678,381.657 283.833 C 381.966 283.146,382.477 282.021,382.793 281.333 C 383.109 280.646,383.816 278.996,384.364 277.667 C 385.381 275.200,385.741 274.340,386.004 273.750 C 386.234 273.235,387.839 269.018,388.161 268.083 C 388.319 267.625,388.921 265.825,389.499 264.083 C 390.077 262.342,390.612 260.788,390.689 260.631 C 390.766 260.473,390.899 260.061,390.984 259.714 C 391.069 259.367,391.301 258.558,391.499 257.917 C 392.160 255.779,392.357 255.099,392.948 252.917 C 394.288 247.970,395.531 242.753,396.105 239.667 C 396.250 238.887,396.470 237.725,396.593 237.083 C 397.102 234.438,398.052 228.546,398.326 226.333 C 398.422 225.554,398.530 224.767,398.565 224.583 C 398.600 224.400,398.716 223.275,398.822 222.083 C 398.928 220.892,399.088 219.429,399.177 218.833 C 399.266 218.237,399.414 216.475,399.505 214.917 C 399.596 213.358,399.726 211.521,399.792 210.833 C 399.950 209.208,399.950 190.629,399.793 189.000 C 399.726 188.313,399.595 186.475,399.503 184.917 C 399.410 183.358,399.261 181.596,399.171 181.000 C 399.082 180.404,398.928 178.979,398.828 177.833 C 398.636 175.627,397.863 169.979,397.333 166.917 C 397.158 165.908,396.980 164.858,396.937 164.583 C 396.894 164.308,396.735 163.446,396.586 162.667 C 396.436 161.887,396.208 160.684,396.079 159.992 C 395.282 155.719,391.743 141.935,391.150 140.794 C 391.068 140.635,391.000 140.384,391.000 140.236 C 391.000 140.088,390.900 139.731,390.777 139.442 C 390.655 139.153,390.087 137.492,389.514 135.750 C 388.942 134.008,388.412 132.433,388.337 132.250 C 388.262 132.067,388.121 131.692,388.024 131.417 C 387.612 130.246,385.897 125.819,385.571 125.083 C 385.449 124.808,385.129 124.021,384.859 123.333 C 384.589 122.646,384.136 121.575,383.851 120.954 C 383.566 120.333,383.333 119.792,383.333 119.752 C 383.333 119.712,382.996 118.957,382.583 118.074 C 382.171 117.191,381.833 116.434,381.833 116.391 C 381.833 116.214,377.314 107.120,376.606 105.874 C 376.185 105.132,375.612 104.088,375.332 103.554 C 375.051 103.020,374.753 102.471,374.668 102.333 C 374.584 102.196,373.867 100.958,373.076 99.583 C 370.386 94.908,366.137 88.298,363.132 84.111 C 361.361 81.646,359.564 79.221,359.030 78.580 C 358.876 78.395,358.415 77.795,358.006 77.247 C 356.527 75.265,351.542 69.233,350.500 68.164 C 350.363 68.023,350.034 67.647,349.769 67.329 C 347.069 64.079,335.076 52.089,332.542 50.106 C 332.291 49.910,331.970 49.637,331.828 49.500 C 331.523 49.205,329.929 47.823,328.750 46.831 C 328.292 46.445,327.729 45.969,327.500 45.772 C 327.271 45.576,326.371 44.858,325.500 44.177 C 324.629 43.497,323.879 42.895,323.833 42.841 C 323.787 42.786,323.337 42.426,322.833 42.039 C 322.329 41.653,321.841 41.274,321.748 41.199 C 321.656 41.123,320.981 40.619,320.248 40.079 C 319.516 39.539,318.842 39.038,318.750 38.967 C 317.584 38.064,317.535 38.029,315.042 36.280 C 314.560 35.943,313.773 35.389,313.292 35.050 C 309.421 32.320,301.276 27.275,296.917 24.906 C 296.275 24.558,295.150 23.947,294.417 23.550 C 292.451 22.484,286.879 19.696,284.583 18.630 C 282.587 17.703,281.824 17.359,280.250 16.677 C 279.792 16.478,279.267 16.249,279.083 16.168 C 278.900 16.087,278.000 15.708,277.083 15.326 C 276.167 14.945,275.218 14.528,274.974 14.400 C 274.731 14.271,274.446 14.167,274.340 14.167 C 274.235 14.167,273.834 14.027,273.449 13.857 C 273.065 13.686,272.000 13.263,271.083 12.917 C 270.167 12.570,269.180 12.185,268.891 12.060 C 268.603 11.935,268.261 11.833,268.133 11.833 C 268.005 11.833,267.829 11.770,267.742 11.693 C 267.655 11.615,265.783 10.968,263.583 10.255 C 261.383 9.541,259.433 8.896,259.250 8.821 C 258.727 8.605,252.497 6.839,251.833 6.718 C 251.604 6.676,251.267 6.579,251.083 6.502 C 250.680 6.332,246.942 5.434,242.667 4.479 C 239.894 3.860,235.400 3.025,230.583 2.235 C 229.758 2.100,227.883 1.843,226.417 1.664 C 224.950 1.485,223.563 1.302,223.333 1.256 C 223.104 1.211,222.017 1.097,220.917 1.003 C 219.817 0.910,218.729 0.801,218.500 0.762 C 218.271 0.722,216.696 0.606,215.000 0.503 C 213.304 0.401,210.804 0.246,209.445 0.158 C 206.542 -0.028,192.976 -0.012,190.083 0.181 M196.589 73.063 C 200.272 73.843,203.696 74.946,207.750 76.658 C 209.266 77.299,217.188 81.192,217.583 81.492 C 217.675 81.561,218.275 81.902,218.917 82.249 C 219.558 82.596,221.021 83.404,222.167 84.046 C 223.313 84.688,225.000 85.625,225.917 86.129 C 228.792 87.710,330.970 138.710,334.057 140.105 C 342.822 144.066,345.692 146.628,346.354 151.081 C 347.114 156.187,344.083 159.408,332.083 166.250 C 330.342 167.243,328.317 168.431,327.583 168.889 C 326.850 169.347,324.563 170.746,322.500 171.997 C 307.846 180.886,271.809 202.833,269.083 204.528 C 262.351 208.716,244.396 220.044,241.000 222.247 C 240.342 222.673,236.844 224.904,234.583 226.339 C 233.758 226.862,232.146 227.888,231.000 228.617 C 228.982 229.903,226.416 231.504,221.917 234.288 C 195.097 250.878,189.959 251.279,168.750 238.436 C 166.642 237.159,161.842 234.260,158.083 231.994 C 154.325 229.728,149.563 226.838,147.500 225.573 C 142.518 222.517,141.283 221.761,135.500 218.221 C 132.796 216.566,128.596 213.993,126.167 212.502 C 123.737 211.012,119.350 208.326,116.417 206.532 C 113.483 204.739,110.146 202.697,109.000 201.994 C 105.119 199.612,92.109 191.641,87.250 188.668 C 84.592 187.041,79.754 184.077,76.500 182.082 C 73.246 180.086,69.083 177.535,67.250 176.413 C 60.258 172.133,52.062 167.118,47.250 164.174 C 39.179 159.236,37.604 157.966,36.270 155.313 C 33.187 149.180,39.186 143.402,56.750 135.587 C 59.583 134.327,76.616 125.865,82.167 122.961 C 83.832 122.089,87.108 120.419,99.583 114.083 C 102.608 112.546,106.508 110.558,108.250 109.665 C 119.119 104.091,151.308 88.045,159.333 84.200 C 160.754 83.519,162.854 82.514,164.000 81.966 C 182.060 73.323,184.491 72.475,190.917 72.579 C 194.064 72.630,194.868 72.698,196.589 73.063 M335.094 189.403 C 336.570 191.421,337.143 212.177,336.530 241.333 C 336.025 265.301,335.942 273.041,336.139 277.750 C 336.454 285.302,336.479 285.376,339.752 288.583 C 342.857 291.627,343.554 292.625,344.413 295.256 C 348.224 306.930,341.109 316.833,328.909 316.833 C 312.740 316.833,306.191 296.783,319.348 287.563 C 322.477 285.371,322.468 285.473,322.007 254.417 C 321.545 223.286,321.899 201.156,322.931 196.670 C 323.565 193.917,326.632 191.114,330.671 189.599 C 332.315 188.983,334.709 188.877,335.094 189.403 M308.538 202.553 C 310.419 207.629,310.954 220.356,310.434 247.667 C 310.095 265.487,309.986 266.901,308.579 271.750 C 303.454 289.417,284.361 305.248,255.417 315.831 C 252.464 316.911,244.670 319.391,242.917 319.810 C 242.550 319.897,240.787 320.349,239.000 320.813 C 237.213 321.277,235.000 321.815,234.083 322.009 C 230.120 322.844,229.268 323.013,226.583 323.499 C 215.002 325.592,210.194 325.917,190.750 325.917 C 173.515 325.917,169.054 325.703,161.167 324.502 C 142.292 321.626,125.717 316.617,111.463 309.481 C 87.458 297.465,74.087 282.060,72.420 264.500 C 72.018 260.260,71.974 213.846,72.369 210.495 C 73.089 204.387,74.227 202.333,76.892 202.333 C 79.264 202.333,82.010 203.735,91.917 210.001 C 93.842 211.219,96.054 212.605,96.833 213.083 C 97.612 213.560,99.263 214.572,100.500 215.333 C 101.737 216.093,105.225 218.212,108.250 220.041 C 111.275 221.870,114.425 223.782,115.250 224.291 C 116.075 224.799,117.087 225.420,117.500 225.671 C 125.213 230.360,129.939 233.324,135.083 236.698 C 136.825 237.840,139.337 239.489,140.667 240.361 C 166.565 257.356,180.939 264.004,191.785 263.999 C 200.374 263.996,206.942 261.568,218.734 254.035 C 220.393 252.975,226.025 249.544,231.250 246.411 C 236.475 243.277,241.987 239.942,243.500 239.001 C 245.012 238.059,246.662 237.033,247.167 236.721 C 247.671 236.408,248.871 235.636,249.833 235.005 C 252.858 233.021,254.967 231.673,258.833 229.251 C 264.866 225.471,266.545 224.443,273.667 220.166 C 280.551 216.031,281.168 215.642,288.000 211.138 C 298.354 204.313,303.828 201.622,307.162 201.719 L 308.241 201.750 308.538 202.553 " stroke="none" fill="#aba3cb" fill-rule="evenodd"></path><path id="path2" d="M343.667 145.917 C 343.978 146.237,344.270 146.500,344.315 146.500 C 344.361 146.500,344.144 146.237,343.833 145.917 C 343.522 145.596,343.230 145.333,343.185 145.333 C 343.139 145.333,343.356 145.596,343.667 145.917 M38.575 146.208 L 37.917 146.917 38.625 146.258 C 39.284 145.645,39.410 145.500,39.284 145.500 C 39.257 145.500,38.938 145.819,38.575 146.208 M346.381 152.250 C 346.382 152.708,346.415 152.876,346.453 152.623 C 346.491 152.369,346.490 151.994,346.451 151.789 C 346.411 151.584,346.380 151.792,346.381 152.250 M333.292 189.118 C 333.498 189.157,333.835 189.157,334.042 189.118 C 334.248 189.078,334.079 189.045,333.667 189.045 C 333.254 189.045,333.085 189.078,333.292 189.118 M336.724 209.583 C 336.724 210.317,336.754 210.596,336.789 210.204 C 336.824 209.812,336.824 209.212,336.788 208.871 C 336.752 208.529,336.723 208.850,336.724 209.583 M321.872 212.000 C 321.872 212.321,321.906 212.452,321.948 212.292 C 321.990 212.131,321.990 211.869,321.948 211.708 C 321.906 211.548,321.872 211.679,321.872 212.000 M72.039 215.500 C 72.039 215.821,72.073 215.952,72.115 215.792 C 72.157 215.631,72.157 215.369,72.115 215.208 C 72.073 215.048,72.039 215.179,72.039 215.500 M310.562 223.500 C 310.562 224.463,310.589 224.856,310.623 224.375 C 310.657 223.894,310.657 223.106,310.623 222.625 C 310.589 222.144,310.562 222.537,310.562 223.500 M336.728 224.333 C 336.728 225.296,336.756 225.690,336.790 225.208 C 336.823 224.727,336.823 223.940,336.790 223.458 C 336.756 222.977,336.728 223.371,336.728 224.333 M310.566 237.250 C 310.566 238.533,310.592 239.036,310.624 238.368 C 310.656 237.699,310.655 236.649,310.623 236.034 C 310.591 235.420,310.565 235.967,310.566 237.250 M336.542 236.583 C 336.544 236.950,336.578 237.080,336.618 236.873 C 336.658 236.666,336.656 236.366,336.615 236.206 C 336.573 236.047,336.540 236.217,336.542 236.583 M72.062 237.833 C 72.062 238.796,72.089 239.190,72.123 238.708 C 72.157 238.227,72.157 237.440,72.123 236.958 C 72.089 236.477,72.062 236.871,72.062 237.833 M336.383 246.000 C 336.383 246.504,336.415 246.710,336.453 246.458 C 336.491 246.206,336.491 245.794,336.453 245.542 C 336.415 245.290,336.383 245.496,336.383 246.000 M321.885 246.417 C 321.886 246.967,321.917 247.172,321.954 246.872 C 321.991 246.572,321.990 246.122,321.952 245.872 C 321.914 245.622,321.884 245.867,321.885 246.417 M310.383 246.667 C 310.383 247.171,310.415 247.377,310.453 247.125 C 310.491 246.873,310.491 246.460,310.453 246.208 C 310.415 245.956,310.383 246.162,310.383 246.667 M336.225 254.167 C 336.225 254.946,336.254 255.265,336.289 254.875 C 336.324 254.485,336.324 253.848,336.289 253.458 C 336.254 253.069,336.225 253.387,336.225 254.167 M310.220 254.167 C 310.220 254.762,310.250 255.006,310.287 254.708 C 310.324 254.410,310.324 253.923,310.287 253.625 C 310.250 253.327,310.220 253.571,310.220 254.167 M72.240 258.000 C 72.240 260.612,72.263 261.681,72.291 260.375 C 72.319 259.069,72.319 256.931,72.291 255.625 C 72.263 254.319,72.240 255.387,72.240 258.000 M322.053 259.500 C 322.053 260.096,322.084 260.340,322.121 260.042 C 322.158 259.744,322.158 259.256,322.121 258.958 C 322.084 258.660,322.053 258.904,322.053 259.500 M310.045 262.833 C 310.045 263.246,310.078 263.415,310.118 263.208 C 310.157 263.002,310.157 262.665,310.118 262.458 C 310.078 262.252,310.045 262.421,310.045 262.833 M336.048 264.083 C 336.049 264.542,336.081 264.709,336.120 264.456 C 336.158 264.203,336.157 263.828,336.117 263.623 C 336.078 263.418,336.046 263.625,336.048 264.083 M194.208 263.948 C 194.369 263.990,194.631 263.990,194.792 263.948 C 194.952 263.906,194.821 263.872,194.500 263.872 C 194.179 263.872,194.048 263.906,194.208 263.948 M322.232 270.667 C 322.232 271.904,322.258 272.410,322.290 271.792 C 322.322 271.173,322.322 270.160,322.290 269.542 C 322.258 268.923,322.232 269.429,322.232 270.667 M322.218 279.250 C 322.219 279.800,322.250 280.005,322.287 279.705 C 322.325 279.406,322.324 278.956,322.286 278.705 C 322.248 278.455,322.217 278.700,322.218 279.250 M295.913 291.875 L 294.583 293.250 295.958 291.921 C 297.235 290.686,297.409 290.500,297.288 290.500 C 297.263 290.500,296.644 291.119,295.913 291.875 M86.500 292.250 C 87.275 293.029,87.947 293.667,87.993 293.667 C 88.038 293.667,87.442 293.029,86.667 292.250 C 85.892 291.471,85.220 290.833,85.174 290.833 C 85.128 290.833,85.725 291.471,86.500 292.250 M345.388 301.583 C 345.389 302.225,345.419 302.467,345.455 302.121 C 345.491 301.775,345.490 301.250,345.454 300.955 C 345.417 300.659,345.387 300.942,345.388 301.583 M177.460 325.951 C 177.668 325.991,177.968 325.990,178.127 325.948 C 178.286 325.906,178.117 325.874,177.750 325.875 C 177.383 325.877,177.253 325.911,177.460 325.951 M203.458 325.951 C 203.665 325.991,204.002 325.991,204.208 325.951 C 204.415 325.911,204.246 325.879,203.833 325.879 C 203.421 325.879,203.252 325.911,203.458 325.951 " stroke="none" fill="#7f66ad" fill-rule="evenodd"></path><path id="path3" d="M37.833 157.552 C 37.833 157.581,38.077 157.825,38.375 158.094 L 38.917 158.583 38.427 158.042 C 37.971 157.537,37.833 157.423,37.833 157.552 M336.372 199.667 C 336.372 199.987,336.406 200.119,336.448 199.958 C 336.490 199.798,336.490 199.535,336.448 199.375 C 336.406 199.215,336.372 199.346,336.372 199.667 M322.050 207.500 C 322.050 208.004,322.081 208.210,322.119 207.958 C 322.158 207.706,322.158 207.294,322.119 207.042 C 322.081 206.790,322.050 206.996,322.050 207.500 M336.740 216.583 C 336.740 219.242,336.763 220.306,336.791 218.948 C 336.819 217.590,336.819 215.415,336.791 214.115 C 336.763 212.814,336.740 213.925,336.740 216.583 M321.885 213.750 C 321.886 214.300,321.917 214.505,321.954 214.205 C 321.991 213.906,321.990 213.456,321.952 213.205 C 321.914 212.955,321.884 213.200,321.885 213.750 M72.055 217.417 C 72.055 218.058,72.086 218.300,72.122 217.955 C 72.158 217.609,72.157 217.084,72.120 216.788 C 72.083 216.492,72.054 216.775,72.055 217.417 M310.572 230.083 C 310.572 232.375,310.596 233.336,310.624 232.218 C 310.653 231.100,310.653 229.225,310.625 228.051 C 310.596 226.877,310.572 227.792,310.572 230.083 M72.067 232.750 C 72.068 234.217,72.093 234.794,72.124 234.034 C 72.155 233.273,72.155 232.073,72.124 231.367 C 72.093 230.661,72.067 231.283,72.067 232.750 M336.539 235.167 C 336.539 235.487,336.573 235.619,336.615 235.458 C 336.657 235.298,336.657 235.035,336.615 234.875 C 336.573 234.715,336.539 234.846,336.539 235.167 M321.893 243.333 C 321.893 244.204,321.922 244.560,321.956 244.125 C 321.990 243.690,321.990 242.977,321.956 242.542 C 321.922 242.106,321.893 242.463,321.893 243.333 M336.393 243.333 C 336.393 244.204,336.422 244.560,336.456 244.125 C 336.490 243.690,336.490 242.977,336.456 242.542 C 336.422 242.106,336.393 242.463,336.393 243.333 M310.381 244.583 C 310.382 245.042,310.415 245.209,310.453 244.956 C 310.491 244.703,310.490 244.328,310.451 244.123 C 310.411 243.918,310.380 244.125,310.381 244.583 M72.230 250.083 C 72.231 251.183,72.258 251.612,72.290 251.035 C 72.323 250.459,72.323 249.559,72.290 249.035 C 72.257 248.512,72.230 248.983,72.230 250.083 M310.221 251.250 C 310.222 251.892,310.252 252.134,310.288 251.788 C 310.324 251.442,310.324 250.917,310.287 250.621 C 310.250 250.325,310.221 250.608,310.221 251.250 M336.214 251.583 C 336.216 252.042,336.248 252.209,336.286 251.956 C 336.325 251.703,336.324 251.328,336.284 251.123 C 336.244 250.918,336.213 251.125,336.214 251.583 M322.065 255.917 C 322.065 257.108,322.092 257.574,322.124 256.951 C 322.156 256.329,322.156 255.354,322.123 254.785 C 322.091 254.216,322.064 254.725,322.065 255.917 M310.062 259.917 C 310.063 260.925,310.090 261.316,310.123 260.786 C 310.157 260.255,310.156 259.430,310.123 258.952 C 310.089 258.474,310.062 258.908,310.062 259.917 M336.042 262.250 C 336.044 262.617,336.078 262.747,336.118 262.540 C 336.158 262.332,336.156 262.032,336.115 261.873 C 336.073 261.714,336.040 261.883,336.042 262.250 M191.292 264.118 C 191.498 264.157,191.835 264.157,192.042 264.118 C 192.248 264.078,192.079 264.045,191.667 264.045 C 191.254 264.045,191.085 264.078,191.292 264.118 M322.223 266.833 C 322.223 267.521,322.252 267.802,322.288 267.458 C 322.324 267.115,322.324 266.552,322.288 266.208 C 322.252 265.865,322.223 266.146,322.223 266.833 M184.708 325.958 C 188.077 325.983,193.590 325.983,196.958 325.958 C 200.327 325.933,197.571 325.912,190.833 325.912 C 184.096 325.912,181.340 325.933,184.708 325.958 " stroke="none" fill="#6c4ca0" fill-rule="evenodd"></path><path id="path4" d="M336.705 211.333 C 336.705 211.654,336.740 211.785,336.782 211.625 C 336.823 211.465,336.823 211.202,336.782 211.042 C 336.740 210.881,336.705 211.012,336.705 211.333 M336.712 222.000 C 336.712 222.412,336.745 222.581,336.784 222.375 C 336.824 222.169,336.824 221.831,336.784 221.625 C 336.745 221.419,336.712 221.588,336.712 222.000 M72.212 252.667 C 72.212 253.079,72.245 253.248,72.284 253.042 C 72.324 252.835,72.324 252.498,72.284 252.292 C 72.245 252.085,72.212 252.254,72.212 252.667 " stroke="none" fill="#6c54a4" fill-rule="evenodd"></path></g></svg>