<svg id="svg" version="1.1" xmlns="http://www.w3.org/2000/svg" xmlns:xlink="http://www.w3.org/1999/xlink" width="400" height="400.0976800976801" viewBox="0, 0, 400,400.0976800976801"><g id="svgg"><path id="path0" d="M209.167 62.128 C 206.156 62.330,199.890 64.443,193.250 67.495 C 192.608 67.790,191.258 68.410,190.250 68.873 C 189.242 69.336,182.867 72.502,176.083 75.908 C 156.107 85.937,155.682 86.105,151.487 85.595 C 147.426 85.101,144.946 84.388,132.750 80.208 C 128.192 78.646,127.863 78.544,125.333 77.921 C 119.672 76.527,117.542 76.589,113.750 78.259 C 113.475 78.380,111.862 79.050,110.167 79.748 C 108.471 80.445,106.858 81.116,106.583 81.239 C 105.689 81.637,103.260 82.490,102.703 82.601 C 102.006 82.741,102.029 82.655,102.184 84.484 C 102.499 88.218,103.472 89.866,106.671 92.088 C 112.822 96.359,117.154 99.988,119.019 102.432 C 119.738 103.374,119.818 103.667,119.356 103.667 C 117.977 103.667,112.983 105.886,107.914 108.752 C 103.736 111.114,101.045 112.381,98.206 113.322 C 96.315 113.948,96.118 113.953,95.820 113.375 C 94.117 110.067,85.843 99.385,82.887 96.677 C 80.559 94.543,80.269 94.454,77.124 94.919 C 70.391 95.914,63.269 99.033,62.236 101.440 C 61.310 103.595,63.873 110.257,71.331 125.083 C 73.499 129.392,75.792 134.004,76.428 135.332 C 81.724 146.403,85.153 149.285,94.571 150.583 C 101.796 151.578,107.332 150.584,117.083 146.542 C 126.445 142.661,128.717 141.869,132.949 141.011 C 134.713 140.653,136.254 140.558,136.094 140.816 C 136.044 140.897,135.898 141.441,135.771 142.024 C 135.543 143.065,134.036 148.920,132.923 153.083 C 132.550 154.481,130.504 162.045,130.331 162.667 C 126.955 174.815,129.749 176.447,143.250 170.213 C 150.833 166.712,151.938 165.906,154.437 162.052 C 156.280 159.211,158.114 156.486,163.110 149.167 C 163.954 147.929,165.229 146.054,165.943 145.000 C 166.656 143.946,168.673 140.983,170.424 138.417 C 172.176 135.850,174.495 132.438,175.579 130.833 C 180.796 123.113,184.743 120.421,200.641 113.739 C 202.718 112.866,204.567 112.084,204.750 112.000 C 204.933 111.917,205.571 111.653,206.167 111.414 C 206.762 111.175,207.475 110.877,207.750 110.752 C 208.025 110.627,209.262 110.099,210.500 109.579 C 215.045 107.669,222.246 104.229,225.333 102.492 C 225.929 102.157,227.392 101.373,228.583 100.750 C 229.775 100.128,230.825 99.565,230.917 99.500 C 231.008 99.435,232.058 98.872,233.250 98.250 C 234.442 97.627,235.930 96.829,236.557 96.475 C 237.184 96.122,237.725 95.833,237.759 95.833 C 237.793 95.833,239.043 95.171,240.536 94.361 C 242.029 93.552,244.225 92.378,245.417 91.753 C 246.608 91.128,247.958 90.413,248.417 90.163 C 248.875 89.914,249.925 89.351,250.750 88.912 C 262.382 82.726,262.641 82.526,263.256 79.243 C 264.155 74.443,262.981 71.369,259.554 69.553 L 258.250 68.862 252.917 69.006 C 249.983 69.085,244.696 69.232,241.167 69.333 C 231.517 69.608,230.687 69.436,226.204 66.230 C 222.016 63.235,215.618 61.695,209.167 62.128 M216.500 71.805 C 217.865 72.206,219.833 73.022,222.500 74.293 C 223.646 74.840,224.681 75.317,224.801 75.355 C 225.369 75.533,221.486 79.938,219.740 81.097 C 215.498 83.914,209.656 83.278,206.752 79.683 C 205.718 78.404,205.688 78.250,206.200 76.890 C 207.997 72.118,211.565 70.357,216.500 71.805 M196.899 78.625 C 198.543 84.087,198.429 84.396,194.020 86.448 C 193.160 86.848,191.118 87.849,189.482 88.671 L 186.507 90.166 186.274 89.792 C 185.670 88.820,183.517 84.441,183.587 84.327 C 183.926 83.778,191.944 79.857,194.252 79.111 C 197.090 78.194,196.786 78.250,196.899 78.625 M176.750 89.904 C 177.747 90.262,177.589 91.648,176.310 93.768 C 173.549 98.345,167.738 99.954,163.973 97.185 C 162.760 96.293,162.722 96.147,163.393 94.954 C 164.890 92.290,168.195 90.381,172.667 89.596 C 173.431 89.462,176.075 89.661,176.750 89.904 M154.864 98.672 C 156.180 99.038,156.921 100.718,156.440 102.244 C 155.822 104.205,153.494 105.853,148.333 107.982 C 147.188 108.455,146.051 108.953,145.808 109.088 C 145.564 109.223,145.264 109.332,145.141 109.330 C 144.865 109.326,141.935 103.663,142.118 103.488 C 142.191 103.419,143.712 102.611,145.500 101.693 C 150.881 98.927,153.148 98.196,154.864 98.672 M134.837 108.835 L 136.167 109.504 136.167 110.529 C 136.167 114.810,132.093 117.376,123.911 118.250 L 122.905 118.358 122.703 117.176 C 121.896 112.469,124.547 109.932,131.333 108.916 C 131.746 108.854,132.346 108.668,132.667 108.503 C 133.452 108.099,133.338 108.082,134.837 108.835 M114.399 117.830 C 114.628 118.286,115.270 119.512,115.825 120.554 C 117.057 122.868,117.073 122.670,115.621 123.140 C 114.959 123.354,112.855 124.313,110.946 125.270 C 105.029 128.239,103.735 128.432,102.712 126.498 C 101.167 123.575,103.562 121.232,111.500 117.902 C 114.065 116.826,113.897 116.830,114.399 117.830 M224.500 122.331 C 220.250 122.594,213.663 123.524,209.583 124.438 C 199.075 126.793,187.584 130.825,184.319 133.303 C 182.236 134.885,181.533 135.870,175.505 145.667 C 174.461 147.362,173.496 148.881,173.361 149.042 C 172.398 150.183,177.776 147.794,182.980 144.769 C 184.023 144.163,184.898 143.667,184.925 143.667 C 184.952 143.667,185.636 143.283,186.445 142.815 C 202.945 133.266,220.315 130.332,242.583 133.332 C 244.865 133.639,245.697 133.768,249.000 134.329 C 249.596 134.430,251.508 134.819,253.250 135.194 C 254.992 135.569,256.624 135.912,256.877 135.957 C 257.502 136.067,257.520 136.134,257.233 137.235 C 256.302 140.799,254.804 141.943,250.833 142.121 C 248.196 142.238,235.087 141.860,232.333 141.587 C 229.999 141.355,229.042 141.233,223.833 140.497 C 217.130 139.551,215.843 139.419,210.866 139.163 C 205.703 138.897,205.022 139.096,201.821 141.809 C 198.498 144.626,197.734 145.195,196.417 145.835 C 193.989 147.015,192.345 147.135,189.729 146.322 C 185.172 144.905,183.066 146.360,178.430 154.126 C 176.988 156.543,175.782 157.565,172.525 159.135 C 170.050 160.327,166.907 161.498,166.173 161.501 C 164.948 161.505,163.722 162.444,161.909 164.766 C 161.326 165.513,160.601 166.329,160.299 166.579 C 159.997 166.829,158.962 167.799,158.000 168.735 C 149.793 176.713,147.362 178.750,146.556 178.319 C 145.008 177.493,138.444 178.858,136.000 180.514 C 133.236 182.388,132.006 184.659,128.967 193.500 C 122.218 213.138,120.852 233.764,125.021 253.083 C 126.089 258.033,128.432 265.774,129.762 268.750 C 129.885 269.025,130.244 269.887,130.559 270.667 C 136.180 284.564,146.285 298.739,158.000 309.163 C 179.998 328.736,207.854 339.036,235.572 337.848 C 243.328 337.516,248.783 336.740,256.333 334.896 C 259.145 334.209,259.394 334.136,263.583 332.752 C 266.528 331.779,268.857 330.918,270.667 330.134 C 271.079 329.955,271.679 329.696,272.000 329.557 C 284.481 324.157,296.289 315.935,306.589 305.473 C 309.480 302.537,310.269 301.685,312.520 299.069 C 313.827 297.551,314.065 297.266,315.004 296.083 C 333.955 272.219,341.745 242.301,336.396 213.917 C 333.710 199.659,329.591 188.686,322.006 175.583 C 309.297 153.628,286.764 135.202,263.000 127.333 C 259.006 126.010,257.366 125.551,253.167 124.580 C 249.273 123.679,245.074 123.010,240.083 122.494 C 237.978 122.276,227.206 122.164,224.500 122.331 M99.391 154.830 C 97.232 156.669,94.484 159.960,89.162 167.083 C 85.002 172.652,84.527 173.264,81.365 177.128 C 76.828 182.674,75.293 185.032,74.321 187.953 C 73.845 189.383,73.886 189.466,75.333 190.025 C 77.884 191.009,83.591 192.333,85.279 192.333 C 85.697 192.333,85.833 192.405,85.831 192.625 C 85.824 193.585,85.463 199.767,85.245 202.667 C 85.103 204.546,84.883 207.546,84.754 209.333 C 84.626 211.121,84.425 213.746,84.309 215.167 C 83.681 222.857,84.088 237.086,85.096 242.667 C 86.346 249.592,89.880 261.792,91.832 265.917 C 91.919 266.100,92.209 266.813,92.477 267.500 C 99.674 285.953,121.458 310.995,137.075 318.765 C 139.182 319.813,142.713 321.167,143.342 321.167 C 144.295 321.167,139.316 316.623,133.949 312.596 C 125.802 306.482,118.228 297.211,111.217 284.773 C 100.560 265.864,96.786 245.133,100.153 224.000 C 100.918 219.196,101.228 217.555,102.523 211.417 C 103.904 204.876,104.591 200.838,104.862 197.669 L 105.062 195.333 105.898 195.333 C 106.898 195.333,112.008 195.953,112.833 196.175 C 114.924 196.736,116.965 196.196,117.569 194.923 C 118.762 192.409,118.061 189.333,114.336 180.750 C 113.858 179.650,112.995 177.475,112.418 175.917 C 111.469 173.353,111.095 172.373,109.715 168.833 C 109.483 168.237,109.195 167.525,109.076 167.250 C 108.956 166.975,108.619 166.188,108.326 165.500 C 106.516 161.252,104.172 157.363,102.184 155.310 C 100.687 153.765,100.650 153.758,99.391 154.830 M279.579 176.431 C 283.438 177.236,285.926 178.942,292.167 185.063 C 297.699 190.488,298.239 190.842,300.921 190.798 C 304.494 190.739,307.446 192.134,309.730 194.960 C 311.252 196.845,314.900 198.814,315.420 198.032 C 316.698 196.109,316.753 192.331,315.539 189.925 L 315.290 189.434 315.770 189.746 C 319.874 192.414,322.969 196.750,324.302 201.695 C 325.475 206.046,326.162 214.500,325.343 214.500 C 325.165 214.500,324.973 214.575,324.917 214.667 C 324.860 214.758,324.649 214.834,324.448 214.834 C 322.131 214.840,317.770 219.677,314.956 225.362 C 313.651 227.999,313.662 227.910,314.607 228.232 C 315.641 228.585,315.626 228.587,316.623 227.945 C 317.553 227.346,319.631 226.409,319.756 226.533 C 319.797 226.575,319.989 227.579,320.181 228.763 C 320.815 232.677,320.972 233.567,321.321 235.227 C 321.778 237.402,321.764 238.271,321.250 239.433 C 320.901 240.222,320.833 240.631,320.833 241.960 C 320.833 244.254,321.292 246.463,321.543 245.375 C 321.807 244.228,321.851 247.677,321.595 249.500 C 320.608 256.541,318.237 265.102,316.287 268.667 C 313.523 273.721,310.967 276.427,306.711 278.806 C 304.803 279.873,305.232 279.934,302.316 278.184 C 298.916 276.143,296.567 275.333,294.042 275.333 C 292.993 275.333,292.950 275.153,293.494 273.028 C 294.316 269.812,295.515 268.614,300.417 266.111 C 309.673 261.383,313.232 257.338,315.174 249.338 C 315.354 248.599,315.381 248.611,314.318 248.977 C 311.867 249.820,310.352 250.884,305.029 255.501 C 300.902 259.079,300.998 259.018,300.322 258.518 C 298.747 257.353,294.489 257.174,292.372 258.182 C 291.830 258.440,290.748 259.401,288.917 261.250 C 285.154 265.050,283.244 266.337,276.467 269.648 C 274.386 270.664,272.420 271.727,272.097 272.010 C 271.279 272.729,270.732 272.579,270.932 271.691 C 271.625 268.600,270.167 265.848,266.286 262.927 C 265.579 262.395,265.000 261.873,265.000 261.767 C 265.000 259.718,265.837 256.832,267.060 254.667 L 267.953 253.083 266.296 252.361 C 265.385 251.963,264.135 251.520,263.519 251.375 L 262.399 251.113 262.201 250.278 C 261.806 248.616,259.085 243.481,257.908 242.179 C 257.249 241.450,256.447 241.167,255.040 241.167 C 253.366 241.167,250.218 240.066,250.091 239.437 C 250.051 239.242,249.939 238.708,249.841 238.250 C 249.742 237.792,249.552 236.623,249.418 235.652 C 248.792 231.117,248.421 230.674,244.376 229.647 C 242.764 229.237,241.943 229.132,239.750 229.051 C 235.860 228.909,235.470 228.637,234.430 225.343 C 233.793 223.327,233.721 223.434,235.625 223.573 C 236.519 223.639,237.588 223.762,238.000 223.847 C 240.177 224.296,240.493 224.317,241.429 224.073 C 243.819 223.451,246.232 221.797,246.757 220.422 C 247.069 219.605,247.045 219.494,246.067 217.167 L 245.612 216.083 245.894 214.114 C 246.092 212.731,246.466 211.267,247.150 209.197 C 248.447 205.271,248.715 204.311,248.553 204.173 C 248.478 204.109,247.854 203.657,247.167 203.169 C 245.696 202.124,244.332 200.987,242.833 199.556 C 239.480 196.354,239.584 196.362,226.667 198.328 C 225.045 198.575,225.065 198.581,224.855 197.792 C 223.683 193.371,223.756 192.251,225.297 191.057 C 225.752 190.705,226.868 189.842,227.777 189.139 C 228.686 188.436,230.364 186.987,231.507 185.919 C 235.818 181.887,237.289 181.306,241.390 182.019 C 243.976 182.469,247.343 182.394,249.417 181.840 C 252.979 180.889,256.033 179.567,257.917 178.161 C 260.164 176.483,260.863 176.362,269.417 176.165 C 275.762 176.020,277.871 176.075,279.579 176.431 M136.004 214.157 C 136.969 215.125,138.741 216.970,139.942 218.256 C 144.368 222.998,148.146 225.557,153.224 227.254 C 155.394 227.979,155.371 227.985,155.807 226.548 C 156.693 223.632,158.241 222.152,162.833 219.829 C 165.063 218.700,168.155 217.064,169.740 216.173 C 170.101 215.970,171.270 215.250,172.338 214.573 C 173.406 213.897,174.392 213.300,174.530 213.247 C 174.746 213.165,179.703 214.172,182.761 214.919 C 183.317 215.055,183.884 215.167,184.022 215.167 C 186.045 215.167,187.478 216.732,188.069 219.589 C 188.614 222.225,189.596 223.550,192.359 225.379 C 194.090 226.524,194.018 226.514,193.891 225.583 C 193.746 224.525,195.142 224.695,197.667 226.044 C 200.529 227.573,203.280 232.496,203.744 236.917 C 203.943 238.819,203.626 239.696,200.779 245.102 C 200.195 246.213,199.478 247.713,199.186 248.436 C 198.894 249.159,198.583 249.880,198.494 250.039 C 198.188 250.590,198.320 251.073,198.904 251.539 C 199.615 252.106,199.918 253.338,199.785 255.111 C 199.615 257.364,198.790 258.449,196.644 259.245 C 193.469 260.422,191.510 262.057,190.249 264.583 L 189.583 265.917 189.583 268.250 C 189.583 270.900,189.574 270.928,188.278 272.112 C 186.923 273.350,185.283 274.260,182.950 275.069 C 178.388 276.649,176.769 279.191,175.734 286.401 C 175.199 290.129,173.692 294.500,172.943 294.500 C 172.718 294.500,170.688 293.915,170.083 293.676 C 169.900 293.604,169.300 293.375,168.750 293.168 C 161.201 290.325,154.786 283.831,148.086 272.250 C 144.120 265.395,143.641 264.653,141.591 262.182 C 138.240 258.143,137.813 257.192,137.659 253.417 C 137.507 249.708,136.965 247.647,135.047 243.500 C 133.651 240.481,133.442 239.524,133.927 238.370 C 135.093 235.591,134.903 232.440,133.418 229.928 C 132.103 227.704,131.762 225.162,132.300 221.583 C 132.715 218.818,132.994 216.176,133.103 213.965 L 133.217 211.680 133.733 212.039 C 134.018 212.236,135.039 213.190,136.004 214.157 M310.770 284.625 C 310.723 284.785,310.561 285.404,310.410 286.000 C 309.918 287.946,309.838 288.053,308.140 289.055 C 306.273 290.156,306.399 290.249,306.977 288.192 C 307.482 286.392,307.713 286.013,308.557 285.598 C 308.846 285.456,309.421 285.118,309.833 284.847 C 310.713 284.270,310.887 284.229,310.770 284.625 M306.161 290.947 C 305.059 294.349,300.760 299.485,295.515 303.667 C 295.113 303.987,294.551 304.443,294.267 304.678 C 288.489 309.469,274.183 317.980,266.548 321.169 C 265.651 321.543,264.767 321.918,264.583 322.001 C 261.383 323.449,254.465 325.510,249.750 326.419 C 238.655 328.559,223.978 328.397,211.583 325.997 C 202.908 324.317,202.783 324.282,202.923 323.614 C 203.472 321.000,205.399 318.816,207.667 318.235 C 209.473 317.773,226.092 318.216,229.917 318.829 C 230.467 318.917,231.404 319.037,232.000 319.096 C 232.988 319.193,236.600 319.800,243.000 320.944 C 249.846 322.167,254.459 321.259,259.250 317.746 C 265.112 313.448,266.917 312.750,269.970 313.601 C 274.512 314.867,276.833 313.532,281.060 307.224 C 284.160 302.598,286.759 300.886,292.912 299.418 C 297.078 298.423,298.332 297.676,302.167 293.900 C 304.459 291.643,306.180 290.128,306.308 290.254 C 306.340 290.285,306.274 290.597,306.161 290.947 " stroke="none" fill="#04a4fc" fill-rule="evenodd"></path><path id="path1" d="M189.333 0.255 C 187.454 0.370,185.167 0.509,184.250 0.566 C 183.333 0.622,181.983 0.741,181.250 0.831 C 180.517 0.921,179.129 1.073,178.167 1.169 C 175.706 1.414,175.288 1.465,171.917 1.927 C 168.548 2.389,167.360 2.592,160.250 3.922 C 157.098 4.511,150.997 5.957,147.583 6.923 C 147.125 7.052,146.150 7.317,145.417 7.510 C 142.829 8.191,136.669 10.160,133.000 11.477 C 132.221 11.757,130.871 12.242,130.000 12.556 C 126.810 13.705,118.662 17.109,115.500 18.614 C 110.602 20.945,105.083 23.779,102.709 25.181 C 101.947 25.632,101.278 26.000,101.223 26.000 C 101.134 26.000,98.600 27.494,96.722 28.654 C 96.340 28.890,95.417 29.458,94.670 29.917 C 91.228 32.029,89.066 33.463,84.833 36.443 C 80.767 39.306,74.961 43.699,74.027 44.619 C 73.905 44.740,73.530 45.043,73.194 45.294 C 72.858 45.545,72.498 45.825,72.394 45.917 C 72.290 46.008,71.805 46.421,71.316 46.833 C 62.213 54.521,54.312 62.452,46.417 71.829 C 45.775 72.591,45.171 73.297,45.075 73.399 C 44.311 74.204,37.593 83.021,36.937 84.079 C 36.765 84.356,36.577 84.621,36.519 84.667 C 36.356 84.795,32.167 90.979,32.167 91.091 C 32.167 91.121,31.829 91.639,31.417 92.241 C 31.004 92.844,30.667 93.379,30.667 93.430 C 30.667 93.481,30.448 93.841,30.182 94.228 C 29.472 95.260,26.357 100.509,25.421 102.250 C 24.978 103.075,24.520 103.900,24.403 104.083 C 23.706 105.180,19.710 113.078,18.333 116.083 C 17.322 118.289,15.381 122.750,15.251 123.167 C 15.180 123.396,15.019 123.731,14.894 123.912 C 14.769 124.093,14.667 124.341,14.667 124.463 C 14.667 124.585,14.525 125.000,14.352 125.384 C 13.951 126.275,12.578 129.784,12.416 130.333 C 12.348 130.563,12.237 130.825,12.169 130.917 C 12.101 131.008,11.998 131.286,11.938 131.534 C 11.879 131.782,11.745 132.195,11.640 132.451 C 11.535 132.707,11.429 132.992,11.405 133.083 C 11.381 133.175,11.007 134.262,10.575 135.500 C 10.142 136.737,9.693 138.087,9.577 138.500 C 9.460 138.912,8.976 140.487,8.502 142.000 C 7.451 145.350,7.002 146.979,5.837 151.667 C 5.126 154.530,4.422 157.557,4.267 158.417 C 4.217 158.692,4.104 159.254,4.014 159.667 C 3.369 162.639,2.321 168.793,1.843 172.417 C 1.649 173.883,1.416 175.602,1.325 176.236 C 1.233 176.870,1.084 178.332,0.994 179.486 C 0.903 180.640,0.795 181.771,0.752 182.000 C 0.654 182.532,0.556 183.913,0.245 189.141 C -0.203 196.662,0.065 212.527,0.734 218.167 C 0.783 218.579,0.901 219.779,0.995 220.833 C 1.090 221.887,1.239 223.200,1.327 223.750 C 1.415 224.300,1.715 226.438,1.995 228.500 C 2.275 230.563,2.611 232.850,2.742 233.583 C 2.873 234.317,3.102 235.592,3.249 236.417 C 3.397 237.242,3.556 238.104,3.603 238.333 C 3.651 238.563,3.789 239.275,3.910 239.917 C 4.252 241.721,4.954 244.790,5.778 248.083 C 6.191 249.733,6.569 251.271,6.619 251.500 C 6.917 252.878,8.778 259.105,9.956 262.667 C 15.446 279.263,23.148 295.249,32.458 309.370 C 33.306 310.656,34.000 311.739,34.000 311.778 C 34.000 311.816,34.079 311.938,34.176 312.049 C 34.273 312.159,34.798 312.887,35.344 313.667 C 35.889 314.446,36.442 315.233,36.572 315.417 C 37.103 316.165,38.027 317.461,38.532 318.167 C 39.225 319.136,43.424 324.595,43.986 325.258 C 44.223 325.538,44.679 326.096,45.000 326.498 C 45.783 327.480,49.125 331.438,49.565 331.904 C 49.759 332.109,50.404 332.833,50.999 333.513 C 53.579 336.461,58.084 341.095,62.000 344.827 C 64.668 347.369,66.066 348.655,67.932 350.280 C 69.001 351.211,70.404 352.439,70.565 352.584 C 70.667 352.676,71.162 353.088,71.667 353.498 C 72.171 353.909,72.621 354.284,72.667 354.331 C 72.712 354.379,73.313 354.867,74.000 355.417 C 74.688 355.966,75.287 356.460,75.333 356.514 C 75.461 356.665,83.553 362.729,84.644 363.491 C 90.679 367.710,97.811 372.211,102.083 374.496 C 102.817 374.888,103.492 375.265,103.583 375.333 C 103.851 375.533,105.869 376.606,108.917 378.169 C 111.347 379.415,113.142 380.280,117.750 382.426 C 119.013 383.015,124.007 385.167,124.110 385.167 C 124.159 385.167,124.436 385.274,124.725 385.406 C 125.746 385.870,129.940 387.484,131.667 388.076 C 132.629 388.407,133.792 388.822,134.250 388.999 C 134.708 389.176,135.946 389.595,137.000 389.929 C 138.054 390.264,139.067 390.599,139.250 390.674 C 139.946 390.958,147.007 393.007,149.000 393.504 C 155.178 395.042,156.804 395.419,160.125 396.086 C 163.130 396.689,164.048 396.859,166.000 397.178 C 171.476 398.070,174.073 398.434,177.833 398.833 C 178.704 398.925,180.129 399.076,181.000 399.168 C 181.871 399.261,183.783 399.417,185.250 399.516 C 186.717 399.615,188.179 399.726,188.500 399.761 C 190.764 400.013,206.132 400.017,210.417 399.767 C 216.060 399.438,217.950 399.313,218.500 399.234 C 218.729 399.201,219.779 399.094,220.833 398.997 C 223.046 398.792,227.240 398.266,229.417 397.920 C 233.934 397.201,237.169 396.631,239.917 396.069 C 240.558 395.937,241.308 395.788,241.583 395.737 C 241.858 395.686,243.058 395.415,244.250 395.136 C 245.442 394.856,247.017 394.490,247.750 394.323 C 248.483 394.155,249.496 393.910,250.000 393.778 C 253.060 392.976,254.451 392.591,256.083 392.093 C 257.092 391.786,258.479 391.371,259.167 391.172 C 259.854 390.973,260.567 390.751,260.750 390.678 C 260.933 390.606,262.058 390.232,263.250 389.847 C 264.442 389.463,265.567 389.084,265.750 389.007 C 265.933 388.929,266.796 388.622,267.667 388.324 C 269.453 387.713,274.156 385.938,274.917 385.588 C 275.857 385.155,276.584 384.849,277.843 384.356 C 278.536 384.084,279.699 383.586,280.427 383.250 C 281.154 382.913,282.200 382.449,282.750 382.218 C 283.929 381.723,292.564 377.455,294.250 376.534 C 299.944 373.422,301.759 372.366,306.333 369.507 C 308.696 368.030,313.484 364.851,314.606 364.015 C 314.801 363.869,315.127 363.637,315.330 363.500 C 316.319 362.829,321.945 358.678,322.445 358.250 C 322.552 358.158,323.406 357.483,324.342 356.750 C 325.835 355.581,327.673 354.079,329.003 352.942 C 332.168 350.238,333.227 349.309,335.000 347.683 C 337.741 345.168,343.778 339.224,345.667 337.180 C 346.586 336.184,351.019 331.280,351.553 330.667 C 351.913 330.254,352.371 329.729,352.571 329.500 C 353.189 328.792,357.231 323.788,357.754 323.083 C 358.026 322.717,358.289 322.379,358.340 322.333 C 358.462 322.222,361.790 317.764,362.384 316.917 C 362.640 316.550,363.229 315.725,363.692 315.083 C 364.595 313.832,369.126 307.021,369.860 305.813 C 370.103 305.412,370.877 304.149,371.578 303.007 C 372.280 301.865,373.085 300.515,373.369 300.007 C 373.652 299.499,374.447 298.071,375.137 296.833 C 377.191 293.145,382.036 283.433,382.952 281.167 C 383.082 280.846,383.324 280.283,383.490 279.917 C 385.759 274.918,389.473 264.940,391.153 259.333 C 391.846 257.019,392.807 253.720,393.094 252.667 C 393.232 252.162,393.411 251.525,393.492 251.250 C 393.574 250.975,393.794 250.112,393.980 249.333 C 394.167 248.554,394.555 246.942,394.842 245.750 C 395.597 242.613,396.070 240.284,396.924 235.500 C 397.988 229.540,398.613 225.209,399.002 221.083 C 399.097 220.075,399.203 219.050,399.238 218.805 C 399.273 218.560,399.347 217.660,399.403 216.805 C 399.504 215.273,399.659 213.134,399.775 211.667 C 400.021 208.557,400.013 192.999,399.764 188.903 C 399.395 182.861,399.323 181.821,399.235 181.333 C 399.193 181.104,399.083 180.054,398.989 179.000 C 398.895 177.946,398.786 176.896,398.746 176.667 C 398.706 176.438,398.631 175.838,398.578 175.333 C 398.315 172.793,397.241 165.881,396.650 162.917 C 396.467 162.000,396.213 160.688,396.085 160.000 C 395.957 159.313,395.816 158.600,395.772 158.417 C 395.697 158.109,395.489 157.184,394.908 154.583 C 393.783 149.547,391.974 143.140,389.990 137.167 C 389.127 134.568,388.695 133.330,387.252 129.333 C 386.846 128.208,385.769 125.497,385.498 124.917 C 385.412 124.733,385.085 123.946,384.771 123.167 C 383.845 120.867,383.548 120.187,381.375 115.417 C 380.668 113.867,377.065 106.695,376.141 105.000 C 372.042 97.482,367.670 90.484,362.765 83.593 C 362.574 83.324,362.327 82.986,362.217 82.843 C 362.107 82.700,361.027 81.271,359.818 79.667 C 357.791 76.978,354.929 73.331,354.064 72.333 C 353.385 71.551,350.585 68.282,349.917 67.492 C 348.336 65.625,344.300 61.395,340.663 57.796 C 336.669 53.843,336.274 53.468,333.500 51.002 C 331.965 49.637,330.983 48.761,330.602 48.416 C 329.942 47.819,324.401 43.270,323.573 42.646 C 323.018 42.227,322.418 41.764,322.240 41.617 C 319.765 39.568,311.121 33.508,306.917 30.872 C 304.887 29.600,298.042 25.505,297.771 25.402 C 297.606 25.338,296.447 24.714,295.194 24.013 C 293.942 23.313,291.304 21.944,289.333 20.972 C 284.503 18.588,282.630 17.718,279.000 16.174 C 277.671 15.608,276.433 15.077,276.250 14.993 C 274.615 14.247,264.856 10.621,263.167 10.132 C 262.846 10.039,261.683 9.665,260.583 9.300 C 259.483 8.935,258.246 8.541,257.833 8.424 C 257.421 8.308,256.108 7.933,254.917 7.592 C 247.615 5.501,240.542 3.931,232.417 2.598 C 230.950 2.357,229.338 2.089,228.833 2.003 C 228.329 1.916,226.904 1.730,225.667 1.589 C 224.429 1.448,223.254 1.301,223.054 1.262 C 222.855 1.223,221.656 1.104,220.391 0.998 C 219.125 0.892,218.050 0.782,218.003 0.755 C 217.905 0.698,216.422 0.601,210.250 0.248 C 205.055 -0.049,194.270 -0.045,189.333 0.255 M215.417 62.257 C 220.236 62.823,222.711 63.743,226.593 66.411 C 231.384 69.704,229.960 69.579,254.852 68.885 L 258.286 68.789 259.431 69.353 C 262.470 70.849,263.417 72.567,263.416 76.583 C 263.415 81.518,262.775 82.529,258.083 85.003 C 257.167 85.486,256.004 86.122,255.500 86.416 C 254.996 86.710,253.946 87.290,253.167 87.705 C 250.738 88.999,249.115 89.867,248.250 90.334 C 247.792 90.581,246.517 91.256,245.417 91.833 C 244.317 92.410,243.342 92.936,243.250 93.002 C 243.158 93.068,242.258 93.554,241.250 94.083 C 240.242 94.612,238.967 95.287,238.417 95.583 C 234.957 97.447,232.569 98.724,231.333 99.374 C 230.554 99.783,229.354 100.421,228.667 100.791 C 221.254 104.784,220.942 104.945,217.250 106.667 C 215.226 107.612,214.359 108.000,214.276 108.000 C 214.234 108.000,213.574 108.290,212.808 108.645 C 212.043 108.999,209.504 110.093,207.167 111.076 C 184.135 120.761,180.999 122.728,175.664 130.833 C 175.574 130.971,174.991 131.833,174.368 132.750 C 173.746 133.667,172.220 135.917,170.976 137.750 C 169.733 139.583,168.404 141.533,168.023 142.083 C 167.642 142.633,167.256 143.196,167.164 143.333 C 166.936 143.678,163.587 148.604,161.726 151.333 C 159.792 154.169,154.979 161.347,153.904 163.000 C 152.239 165.560,151.087 166.462,146.749 168.603 C 134.067 174.861,129.549 175.493,129.076 171.075 C 128.975 170.133,129.230 166.468,129.418 166.165 C 129.455 166.104,129.608 165.461,129.758 164.736 C 130.004 163.543,131.138 159.188,131.751 157.083 C 131.885 156.625,132.559 154.112,133.248 151.500 C 133.938 148.887,134.576 146.487,134.665 146.167 C 135.085 144.660,135.989 140.766,135.932 140.710 C 135.537 140.315,127.155 142.402,124.750 143.494 C 123.952 143.856,116.389 146.932,114.417 147.696 C 113.225 148.158,112.100 148.598,111.917 148.673 C 103.377 152.176,91.135 151.626,84.931 147.461 C 81.927 145.444,79.781 142.454,76.584 135.832 C 75.943 134.504,74.527 131.654,73.437 129.500 C 68.895 120.519,66.333 115.320,66.333 115.084 C 66.333 115.056,66.042 114.407,65.687 113.642 C 62.985 107.827,61.530 102.559,62.244 101.177 C 63.927 97.923,78.094 93.301,81.028 95.049 C 83.124 96.298,87.534 101.403,92.936 108.833 C 93.684 109.862,95.676 112.889,95.973 113.448 L 96.167 113.812 97.294 113.500 C 100.046 112.737,104.078 110.908,107.750 108.758 C 111.709 106.439,114.406 105.166,117.647 104.087 L 119.711 103.401 118.917 102.409 C 116.941 99.941,112.186 95.963,106.904 92.358 C 103.464 90.010,102.299 88.043,102.047 84.153 L 101.953 82.703 102.518 82.585 C 103.289 82.423,107.787 80.712,109.750 79.833 C 110.412 79.536,113.272 78.372,114.250 78.001 C 114.800 77.793,115.400 77.562,115.583 77.488 C 118.820 76.186,123.112 76.830,132.478 80.021 C 134.644 80.760,137.954 81.887,139.833 82.526 C 147.814 85.242,152.957 86.184,155.552 85.408 C 158.676 84.473,161.088 83.347,176.250 75.746 C 183.400 72.161,189.887 68.940,190.667 68.587 C 191.446 68.234,192.646 67.693,193.333 67.385 C 194.021 67.076,194.733 66.755,194.917 66.671 C 197.037 65.699,200.599 64.303,202.917 63.535 C 204.710 62.941,205.777 62.652,207.917 62.180 C 209.000 61.942,213.084 61.984,215.417 62.257 M211.250 71.646 C 208.962 72.254,206.784 74.742,206.008 77.633 C 205.622 79.075,208.365 81.799,210.740 82.331 C 216.298 83.577,220.007 81.980,224.053 76.601 C 224.734 75.696,224.809 75.373,224.375 75.221 C 224.051 75.108,222.911 74.589,220.417 73.419 C 216.973 71.803,213.318 71.096,211.250 71.646 M195.250 78.852 C 192.516 79.722,190.144 80.813,184.710 83.698 C 183.436 84.374,183.427 84.147,184.840 86.844 C 185.485 88.076,186.092 89.290,186.189 89.542 C 186.286 89.794,186.431 90.000,186.510 90.000 C 186.635 90.000,192.118 87.315,195.583 85.557 C 197.925 84.369,198.168 83.815,197.483 81.235 C 197.291 80.510,197.060 79.598,196.970 79.208 C 196.782 78.396,196.722 78.383,195.250 78.852 M171.667 89.846 C 168.125 90.521,164.392 92.944,163.215 95.331 L 162.846 96.079 163.250 96.500 C 166.724 100.126,173.377 98.613,176.360 93.517 C 177.148 92.170,177.663 90.371,177.320 90.158 C 176.582 89.700,173.366 89.522,171.667 89.846 M152.083 98.895 C 150.455 99.317,143.733 102.474,142.425 103.431 C 142.093 103.674,141.914 103.234,144.138 107.626 L 145.004 109.336 145.627 109.065 C 145.970 108.915,146.962 108.498,147.833 108.136 C 154.030 105.566,156.500 103.638,156.500 101.372 C 156.500 99.157,154.783 98.194,152.083 98.895 M132.832 108.507 C 132.510 108.682,131.485 108.977,130.555 109.164 C 124.067 110.464,122.191 112.430,122.777 117.314 L 122.885 118.212 124.234 118.105 C 128.642 117.758,133.236 116.098,134.748 114.307 C 135.621 113.273,135.997 112.218,135.998 110.794 L 136.000 109.504 134.792 108.878 C 134.127 108.534,133.546 108.239,133.500 108.222 C 133.454 108.204,133.153 108.333,132.832 108.507 M113.250 117.258 C 112.975 117.388,111.549 118.005,110.082 118.629 C 103.772 121.310,101.530 123.598,102.650 126.211 C 103.562 128.339,104.812 128.213,110.417 125.431 C 113.975 123.664,114.716 123.329,115.938 122.931 L 116.793 122.653 115.355 119.828 C 114.564 118.274,113.879 117.007,113.833 117.012 C 113.787 117.017,113.525 117.128,113.250 117.258 M239.750 122.425 C 246.618 123.069,253.218 124.260,258.167 125.747 C 258.579 125.871,259.479 126.135,260.167 126.334 C 262.648 127.051,267.946 128.926,268.242 129.191 C 268.329 129.269,268.499 129.333,268.619 129.333 C 269.149 129.333,276.084 132.565,279.167 134.248 C 283.008 136.346,285.470 137.841,288.583 139.965 C 297.815 146.262,306.197 154.037,313.152 162.750 C 313.811 163.575,314.439 164.363,314.550 164.501 C 315.562 165.769,319.177 170.881,319.500 171.500 C 319.619 171.729,319.764 171.954,319.823 172.000 C 320.779 172.748,326.612 183.557,328.816 188.667 C 329.390 189.996,329.929 191.233,330.013 191.417 C 330.501 192.473,332.738 198.830,333.327 200.833 C 333.529 201.521,333.798 202.421,333.924 202.833 C 337.132 213.281,338.669 228.064,337.746 239.585 C 335.939 262.151,326.615 283.647,311.256 300.662 C 305.447 307.097,301.243 311.008,293.917 316.790 C 289.558 320.230,280.905 325.526,275.583 328.011 C 272.483 329.458,271.549 329.875,270.333 330.352 C 269.646 330.622,268.933 330.911,268.750 330.995 C 267.562 331.534,263.522 332.946,261.333 333.587 C 256.271 335.069,253.109 335.834,249.583 336.432 C 236.366 338.670,224.377 338.519,210.711 335.942 C 209.183 335.654,203.466 334.259,202.422 333.919 C 202.052 333.799,201.188 333.537,200.500 333.337 C 192.521 331.012,181.621 326.100,174.500 321.620 C 172.544 320.390,169.097 318.118,168.394 317.595 C 168.015 317.314,167.538 316.971,167.333 316.833 C 161.231 312.731,152.317 304.340,146.250 296.985 C 136.333 284.963,128.486 269.094,125.244 254.500 C 125.112 253.904,124.856 252.759,124.675 251.956 C 121.050 235.833,122.152 215.308,127.600 197.500 C 131.174 185.820,133.286 181.773,136.750 179.971 C 139.454 178.565,144.587 177.622,146.298 178.217 L 147.013 178.466 148.298 177.546 C 149.803 176.470,150.092 176.210,154.915 171.592 C 160.062 166.663,161.438 165.274,162.671 163.757 C 164.018 162.101,164.466 161.798,166.105 161.440 C 171.444 160.274,176.224 157.480,178.120 154.417 C 183.406 145.878,185.118 144.713,190.000 146.329 C 193.728 147.564,196.841 146.295,202.167 141.371 C 202.781 140.803,204.226 139.864,205.127 139.448 C 206.564 138.784,215.026 139.077,220.833 139.992 C 221.429 140.086,223.342 140.354,225.083 140.588 C 226.825 140.821,228.737 141.083,229.333 141.169 C 234.579 141.924,251.643 142.287,253.710 141.686 C 254.722 141.392,255.854 140.398,256.337 139.378 C 256.740 138.528,257.495 136.287,257.410 136.194 C 257.035 135.779,243.871 133.460,239.333 133.009 C 238.279 132.904,236.817 132.740,236.083 132.645 C 234.015 132.378,223.305 132.265,220.417 132.480 C 211.785 133.123,202.604 135.204,196.717 137.852 C 196.333 138.025,195.984 138.167,195.941 138.167 C 195.817 138.167,192.728 139.620,190.833 140.571 C 188.829 141.576,186.873 142.650,183.083 144.823 C 178.783 147.290,173.523 149.745,173.209 149.431 C 173.163 149.386,173.322 149.026,173.561 148.633 C 174.747 146.683,175.702 145.134,176.909 143.203 C 177.638 142.037,178.865 140.071,179.636 138.833 C 183.314 132.928,185.589 131.525,198.083 127.454 C 200.198 126.765,201.200 126.465,203.750 125.760 C 207.743 124.655,211.779 123.840,216.917 123.101 C 224.377 122.027,232.835 121.777,239.750 122.425 M102.138 155.130 C 104.831 157.861,107.860 163.522,110.676 171.083 C 112.273 175.371,113.680 179.090,113.830 179.417 C 113.913 179.600,114.136 180.106,114.324 180.542 C 114.656 181.309,115.127 182.390,115.576 183.417 C 117.919 188.769,118.677 192.606,117.778 194.568 C 116.841 196.615,116.162 196.789,111.917 196.073 C 110.542 195.841,108.435 195.607,107.235 195.553 L 105.053 195.455 104.950 197.519 C 104.834 199.835,104.202 203.756,103.095 209.033 C 99.460 226.366,98.592 234.025,99.155 243.833 C 99.481 249.501,99.725 251.409,100.830 256.917 C 103.545 270.445,109.781 284.146,118.966 296.765 C 120.090 298.310,121.553 300.249,121.657 300.333 C 121.714 300.379,122.246 301.012,122.839 301.739 C 126.514 306.247,129.889 309.432,135.513 313.700 C 138.961 316.316,139.277 316.587,141.542 318.852 C 144.156 321.468,144.138 321.579,141.250 320.645 C 140.119 320.280,140.177 320.304,137.917 319.254 C 129.372 315.287,119.189 306.422,108.905 294.000 C 107.487 292.286,104.737 288.764,104.357 288.176 C 104.207 287.942,103.954 287.599,103.796 287.414 C 103.113 286.617,99.741 281.605,98.084 278.925 C 93.723 271.868,89.577 261.447,86.679 250.250 C 86.263 248.643,86.032 247.628,85.333 244.333 C 84.028 238.182,83.488 225.741,84.139 216.833 C 84.256 215.229,84.465 212.342,84.602 210.417 C 84.740 208.492,84.961 205.529,85.094 203.833 C 85.406 199.859,85.657 195.428,85.663 193.807 L 85.667 192.530 84.458 192.332 C 79.920 191.586,78.094 191.141,75.417 190.129 C 73.715 189.486,73.745 189.523,74.081 188.473 C 75.246 184.831,77.094 182.040,82.947 175.083 C 83.625 174.278,87.116 169.696,89.915 165.939 C 94.627 159.613,97.528 156.234,100.000 154.189 C 100.627 153.671,100.755 153.727,102.138 155.130 M264.667 176.331 C 260.773 176.542,259.851 176.792,258.137 178.108 C 257.044 178.947,255.188 179.959,253.750 180.501 C 253.200 180.708,252.600 180.937,252.417 181.010 C 249.069 182.340,244.678 182.777,241.429 182.104 C 237.365 181.262,236.004 181.858,230.667 186.823 C 230.071 187.378,228.723 188.488,227.672 189.290 C 223.996 192.098,223.802 192.440,224.332 195.167 C 224.568 196.379,224.996 198.192,225.077 198.323 C 225.149 198.439,231.268 197.653,232.833 197.326 C 237.697 196.313,240.088 196.796,242.736 199.327 C 244.837 201.335,246.233 202.479,248.041 203.672 C 248.866 204.216,248.862 204.251,247.573 208.128 C 245.696 213.770,245.438 215.809,246.363 217.679 C 247.672 220.323,246.760 221.873,242.833 223.676 C 241.371 224.347,240.258 224.410,237.750 223.961 C 235.580 223.573,234.000 223.439,234.000 223.644 C 234.000 224.097,235.089 226.994,235.477 227.574 C 236.250 228.729,236.698 228.881,239.736 229.013 C 244.924 229.238,247.815 230.214,248.781 232.064 C 249.035 232.551,249.156 233.189,249.589 236.333 C 250.061 239.765,249.991 239.646,252.083 240.521 C 252.666 240.765,254.026 241.013,255.551 241.154 C 256.603 241.251,257.158 241.386,257.473 241.620 C 258.593 242.452,262.118 248.871,262.289 250.390 C 262.368 251.094,262.418 251.167,262.813 251.169 C 263.573 251.173,267.333 252.536,267.888 253.008 C 267.964 253.073,267.653 253.791,267.198 254.605 C 265.860 256.992,265.315 258.696,265.123 261.087 L 265.056 261.924 266.284 262.825 C 269.418 265.124,271.196 267.735,271.196 270.040 C 271.196 270.680,271.114 271.286,271.015 271.385 C 270.709 271.691,270.803 272.301,271.174 272.419 C 271.419 272.497,271.605 272.411,271.841 272.112 C 272.038 271.861,273.981 270.794,276.735 269.423 C 283.120 266.244,285.559 264.635,288.250 261.826 C 290.905 259.055,291.455 258.532,292.025 258.237 C 294.116 257.155,298.561 257.237,300.255 258.388 L 300.887 258.818 301.402 258.454 C 301.685 258.253,302.479 257.602,303.167 257.006 C 303.854 256.409,304.604 255.761,304.833 255.564 C 305.063 255.368,305.939 254.605,306.781 253.869 C 309.768 251.259,311.770 249.886,313.710 249.114 C 315.507 248.400,315.479 248.377,315.015 250.190 C 313.108 257.646,309.406 261.676,300.215 266.297 C 295.269 268.784,293.742 270.578,293.263 274.458 L 293.155 275.333 294.203 275.339 C 295.678 275.347,297.560 275.713,298.916 276.256 C 300.099 276.729,300.360 276.873,303.225 278.635 C 305.139 279.811,304.742 279.860,307.716 278.088 C 313.645 274.556,317.103 268.890,319.769 258.333 C 321.272 252.382,322.322 244.429,321.454 245.573 C 321.142 245.984,321.105 245.873,320.822 243.711 C 320.564 241.746,320.687 240.426,321.233 239.270 C 321.729 238.222,321.764 237.560,321.409 235.917 C 320.974 233.900,320.560 231.669,320.148 229.125 C 319.870 227.409,319.684 226.667,319.531 226.667 C 319.198 226.666,317.506 227.473,316.700 228.017 C 315.685 228.701,313.833 228.496,313.833 227.698 C 313.833 227.219,315.794 223.446,316.924 221.750 C 319.925 217.247,322.241 215.082,324.487 214.681 L 325.673 214.469 325.577 211.943 C 325.162 201.073,322.769 195.273,316.750 190.552 C 315.517 189.585,315.512 189.586,315.932 190.743 C 316.829 193.213,316.820 194.756,315.895 197.133 C 315.384 198.445,315.372 198.452,314.214 198.069 C 311.986 197.332,310.884 196.551,309.396 194.657 C 307.505 192.250,304.511 190.917,301.000 190.917 C 298.224 190.917,297.460 190.417,292.078 185.081 C 286.591 179.642,284.391 178.043,280.583 176.728 L 279.250 176.268 273.083 176.239 C 269.692 176.223,265.904 176.264,264.667 176.331 M133.101 214.292 C 132.993 216.553,132.880 217.703,132.327 222.167 C 131.890 225.696,132.278 228.039,133.650 230.162 C 134.842 232.005,135.044 235.650,134.099 238.267 C 133.571 239.731,133.660 240.177,135.142 243.528 C 137.174 248.120,137.619 249.880,137.813 254.083 L 137.928 256.583 138.585 257.796 C 139.253 259.030,140.493 260.753,142.329 263.000 C 143.841 264.851,145.944 268.184,148.164 272.250 C 154.754 284.319,163.553 292.311,172.441 294.302 L 173.132 294.457 173.881 292.853 C 174.966 290.532,175.480 288.557,175.752 285.667 C 175.889 284.202,176.372 282.356,177.062 280.658 C 178.536 277.030,179.467 276.099,182.617 275.107 C 187.585 273.544,189.610 271.614,189.423 268.622 C 189.151 264.271,191.676 260.992,196.755 259.102 C 198.999 258.266,199.657 257.233,199.663 254.536 C 199.667 252.639,199.437 251.821,198.806 251.488 C 198.592 251.376,198.368 251.208,198.308 251.117 C 198.036 250.699,199.542 247.071,201.333 243.833 C 204.079 238.868,204.266 237.322,202.655 232.875 C 201.227 228.933,199.147 226.576,196.078 225.421 C 194.097 224.675,193.625 224.829,194.100 226.068 C 194.306 226.602,193.279 226.206,192.083 225.289 C 191.992 225.219,191.429 224.797,190.833 224.352 C 189.127 223.078,188.696 222.350,188.004 219.573 C 187.290 216.704,186.580 215.827,184.623 215.395 C 184.051 215.269,182.871 215.008,182.000 214.814 C 175.274 213.316,174.603 213.193,174.333 213.408 C 173.094 214.399,167.482 217.590,163.333 219.664 C 158.204 222.228,156.783 223.605,155.728 227.037 C 155.390 228.136,155.561 228.118,153.133 227.313 C 147.668 225.501,143.731 222.657,138.049 216.417 C 136.046 214.217,134.353 212.552,133.698 212.137 L 133.218 211.833 133.101 214.292 M309.484 285.139 C 307.472 286.375,307.572 286.240,306.934 288.591 L 306.570 289.932 307.827 289.189 C 309.360 288.281,309.658 288.035,309.870 287.500 C 310.030 287.094,310.828 284.320,310.776 284.347 C 310.762 284.354,310.180 284.711,309.484 285.139 M305.044 291.277 C 304.424 291.796,302.979 293.175,301.833 294.341 C 298.434 297.799,297.228 298.442,291.509 299.841 C 286.728 301.012,284.041 302.974,280.907 307.583 C 280.284 308.500,279.547 309.584,279.269 309.992 C 276.923 313.440,274.193 314.534,270.057 313.682 C 266.734 312.998,265.406 313.411,261.214 316.430 C 257.211 319.312,256.153 319.950,254.250 320.625 C 250.587 321.926,247.877 321.901,240.167 320.499 C 231.453 318.914,226.762 318.455,216.333 318.165 C 205.961 317.876,204.537 318.428,203.111 323.282 L 202.857 324.148 203.803 324.334 C 204.324 324.436,204.862 324.558,205.000 324.604 C 205.975 324.932,213.650 326.300,217.417 326.816 C 232.970 328.948,247.265 327.881,259.917 323.644 C 261.567 323.092,263.142 322.540,263.417 322.418 C 263.692 322.296,264.592 321.918,265.417 321.579 C 269.757 319.793,278.709 315.039,283.917 311.755 C 293.091 305.970,298.506 301.569,302.944 296.292 C 304.315 294.662,306.707 290.333,306.237 290.333 C 306.201 290.333,305.664 290.758,305.044 291.277 M147.646 322.771 C 148.334 322.908,148.308 322.986,147.371 323.625 C 146.357 324.317,146.333 324.312,146.333 323.417 C 146.333 322.595,146.458 322.533,147.646 322.771 " stroke="none" fill="#7cdcfc" fill-rule="evenodd"></path><path id="path2" d="M146.500 323.395 L 146.500 324.160 147.250 323.631 C 148.125 323.015,148.185 322.833,147.514 322.833 C 147.246 322.833,146.909 322.788,146.764 322.732 C 146.547 322.649,146.500 322.767,146.500 323.395 " stroke="none" fill="#0a0f11" fill-rule="evenodd"></path><path id="path3" d="M212.792 62.118 C 212.998 62.157,213.335 62.157,213.542 62.118 C 213.748 62.078,213.579 62.045,213.167 62.045 C 212.754 62.045,212.585 62.078,212.792 62.118 M253.542 68.956 C 253.977 68.990,254.690 68.990,255.125 68.956 C 255.560 68.922,255.204 68.893,254.333 68.893 C 253.463 68.893,253.106 68.922,253.542 68.956 M240.877 69.286 C 241.131 69.325,241.506 69.324,241.711 69.284 C 241.916 69.244,241.708 69.213,241.250 69.214 C 240.792 69.216,240.624 69.248,240.877 69.286 M212.795 71.454 C 213.094 71.491,213.544 71.490,213.795 71.452 C 214.045 71.414,213.800 71.384,213.250 71.385 C 212.700 71.386,212.495 71.417,212.795 71.454 M173.711 89.620 C 173.964 89.658,174.339 89.657,174.544 89.617 C 174.749 89.578,174.542 89.546,174.083 89.548 C 173.625 89.549,173.457 89.581,173.711 89.620 M97.542 150.955 C 97.885 150.991,98.448 150.991,98.792 150.955 C 99.135 150.919,98.854 150.889,98.167 150.889 C 97.479 150.889,97.198 150.919,97.542 150.955 M101.711 150.953 C 101.964 150.991,102.339 150.990,102.544 150.951 C 102.749 150.911,102.542 150.880,102.083 150.881 C 101.625 150.882,101.457 150.915,101.711 150.953 M306.500 155.250 C 306.811 155.571,307.103 155.833,307.149 155.833 C 307.195 155.833,306.978 155.571,306.667 155.250 C 306.356 154.929,306.064 154.667,306.018 154.667 C 305.972 154.667,306.189 154.929,306.500 155.250 M152.240 165.042 L 151.750 165.583 152.292 165.094 C 152.590 164.825,152.833 164.581,152.833 164.552 C 152.833 164.423,152.696 164.537,152.240 165.042 M242.500 199.250 C 242.811 199.571,243.103 199.833,243.149 199.833 C 243.195 199.833,242.978 199.571,242.667 199.250 C 242.356 198.929,242.064 198.667,242.018 198.667 C 241.972 198.667,242.189 198.929,242.500 199.250 M85.205 202.000 C 85.205 202.321,85.240 202.452,85.282 202.292 C 85.323 202.131,85.323 201.869,85.282 201.708 C 85.240 201.548,85.205 201.679,85.205 202.000 M325.539 212.167 C 325.539 212.487,325.573 212.619,325.615 212.458 C 325.657 212.298,325.657 212.035,325.615 211.875 C 325.573 211.715,325.539 211.846,325.539 212.167 M84.042 218.583 C 84.044 218.950,84.078 219.080,84.118 218.873 C 84.158 218.666,84.156 218.366,84.115 218.206 C 84.073 218.047,84.040 218.217,84.042 218.583 M122.705 224.167 C 122.705 224.487,122.740 224.619,122.782 224.458 C 122.823 224.298,122.823 224.035,122.782 223.875 C 122.740 223.715,122.705 223.846,122.705 224.167 M337.879 227.167 C 337.879 227.579,337.911 227.748,337.951 227.542 C 337.991 227.335,337.991 226.998,337.951 226.792 C 337.911 226.585,337.879 226.754,337.879 227.167 M99.055 235.083 C 99.055 235.725,99.086 235.967,99.122 235.621 C 99.158 235.275,99.157 234.750,99.120 234.455 C 99.083 234.159,99.054 234.442,99.055 235.083 M337.879 236.667 C 337.879 237.079,337.911 237.248,337.951 237.042 C 337.991 236.835,337.991 236.498,337.951 236.292 C 337.911 236.085,337.879 236.254,337.879 236.667 M122.705 237.333 C 122.705 237.654,122.740 237.785,122.782 237.625 C 122.823 237.465,122.823 237.202,122.782 237.042 C 122.740 236.881,122.705 237.012,122.705 237.333 M320.705 242.667 C 320.705 242.987,320.740 243.119,320.782 242.958 C 320.823 242.798,320.823 242.535,320.782 242.375 C 320.740 242.215,320.705 242.346,320.705 242.667 M99.055 243.417 C 99.055 244.058,99.086 244.300,99.122 243.955 C 99.158 243.609,99.157 243.084,99.120 242.788 C 99.083 242.492,99.054 242.775,99.055 243.417 M137.728 253.667 C 137.728 254.629,137.756 255.023,137.790 254.542 C 137.823 254.060,137.823 253.273,137.790 252.792 C 137.756 252.310,137.728 252.704,137.728 253.667 M310.240 259.375 L 309.750 259.917 310.292 259.427 C 310.797 258.971,310.910 258.833,310.781 258.833 C 310.752 258.833,310.509 259.077,310.240 259.375 M179.073 277.042 L 178.583 277.583 179.125 277.094 C 179.630 276.638,179.743 276.500,179.615 276.500 C 179.586 276.500,179.342 276.744,179.073 277.042 M157.833 285.750 C 158.331 286.254,158.776 286.667,158.822 286.667 C 158.868 286.667,158.498 286.254,158.000 285.750 C 157.502 285.246,157.057 284.833,157.011 284.833 C 156.966 284.833,157.335 285.246,157.833 285.750 M153.750 305.333 C 154.294 305.883,154.777 306.333,154.823 306.333 C 154.869 306.333,154.461 305.883,153.917 305.333 C 153.372 304.783,152.890 304.333,152.844 304.333 C 152.798 304.333,153.206 304.783,153.750 305.333 M218.208 318.282 C 218.369 318.323,218.631 318.323,218.792 318.282 C 218.952 318.240,218.821 318.205,218.500 318.205 C 218.179 318.205,218.048 318.240,218.208 318.282 M146.381 323.417 C 146.382 323.875,146.415 324.043,146.453 323.789 C 146.491 323.536,146.490 323.161,146.451 322.956 C 146.411 322.751,146.380 322.958,146.381 323.417 M226.627 337.951 C 226.834 337.991,227.134 337.990,227.294 337.948 C 227.453 337.906,227.283 337.874,226.917 337.875 C 226.550 337.877,226.420 337.911,226.627 337.951 M235.960 337.951 C 236.168 337.991,236.468 337.990,236.627 337.948 C 236.786 337.906,236.617 337.874,236.250 337.875 C 235.883 337.877,235.753 337.911,235.960 337.951 " stroke="none" fill="#68d4fc" fill-rule="evenodd"></path><path id="path4" d="M211.208 62.119 C 211.460 62.158,211.873 62.158,212.125 62.119 C 212.377 62.081,212.171 62.050,211.667 62.050 C 211.162 62.050,210.956 62.081,211.208 62.119 M242.625 69.289 C 243.015 69.324,243.652 69.324,244.042 69.289 C 244.431 69.254,244.112 69.225,243.333 69.225 C 242.554 69.225,242.235 69.254,242.625 69.289 M234.792 69.457 C 235.365 69.489,236.302 69.489,236.875 69.457 C 237.448 69.424,236.979 69.398,235.833 69.398 C 234.688 69.398,234.219 69.424,234.792 69.457 M208.324 73.292 L 207.750 73.917 208.375 73.342 C 208.719 73.026,209.000 72.745,209.000 72.717 C 209.000 72.590,208.859 72.710,208.324 73.292 M197.875 83.083 C 197.877 83.450,197.911 83.580,197.951 83.373 C 197.991 83.166,197.990 82.866,197.948 82.706 C 197.906 82.547,197.874 82.717,197.875 83.083 M102.045 83.833 C 102.045 84.246,102.078 84.415,102.118 84.208 C 102.157 84.002,102.157 83.665,102.118 83.458 C 102.078 83.252,102.045 83.421,102.045 83.833 M153.211 85.786 C 153.464 85.825,153.839 85.824,154.044 85.784 C 154.249 85.744,154.042 85.713,153.583 85.714 C 153.125 85.716,152.957 85.748,153.211 85.786 M164.577 93.375 L 163.750 94.250 164.625 93.423 C 165.438 92.654,165.576 92.500,165.452 92.500 C 165.426 92.500,165.032 92.894,164.577 93.375 M153.627 98.618 C 153.834 98.658,154.134 98.656,154.294 98.615 C 154.453 98.573,154.283 98.540,153.917 98.542 C 153.550 98.544,153.420 98.578,153.627 98.618 M156.539 101.333 C 156.539 101.654,156.573 101.785,156.615 101.625 C 156.657 101.465,156.657 101.202,156.615 101.042 C 156.573 100.881,156.539 101.013,156.539 101.333 M136.039 110.000 C 136.039 110.321,136.073 110.452,136.115 110.292 C 136.157 110.131,136.157 109.869,136.115 109.708 C 136.073 109.548,136.039 109.679,136.039 110.000 M122.556 115.333 C 122.556 116.021,122.585 116.302,122.621 115.958 C 122.657 115.615,122.657 115.052,122.621 114.708 C 122.585 114.365,122.556 114.646,122.556 115.333 M230.125 122.123 C 230.698 122.156,231.635 122.156,232.208 122.123 C 232.781 122.091,232.313 122.064,231.167 122.064 C 230.021 122.064,229.552 122.091,230.125 122.123 M225.295 122.287 C 225.594 122.325,226.044 122.324,226.295 122.286 C 226.545 122.248,226.300 122.217,225.750 122.218 C 225.200 122.219,224.995 122.250,225.295 122.287 M236.128 122.287 C 236.428 122.325,236.878 122.324,237.128 122.286 C 237.378 122.248,237.133 122.217,236.583 122.218 C 236.033 122.219,235.828 122.250,236.128 122.287 M179.494 125.625 L 178.583 126.583 179.542 125.672 C 180.432 124.826,180.576 124.667,180.453 124.667 C 180.427 124.667,179.995 125.098,179.494 125.625 M104.375 127.782 C 104.535 127.823,104.798 127.823,104.958 127.782 C 105.119 127.740,104.987 127.705,104.667 127.705 C 104.346 127.705,104.215 127.740,104.375 127.782 M225.042 132.291 C 226.027 132.321,227.640 132.321,228.625 132.291 C 229.610 132.262,228.804 132.237,226.833 132.237 C 224.862 132.237,224.056 132.262,225.042 132.291 M220.208 132.448 C 220.369 132.490,220.631 132.490,220.792 132.448 C 220.952 132.406,220.821 132.372,220.500 132.372 C 220.179 132.372,220.048 132.406,220.208 132.448 M232.960 132.451 C 233.168 132.491,233.468 132.490,233.627 132.448 C 233.786 132.406,233.617 132.374,233.250 132.375 C 232.883 132.377,232.753 132.411,232.960 132.451 M209.544 139.120 C 209.797 139.158,210.172 139.157,210.377 139.117 C 210.582 139.078,210.375 139.046,209.917 139.048 C 209.458 139.049,209.291 139.081,209.544 139.120 M212.960 139.285 C 213.168 139.324,213.468 139.323,213.627 139.281 C 213.786 139.239,213.617 139.207,213.250 139.209 C 212.883 139.211,212.753 139.245,212.960 139.285 M230.542 141.448 C 230.702 141.490,230.965 141.490,231.125 141.448 C 231.285 141.406,231.154 141.372,230.833 141.372 C 230.512 141.372,230.381 141.406,230.542 141.448 M237.042 141.948 C 237.202 141.990,237.465 141.990,237.625 141.948 C 237.785 141.906,237.654 141.872,237.333 141.872 C 237.012 141.872,236.881 141.906,237.042 141.948 M246.717 142.124 C 247.708 142.154,249.283 142.154,250.217 142.124 C 251.152 142.095,250.342 142.070,248.417 142.071 C 246.492 142.071,245.727 142.095,246.717 142.124 M82.660 145.542 C 83.350 146.278,83.500 146.410,83.500 146.285 C 83.500 146.258,83.144 145.902,82.708 145.493 L 81.917 144.750 82.660 145.542 M99.792 150.954 C 100.090 150.991,100.577 150.991,100.875 150.954 C 101.173 150.917,100.929 150.887,100.333 150.887 C 99.737 150.887,99.494 150.917,99.792 150.954 M304.583 153.333 C 305.035 153.792,305.442 154.167,305.487 154.167 C 305.533 154.167,305.201 153.792,304.750 153.333 C 304.299 152.875,303.892 152.500,303.846 152.500 C 303.800 152.500,304.132 152.875,304.583 153.333 M96.991 157.125 L 96.417 157.750 97.042 157.176 C 97.623 156.641,97.743 156.500,97.616 156.500 C 97.588 156.500,97.307 156.781,96.991 157.125 M163.573 162.708 L 163.083 163.250 163.625 162.760 C 163.923 162.491,164.167 162.248,164.167 162.219 C 164.167 162.090,164.029 162.203,163.573 162.708 M160.575 166.208 L 159.917 166.917 160.625 166.258 C 161.284 165.645,161.410 165.500,161.284 165.500 C 161.257 165.500,160.938 165.819,160.575 166.208 M157.167 169.417 C 156.762 169.829,156.468 170.167,156.514 170.167 C 156.560 170.167,156.928 169.829,157.333 169.417 C 157.738 169.004,158.032 168.667,157.986 168.667 C 157.940 168.667,157.572 169.004,157.167 169.417 M275.458 176.121 C 275.756 176.158,276.244 176.158,276.542 176.121 C 276.840 176.084,276.596 176.053,276.000 176.053 C 275.404 176.053,275.160 176.084,275.458 176.121 M238.461 181.787 C 238.761 181.825,239.211 181.824,239.461 181.786 C 239.712 181.748,239.467 181.717,238.917 181.718 C 238.367 181.719,238.162 181.750,238.461 181.787 M244.375 182.455 C 244.719 182.491,245.281 182.491,245.625 182.455 C 245.969 182.419,245.688 182.389,245.000 182.389 C 244.313 182.389,244.031 182.419,244.375 182.455 M231.991 185.458 L 231.417 186.083 232.042 185.509 C 232.385 185.193,232.667 184.912,232.667 184.884 C 232.667 184.757,232.526 184.877,231.991 185.458 M301.294 190.785 C 301.501 190.824,301.801 190.823,301.960 190.781 C 302.120 190.739,301.950 190.707,301.583 190.709 C 301.217 190.711,301.086 190.745,301.294 190.785 M299.458 190.951 C 299.665 190.991,300.002 190.991,300.208 190.951 C 300.415 190.911,300.246 190.879,299.833 190.879 C 299.421 190.879,299.252 190.911,299.458 190.951 M224.740 191.542 L 224.250 192.083 224.792 191.594 C 225.297 191.138,225.410 191.000,225.281 191.000 C 225.252 191.000,225.009 191.244,224.740 191.542 M85.718 193.250 C 85.719 193.800,85.750 194.005,85.787 193.705 C 85.825 193.406,85.824 192.956,85.786 192.705 C 85.748 192.455,85.717 192.700,85.718 193.250 M224.050 193.500 C 224.050 194.004,224.081 194.210,224.119 193.958 C 224.158 193.706,224.158 193.294,224.119 193.042 C 224.081 192.790,224.050 192.996,224.050 193.500 M106.211 195.453 C 106.464 195.491,106.839 195.490,107.044 195.451 C 107.249 195.411,107.042 195.380,106.583 195.381 C 106.125 195.382,105.957 195.415,106.211 195.453 M85.542 197.417 C 85.544 197.783,85.578 197.914,85.618 197.706 C 85.658 197.499,85.656 197.199,85.615 197.040 C 85.573 196.880,85.540 197.050,85.542 197.417 M104.872 197.667 C 104.872 197.987,104.906 198.119,104.948 197.958 C 104.990 197.798,104.990 197.535,104.948 197.375 C 104.906 197.215,104.872 197.346,104.872 197.667 M85.039 204.667 C 85.039 204.987,85.073 205.119,85.115 204.958 C 85.157 204.798,85.157 204.535,85.115 204.375 C 85.073 204.215,85.039 204.346,85.039 204.667 M325.552 210.750 C 325.553 211.300,325.584 211.505,325.621 211.205 C 325.658 210.906,325.657 210.456,325.619 210.205 C 325.581 209.955,325.551 210.200,325.552 210.750 M84.545 211.167 C 84.545 211.579,84.578 211.748,84.618 211.542 C 84.657 211.335,84.657 210.998,84.618 210.792 C 84.578 210.585,84.545 210.754,84.545 211.167 M245.712 215.667 C 245.712 216.079,245.745 216.248,245.784 216.042 C 245.824 215.835,245.824 215.498,245.784 215.292 C 245.745 215.085,245.712 215.254,245.712 215.667 M138.500 216.885 C 138.500 216.914,138.744 217.158,139.042 217.427 L 139.583 217.917 139.094 217.375 C 138.638 216.870,138.500 216.757,138.500 216.885 M84.045 219.833 C 84.045 220.246,84.078 220.415,84.118 220.208 C 84.157 220.002,84.157 219.665,84.118 219.458 C 84.078 219.252,84.045 219.421,84.045 219.833 M337.542 222.917 C 337.544 223.283,337.578 223.414,337.618 223.206 C 337.658 222.999,337.656 222.699,337.615 222.540 C 337.573 222.380,337.540 222.550,337.542 222.917 M83.905 226.833 C 83.905 229.079,83.929 229.998,83.958 228.875 C 83.987 227.752,83.987 225.915,83.958 224.792 C 83.929 223.669,83.905 224.588,83.905 226.833 M132.053 224.833 C 132.053 225.429,132.084 225.673,132.121 225.375 C 132.158 225.077,132.158 224.590,132.121 224.292 C 132.084 223.994,132.053 224.237,132.053 224.833 M122.569 230.750 C 122.570 232.492,122.594 233.182,122.624 232.283 C 122.654 231.384,122.654 229.959,122.624 229.116 C 122.594 228.273,122.569 229.008,122.569 230.750 M337.875 228.417 C 337.877 228.783,337.911 228.914,337.951 228.706 C 337.991 228.499,337.990 228.199,337.948 228.040 C 337.906 227.880,337.874 228.050,337.875 228.417 M99.205 231.833 C 99.205 232.154,99.240 232.285,99.282 232.125 C 99.323 231.965,99.323 231.702,99.282 231.542 C 99.240 231.381,99.205 231.512,99.205 231.833 M84.039 233.500 C 84.039 233.821,84.073 233.952,84.115 233.792 C 84.157 233.631,84.157 233.369,84.115 233.208 C 84.073 233.048,84.039 233.179,84.039 233.500 M337.875 235.417 C 337.877 235.783,337.911 235.914,337.951 235.706 C 337.991 235.499,337.990 235.199,337.948 235.040 C 337.906 234.880,337.874 235.050,337.875 235.417 M203.712 237.667 C 203.712 238.079,203.745 238.248,203.784 238.042 C 203.824 237.835,203.824 237.498,203.784 237.292 C 203.745 237.085,203.712 237.254,203.712 237.667 M337.542 240.917 C 337.544 241.283,337.578 241.414,337.618 241.206 C 337.658 240.999,337.656 240.699,337.615 240.540 C 337.573 240.380,337.540 240.550,337.542 240.917 M99.205 246.500 C 99.205 246.821,99.240 246.952,99.282 246.792 C 99.323 246.631,99.323 246.369,99.282 246.208 C 99.240 246.048,99.205 246.179,99.205 246.500 M321.709 246.750 C 321.711 247.117,321.745 247.247,321.785 247.040 C 321.824 246.832,321.823 246.532,321.781 246.373 C 321.739 246.214,321.707 246.383,321.709 246.750 M321.705 248.000 C 321.705 248.321,321.740 248.452,321.782 248.292 C 321.823 248.131,321.823 247.869,321.782 247.708 C 321.740 247.548,321.705 247.679,321.705 248.000 M199.723 254.500 C 199.723 255.188,199.752 255.469,199.788 255.125 C 199.824 254.781,199.824 254.219,199.788 253.875 C 199.752 253.531,199.723 253.813,199.723 254.500 M192.242 261.708 L 191.583 262.417 192.292 261.758 C 192.950 261.145,193.077 261.000,192.950 261.000 C 192.923 261.000,192.605 261.319,192.242 261.708 M189.383 267.500 C 189.383 268.004,189.415 268.210,189.453 267.958 C 189.491 267.706,189.491 267.294,189.453 267.042 C 189.415 266.790,189.383 266.996,189.383 267.500 M158.833 286.719 C 158.833 286.748,159.077 286.991,159.375 287.260 L 159.917 287.750 159.427 287.208 C 158.971 286.703,158.833 286.590,158.833 286.719 M116.000 302.052 C 116.000 302.081,116.244 302.325,116.542 302.594 L 117.083 303.083 116.594 302.542 C 116.138 302.037,116.000 301.923,116.000 302.052 M127.500 307.083 C 128.367 307.954,129.114 308.667,129.160 308.667 C 129.206 308.667,128.534 307.954,127.667 307.083 C 126.799 306.212,126.052 305.500,126.007 305.500 C 125.961 305.500,126.633 306.212,127.500 307.083 M304.906 307.208 L 304.417 307.750 304.958 307.260 C 305.463 306.804,305.577 306.667,305.448 306.667 C 305.419 306.667,305.175 306.910,304.906 307.208 M140.000 317.385 C 140.000 317.414,140.244 317.658,140.542 317.927 L 141.083 318.417 140.594 317.875 C 140.138 317.370,140.000 317.257,140.000 317.385 M213.961 318.121 C 214.261 318.158,214.711 318.157,214.961 318.119 C 215.212 318.081,214.967 318.051,214.417 318.052 C 213.867 318.053,213.662 318.084,213.961 318.121 M219.881 318.290 C 220.412 318.323,221.237 318.323,221.714 318.289 C 222.192 318.256,221.758 318.229,220.750 318.229 C 219.742 318.229,219.351 318.257,219.881 318.290 M228.708 318.782 C 228.869 318.823,229.131 318.823,229.292 318.782 C 229.452 318.740,229.321 318.705,229.000 318.705 C 228.679 318.705,228.548 318.740,228.708 318.782 M225.875 327.782 C 226.035 327.823,226.298 327.823,226.458 327.782 C 226.619 327.740,226.487 327.705,226.167 327.705 C 225.846 327.705,225.715 327.740,225.875 327.782 M238.875 327.782 C 239.035 327.823,239.298 327.823,239.458 327.782 C 239.619 327.740,239.487 327.705,239.167 327.705 C 238.846 327.705,238.715 327.740,238.875 327.782 M230.801 327.958 C 231.929 327.987,233.729 327.987,234.801 327.958 C 235.873 327.929,234.950 327.905,232.750 327.905 C 230.550 327.905,229.673 327.929,230.801 327.958 M220.542 337.448 C 220.702 337.490,220.965 337.490,221.125 337.448 C 221.285 337.406,221.154 337.372,220.833 337.372 C 220.512 337.372,220.381 337.406,220.542 337.448 M242.042 337.448 C 242.202 337.490,242.465 337.490,242.625 337.448 C 242.785 337.406,242.654 337.372,242.333 337.372 C 242.012 337.372,241.881 337.406,242.042 337.448 M227.961 337.954 C 228.261 337.991,228.711 337.990,228.961 337.952 C 229.212 337.914,228.967 337.884,228.417 337.885 C 227.867 337.886,227.662 337.917,227.961 337.954 M234.295 337.954 C 234.594 337.991,235.044 337.990,235.295 337.952 C 235.545 337.914,235.300 337.884,234.750 337.885 C 234.200 337.886,233.995 337.917,234.295 337.954 " stroke="none" fill="#49cdfc" fill-rule="evenodd"></path></g></svg>