<svg id="svg" version="1.1" xmlns="http://www.w3.org/2000/svg" xmlns:xlink="http://www.w3.org/1999/xlink" width="400" height="400" viewBox="0, 0, 400,400"><g id="svgg"><path id="path0" d="M197.060 65.464 C 194.108 67.238,185.616 73.580,175.167 81.814 C 164.518 90.205,143.465 107.126,133.255 115.500 C 132.417 116.188,129.569 118.513,126.925 120.667 C 124.282 122.821,121.620 124.996,121.010 125.500 C 120.400 126.004,118.113 127.879,115.928 129.667 C 113.744 131.454,111.085 133.633,110.020 134.510 C 99.454 143.201,94.311 147.406,89.750 151.082 C 87.825 152.634,84.450 155.355,82.250 157.128 C 80.050 158.902,76.825 161.501,75.083 162.905 C 73.342 164.309,71.092 166.126,70.083 166.942 C 69.075 167.759,66.712 169.666,64.833 171.180 C 58.513 176.271,54.595 179.430,52.667 180.988 C 51.612 181.840,49.297 183.710,47.520 185.144 C 45.744 186.577,42.444 189.241,40.187 191.063 C 37.930 192.885,35.414 194.907,34.597 195.556 C 33.125 196.725,33.115 196.738,33.547 196.915 C 33.787 197.013,34.180 197.278,34.421 197.504 C 34.896 197.950,34.383 197.878,42.333 198.615 C 44.579 198.824,46.974 198.913,50.083 198.906 C 61.037 198.880,63.014 198.059,72.342 189.667 C 74.023 188.154,75.605 186.747,77.418 185.151 C 79.038 183.725,84.134 179.522,88.333 176.147 C 90.671 174.269,94.233 171.401,96.250 169.774 C 98.267 168.148,102.467 164.763,105.583 162.252 C 113.737 155.684,119.055 151.397,121.917 149.085 C 123.292 147.974,126.142 145.678,128.250 143.983 C 130.358 142.287,137.146 136.818,143.333 131.829 C 149.521 126.840,156.721 121.045,159.333 118.952 C 161.946 116.858,165.538 113.894,167.316 112.364 C 172.089 108.258,174.895 105.912,176.825 104.417 C 179.261 102.528,182.239 100.149,186.000 97.087 C 191.461 92.641,194.641 90.364,197.408 88.917 L 198.835 88.170 211.043 97.950 C 217.757 103.330,227.375 111.039,232.417 115.082 C 237.458 119.125,247.846 127.451,255.500 133.584 C 263.154 139.717,274.104 148.492,279.833 153.084 C 285.563 157.676,295.725 165.821,302.417 171.184 C 337.218 199.076,333.750 196.401,336.322 197.339 C 344.381 200.280,357.408 200.074,363.913 196.903 C 365.949 195.909,366.536 196.651,359.083 190.807 C 355.810 188.240,353.850 186.696,342.500 177.749 C 340.071 175.834,333.883 170.960,328.750 166.918 C 323.617 162.876,317.617 158.151,315.417 156.418 C 302.926 146.578,291.612 137.668,284.333 131.939 C 279.796 128.367,275.108 124.674,273.917 123.731 C 272.725 122.789,267.587 118.742,262.500 114.739 C 251.053 105.733,248.462 103.690,246.852 102.403 C 245.481 101.308,231.235 90.093,227.922 87.500 C 221.516 82.488,220.501 81.668,212.250 74.830 C 206.777 70.294,199.228 64.667,198.616 64.667 C 198.490 64.667,197.789 65.026,197.060 65.464 M197.646 140.545 C 195.672 142.128,191.447 145.574,190.843 146.094 C 190.517 146.375,186.313 149.820,181.500 153.751 C 176.688 157.681,171.325 162.068,169.583 163.499 C 166.330 166.173,157.842 173.109,156.502 174.189 C 155.773 174.777,152.102 177.787,150.750 178.906 C 149.223 180.169,127.480 197.960,126.318 198.897 C 124.522 200.344,117.712 205.910,113.652 209.250 C 111.757 210.808,107.010 214.695,103.103 217.886 C 99.196 221.078,95.928 223.823,95.841 223.986 C 95.196 225.191,94.844 237.582,94.716 263.596 C 94.602 286.902,95.066 333.777,95.421 334.701 C 95.532 334.990,108.343 335.063,194.208 335.264 L 237.500 335.365 237.500 318.127 C 237.500 308.646,237.550 286.701,237.611 269.361 L 237.722 237.833 262.167 237.833 C 275.612 237.833,288.753 237.883,291.370 237.943 L 296.128 238.053 296.228 246.568 C 296.377 259.303,296.658 290.376,296.840 314.236 C 296.928 325.870,297.027 335.416,297.060 335.448 C 297.092 335.481,298.011 335.432,299.101 335.340 C 300.191 335.248,301.650 335.129,302.343 335.075 L 303.603 334.978 303.809 280.614 C 303.923 250.714,304.059 226.004,304.111 225.704 C 304.231 225.008,303.769 224.286,302.221 222.749 C 297.023 217.591,279.466 203.084,255.017 183.745 C 253.514 182.556,251.339 180.833,250.183 179.917 C 247.210 177.560,236.937 169.473,233.667 166.916 C 226.067 160.974,217.372 153.964,216.833 153.345 C 216.722 153.216,213.905 150.859,213.236 150.333 C 212.944 150.104,211.538 148.962,210.111 147.796 C 206.012 144.445,202.110 141.621,199.491 140.111 L 198.733 139.674 197.646 140.545 M186.929 177.166 L 194.942 177.167 194.890 177.625 C 194.861 177.877,194.718 182.883,194.572 188.749 C 194.426 194.615,194.294 199.427,194.279 199.442 C 194.263 199.456,191.700 199.404,188.583 199.325 C 185.467 199.246,180.958 199.178,178.565 199.174 C 176.171 199.170,173.865 199.119,173.440 199.061 L 172.667 198.955 172.667 187.951 L 172.667 176.947 175.792 177.057 C 177.510 177.117,182.522 177.166,186.929 177.166 M225.829 178.125 C 225.827 178.744,225.752 180.825,225.662 182.750 C 225.445 187.441,225.003 198.281,225.001 198.958 L 225.000 199.500 214.333 199.500 L 203.667 199.500 203.667 188.250 L 203.667 177.000 214.750 177.000 L 225.833 177.000 225.829 178.125 M226.250 237.889 C 226.250 237.904,226.213 255.129,226.167 276.167 L 226.083 314.417 214.542 314.459 L 203.000 314.502 203.000 276.060 L 203.000 237.617 214.625 237.739 C 221.019 237.806,226.250 237.874,226.250 237.889 M194.723 246.792 C 194.783 251.719,194.909 266.587,195.002 279.833 C 195.096 293.079,195.190 306.261,195.211 309.126 L 195.250 314.336 183.750 314.293 L 172.250 314.250 172.251 306.625 C 172.251 302.431,172.270 285.276,172.293 268.501 L 172.333 238.002 182.875 237.958 C 188.673 237.934,193.686 237.896,194.015 237.874 L 194.613 237.833 194.723 246.792 " stroke="none" fill="#fc0474" fill-rule="evenodd"></path><path id="path1" d="M197.000 89.212 C 194.240 90.743,185.278 97.348,184.167 98.670 C 184.015 98.851,179.107 102.753,177.667 103.839 C 175.535 105.445,173.320 107.277,169.083 110.938 C 164.936 114.520,163.634 115.600,158.667 119.579 C 155.517 122.102,150.330 126.274,144.667 130.841 C 143.154 132.060,140.192 134.447,138.083 136.145 C 135.975 137.843,132.900 140.322,131.250 141.653 C 129.600 142.985,127.313 144.825,126.167 145.743 C 125.021 146.660,124.046 147.450,124.000 147.497 C 123.954 147.545,122.042 149.083,119.750 150.916 C 117.458 152.749,115.546 154.291,115.500 154.343 C 115.454 154.394,114.667 155.032,113.750 155.759 C 112.833 156.486,112.046 157.120,112.000 157.167 C 111.954 157.215,110.792 158.156,109.417 159.259 C 106.059 161.952,99.567 167.176,97.000 169.251 C 94.918 170.934,90.203 174.733,85.333 178.652 C 83.124 180.429,80.997 182.185,79.333 183.605 C 78.308 184.479,73.242 188.904,73.167 188.989 C 73.121 189.042,72.409 189.685,71.586 190.417 C 70.762 191.150,69.983 191.849,69.855 191.969 C 66.951 194.694,63.788 196.799,61.200 197.729 C 58.085 198.847,50.576 199.397,45.114 198.907 C 43.630 198.774,41.029 198.552,39.333 198.413 C 35.621 198.111,34.557 197.917,34.336 197.505 C 34.027 196.928,33.180 196.778,32.993 197.267 C 32.129 199.540,34.121 200.199,42.750 200.500 C 48.964 200.716,57.561 201.137,58.314 201.263 L 58.878 201.357 57.731 201.940 C 52.952 204.370,42.284 212.680,38.215 217.143 C 36.427 219.105,34.167 222.424,34.167 223.089 C 34.167 223.143,47.534 223.173,63.872 223.155 L 93.576 223.122 93.741 223.769 C 93.998 224.779,93.950 256.864,93.666 274.000 C 93.209 301.596,93.382 319.998,94.173 328.115 C 94.457 331.029,95.078 334.645,95.262 334.460 C 95.295 334.427,95.252 332.041,95.166 329.158 C 94.645 311.679,94.515 244.001,94.983 234.083 C 95.462 223.913,95.440 224.041,96.956 222.822 C 97.575 222.324,99.394 220.840,100.999 219.524 C 102.604 218.208,104.252 216.858,104.661 216.524 C 105.070 216.190,105.905 215.504,106.515 215.000 C 107.126 214.496,108.591 213.300,109.771 212.343 C 110.951 211.386,112.517 210.107,113.250 209.502 C 115.643 207.525,117.002 206.412,122.917 201.583 C 126.125 198.963,130.063 195.744,131.667 194.430 C 136.405 190.547,144.057 184.296,144.842 183.667 C 145.242 183.346,146.060 182.670,146.660 182.166 C 147.259 181.661,148.313 180.799,149.000 180.249 C 149.688 179.700,150.287 179.211,150.333 179.162 C 150.379 179.113,151.354 178.310,152.500 177.377 C 153.646 176.444,155.558 174.883,156.750 173.908 C 157.942 172.933,160.304 171.003,162.000 169.619 C 163.696 168.236,166.021 166.334,167.167 165.392 C 168.313 164.451,170.637 162.546,172.333 161.160 C 175.925 158.223,176.112 158.070,178.750 155.905 C 179.850 155.003,181.725 153.477,182.917 152.514 C 184.108 151.551,185.121 150.723,185.167 150.673 C 185.213 150.623,185.813 150.133,186.500 149.583 C 187.188 149.033,187.831 148.508,187.930 148.415 C 188.029 148.322,189.670 146.972,191.576 145.415 C 193.482 143.858,195.801 141.957,196.729 141.192 C 198.854 139.441,198.541 139.500,200.270 140.521 C 203.580 142.476,207.578 145.521,215.000 151.739 C 223.727 159.051,222.769 158.279,234.167 167.202 C 236.871 169.319,239.653 171.508,240.349 172.067 C 241.046 172.626,241.876 173.287,242.195 173.537 C 242.513 173.786,244.981 175.729,247.679 177.854 C 252.533 181.679,253.480 182.429,262.600 189.689 C 267.982 193.973,275.544 200.034,275.667 200.163 C 275.712 200.211,276.313 200.703,277.000 201.257 C 279.652 203.392,281.920 205.238,282.000 205.326 C 282.046 205.376,282.644 205.867,283.330 206.417 C 284.016 206.967,284.766 207.577,284.997 207.774 C 285.228 207.971,286.617 209.122,288.083 210.334 C 290.874 212.638,291.566 213.219,293.649 215.000 C 294.346 215.596,295.104 216.243,295.333 216.437 C 299.273 219.785,303.081 223.358,303.715 224.301 L 304.128 224.917 303.994 253.500 C 303.645 327.817,303.640 334.638,303.926 333.917 C 305.935 328.849,306.443 303.868,305.306 266.000 C 304.823 249.919,305.090 223.438,305.737 223.248 C 305.915 223.196,311.934 223.053,333.917 222.578 C 340.150 222.443,348.250 222.260,351.917 222.170 C 355.583 222.081,360.121 222.001,362.000 221.992 C 366.515 221.972,366.399 222.060,364.289 220.244 C 363.334 219.422,357.661 214.562,351.680 209.444 C 345.700 204.325,340.832 200.113,340.862 200.082 C 340.892 200.052,343.655 199.943,347.000 199.839 C 363.092 199.343,366.846 199.209,366.925 199.131 C 366.972 199.084,366.688 198.368,366.295 197.539 L 365.580 196.032 364.661 196.573 C 357.957 200.520,341.282 200.436,334.083 196.418 C 333.533 196.111,331.283 194.415,329.083 192.648 C 326.883 190.881,322.091 187.031,318.434 184.092 C 314.776 181.154,311.551 178.566,311.267 178.341 C 309.706 177.107,283.412 156.046,266.833 142.751 C 262.021 138.891,252.796 131.500,246.334 126.325 C 239.872 121.151,234.435 116.791,234.251 116.637 C 234.067 116.484,233.129 115.731,232.167 114.964 C 229.532 112.867,217.680 103.367,216.917 102.742 C 216.550 102.441,214.112 100.485,211.500 98.394 C 208.887 96.304,204.990 93.185,202.838 91.464 C 200.686 89.742,198.849 88.333,198.755 88.333 C 198.660 88.333,197.871 88.729,197.000 89.212 M203.667 188.167 L 203.667 199.333 214.237 199.333 L 224.807 199.333 224.897 198.292 C 224.947 197.719,225.027 196.200,225.077 194.917 C 225.444 185.314,225.674 179.861,225.766 178.542 L 225.873 177.000 214.770 177.000 L 203.667 177.000 203.667 188.167 M172.667 188.064 L 172.667 198.962 175.292 199.063 C 182.145 199.325,194.160 199.378,194.234 199.146 C 194.273 199.020,194.354 196.592,194.413 193.750 C 194.471 190.908,194.548 188.058,194.584 187.417 C 194.619 186.775,194.690 184.206,194.740 181.708 L 194.832 177.167 183.749 177.167 L 172.667 177.167 172.667 188.064 M203.000 275.974 L 203.000 314.333 214.473 314.333 L 225.946 314.333 226.057 309.556 C 226.117 306.929,226.167 289.716,226.167 271.306 L 226.167 237.833 217.958 237.833 C 213.444 237.833,208.231 237.783,206.375 237.723 L 203.000 237.614 203.000 275.974 M176.875 238.125 L 172.333 238.172 172.333 276.143 L 172.333 314.113 183.704 314.214 C 189.958 314.269,195.109 314.280,195.151 314.238 C 195.193 314.196,195.138 304.131,195.029 291.872 C 194.920 279.613,194.782 262.477,194.722 253.792 L 194.614 238.000 188.015 238.039 C 184.386 238.060,179.373 238.099,176.875 238.125 M237.667 286.667 L 237.667 335.333 267.354 335.333 L 297.042 335.333 296.933 329.208 C 296.819 322.855,296.633 302.120,296.332 262.500 C 296.236 249.804,296.117 239.098,296.069 238.708 L 295.980 238.000 266.823 238.000 L 237.667 238.000 237.667 286.667 M97.969 335.125 C 99.372 335.153,101.622 335.153,102.969 335.125 C 104.315 335.097,103.167 335.074,100.417 335.074 C 97.667 335.074,96.565 335.097,97.969 335.125 M158.217 335.291 C 159.208 335.321,160.783 335.321,161.717 335.291 C 162.652 335.261,161.842 335.237,159.917 335.237 C 157.992 335.237,157.227 335.262,158.217 335.291 " stroke="none" fill="#fc7bbb" fill-rule="evenodd"></path><path id="path2" d="M192.333 0.109 C 192.012 0.138,189.650 0.280,187.083 0.425 C 184.517 0.569,182.267 0.708,182.083 0.734 C 181.595 0.803,179.558 1.007,178.500 1.092 C 175.851 1.305,167.348 2.568,162.750 3.431 C 162.017 3.569,160.892 3.780,160.250 3.901 C 157.925 4.337,155.600 4.871,151.382 5.935 C 149.018 6.531,146.783 7.093,146.417 7.183 C 141.196 8.469,126.073 13.817,120.667 16.290 C 120.346 16.436,119.357 16.874,118.469 17.263 C 114.169 19.145,105.610 23.439,102.897 25.075 C 102.358 25.400,101.823 25.666,101.708 25.666 C 101.594 25.666,101.500 25.742,101.500 25.833 C 101.500 25.925,101.424 26.000,101.330 26.000 C 101.237 26.000,100.619 26.325,99.955 26.723 C 99.292 27.120,98.300 27.694,97.750 27.999 C 97.200 28.303,96.637 28.647,96.500 28.764 C 96.362 28.881,96.059 29.076,95.827 29.197 C 94.409 29.935,87.634 34.398,84.217 36.844 C 81.593 38.723,79.037 40.596,78.561 40.987 C 78.274 41.223,77.793 41.604,77.493 41.833 C 68.511 48.684,57.459 59.076,49.841 67.833 C 49.163 68.612,48.564 69.287,48.510 69.333 C 48.420 69.410,47.299 70.728,45.794 72.528 C 45.452 72.937,44.789 73.755,44.321 74.344 C 43.853 74.934,43.256 75.679,42.995 76.000 C 42.563 76.531,41.945 77.325,41.633 77.750 C 41.565 77.842,41.187 78.329,40.793 78.833 C 39.910 79.962,37.079 83.831,36.467 84.745 C 36.220 85.114,35.777 85.754,35.482 86.167 C 34.246 87.894,32.167 91.027,32.167 91.161 C 32.167 91.240,32.110 91.331,32.042 91.361 C 31.862 91.441,31.000 92.794,31.000 92.996 C 31.000 93.090,30.925 93.167,30.833 93.167 C 30.742 93.167,30.667 93.238,30.667 93.325 C 30.667 93.412,30.450 93.806,30.185 94.200 C 29.920 94.594,29.554 95.179,29.371 95.500 C 29.188 95.821,28.558 96.871,27.971 97.833 C 27.383 98.796,26.576 100.183,26.177 100.917 C 25.778 101.650,25.207 102.662,24.909 103.167 C 24.024 104.662,22.438 107.697,20.684 111.250 C 18.229 116.223,17.696 117.373,16.089 121.167 C 15.564 122.404,15.038 123.642,14.919 123.917 C 14.445 125.009,14.324 125.308,13.742 126.833 C 13.410 127.704,12.965 128.867,12.753 129.417 C 10.786 134.538,8.533 141.491,7.083 146.917 C 6.838 147.833,6.573 148.771,6.494 149.000 C 6.415 149.229,6.156 150.242,5.918 151.250 C 5.680 152.258,5.339 153.683,5.161 154.417 C 4.616 156.658,3.871 160.178,3.415 162.667 C 3.289 163.354,3.148 164.104,3.101 164.333 C 3.054 164.563,2.864 165.688,2.680 166.833 C 2.495 167.979,2.235 169.592,2.102 170.417 C 1.886 171.756,1.672 173.412,1.424 175.667 C 1.379 176.079,1.304 176.642,1.258 176.917 C 1.212 177.192,1.099 178.279,1.008 179.333 C 0.917 180.387,0.812 181.400,0.774 181.583 C 0.699 181.951,0.613 183.220,0.247 189.416 C -0.203 197.011,0.099 213.941,0.764 218.417 C 0.805 218.692,0.912 219.817,1.003 220.917 C 1.093 222.017,1.211 223.104,1.264 223.333 C 1.317 223.563,1.396 224.088,1.438 224.500 C 1.604 226.108,2.208 230.362,2.586 232.583 C 2.805 233.867,3.021 235.142,3.066 235.417 C 3.162 236.000,3.578 238.246,3.901 239.917 C 4.240 241.679,4.763 244.020,5.321 246.279 C 5.597 247.395,5.861 248.482,5.908 248.696 C 5.992 249.079,6.267 250.134,6.747 251.917 C 6.882 252.422,7.097 253.228,7.224 253.709 C 7.350 254.190,7.736 255.521,8.082 256.667 C 8.427 257.813,8.812 259.125,8.936 259.583 C 9.061 260.042,9.227 260.567,9.306 260.750 C 9.384 260.933,9.731 261.946,10.077 263.000 C 10.867 265.410,12.462 269.975,12.669 270.417 C 12.755 270.600,13.165 271.650,13.581 272.750 C 13.998 273.850,14.408 274.900,14.494 275.083 C 14.580 275.267,14.959 276.167,15.336 277.083 C 16.279 279.372,16.564 280.032,17.461 282.000 C 17.733 282.596,18.244 283.721,18.597 284.500 C 19.271 285.987,22.921 293.259,23.784 294.833 C 26.768 300.280,30.548 306.664,30.872 306.806 C 30.943 306.836,31.000 306.931,31.000 307.017 C 31.000 307.147,31.562 308.088,32.036 308.750 C 32.101 308.842,32.881 310.004,33.769 311.333 C 36.252 315.051,38.538 318.302,39.426 319.379 C 39.634 319.630,40.553 320.838,41.917 322.650 C 42.657 323.633,46.248 328.081,46.893 328.813 C 47.273 329.244,47.958 330.039,48.417 330.580 C 48.875 331.121,49.362 331.684,49.500 331.831 C 49.637 331.979,50.043 332.433,50.402 332.841 C 53.902 336.823,61.676 344.703,65.274 347.917 C 66.609 349.108,67.824 350.201,67.975 350.345 C 68.687 351.025,72.968 354.617,74.829 356.097 C 77.167 357.955,77.031 357.851,79.850 359.971 C 80.987 360.825,82.133 361.688,82.396 361.887 C 82.924 362.287,84.663 363.524,85.833 364.333 C 86.246 364.619,87.087 365.204,87.702 365.634 C 88.731 366.354,89.979 367.165,93.083 369.133 C 93.725 369.540,94.513 370.040,94.833 370.244 C 100.031 373.552,109.993 378.897,116.667 381.960 C 118.179 382.654,119.345 383.167,119.410 383.167 C 119.447 383.167,119.988 383.398,120.613 383.680 C 121.239 383.963,121.986 384.300,122.275 384.430 C 122.564 384.560,122.849 384.667,122.909 384.667 C 123.006 384.667,124.003 385.083,124.917 385.506 C 125.277 385.672,126.198 386.043,126.333 386.076 C 126.414 386.095,127.872 386.651,130.500 387.664 C 131.188 387.929,131.900 388.196,132.083 388.259 C 132.267 388.321,133.692 388.815,135.250 389.358 C 136.808 389.900,138.346 390.410,138.667 390.490 C 139.212 390.628,139.973 390.879,140.750 391.178 C 141.158 391.336,144.763 392.367,147.250 393.038 C 151.791 394.263,157.939 395.720,160.417 396.157 C 161.296 396.313,163.091 396.655,164.333 396.905 C 167.394 397.519,174.734 398.550,178.735 398.928 C 180.300 399.076,181.618 399.220,181.665 399.249 C 181.712 399.277,182.762 399.355,184.000 399.420 C 185.237 399.486,186.300 399.569,186.360 399.604 C 186.851 399.889,205.129 400.041,210.167 399.802 C 213.785 399.630,217.779 399.344,219.000 399.169 C 219.596 399.083,220.721 398.966,221.500 398.907 C 223.007 398.794,227.924 398.165,230.417 397.766 C 233.032 397.348,236.040 396.835,237.375 396.580 C 240.252 396.030,241.102 395.864,241.500 395.770 C 241.729 395.716,242.142 395.628,242.417 395.573 C 245.117 395.036,252.700 393.104,256.000 392.111 C 257.054 391.794,258.177 391.480,258.495 391.413 C 258.812 391.346,259.187 391.236,259.328 391.168 C 259.717 390.980,260.682 390.654,261.333 390.490 C 261.790 390.375,265.941 388.964,267.917 388.251 C 269.186 387.794,274.678 385.687,275.083 385.502 C 275.267 385.418,276.167 385.042,277.083 384.665 C 278.000 384.288,279.222 383.759,279.799 383.490 C 280.376 383.220,280.927 383.000,281.023 383.000 C 281.120 383.000,281.398 382.891,281.641 382.758 C 281.884 382.624,282.758 382.203,283.583 381.821 C 285.512 380.928,293.112 377.161,294.417 376.451 C 297.845 374.585,301.328 372.574,304.128 370.846 C 305.252 370.151,306.302 369.507,306.461 369.413 C 308.196 368.392,316.543 362.738,317.014 362.265 C 317.159 362.119,317.330 362.000,317.394 362.000 C 317.458 362.000,317.873 361.719,318.317 361.375 C 318.762 361.031,319.336 360.600,319.594 360.417 C 319.852 360.233,320.668 359.613,321.407 359.039 C 322.145 358.464,323.115 357.714,323.560 357.372 C 324.006 357.030,324.456 356.673,324.560 356.579 C 324.665 356.484,325.200 356.046,325.750 355.604 C 326.300 355.161,327.050 354.549,327.417 354.244 C 327.783 353.938,328.646 353.222,329.333 352.652 C 330.021 352.083,330.621 351.569,330.667 351.511 C 330.712 351.453,331.387 350.853,332.167 350.177 C 332.946 349.502,334.258 348.343,335.083 347.602 C 337.042 345.841,345.870 337.007,347.583 335.093 C 348.317 334.274,349.086 333.418,349.294 333.192 C 349.502 332.965,349.989 332.404,350.377 331.944 C 350.766 331.484,351.205 330.990,351.354 330.846 C 351.503 330.701,352.024 330.096,352.512 329.500 C 353.000 328.904,353.444 328.379,353.499 328.333 C 353.553 328.287,354.491 327.125,355.582 325.750 C 356.672 324.375,357.817 322.950,358.124 322.583 C 358.432 322.217,358.736 321.842,358.800 321.750 C 358.984 321.487,360.388 319.602,360.538 319.417 C 360.612 319.325,361.132 318.612,361.694 317.833 C 362.256 317.054,362.930 316.140,363.191 315.801 C 363.453 315.463,363.667 315.130,363.667 315.062 C 363.667 314.994,363.808 314.783,363.980 314.594 C 364.152 314.405,365.287 312.750,366.501 310.917 C 367.714 309.083,368.848 307.380,369.020 307.132 C 369.193 306.883,369.333 306.645,369.333 306.602 C 369.333 306.559,369.621 306.087,369.973 305.553 C 371.164 303.749,374.631 297.874,374.992 297.050 C 375.080 296.848,375.332 296.398,375.551 296.050 C 376.046 295.266,380.538 286.404,381.363 284.583 C 381.696 283.850,382.154 282.837,382.381 282.333 C 382.609 281.829,382.991 280.983,383.231 280.453 C 383.470 279.924,383.667 279.460,383.667 279.423 C 383.667 279.387,383.892 278.870,384.167 278.276 C 384.442 277.682,384.667 277.148,384.667 277.089 C 384.667 276.995,385.046 276.085,385.504 275.083 C 385.742 274.562,387.581 269.739,388.142 268.167 C 390.159 262.507,391.031 259.761,392.826 253.417 C 393.879 249.694,393.927 249.507,394.577 246.667 C 394.818 245.612,395.086 244.450,395.172 244.083 C 395.841 241.232,396.019 240.422,396.161 239.563 C 396.251 239.024,396.437 238.021,396.574 237.333 C 397.086 234.778,398.342 226.737,398.578 224.500 C 398.602 224.271,398.672 223.746,398.734 223.333 C 398.859 222.492,399.062 220.220,399.421 215.667 C 400.134 206.619,400.130 193.490,399.412 184.333 C 398.939 178.303,398.518 174.390,398.006 171.250 C 397.916 170.700,397.657 169.087,397.430 167.667 C 396.990 164.902,396.976 164.822,396.573 162.667 C 396.428 161.887,396.243 160.889,396.163 160.447 C 395.976 159.419,395.441 157.021,394.678 153.792 C 393.852 150.295,393.632 149.402,393.540 149.167 C 393.486 149.029,393.343 148.504,393.222 148.000 C 393.100 147.496,392.975 147.008,392.943 146.917 C 392.911 146.825,392.828 146.525,392.759 146.250 C 392.346 144.620,388.633 132.982,388.320 132.333 C 388.253 132.196,387.657 130.621,386.996 128.833 C 386.334 127.046,385.588 125.133,385.337 124.582 C 385.086 124.031,384.824 123.394,384.754 123.165 C 384.633 122.770,384.390 122.191,383.637 120.500 C 383.454 120.087,383.242 119.600,383.166 119.417 C 381.796 116.085,377.044 106.576,374.805 102.684 C 374.362 101.915,374.000 101.263,374.000 101.236 C 374.000 101.158,371.998 97.782,370.747 95.750 C 370.126 94.742,369.534 93.767,369.430 93.583 C 369.326 93.400,369.020 92.912,368.749 92.500 C 368.478 92.087,368.180 91.619,368.087 91.460 C 367.993 91.300,367.017 89.848,365.917 88.233 C 364.817 86.618,363.842 85.173,363.750 85.023 C 363.658 84.873,363.542 84.712,363.491 84.667 C 363.441 84.621,363.141 84.209,362.825 83.752 C 362.509 83.295,362.150 82.814,362.027 82.684 C 361.904 82.553,361.632 82.177,361.423 81.848 C 361.213 81.519,360.601 80.674,360.062 79.970 C 359.524 79.266,358.933 78.485,358.750 78.234 C 357.526 76.561,353.212 71.290,351.056 68.833 C 350.855 68.604,350.529 68.229,350.332 68.000 C 349.869 67.463,347.539 64.893,346.251 63.500 C 343.445 60.464,334.587 51.815,333.056 50.617 C 332.798 50.415,332.470 50.137,332.327 50.000 C 331.695 49.391,329.481 47.474,327.483 45.804 C 326.778 45.215,322.692 41.964,321.833 41.309 C 320.747 40.480,318.054 38.490,316.903 37.667 C 316.198 37.162,315.535 36.675,315.429 36.583 C 315.323 36.492,315.117 36.342,314.973 36.250 C 313.641 35.407,308.738 32.055,308.694 31.958 C 308.664 31.890,308.572 31.833,308.491 31.833 C 308.366 31.833,306.598 30.737,304.167 29.153 C 303.534 28.740,298.817 26.000,298.740 26.000 C 298.714 26.000,297.956 25.573,297.055 25.052 C 294.221 23.412,288.982 20.732,284.583 18.673 C 283.758 18.287,282.708 17.793,282.250 17.576 C 281.792 17.359,280.329 16.723,279.000 16.163 C 277.671 15.603,276.433 15.079,276.250 14.998 C 274.767 14.345,274.340 14.167,274.264 14.167 C 274.216 14.167,273.123 13.754,271.834 13.250 C 270.545 12.746,269.062 12.186,268.537 12.006 C 268.013 11.826,266.721 11.371,265.667 10.996 C 262.996 10.047,260.917 9.378,257.167 8.262 C 254.003 7.320,253.348 7.129,252.833 6.997 C 252.512 6.914,251.688 6.696,251.000 6.512 C 249.956 6.232,247.196 5.560,244.083 4.828 C 243.227 4.627,239.736 3.887,239.083 3.769 C 238.808 3.719,238.021 3.572,237.333 3.442 C 233.538 2.721,229.862 2.133,226.750 1.748 C 225.650 1.612,224.300 1.428,223.750 1.339 C 223.200 1.250,221.703 1.094,220.422 0.993 C 219.142 0.892,218.055 0.784,218.006 0.754 C 217.911 0.697,217.063 0.641,210.333 0.248 C 206.599 0.030,194.249 -0.065,192.333 0.109 M201.103 66.128 C 205.383 69.141,208.346 71.467,215.917 77.755 C 218.025 79.506,220.838 81.792,222.167 82.833 C 223.496 83.875,224.621 84.774,224.667 84.830 C 224.713 84.887,226.137 86.012,227.833 87.331 C 229.529 88.649,232.117 90.682,233.583 91.848 C 235.050 93.014,237.573 95.006,239.190 96.276 C 243.799 99.893,252.219 106.521,256.333 109.769 C 258.396 111.398,262.146 114.351,264.667 116.332 C 269.727 120.307,273.541 123.314,277.583 126.515 C 279.050 127.676,281.909 129.929,283.936 131.522 C 288.258 134.916,295.995 141.006,300.833 144.823 C 302.712 146.305,306.087 148.963,308.333 150.729 C 310.579 152.496,314.742 155.774,317.583 158.014 C 320.425 160.255,323.606 162.762,324.652 163.586 C 333.089 170.230,338.843 174.767,339.333 175.163 C 339.654 175.423,342.167 177.400,344.917 179.557 C 347.667 181.715,352.167 185.252,354.917 187.418 C 357.667 189.584,361.176 192.345,362.716 193.553 L 365.516 195.750 366.362 197.465 C 366.828 198.408,367.181 199.204,367.146 199.233 C 367.087 199.282,362.061 199.448,348.750 199.840 C 345.633 199.932,342.616 200.049,342.044 200.100 L 341.005 200.193 353.686 211.055 L 366.368 221.917 362.142 222.033 C 357.289 222.166,339.789 222.555,322.583 222.914 C 306.910 223.240,305.701 223.292,305.596 223.642 C 304.929 225.873,304.973 251.193,305.693 279.500 C 305.965 290.189,305.972 316.169,305.704 320.417 C 305.195 328.481,304.822 331.536,304.072 333.807 L 303.633 335.135 301.525 335.276 C 299.183 335.432,223.881 335.415,146.060 335.240 L 95.370 335.125 95.026 333.938 C 93.299 327.961,92.933 306.720,93.757 260.167 C 94.022 245.203,93.993 228.776,93.695 224.750 L 93.583 223.250 63.792 223.300 C 47.406 223.328,34.000 223.305,34.000 223.249 C 34.000 221.602,39.078 215.698,44.083 211.525 C 48.586 207.771,56.047 202.524,58.243 201.567 L 58.750 201.346 58.083 201.335 C 57.717 201.329,56.442 201.251,55.250 201.163 C 54.058 201.074,50.083 200.889,46.417 200.751 C 35.311 200.335,33.578 200.062,32.870 198.619 C 32.278 197.412,32.562 197.081,37.807 192.860 C 40.434 190.746,44.458 187.503,46.750 185.654 C 49.042 183.804,51.667 181.686,52.583 180.947 C 54.639 179.290,58.111 176.487,63.667 171.999 C 66.004 170.111,69.867 166.996,72.250 165.076 C 74.633 163.157,77.607 160.761,78.858 159.751 C 80.109 158.742,82.621 156.717,84.441 155.250 C 93.573 147.891,100.946 141.882,109.417 134.894 C 109.692 134.668,110.592 133.928,111.417 133.251 C 119.278 126.801,121.061 125.340,122.000 124.577 C 123.073 123.704,123.652 123.232,131.171 117.083 C 133.301 115.342,135.697 113.392,136.495 112.750 C 137.293 112.108,141.690 108.551,146.265 104.845 C 157.155 96.025,161.960 92.167,169.000 86.593 C 170.604 85.322,172.254 84.008,172.667 83.672 C 173.568 82.936,179.133 78.596,183.167 75.482 C 191.679 68.910,197.726 64.636,198.687 64.513 C 198.743 64.506,199.831 65.233,201.103 66.128 " stroke="none" fill="#fcb4d4" fill-rule="evenodd"></path><path id="path3" d="M173.715 177.124 C 174.338 177.156,175.313 177.156,175.882 177.123 C 176.451 177.091,175.942 177.064,174.750 177.065 C 173.558 177.065,173.093 177.092,173.715 177.124 M225.718 179.583 C 225.719 180.133,225.750 180.338,225.787 180.039 C 225.825 179.739,225.824 179.289,225.786 179.039 C 225.748 178.788,225.717 179.033,225.718 179.583 M194.721 181.250 C 194.722 181.892,194.752 182.134,194.788 181.788 C 194.824 181.442,194.824 180.917,194.787 180.621 C 194.750 180.325,194.721 180.608,194.721 181.250 M225.558 183.500 C 225.558 184.279,225.587 184.598,225.622 184.208 C 225.657 183.819,225.657 183.181,225.622 182.792 C 225.587 182.402,225.558 182.721,225.558 183.500 M225.379 187.167 C 225.379 187.579,225.411 187.748,225.451 187.542 C 225.491 187.335,225.491 186.998,225.451 186.792 C 225.411 186.585,225.379 186.754,225.379 187.167 M225.212 191.667 C 225.212 192.079,225.245 192.248,225.284 192.042 C 225.324 191.835,225.324 191.498,225.284 191.292 C 225.245 191.085,225.212 191.254,225.212 191.667 M194.396 193.750 C 194.396 194.758,194.424 195.149,194.457 194.619 C 194.490 194.088,194.490 193.263,194.456 192.786 C 194.422 192.308,194.395 192.742,194.396 193.750 M225.058 195.333 C 225.058 196.112,225.087 196.431,225.122 196.042 C 225.157 195.652,225.157 195.015,225.122 194.625 C 225.087 194.235,225.058 194.554,225.058 195.333 M35.875 198.115 C 36.035 198.157,36.298 198.157,36.458 198.115 C 36.619 198.073,36.487 198.039,36.167 198.039 C 35.846 198.039,35.715 198.073,35.875 198.115 M37.875 198.282 C 38.035 198.323,38.298 198.323,38.458 198.282 C 38.619 198.240,38.487 198.205,38.167 198.205 C 37.846 198.205,37.715 198.240,37.875 198.282 M224.833 198.832 L 224.833 199.331 214.208 199.375 L 203.583 199.419 214.292 199.460 L 225.000 199.500 225.000 198.917 C 225.000 198.596,224.963 198.333,224.917 198.333 C 224.871 198.333,224.833 198.558,224.833 198.832 M43.460 198.785 C 43.668 198.824,43.968 198.823,44.127 198.781 C 44.286 198.739,44.117 198.707,43.750 198.709 C 43.383 198.711,43.253 198.745,43.460 198.785 M55.875 198.782 C 56.035 198.823,56.298 198.823,56.458 198.782 C 56.619 198.740,56.487 198.705,56.167 198.705 C 55.846 198.705,55.715 198.740,55.875 198.782 M45.375 198.948 C 45.535 198.990,45.798 198.990,45.958 198.948 C 46.119 198.906,45.987 198.872,45.667 198.872 C 45.346 198.872,45.215 198.906,45.375 198.948 M53.375 198.953 C 53.627 198.991,54.040 198.991,54.292 198.953 C 54.544 198.915,54.337 198.883,53.833 198.883 C 53.329 198.883,53.123 198.915,53.375 198.953 M47.621 199.120 C 47.917 199.157,48.442 199.158,48.788 199.122 C 49.134 199.086,48.892 199.055,48.250 199.055 C 47.608 199.054,47.325 199.083,47.621 199.120 M174.042 199.119 C 174.294 199.158,174.706 199.158,174.958 199.119 C 175.210 199.081,175.004 199.050,174.500 199.050 C 173.996 199.050,173.790 199.081,174.042 199.119 M185.127 199.285 C 185.334 199.324,185.634 199.323,185.794 199.281 C 185.953 199.239,185.783 199.207,185.417 199.209 C 185.050 199.211,184.920 199.245,185.127 199.285 M193.333 199.333 L 192.417 199.446 193.375 199.473 C 193.921 199.488,194.333 199.428,194.333 199.333 C 194.333 199.242,194.315 199.179,194.292 199.194 C 194.269 199.209,193.838 199.272,193.333 199.333 M344.875 199.282 C 345.035 199.323,345.298 199.323,345.458 199.282 C 345.619 199.240,345.488 199.205,345.167 199.205 C 344.846 199.205,344.715 199.240,344.875 199.282 M354.542 199.282 C 354.702 199.323,354.965 199.323,355.125 199.282 C 355.285 199.240,355.154 199.205,354.833 199.205 C 354.512 199.205,354.381 199.240,354.542 199.282 M347.125 199.455 C 347.515 199.490,348.152 199.490,348.542 199.455 C 348.931 199.420,348.613 199.392,347.833 199.392 C 347.054 199.392,346.735 199.420,347.125 199.455 M351.629 199.456 C 352.021 199.491,352.621 199.490,352.963 199.454 C 353.304 199.419,352.983 199.390,352.250 199.390 C 351.517 199.391,351.237 199.420,351.629 199.456 M301.000 221.552 C 301.000 221.581,301.244 221.825,301.542 222.094 L 302.083 222.583 301.594 222.042 C 301.138 221.537,301.000 221.423,301.000 221.552 M304.068 228.583 C 304.068 230.142,304.093 230.802,304.124 230.050 C 304.155 229.298,304.155 228.023,304.124 227.217 C 304.094 226.410,304.068 227.025,304.068 228.583 M95.053 233.333 C 95.053 233.929,95.084 234.173,95.121 233.875 C 95.158 233.577,95.158 233.090,95.121 232.792 C 95.084 232.494,95.053 232.737,95.053 233.333 M94.900 239.167 C 94.900 240.588,94.926 241.169,94.957 240.458 C 94.988 239.748,94.988 238.585,94.957 237.875 C 94.926 237.165,94.900 237.746,94.900 239.167 M209.625 237.791 C 210.840 237.820,212.827 237.820,214.042 237.791 C 215.256 237.763,214.262 237.739,211.833 237.739 C 209.404 237.739,208.410 237.763,209.625 237.791 M193.625 237.951 C 193.831 237.991,194.169 237.991,194.375 237.951 C 194.581 237.911,194.412 237.879,194.000 237.879 C 193.588 237.879,193.419 237.911,193.625 237.951 M226.234 240.417 C 226.234 241.883,226.260 242.461,226.291 241.700 C 226.322 240.940,226.322 239.740,226.290 239.034 C 226.259 238.328,226.234 238.950,226.234 240.417 M250.721 237.958 C 257.947 237.982,269.722 237.982,276.888 237.958 C 284.054 237.934,278.142 237.915,263.750 237.915 C 249.358 237.915,243.495 237.934,250.721 237.958 M174.542 238.125 C 175.802 238.153,177.865 238.153,179.125 238.125 C 180.385 238.096,179.354 238.073,176.833 238.073 C 174.313 238.073,173.281 238.096,174.542 238.125 M94.736 248.833 C 94.736 250.529,94.761 251.223,94.791 250.375 C 94.821 249.527,94.821 248.140,94.791 247.292 C 94.761 246.444,94.736 247.137,94.736 248.833 M296.237 250.000 C 296.237 251.971,296.262 252.777,296.291 251.792 C 296.321 250.806,296.321 249.194,296.291 248.208 C 296.262 247.223,296.237 248.029,296.237 250.000 M194.739 253.083 C 194.739 255.283,194.762 256.160,194.791 255.032 C 194.820 253.904,194.820 252.104,194.791 251.032 C 194.762 249.960,194.738 250.883,194.739 253.083 M303.911 264.083 C 303.911 268.942,303.932 270.905,303.958 268.447 C 303.984 265.988,303.984 262.013,303.958 259.613 C 303.932 257.213,303.911 259.225,303.911 264.083 M194.910 273.667 C 194.910 277.654,194.932 279.285,194.958 277.292 C 194.985 275.298,194.985 272.035,194.958 270.042 C 194.932 268.048,194.910 269.679,194.910 273.667 M296.403 270.583 C 296.403 272.325,296.428 273.015,296.458 272.116 C 296.488 271.218,296.488 269.793,296.457 268.950 C 296.427 268.107,296.403 268.842,296.403 270.583 M237.581 307.583 C 237.581 322.892,237.601 329.129,237.625 321.445 C 237.649 313.761,237.649 301.236,237.625 293.612 C 237.601 285.988,237.581 292.275,237.581 307.583 M296.575 288.417 C 296.575 291.717,296.597 293.090,296.625 291.469 C 296.652 289.848,296.652 287.148,296.625 285.469 C 296.598 283.790,296.575 285.117,296.575 288.417 M195.073 293.750 C 195.073 296.133,195.096 297.085,195.125 295.865 C 195.153 294.645,195.153 292.695,195.124 291.532 C 195.096 290.368,195.073 291.367,195.073 293.750 M94.739 298.417 C 94.739 300.800,94.763 301.752,94.791 300.532 C 94.820 299.312,94.820 297.362,94.791 296.198 C 94.763 295.035,94.739 296.033,94.739 298.417 M303.737 298.333 C 303.737 300.212,303.761 300.981,303.791 300.042 C 303.821 299.102,303.821 297.565,303.791 296.625 C 303.761 295.685,303.737 296.454,303.737 298.333 M172.250 306.625 L 172.250 314.250 180.417 314.252 L 188.583 314.255 180.460 314.209 L 172.337 314.164 172.293 306.582 L 172.250 299.000 172.250 306.625 M296.741 308.583 C 296.741 311.608,296.764 312.869,296.791 311.386 C 296.819 309.902,296.819 307.427,296.791 305.886 C 296.764 304.344,296.741 305.558,296.741 308.583 M226.038 311.124 L 226.000 314.331 214.458 314.375 L 202.917 314.419 214.464 314.459 C 223.731 314.492,226.027 314.458,226.092 314.286 C 226.138 314.169,226.152 312.688,226.125 310.995 L 226.075 307.917 226.038 311.124 M94.906 313.333 C 94.906 315.762,94.929 316.756,94.958 315.542 C 94.986 314.327,94.986 312.340,94.958 311.125 C 94.929 309.910,94.906 310.904,94.906 313.333 M95.064 323.917 C 95.064 325.017,95.091 325.445,95.124 324.868 C 95.156 324.292,95.156 323.392,95.123 322.868 C 95.090 322.345,95.063 322.817,95.064 323.917 M296.889 327.833 C 296.889 328.521,296.919 328.802,296.955 328.458 C 296.991 328.115,296.991 327.552,296.955 327.208 C 296.919 326.865,296.889 327.146,296.889 327.833 M109.697 335.125 C 112.142 335.151,116.192 335.151,118.697 335.125 C 121.201 335.099,119.200 335.078,114.250 335.078 C 109.300 335.078,107.251 335.099,109.697 335.125 M172.125 335.292 C 177.006 335.316,184.994 335.316,189.875 335.292 C 194.756 335.267,190.762 335.247,181.000 335.247 C 171.237 335.247,167.244 335.267,172.125 335.292 M300.125 335.284 C 300.331 335.324,300.669 335.324,300.875 335.284 C 301.081 335.245,300.912 335.212,300.500 335.212 C 300.087 335.212,299.919 335.245,300.125 335.284 " stroke="none" fill="#fc5eac" fill-rule="evenodd"></path><path id="path4" d="M32.833 198.610 C 32.833 198.701,33.040 198.957,33.292 199.179 L 33.750 199.583 33.333 199.083 C 33.104 198.808,32.898 198.552,32.875 198.514 C 32.852 198.476,32.833 198.519,32.833 198.610 M366.932 198.897 C 367.004 199.084,366.870 199.161,366.389 199.211 L 365.750 199.277 366.458 199.305 C 367.146 199.333,367.446 199.026,367.002 198.751 C 366.909 198.694,366.879 198.757,366.932 198.897 M360.796 199.456 C 361.188 199.491,361.788 199.490,362.129 199.454 C 362.471 199.419,362.150 199.390,361.417 199.390 C 360.683 199.391,360.404 199.420,360.796 199.456 M355.375 199.623 C 355.810 199.657,356.523 199.657,356.958 199.623 C 357.394 199.588,357.037 199.560,356.167 199.560 C 355.296 199.560,354.940 199.588,355.375 199.623 M350.960 199.785 C 351.168 199.824,351.468 199.823,351.627 199.781 C 351.786 199.739,351.617 199.707,351.250 199.709 C 350.883 199.711,350.753 199.745,350.960 199.785 M344.875 199.955 C 345.219 199.991,345.781 199.991,346.125 199.955 C 346.469 199.919,346.188 199.889,345.500 199.889 C 344.813 199.889,344.531 199.919,344.875 199.955 M341.127 200.118 C 341.334 200.158,341.634 200.156,341.794 200.115 C 341.953 200.073,341.783 200.040,341.417 200.042 C 341.050 200.044,340.920 200.078,341.127 200.118 M39.211 200.453 C 39.464 200.491,39.839 200.490,40.044 200.451 C 40.249 200.411,40.042 200.380,39.583 200.381 C 39.125 200.382,38.957 200.415,39.211 200.453 M42.625 200.623 C 43.106 200.657,43.894 200.657,44.375 200.623 C 44.856 200.589,44.462 200.562,43.500 200.562 C 42.537 200.562,42.144 200.589,42.625 200.623 M47.292 200.789 C 47.681 200.824,48.319 200.824,48.708 200.789 C 49.098 200.754,48.779 200.725,48.000 200.725 C 47.221 200.725,46.902 200.754,47.292 200.789 M51.544 200.953 C 51.797 200.991,52.172 200.990,52.377 200.951 C 52.582 200.911,52.375 200.880,51.917 200.881 C 51.458 200.882,51.291 200.915,51.544 200.953 M54.461 201.121 C 54.761 201.158,55.211 201.157,55.461 201.119 C 55.712 201.081,55.467 201.051,54.917 201.052 C 54.367 201.053,54.162 201.084,54.461 201.121 M57.042 201.286 C 57.294 201.324,57.706 201.324,57.958 201.286 C 58.210 201.248,58.004 201.217,57.500 201.217 C 56.996 201.217,56.790 201.248,57.042 201.286 M42.740 212.708 L 42.250 213.250 42.792 212.760 C 43.297 212.304,43.410 212.167,43.281 212.167 C 43.252 212.167,43.009 212.410,42.740 212.708 M41.077 214.208 L 40.250 215.083 41.125 214.256 C 41.606 213.801,42.000 213.408,42.000 213.381 C 42.000 213.257,41.846 213.395,41.077 214.208 M37.909 217.375 L 37.250 218.083 37.958 217.425 C 38.617 216.812,38.743 216.667,38.617 216.667 C 38.590 216.667,38.271 216.985,37.909 217.375 M365.822 221.569 C 365.977 221.757,365.956 221.822,365.717 221.883 C 365.532 221.931,365.602 221.969,365.901 221.981 C 366.375 222.000,366.379 221.993,366.083 221.667 C 365.742 221.289,365.521 221.207,365.822 221.569 M357.215 222.124 C 357.838 222.156,358.813 222.156,359.382 222.123 C 359.951 222.091,359.442 222.064,358.250 222.065 C 357.058 222.065,356.593 222.092,357.215 222.124 M349.383 222.291 C 350.190 222.321,351.465 222.321,352.217 222.291 C 352.968 222.260,352.308 222.235,350.750 222.235 C 349.192 222.235,348.577 222.260,349.383 222.291 M342.958 222.456 C 343.440 222.490,344.227 222.490,344.708 222.456 C 345.190 222.423,344.796 222.395,343.833 222.395 C 342.871 222.395,342.477 222.423,342.958 222.456 M334.798 222.624 C 335.375 222.656,336.275 222.656,336.798 222.623 C 337.322 222.590,336.850 222.563,335.750 222.564 C 334.650 222.564,334.222 222.591,334.798 222.624 M327.125 222.791 C 327.881 222.822,329.119 222.822,329.875 222.791 C 330.631 222.760,330.012 222.735,328.500 222.735 C 326.987 222.735,326.369 222.760,327.125 222.791 M319.792 222.957 C 320.456 222.989,321.544 222.989,322.208 222.957 C 322.873 222.925,322.329 222.900,321.000 222.900 C 319.671 222.900,319.127 222.925,319.792 222.957 M34.000 223.208 C 34.000 223.277,39.306 223.316,45.792 223.295 C 52.277 223.273,55.708 223.236,53.417 223.212 C 42.600 223.096,34.000 223.095,34.000 223.208 M90.000 223.110 C 91.819 223.232,93.630 223.240,93.558 223.125 C 93.515 223.056,92.529 223.014,91.365 223.030 C 90.202 223.047,89.587 223.083,90.000 223.110 M312.625 223.123 C 313.106 223.157,313.894 223.157,314.375 223.123 C 314.856 223.089,314.462 223.062,313.500 223.062 C 312.537 223.062,312.144 223.089,312.625 223.123 M305.611 223.278 C 305.550 223.339,305.501 223.470,305.503 223.569 C 305.504 223.682,305.553 223.675,305.632 223.550 C 305.707 223.433,306.277 223.325,307.005 223.291 L 308.250 223.233 306.986 223.200 C 306.291 223.182,305.672 223.217,305.611 223.278 M93.720 225.000 C 93.720 225.596,93.750 225.840,93.787 225.542 C 93.824 225.244,93.824 224.756,93.787 224.458 C 93.750 224.160,93.720 224.404,93.720 225.000 M305.220 228.000 C 305.220 228.596,305.250 228.840,305.287 228.542 C 305.324 228.244,305.324 227.756,305.287 227.458 C 305.250 227.160,305.220 227.404,305.220 228.000 M93.887 229.333 C 93.887 229.929,93.917 230.173,93.954 229.875 C 93.991 229.577,93.991 229.090,93.954 228.792 C 93.917 228.494,93.887 228.737,93.887 229.333 M305.068 233.917 C 305.068 235.475,305.093 236.135,305.124 235.383 C 305.155 234.631,305.155 233.356,305.124 232.550 C 305.094 231.743,305.068 232.358,305.068 233.917 M305.073 249.083 C 305.073 251.467,305.096 252.418,305.125 251.198 C 305.153 249.979,305.153 248.029,305.124 246.865 C 305.096 245.702,305.073 246.700,305.073 249.083 M93.899 252.333 C 93.899 253.571,93.925 254.077,93.957 253.458 C 93.989 252.840,93.989 251.827,93.957 251.208 C 93.925 250.590,93.899 251.096,93.899 252.333 M305.235 260.500 C 305.235 262.012,305.260 262.631,305.291 261.875 C 305.322 261.119,305.322 259.881,305.291 259.125 C 305.260 258.369,305.235 258.987,305.235 260.500 M93.738 264.500 C 93.738 266.563,93.762 267.406,93.791 266.375 C 93.820 265.344,93.820 263.656,93.791 262.625 C 93.762 261.594,93.738 262.438,93.738 264.500 M305.388 268.250 C 305.389 268.892,305.419 269.134,305.455 268.788 C 305.491 268.442,305.490 267.917,305.454 267.621 C 305.417 267.325,305.387 267.608,305.388 268.250 M93.572 275.583 C 93.572 277.875,93.596 278.836,93.624 277.718 C 93.653 276.600,93.653 274.725,93.625 273.551 C 93.596 272.377,93.572 273.292,93.572 275.583 M305.556 276.833 C 305.556 277.521,305.585 277.802,305.621 277.458 C 305.657 277.115,305.657 276.552,305.621 276.208 C 305.585 275.865,305.556 276.146,305.556 276.833 M305.736 285.917 C 305.736 287.658,305.761 288.348,305.791 287.450 C 305.821 286.551,305.821 285.126,305.791 284.283 C 305.761 283.440,305.736 284.175,305.736 285.917 M93.403 286.917 C 93.403 288.658,93.428 289.348,93.458 288.450 C 93.488 287.551,93.488 286.126,93.457 285.283 C 93.427 284.440,93.403 285.175,93.403 286.917 M305.897 296.250 C 305.897 297.350,305.924 297.778,305.957 297.202 C 305.990 296.625,305.989 295.725,305.956 295.202 C 305.923 294.678,305.897 295.150,305.897 296.250 M305.894 310.917 C 305.895 311.833,305.923 312.187,305.956 311.703 C 305.990 311.218,305.990 310.468,305.956 310.036 C 305.921 309.604,305.894 310.000,305.894 310.917 M93.397 313.083 C 93.397 314.183,93.424 314.612,93.457 314.035 C 93.490 313.459,93.489 312.559,93.456 312.035 C 93.423 311.512,93.397 311.983,93.397 313.083 M305.728 317.417 C 305.728 318.333,305.756 318.687,305.790 318.203 C 305.824 317.718,305.823 316.968,305.789 316.536 C 305.755 316.104,305.727 316.500,305.728 317.417 M93.562 318.917 C 93.563 319.925,93.590 320.316,93.623 319.786 C 93.657 319.255,93.656 318.430,93.623 317.952 C 93.589 317.474,93.562 317.908,93.562 318.917 M93.720 323.000 C 93.720 323.596,93.750 323.840,93.787 323.542 C 93.824 323.244,93.824 322.756,93.787 322.458 C 93.750 322.160,93.720 322.404,93.720 323.000 M305.209 326.417 C 305.211 326.783,305.245 326.914,305.285 326.706 C 305.324 326.499,305.323 326.199,305.281 326.040 C 305.239 325.880,305.207 326.050,305.209 326.417 M305.039 328.167 C 305.039 328.487,305.073 328.619,305.115 328.458 C 305.157 328.298,305.157 328.035,305.115 327.875 C 305.073 327.715,305.039 327.846,305.039 328.167 M148.635 335.291 C 150.131 335.319,152.531 335.319,153.969 335.291 C 155.407 335.264,154.183 335.241,151.250 335.241 C 148.317 335.241,147.140 335.264,148.635 335.291 M227.625 335.458 C 229.298 335.485,232.035 335.485,233.708 335.458 C 235.381 335.431,234.012 335.409,230.667 335.409 C 227.321 335.409,225.952 335.431,227.625 335.458 M261.888 335.458 C 268.381 335.482,278.956 335.482,285.388 335.458 C 291.820 335.434,286.508 335.414,273.583 335.414 C 260.658 335.414,255.395 335.434,261.888 335.458 " stroke="none" fill="#fc89bf" fill-rule="evenodd"></path></g></svg>