<svg id="svg" version="1.1" xmlns="http://www.w3.org/2000/svg" xmlns:xlink="http://www.w3.org/1999/xlink" width="400" height="400" viewBox="0, 0, 400,400"><g id="svgg"><path id="path0" d="M191.917 87.498 C 184.014 88.275,180.361 90.047,178.428 94.041 C 176.874 97.252,176.591 100.274,176.762 111.875 L 176.880 119.833 200.254 119.833 L 223.628 119.833 223.753 114.042 C 224.175 94.457,222.898 90.807,214.833 88.532 C 210.240 87.236,199.507 86.752,191.917 87.498 M130.270 134.351 C 121.809 136.345,119.452 149.210,122.012 179.417 C 122.106 180.517,122.228 182.973,122.284 184.875 L 122.386 188.333 123.088 188.333 C 125.101 188.333,130.602 187.556,134.417 186.733 C 138.648 185.820,146.428 183.783,148.667 183.003 C 148.896 182.923,149.646 182.695,150.333 182.497 C 151.960 182.026,160.152 179.478,164.250 178.167 C 171.059 175.990,180.855 173.172,185.083 172.176 C 185.908 171.981,186.883 171.750,187.250 171.661 C 189.341 171.157,193.813 170.409,196.250 170.156 C 204.636 169.285,214.275 171.186,235.583 177.912 C 242.179 179.994,248.810 182.056,250.333 182.498 C 251.021 182.697,251.921 182.964,252.333 183.090 C 261.977 186.035,272.896 188.323,277.349 188.332 L 278.114 188.333 278.226 184.708 C 278.288 182.715,278.412 180.221,278.501 179.167 C 281.106 148.296,279.241 137.951,270.482 134.707 L 269.250 134.250 200.083 134.224 C 158.747 134.209,130.656 134.260,130.270 134.351 M196.583 184.674 C 191.139 185.087,183.999 186.604,173.500 189.580 C 172.721 189.801,169.008 190.851,165.250 191.915 C 161.492 192.978,157.929 193.992,157.333 194.169 C 155.789 194.626,151.760 195.768,149.417 196.412 C 148.317 196.714,146.292 197.279,144.917 197.667 C 143.542 198.055,142.192 198.431,141.917 198.503 C 141.642 198.574,138.379 199.459,134.667 200.469 C 128.374 202.180,126.432 202.698,121.500 203.978 C 120.446 204.252,118.533 204.749,117.250 205.083 C 115.967 205.416,112.432 206.320,109.396 207.090 C 90.576 211.862,87.677 215.078,92.577 225.750 C 93.577 227.927,94.126 229.094,95.248 231.417 C 97.786 236.677,98.847 239.067,100.423 243.083 C 101.539 245.929,103.166 249.856,106.083 256.750 C 112.137 271.059,114.829 278.161,116.389 283.941 L 116.800 285.465 116.010 285.895 C 114.550 286.690,109.476 288.447,103.917 290.083 C 103.183 290.299,101.908 290.675,101.083 290.918 C 100.258 291.162,98.308 291.722,96.750 292.163 C 95.192 292.604,92.829 293.277,91.500 293.658 C 76.615 297.927,73.517 299.036,72.473 300.468 C 68.268 306.235,68.831 309.545,74.227 310.786 C 77.599 311.562,87.081 310.770,93.583 309.169 C 93.950 309.079,95.065 308.814,96.062 308.580 C 100.486 307.544,104.234 306.395,107.457 305.087 C 117.043 301.196,122.850 301.619,136.000 307.164 C 143.078 310.149,145.346 310.938,149.234 311.768 C 153.772 312.736,161.171 313.116,165.335 312.594 C 171.204 311.857,174.073 310.960,182.917 307.095 C 191.396 303.388,194.380 302.616,200.250 302.609 C 206.234 302.602,209.273 303.396,218.167 307.291 C 228.023 311.607,231.885 312.601,239.500 312.783 C 248.461 312.997,252.847 312.011,264.497 307.164 C 277.479 301.763,282.960 301.294,292.406 304.778 C 315.538 313.309,329.739 314.302,330.291 307.426 C 330.470 305.193,328.899 301.043,327.477 299.992 C 325.608 298.612,319.399 296.340,312.250 294.422 C 311.700 294.275,310.688 294.000,310.000 293.812 C 309.313 293.623,308.525 293.409,308.250 293.336 C 293.671 289.441,288.786 287.942,285.385 286.318 L 283.686 285.506 284.007 284.349 C 285.394 279.344,291.323 263.493,293.831 258.083 C 294.242 257.197,297.863 248.533,299.612 244.250 C 301.022 240.796,302.520 237.499,304.836 232.750 C 309.057 224.096,309.941 221.550,309.805 218.447 C 309.576 213.224,305.094 210.405,292.000 207.248 C 288.611 206.430,278.683 203.881,271.917 202.091 C 270.633 201.751,268.871 201.288,268.000 201.061 C 267.129 200.834,265.254 200.319,263.833 199.917 C 262.412 199.514,260.950 199.114,260.583 199.028 C 260.217 198.942,258.379 198.442,256.500 197.917 C 254.621 197.392,252.183 196.716,251.083 196.414 C 248.894 195.814,238.869 192.959,237.667 192.594 C 237.254 192.468,235.417 191.941,233.583 191.421 C 231.750 190.902,229.762 190.335,229.167 190.162 C 226.908 189.507,222.683 188.346,221.000 187.919 C 220.037 187.675,218.575 187.301,217.750 187.087 C 209.837 185.043,202.606 184.218,196.583 184.674 M202.774 206.494 C 207.037 206.961,213.627 208.112,218.083 209.170 C 218.450 209.257,220.213 209.665,222.000 210.078 C 233.319 212.688,252.330 218.031,265.250 222.233 C 272.403 224.559,271.818 224.316,272.881 225.400 C 277.728 230.343,274.001 236.440,266.167 236.383 L 264.250 236.369 249.667 232.435 C 232.777 227.880,233.311 228.024,232.333 227.749 C 231.647 227.556,230.453 227.232,228.000 226.576 C 227.496 226.441,222.321 225.050,216.500 223.485 C 204.399 220.230,204.024 220.162,199.985 220.474 C 195.355 220.832,190.541 221.755,182.167 223.891 C 178.562 224.811,176.636 225.353,160.167 230.082 C 142.200 235.241,133.371 236.828,129.422 235.610 C 127.348 234.970,125.330 232.165,125.337 229.932 C 125.353 224.802,132.981 221.292,152.917 217.242 C 157.767 216.256,182.707 209.880,191.417 207.398 C 196.162 206.046,197.625 205.930,202.774 206.494 " stroke="none" fill="#4404d4" fill-rule="evenodd"></path><path id="path1" d="M189.333 0.257 C 187.454 0.373,185.017 0.519,183.917 0.583 C 182.818 0.646,181.875 0.724,181.823 0.757 C 181.770 0.789,180.758 0.895,179.572 0.993 C 178.387 1.091,176.892 1.245,176.250 1.334 C 175.608 1.424,173.921 1.653,172.500 1.845 C 170.234 2.150,166.041 2.815,164.583 3.100 C 163.706 3.271,161.445 3.679,160.573 3.823 C 157.966 4.254,147.709 6.789,143.667 8.002 C 142.796 8.263,141.521 8.637,140.833 8.833 C 140.146 9.030,139.433 9.256,139.250 9.337 C 139.067 9.417,138.317 9.670,137.583 9.898 C 134.332 10.909,125.844 14.035,123.750 14.992 C 123.567 15.076,121.729 15.872,119.667 16.760 C 114.930 18.801,107.296 22.575,103.333 24.836 C 102.737 25.176,101.912 25.641,101.500 25.870 C 101.087 26.099,100.469 26.447,100.125 26.643 C 99.781 26.839,99.237 27.150,98.917 27.333 C 98.596 27.517,98.052 27.826,97.708 28.020 C 97.365 28.214,96.708 28.616,96.250 28.914 C 95.454 29.431,92.441 31.315,91.759 31.723 C 91.581 31.829,91.356 31.974,91.259 32.044 C 91.162 32.114,90.146 32.795,89.000 33.557 C 87.854 34.319,86.579 35.184,86.167 35.479 C 85.754 35.775,85.042 36.268,84.583 36.576 C 84.125 36.883,83.322 37.461,82.799 37.859 C 82.276 38.257,81.123 39.108,80.236 39.750 C 79.349 40.392,78.540 40.994,78.437 41.089 C 78.334 41.184,77.950 41.484,77.583 41.755 C 77.217 42.026,76.879 42.286,76.833 42.333 C 76.787 42.380,76.188 42.864,75.500 43.409 C 74.813 43.954,74.212 44.441,74.167 44.492 C 74.121 44.543,73.783 44.808,73.417 45.081 C 72.775 45.558,72.071 46.142,71.505 46.667 C 71.356 46.804,70.788 47.290,70.242 47.746 C 69.697 48.203,69.212 48.615,69.167 48.663 C 69.121 48.711,68.483 49.274,67.750 49.913 C 61.916 55.005,55.406 61.550,49.098 68.667 C 48.814 68.987,48.206 69.697,47.749 70.242 C 47.291 70.788,46.804 71.356,46.667 71.505 C 46.142 72.071,45.558 72.775,45.081 73.417 C 44.808 73.783,44.543 74.121,44.492 74.167 C 44.441 74.212,43.954 74.813,43.409 75.500 C 42.864 76.188,42.380 76.787,42.333 76.833 C 42.286 76.879,42.027 77.217,41.758 77.583 C 41.488 77.950,41.225 78.287,41.172 78.333 C 41.119 78.379,40.559 79.129,39.926 80.000 C 39.293 80.871,38.337 82.183,37.801 82.917 C 37.264 83.650,36.579 84.588,36.278 85.001 C 35.977 85.415,34.930 86.952,33.953 88.418 C 32.975 89.884,32.113 91.158,32.037 91.250 C 31.962 91.342,31.847 91.529,31.782 91.667 C 31.717 91.804,31.327 92.442,30.914 93.083 C 30.260 94.102,29.443 95.414,27.821 98.052 C 27.362 98.800,24.454 103.989,23.414 105.917 C 21.142 110.128,18.318 115.988,16.426 120.417 C 15.721 122.067,15.079 123.567,14.998 123.750 C 14.917 123.933,14.689 124.496,14.492 125.000 C 14.294 125.504,13.949 126.346,13.725 126.871 C 13.501 127.397,13.178 128.222,13.006 128.705 C 12.835 129.188,12.421 130.333,12.088 131.250 C 11.141 133.850,10.530 135.614,9.978 137.333 C 9.699 138.204,9.427 139.029,9.374 139.167 C 9.320 139.304,9.187 139.717,9.077 140.083 C 8.966 140.450,8.559 141.800,8.172 143.083 C 7.395 145.659,7.059 146.871,6.812 148.000 C 6.721 148.412,6.578 148.900,6.493 149.083 C 6.408 149.267,6.266 149.759,6.176 150.177 C 6.086 150.596,5.715 152.171,5.351 153.677 C 3.543 161.158,1.883 170.803,1.164 178.000 C 1.077 178.871,0.931 180.221,0.839 181.000 C 0.657 182.546,0.615 183.158,0.249 189.583 C -0.066 195.112,-0.068 204.864,0.245 210.333 C 0.639 217.210,0.693 218.039,0.771 218.403 C 0.811 218.594,0.916 219.650,1.004 220.750 C 1.092 221.850,1.235 223.200,1.322 223.750 C 1.410 224.300,1.566 225.463,1.670 226.333 C 1.881 228.099,3.035 235.352,3.434 237.417 C 4.289 241.838,5.594 247.630,6.495 251.000 C 7.957 256.469,9.960 262.878,11.914 268.333 C 12.669 270.443,15.103 276.644,15.696 277.967 C 15.872 278.362,16.453 279.674,16.986 280.884 C 17.519 282.094,18.245 283.721,18.600 284.500 C 19.586 286.666,23.707 294.789,24.392 295.917 C 24.726 296.467,24.999 297.004,25.000 297.111 C 25.000 297.218,25.056 297.331,25.125 297.361 C 25.194 297.392,25.469 297.829,25.738 298.333 C 26.118 299.049,29.428 304.608,30.546 306.412 C 31.510 307.965,35.920 314.523,37.161 316.250 C 38.636 318.301,42.646 323.654,42.841 323.833 C 42.891 323.879,43.716 324.892,44.674 326.083 C 45.633 327.275,46.458 328.287,46.509 328.333 C 46.560 328.379,46.998 328.898,47.483 329.486 C 47.969 330.075,48.452 330.643,48.558 330.749 C 48.664 330.855,49.125 331.385,49.583 331.927 C 50.414 332.910,51.299 333.883,53.664 336.415 C 55.241 338.104,62.203 345.064,63.751 346.500 C 66.017 348.602,67.441 349.871,70.160 352.212 C 70.668 352.650,71.233 353.138,71.417 353.297 C 71.935 353.747,74.525 355.860,75.240 356.417 C 75.594 356.692,76.190 357.165,76.566 357.469 C 76.942 357.772,77.362 358.111,77.500 358.221 C 77.637 358.332,78.350 358.870,79.083 359.417 C 79.817 359.965,80.492 360.470,80.583 360.541 C 81.271 361.068,82.690 362.121,82.942 362.292 C 83.112 362.407,83.964 363.007,84.836 363.626 C 87.121 365.246,92.516 368.825,93.583 369.430 C 93.767 369.534,94.667 370.094,95.583 370.675 C 97.124 371.652,101.591 374.283,102.167 374.554 C 102.304 374.618,102.754 374.865,103.167 375.103 C 106.713 377.143,115.475 381.494,119.750 383.337 C 119.933 383.416,120.533 383.680,121.083 383.924 C 121.633 384.168,123.021 384.736,124.167 385.186 C 125.313 385.636,126.400 386.073,126.583 386.157 C 126.767 386.241,127.442 386.506,128.083 386.747 C 128.725 386.987,129.400 387.248,129.583 387.326 C 130.573 387.746,135.509 389.472,137.750 390.180 C 138.392 390.383,139.032 390.603,139.172 390.670 C 139.313 390.737,139.685 390.848,140.000 390.917 C 140.315 390.986,140.687 391.103,140.828 391.177 C 141.177 391.362,145.670 392.633,150.000 393.772 C 152.363 394.394,158.476 395.807,160.000 396.083 C 160.688 396.208,161.850 396.425,162.583 396.566 C 163.757 396.792,168.212 397.543,171.083 397.999 C 173.036 398.310,175.777 398.652,177.750 398.832 C 178.850 398.933,180.275 399.087,180.917 399.176 C 182.047 399.332,185.112 399.552,189.583 399.798 C 192.380 399.951,207.238 399.952,210.167 399.799 C 213.727 399.612,217.981 399.331,218.556 399.243 C 218.846 399.199,219.908 399.090,220.917 399.000 C 222.998 398.814,225.514 398.492,229.500 397.899 C 233.000 397.379,235.349 396.974,239.954 396.095 C 241.489 395.803,247.702 394.366,249.750 393.830 C 250.483 393.638,251.517 393.373,252.048 393.241 C 252.579 393.109,253.929 392.730,255.048 392.400 C 256.167 392.069,257.496 391.691,258.000 391.560 C 258.504 391.429,259.067 391.261,259.250 391.187 C 259.433 391.113,261.271 390.501,263.333 389.827 C 265.396 389.152,267.158 388.560,267.250 388.511 C 267.342 388.462,267.454 388.414,267.500 388.405 C 267.546 388.396,267.794 388.301,268.053 388.194 C 268.311 388.087,268.561 388.000,268.608 388.000 C 268.656 388.000,269.795 387.582,271.139 387.070 C 273.405 386.209,274.227 385.880,275.083 385.494 C 275.267 385.411,275.979 385.124,276.667 384.856 C 277.354 384.588,278.425 384.136,279.046 383.851 C 279.667 383.566,280.205 383.333,280.242 383.333 C 280.308 383.333,281.238 382.912,284.583 381.367 C 287.431 380.053,292.821 377.340,294.965 376.143 C 296.091 375.515,297.043 375.000,297.081 375.000 C 297.170 375.000,303.957 371.033,304.500 370.663 C 304.729 370.507,306.154 369.605,307.667 368.657 C 309.179 367.709,310.454 366.889,310.500 366.833 C 310.546 366.778,310.883 366.550,311.250 366.328 C 311.617 366.105,312.479 365.526,313.167 365.040 C 313.854 364.554,314.556 364.065,314.727 363.953 C 314.898 363.841,315.761 363.224,316.644 362.582 C 317.527 361.940,318.446 361.288,318.685 361.135 C 318.924 360.982,319.224 360.754,319.352 360.628 C 319.479 360.503,320.033 360.069,320.583 359.666 C 321.133 359.262,321.658 358.871,321.750 358.798 C 322.842 357.926,325.579 355.768,326.262 355.241 C 326.743 354.870,327.428 354.307,327.785 353.991 C 328.142 353.675,328.876 353.042,329.417 352.583 C 329.958 352.125,330.704 351.487,331.075 351.165 C 331.446 350.843,331.966 350.393,332.231 350.165 C 332.495 349.937,332.795 349.672,332.897 349.576 C 333.000 349.481,333.983 348.584,335.083 347.583 C 337.524 345.362,340.205 342.763,342.893 340.014 C 344.006 338.875,345.113 337.744,345.352 337.500 C 345.848 336.994,349.154 333.377,349.713 332.729 C 349.917 332.492,350.245 332.123,350.443 331.907 C 350.910 331.399,354.104 327.648,354.742 326.859 C 357.089 323.956,358.594 322.044,359.422 320.917 C 359.961 320.183,360.504 319.479,360.629 319.352 C 360.754 319.224,360.982 318.924,361.135 318.685 C 361.288 318.446,361.940 317.527,362.582 316.644 C 363.224 315.761,363.841 314.898,363.953 314.727 C 364.065 314.556,364.554 313.854,365.040 313.167 C 365.526 312.479,366.105 311.617,366.328 311.250 C 366.550 310.883,366.776 310.546,366.829 310.500 C 367.264 310.122,373.565 299.748,375.129 296.833 C 375.497 296.146,376.071 295.096,376.403 294.500 C 377.077 293.289,382.000 283.414,382.000 283.272 C 382.000 283.222,382.382 282.334,382.849 281.299 C 383.316 280.264,383.844 279.093,384.022 278.696 C 384.201 278.300,384.572 277.400,384.848 276.696 C 385.124 275.993,385.463 275.154,385.603 274.833 C 386.105 273.677,387.218 270.809,387.835 269.083 C 388.032 268.533,388.236 267.971,388.290 267.833 C 388.344 267.696,388.401 267.546,388.417 267.500 C 388.433 267.454,388.488 267.304,388.541 267.167 C 388.594 267.029,389.070 265.604,389.600 264.000 C 390.130 262.396,390.662 260.847,390.782 260.558 C 390.902 260.269,391.000 259.912,391.000 259.764 C 391.000 259.616,391.067 259.365,391.150 259.206 C 391.459 258.608,393.036 252.920,394.188 248.250 C 395.441 243.166,395.705 242.002,396.081 239.917 C 396.197 239.275,396.481 237.737,396.712 236.500 C 397.695 231.241,398.498 225.897,398.828 222.417 C 398.924 221.408,399.079 219.946,399.173 219.167 C 399.267 218.387,399.421 216.588,399.514 215.167 C 399.607 213.746,399.734 211.871,399.797 211.000 C 399.947 208.909,399.949 191.194,399.800 189.167 C 399.736 188.296,399.606 186.383,399.512 184.917 C 399.417 183.450,399.265 181.650,399.172 180.917 C 399.080 180.183,398.927 178.758,398.833 177.750 C 398.739 176.742,398.632 175.729,398.595 175.500 C 398.558 175.271,398.442 174.408,398.338 173.583 C 398.034 171.181,397.156 165.743,396.575 162.667 C 396.428 161.887,396.209 160.725,396.088 160.083 C 395.668 157.849,393.928 150.368,393.490 148.917 C 393.408 148.642,393.150 147.704,392.917 146.833 C 392.412 144.941,392.045 143.654,391.753 142.750 C 391.635 142.383,391.373 141.521,391.171 140.833 C 390.969 140.146,390.743 139.433,390.669 139.250 C 390.594 139.067,390.309 138.204,390.035 137.333 C 389.483 135.576,388.062 131.436,387.834 130.917 C 387.753 130.733,387.350 129.683,386.938 128.583 C 386.056 126.228,385.852 125.715,385.085 123.917 C 384.967 123.642,384.442 122.404,383.918 121.167 C 382.440 117.679,381.687 116.049,379.493 111.583 C 378.592 109.750,377.212 107.061,376.427 105.607 C 375.642 104.153,375.000 102.933,375.000 102.895 C 375.000 102.857,374.822 102.547,374.605 102.205 C 374.388 101.863,373.544 100.436,372.730 99.034 C 371.916 97.632,371.137 96.306,371.000 96.088 C 370.863 95.869,370.419 95.141,370.014 94.470 C 368.804 92.467,365.912 88.133,363.587 84.839 C 361.069 81.273,360.660 80.699,360.378 80.343 C 360.265 80.200,359.566 79.296,358.825 78.333 C 358.084 77.371,357.388 76.471,357.278 76.333 C 357.168 76.196,356.629 75.521,356.081 74.833 C 355.099 73.603,351.755 69.587,351.421 69.238 C 351.327 69.139,350.875 68.622,350.417 68.089 C 349.958 67.556,349.396 66.914,349.167 66.664 C 348.938 66.413,348.004 65.393,347.093 64.396 C 343.781 60.774,335.150 52.313,332.386 49.979 C 331.911 49.578,330.299 48.220,328.803 46.961 C 327.307 45.702,325.971 44.573,325.833 44.451 C 325.696 44.330,325.208 43.935,324.750 43.573 C 324.292 43.212,323.879 42.879,323.833 42.832 C 323.787 42.786,323.450 42.526,323.083 42.254 C 322.310 41.681,322.361 41.720,321.167 40.785 C 320.244 40.062,316.797 37.533,315.250 36.442 C 313.487 35.200,307.190 31.000,307.090 31.000 C 307.032 31.000,306.445 30.639,305.784 30.197 C 304.449 29.304,298.078 25.500,297.918 25.500 C 297.862 25.500,297.048 25.057,296.109 24.515 C 294.261 23.448,287.130 19.813,284.833 18.766 C 284.054 18.411,282.254 17.605,280.833 16.975 C 279.412 16.345,278.100 15.759,277.917 15.672 C 277.530 15.489,272.874 13.631,270.917 12.878 C 268.664 12.012,262.500 9.860,261.500 9.591 C 261.271 9.530,260.933 9.412,260.750 9.329 C 260.567 9.246,260.004 9.068,259.500 8.933 C 258.996 8.797,257.946 8.491,257.167 8.251 C 254.033 7.289,247.969 5.713,243.750 4.764 C 242.650 4.517,241.295 4.206,240.739 4.074 C 240.183 3.942,239.522 3.833,239.270 3.833 C 239.018 3.833,238.683 3.765,238.526 3.680 C 238.369 3.596,237.717 3.450,237.078 3.355 C 236.439 3.260,234.829 2.998,233.500 2.774 C 229.353 2.072,226.693 1.690,223.500 1.335 C 221.804 1.147,219.779 0.921,219.000 0.833 C 217.445 0.657,216.782 0.612,210.417 0.249 C 205.195 -0.049,194.236 -0.044,189.333 0.257 M207.833 87.341 C 218.509 88.172,222.346 90.970,223.611 98.847 C 223.934 100.860,224.011 119.556,223.697 119.869 C 223.625 119.942,213.032 119.982,200.158 119.959 L 176.750 119.917 176.750 109.917 C 176.750 99.249,176.828 98.021,177.658 95.608 C 179.704 89.662,183.952 87.752,196.583 87.101 C 198.384 87.008,205.507 87.160,207.833 87.341 M269.667 134.389 C 276.581 136.338,279.410 142.603,279.617 156.417 C 279.706 162.407,279.485 167.458,278.672 178.000 C 278.577 179.237,278.457 181.825,278.407 183.750 C 278.357 185.675,278.279 187.494,278.234 187.792 L 278.152 188.333 276.951 188.332 C 274.429 188.329,271.527 187.892,264.709 186.489 C 261.725 185.875,255.022 184.025,248.417 181.993 C 246.583 181.429,244.746 180.870,244.333 180.751 C 243.921 180.632,242.721 180.258,241.667 179.920 C 238.419 178.878,236.117 178.151,235.333 177.921 C 234.921 177.799,233.346 177.314,231.833 176.842 C 226.192 175.081,221.951 173.870,217.500 172.750 C 203.135 169.133,197.885 169.123,183.500 172.682 C 178.813 173.842,174.788 174.983,168.833 176.842 C 167.321 177.314,165.746 177.799,165.333 177.921 C 164.549 178.151,162.248 178.878,159.000 179.920 C 157.946 180.258,156.746 180.632,156.333 180.751 C 155.921 180.870,154.346 181.353,152.833 181.825 C 146.802 183.707,138.880 185.899,136.000 186.483 C 135.587 186.566,134.313 186.825,133.167 187.058 C 129.006 187.902,125.816 188.325,123.561 188.330 L 122.371 188.333 122.256 185.792 C 122.193 184.394,122.075 182.237,121.994 181.000 C 121.913 179.762,121.734 176.950,121.596 174.750 C 121.458 172.550,121.258 169.535,121.153 168.051 C 120.893 164.394,120.896 153.917,121.157 151.583 C 122.424 140.285,125.040 135.450,130.535 134.253 C 132.405 133.846,268.210 133.978,269.667 134.389 M207.917 184.987 C 210.817 185.451,214.047 186.084,215.667 186.506 C 215.987 186.589,216.925 186.816,217.750 187.010 C 220.530 187.663,227.160 189.476,232.750 191.111 C 233.850 191.433,235.032 191.765,235.377 191.849 C 235.721 191.934,236.659 192.195,237.460 192.431 C 238.261 192.667,239.967 193.157,241.250 193.521 C 242.533 193.884,244.071 194.324,244.667 194.499 C 245.262 194.675,247.512 195.312,249.667 195.916 C 251.821 196.520,253.958 197.121,254.417 197.251 C 255.507 197.562,258.845 198.482,261.667 199.249 C 262.904 199.585,264.292 199.966,264.750 200.094 C 266.449 200.571,277.601 203.501,281.500 204.496 C 282.646 204.788,283.958 205.132,284.417 205.260 C 284.875 205.389,286.000 205.675,286.917 205.897 C 304.741 210.214,308.934 212.347,309.841 217.558 C 310.369 220.587,309.483 223.352,305.084 232.417 C 301.995 238.781,301.346 240.239,298.334 247.583 C 297.958 248.500,297.583 249.400,297.500 249.583 C 297.418 249.767,296.944 250.892,296.446 252.083 C 295.948 253.275,294.788 256.050,293.866 258.250 C 291.116 264.819,289.646 268.475,287.803 273.333 C 287.612 273.837,287.394 274.400,287.319 274.583 C 286.573 276.413,283.833 284.919,283.833 285.406 C 283.833 285.938,291.672 288.790,296.917 290.166 C 299.816 290.927,312.189 294.321,314.250 294.922 C 315.717 295.349,317.179 295.771,317.500 295.861 C 320.173 296.609,324.519 298.232,326.174 299.100 C 330.022 301.118,331.723 307.655,329.062 310.200 C 325.230 313.865,310.087 311.681,292.667 304.950 C 283.271 301.320,276.946 301.880,263.917 307.498 C 254.341 311.626,248.882 312.895,240.667 312.902 C 232.715 312.909,228.252 311.804,217.833 307.247 C 204.444 301.391,196.565 301.092,185.551 306.020 C 185.166 306.193,184.817 306.333,184.776 306.333 C 184.734 306.333,184.036 306.643,183.225 307.021 C 175.222 310.755,170.654 312.141,164.348 312.751 C 156.544 313.507,146.962 312.002,139.917 308.916 C 123.292 301.632,117.875 301.004,107.510 305.156 C 105.032 306.148,104.736 306.252,102.079 307.058 C 91.595 310.239,80.020 311.860,74.574 310.910 C 69.822 310.082,68.489 307.502,70.638 303.292 C 72.503 299.637,72.836 299.391,78.583 297.418 C 80.532 296.749,88.644 294.352,93.917 292.887 C 106.868 289.289,116.667 286.046,116.667 285.360 C 116.667 284.113,111.730 270.058,109.838 265.917 C 109.754 265.733,109.311 264.683,108.852 263.583 C 107.214 259.652,104.316 252.744,104.167 252.417 C 103.889 251.801,102.625 248.763,102.053 247.333 C 101.741 246.554,101.386 245.692,101.263 245.417 C 101.141 245.142,100.844 244.410,100.604 243.792 C 100.363 243.173,99.970 242.160,99.730 241.542 C 99.205 240.190,99.040 239.805,98.265 238.110 C 97.936 237.392,97.667 236.777,97.667 236.744 C 97.667 236.712,97.170 235.650,96.563 234.384 C 94.117 229.283,93.589 228.168,92.716 226.250 C 88.128 216.171,90.961 211.627,103.833 208.422 C 104.337 208.297,106.850 207.654,109.417 206.995 C 111.983 206.335,114.496 205.697,115.000 205.578 C 115.504 205.458,116.892 205.102,118.083 204.787 C 119.275 204.471,121.862 203.794,123.833 203.281 C 127.666 202.284,130.469 201.540,132.083 201.092 C 132.633 200.939,133.608 200.674,134.250 200.502 C 138.250 199.433,139.336 199.136,141.583 198.499 C 142.958 198.109,144.458 197.692,144.917 197.572 C 146.794 197.080,154.596 194.881,159.750 193.391 C 161.492 192.887,163.554 192.300,164.333 192.086 C 165.112 191.873,167.587 191.173,169.833 190.531 C 175.035 189.045,181.663 187.265,183.684 186.811 C 184.545 186.618,185.700 186.357,186.250 186.231 C 188.758 185.657,193.044 184.940,196.000 184.601 C 197.798 184.394,205.843 184.655,207.917 184.987 M195.250 206.445 C 195.067 206.486,193.754 206.848,192.333 207.251 C 189.605 208.024,179.715 210.704,178.583 210.977 C 178.217 211.065,173.267 212.310,167.583 213.744 C 161.900 215.177,156.800 216.451,156.250 216.574 C 155.360 216.773,149.026 218.144,146.167 218.756 C 135.021 221.143,127.481 224.556,125.797 227.979 C 124.643 230.323,126.310 234.121,129.034 235.351 C 130.692 236.100,137.164 235.834,141.417 234.842 C 141.783 234.757,142.983 234.484,144.083 234.237 C 148.688 233.201,152.561 232.170,161.583 229.579 C 176.807 225.207,180.350 224.230,185.667 222.934 C 188.531 222.236,189.998 221.921,193.417 221.267 C 199.164 220.169,204.313 220.058,207.500 220.962 C 208.554 221.261,209.867 221.626,210.417 221.771 C 212.111 222.221,217.298 223.625,218.917 224.072 C 219.375 224.199,226.950 226.230,235.750 228.586 C 244.550 230.942,252.125 232.974,252.583 233.100 C 257.102 234.349,259.525 235.007,260.083 235.139 C 260.450 235.225,261.500 235.507,262.417 235.764 C 271.615 238.350,278.569 231.549,272.877 225.535 L 271.917 224.521 268.833 223.495 C 267.137 222.931,264.587 222.107,263.167 221.665 C 261.746 221.223,259.721 220.586,258.667 220.251 C 257.612 219.915,256.131 219.459,255.375 219.237 C 254.619 219.015,253.344 218.638,252.542 218.399 C 242.743 215.483,230.874 212.249,224.250 210.691 C 223.425 210.497,221.775 210.106,220.583 209.823 C 214.875 208.464,208.382 207.256,203.597 206.663 C 201.146 206.359,196.225 206.231,195.250 206.445 " stroke="none" fill="#b3a3fc" fill-rule="evenodd"></path><path id="path2" d="M223.875 108.750 C 223.877 109.117,223.911 109.247,223.951 109.040 C 223.991 108.832,223.990 108.532,223.948 108.373 C 223.906 108.214,223.874 108.383,223.875 108.750 M176.729 116.917 C 176.729 117.925,176.757 118.316,176.790 117.786 C 176.823 117.255,176.823 116.430,176.789 115.952 C 176.756 115.474,176.729 115.908,176.729 116.917 M223.702 117.958 L 223.667 119.832 200.208 119.875 L 176.750 119.918 200.214 119.959 C 219.502 119.993,223.692 119.961,223.761 119.780 C 223.808 119.660,223.821 118.778,223.791 117.822 L 223.737 116.083 223.702 117.958 M121.042 165.583 C 121.044 165.950,121.078 166.080,121.118 165.873 C 121.158 165.666,121.156 165.366,121.115 165.206 C 121.073 165.047,121.040 165.217,121.042 165.583 M278.209 184.750 C 278.211 185.117,278.245 185.247,278.285 185.040 C 278.324 184.832,278.323 184.532,278.281 184.373 C 278.239 184.214,278.207 184.383,278.209 184.750 M159.877 312.953 C 160.131 312.991,160.506 312.990,160.711 312.951 C 160.916 312.911,160.708 312.880,160.250 312.881 C 159.792 312.882,159.624 312.915,159.877 312.953 " stroke="none" fill="#916af4" fill-rule="evenodd"></path><path id="path3" d="M192.042 87.448 C 192.202 87.490,192.465 87.490,192.625 87.448 C 192.785 87.406,192.654 87.372,192.333 87.372 C 192.012 87.372,191.881 87.406,192.042 87.448 M207.875 87.448 C 208.035 87.490,208.298 87.490,208.458 87.448 C 208.619 87.406,208.487 87.372,208.167 87.372 C 207.846 87.372,207.715 87.406,207.875 87.448 M176.712 102.000 C 176.712 102.412,176.745 102.581,176.784 102.375 C 176.824 102.169,176.824 101.831,176.784 101.625 C 176.745 101.419,176.712 101.587,176.712 102.000 M223.898 106.167 C 223.898 107.313,223.924 107.781,223.957 107.208 C 223.989 106.635,223.989 105.698,223.957 105.125 C 223.924 104.552,223.898 105.021,223.898 106.167 M176.731 113.167 C 176.731 114.313,176.758 114.781,176.790 114.208 C 176.823 113.635,176.823 112.698,176.790 112.125 C 176.758 111.552,176.731 112.021,176.731 113.167 M223.720 115.167 C 223.720 115.763,223.750 116.006,223.787 115.708 C 223.824 115.410,223.824 114.923,223.787 114.625 C 223.750 114.327,223.720 114.571,223.720 115.167 M165.722 134.125 C 184.406 134.148,214.931 134.148,233.555 134.125 C 252.179 134.102,236.892 134.083,199.583 134.083 C 162.275 134.083,147.037 134.102,165.722 134.125 M279.539 153.500 C 279.539 153.821,279.573 153.952,279.615 153.792 C 279.657 153.631,279.657 153.369,279.615 153.208 C 279.573 153.048,279.539 153.179,279.539 153.500 M279.548 162.750 C 279.549 163.208,279.581 163.376,279.620 163.123 C 279.658 162.869,279.657 162.494,279.617 162.289 C 279.578 162.084,279.546 162.292,279.548 162.750 M200.044 169.953 C 200.297 169.991,200.672 169.990,200.877 169.951 C 201.082 169.911,200.875 169.880,200.417 169.881 C 199.958 169.882,199.791 169.915,200.044 169.953 M121.539 173.833 C 121.539 174.154,121.573 174.285,121.615 174.125 C 121.657 173.965,121.657 173.702,121.615 173.542 C 121.573 173.381,121.539 173.512,121.539 173.833 M278.379 181.000 C 278.379 181.412,278.411 181.581,278.451 181.375 C 278.491 181.169,278.491 180.831,278.451 180.625 C 278.411 180.419,278.379 180.588,278.379 181.000 M122.045 181.167 C 122.045 181.579,122.078 181.748,122.118 181.542 C 122.157 181.335,122.157 180.998,122.118 180.792 C 122.078 180.585,122.045 180.754,122.045 181.167 M122.205 183.833 C 122.205 184.154,122.240 184.285,122.282 184.125 C 122.323 183.965,122.323 183.702,122.282 183.542 C 122.240 183.381,122.205 183.512,122.205 183.833 M197.377 184.620 C 197.631 184.658,198.006 184.657,198.211 184.617 C 198.416 184.578,198.208 184.546,197.750 184.548 C 197.292 184.549,197.124 184.581,197.377 184.620 M202.711 184.620 C 202.964 184.658,203.339 184.657,203.544 184.617 C 203.749 184.578,203.542 184.546,203.083 184.548 C 202.625 184.549,202.457 184.581,202.711 184.620 M196.458 206.284 C 196.665 206.324,197.002 206.324,197.208 206.284 C 197.415 206.245,197.246 206.212,196.833 206.212 C 196.421 206.212,196.252 206.245,196.458 206.284 M199.128 206.287 C 199.428 206.325,199.878 206.324,200.128 206.286 C 200.378 206.248,200.133 206.217,199.583 206.218 C 199.033 206.219,198.828 206.250,199.128 206.287 M309.872 218.833 C 309.872 219.154,309.906 219.285,309.948 219.125 C 309.990 218.965,309.990 218.702,309.948 218.542 C 309.906 218.381,309.872 218.512,309.872 218.833 M199.794 220.451 C 200.001 220.491,200.301 220.490,200.460 220.448 C 200.620 220.406,200.450 220.374,200.083 220.375 C 199.717 220.377,199.586 220.411,199.794 220.451 M204.042 220.448 C 204.202 220.490,204.465 220.490,204.625 220.448 C 204.785 220.406,204.654 220.372,204.333 220.372 C 204.012 220.372,203.881 220.406,204.042 220.448 M272.167 224.719 C 272.167 224.748,272.410 224.991,272.708 225.260 L 273.250 225.750 272.760 225.208 C 272.304 224.703,272.167 224.590,272.167 224.719 M265.795 236.454 C 266.094 236.491,266.544 236.490,266.795 236.452 C 267.045 236.414,266.800 236.384,266.250 236.385 C 265.700 236.386,265.495 236.417,265.795 236.454 M118.625 302.621 C 118.923 302.658,119.410 302.658,119.708 302.621 C 120.006 302.584,119.763 302.553,119.167 302.553 C 118.571 302.553,118.327 302.584,118.625 302.621 M319.960 311.951 C 320.168 311.991,320.468 311.990,320.627 311.948 C 320.786 311.906,320.617 311.874,320.250 311.875 C 319.883 311.877,319.753 311.911,319.960 311.951 " stroke="none" fill="#8457f4" fill-rule="evenodd"></path><path id="path4" d="M198.875 87.124 C 199.585 87.155,200.748 87.155,201.458 87.124 C 202.169 87.093,201.588 87.067,200.167 87.067 C 198.746 87.067,198.165 87.093,198.875 87.124 M223.881 110.083 C 223.882 110.542,223.915 110.709,223.953 110.456 C 223.991 110.203,223.990 109.828,223.951 109.623 C 223.911 109.418,223.880 109.625,223.881 110.083 M176.709 119.250 C 176.711 119.617,176.745 119.747,176.785 119.540 C 176.824 119.332,176.823 119.032,176.781 118.873 C 176.739 118.714,176.707 118.883,176.709 119.250 M120.895 159.000 C 120.895 159.962,120.923 160.356,120.956 159.875 C 120.990 159.394,120.990 158.606,120.956 158.125 C 120.923 157.644,120.895 158.037,120.895 159.000 M121.705 177.000 C 121.705 177.321,121.740 177.452,121.782 177.292 C 121.823 177.131,121.823 176.869,121.782 176.708 C 121.740 176.548,121.705 176.679,121.705 177.000 M278.224 186.583 C 278.224 187.317,278.254 187.596,278.289 187.204 C 278.324 186.812,278.324 186.212,278.288 185.871 C 278.252 185.529,278.223 185.850,278.224 186.583 M132.047 235.956 C 132.485 235.990,133.160 235.990,133.547 235.955 C 133.934 235.920,133.575 235.892,132.750 235.892 C 131.925 235.893,131.609 235.922,132.047 235.956 M199.877 302.620 C 200.131 302.658,200.506 302.657,200.711 302.617 C 200.916 302.578,200.708 302.546,200.250 302.548 C 199.792 302.549,199.624 302.581,199.877 302.620 M158.377 312.953 C 158.631 312.991,159.006 312.990,159.211 312.951 C 159.416 312.911,159.208 312.880,158.750 312.881 C 158.292 312.882,158.124 312.915,158.377 312.953 M161.377 312.953 C 161.631 312.991,162.006 312.990,162.211 312.951 C 162.416 312.911,162.208 312.880,161.750 312.881 C 161.292 312.882,161.124 312.915,161.377 312.953 M239.632 312.957 C 240.208 312.990,241.108 312.989,241.632 312.956 C 242.155 312.923,241.683 312.897,240.583 312.897 C 239.483 312.897,239.055 312.924,239.632 312.957 " stroke="none" fill="#9c7efc" fill-rule="evenodd"></path></g></svg>