<svg id="svg" version="1.1" xmlns="http://www.w3.org/2000/svg" xmlns:xlink="http://www.w3.org/1999/xlink" width="400" height="400" viewBox="0, 0, 400,400"><g id="svgg"><path id="path0" d="M168.667 66.276 C 168.254 66.305,166.567 66.409,164.917 66.507 C 151.829 67.287,143.892 70.521,136.333 78.153 C 129.716 84.835,127.795 91.457,127.550 108.436 L 127.456 114.955 125.436 115.070 C 113.469 115.752,104.766 118.356,95.167 124.127 C 75.062 136.214,66.896 153.487,66.468 184.833 L 66.417 188.583 96.940 188.625 L 127.464 188.668 127.454 183.459 C 127.426 169.923,130.752 164.945,139.833 164.931 C 148.110 164.918,150.085 168.035,150.754 182.167 C 150.854 184.283,151.252 188.140,151.383 188.272 C 151.416 188.305,173.381 188.382,200.195 188.443 L 248.947 188.555 249.064 187.319 C 249.128 186.640,249.250 183.871,249.336 181.167 C 249.762 167.697,251.617 164.980,260.417 164.935 C 269.335 164.888,271.865 168.646,272.749 183.250 C 273.063 188.431,272.994 188.125,273.876 188.234 C 274.265 188.282,285.271 188.362,298.333 188.412 C 311.396 188.461,324.494 188.549,327.440 188.606 C 332.611 188.708,332.800 188.700,332.897 188.394 C 333.238 187.322,333.856 182.619,334.026 179.816 C 335.816 150.220,314.587 122.217,286.417 117.016 C 285.408 116.830,283.121 116.409,281.333 116.080 C 278.054 115.477,273.497 114.422,272.958 114.141 C 272.696 114.003,272.666 113.661,272.664 110.702 C 272.650 89.637,268.922 80.579,257.083 72.840 C 247.961 66.878,238.224 65.671,207.333 66.675 C 201.344 66.870,196.507 66.812,184.917 66.409 C 178.854 66.198,170.770 66.132,168.667 66.276 M195.583 91.006 C 199.433 91.094,209.483 91.241,217.917 91.333 C 233.996 91.509,235.924 91.597,238.500 92.267 C 245.463 94.081,247.730 98.283,247.954 109.792 L 248.045 114.500 200.106 114.500 L 152.167 114.500 152.167 111.335 C 152.167 101.032,154.018 95.929,158.624 93.532 C 163.701 90.891,170.399 90.433,195.583 91.006 M66.283 220.042 C 66.225 224.373,66.091 233.104,65.984 239.443 C 65.593 262.672,66.425 275.802,69.029 287.500 C 75.118 314.847,90.969 329.014,119.759 332.840 C 126.799 333.775,122.550 333.723,197.083 333.792 C 279.369 333.867,277.126 333.918,287.542 331.743 C 312.326 326.568,331.053 304.994,333.326 279.000 C 334.567 264.795,334.261 216.894,332.900 212.458 C 332.816 212.182,331.246 212.167,302.992 212.167 L 273.173 212.167 273.095 212.542 C 273.052 212.748,272.820 214.904,272.579 217.333 C 272.101 222.167,271.658 225.467,271.254 227.209 C 269.294 235.656,264.518 237.536,253.667 234.133 L 252.417 233.741 251.859 232.690 C 249.958 229.111,249.333 226.178,249.333 220.829 C 249.333 217.083,249.093 212.858,248.867 212.636 C 248.730 212.501,151.547 212.064,151.413 212.198 C 151.184 212.428,150.825 216.681,150.672 221.000 C 150.262 232.498,148.255 235.018,139.164 235.443 L 136.911 235.548 135.532 234.950 C 129.312 232.255,127.343 227.334,127.335 214.458 L 127.333 212.167 96.860 212.167 L 66.387 212.167 66.283 220.042 " stroke="none" fill="#34040c" fill-rule="evenodd"></path><path id="path1" d="M187.333 0.346 C 184.537 0.513,181.650 0.728,180.917 0.823 C 180.183 0.918,178.833 1.071,177.917 1.163 C 177.000 1.255,175.987 1.365,175.667 1.409 C 175.346 1.453,174.371 1.570,173.500 1.671 C 172.629 1.771,171.504 1.924,171.000 2.011 C 170.496 2.097,168.883 2.360,167.417 2.593 C 165.950 2.827,164.563 3.055,164.333 3.099 C 164.104 3.143,163.354 3.285,162.667 3.414 C 161.979 3.543,160.892 3.758,160.250 3.891 C 159.608 4.024,158.633 4.221,158.083 4.329 C 157.533 4.437,155.846 4.826,154.333 5.192 C 152.821 5.558,151.433 5.890,151.250 5.929 C 150.837 6.018,149.406 6.386,148.083 6.744 C 147.533 6.893,146.793 7.089,146.438 7.179 C 146.084 7.270,144.659 7.686,143.272 8.105 C 141.885 8.524,140.487 8.937,140.167 9.024 C 139.846 9.111,139.433 9.242,139.250 9.315 C 139.067 9.388,138.542 9.563,138.083 9.705 C 137.015 10.034,131.356 11.977,130.917 12.166 C 130.513 12.339,128.728 13.014,127.583 13.425 C 127.125 13.589,126.675 13.777,126.583 13.842 C 126.492 13.906,126.229 14.014,126.000 14.081 C 125.771 14.149,125.358 14.298,125.083 14.412 C 122.982 15.288,121.404 15.966,120.360 16.442 C 119.687 16.749,119.101 17.000,119.058 17.000 C 119.014 17.000,118.552 17.197,118.031 17.437 C 117.510 17.677,116.783 18.007,116.417 18.169 C 114.118 19.187,105.621 23.483,103.750 24.574 C 103.383 24.787,102.633 25.203,102.083 25.497 C 101.321 25.904,95.697 29.252,93.529 30.589 C 91.890 31.600,88.342 33.947,85.488 35.909 C 82.469 37.985,74.518 44.043,72.333 45.932 C 72.104 46.130,71.242 46.873,70.417 47.583 C 67.615 49.993,66.761 50.748,64.588 52.731 C 62.372 54.753,55.514 61.571,53.414 63.841 C 51.212 66.221,50.415 67.104,49.667 67.995 C 49.254 68.487,48.837 68.970,48.739 69.069 C 48.485 69.329,46.649 71.489,46.162 72.101 C 45.324 73.156,42.929 76.086,42.840 76.167 C 42.790 76.212,42.416 76.700,42.010 77.250 C 41.604 77.800,41.228 78.287,41.173 78.333 C 40.956 78.516,36.949 84.007,35.397 86.250 C 33.909 88.400,31.126 92.618,30.587 93.541 C 30.493 93.701,29.957 94.564,29.396 95.458 C 28.249 97.283,25.500 101.962,25.500 102.088 C 25.500 102.133,25.077 102.900,24.560 103.793 C 22.746 106.925,18.871 114.764,16.918 119.250 C 16.400 120.442,15.871 121.642,15.744 121.917 C 14.658 124.262,11.000 133.976,10.222 136.583 C 10.085 137.042,9.867 137.653,9.737 137.942 C 9.606 138.231,9.500 138.588,9.500 138.736 C 9.500 138.884,9.429 139.135,9.342 139.294 C 9.255 139.453,9.023 140.146,8.826 140.833 C 8.629 141.521,8.287 142.668,8.067 143.383 C 6.349 148.965,4.253 157.910,3.082 164.667 C 2.852 165.996,2.589 167.496,2.499 168.000 C 2.145 169.975,1.824 172.181,1.578 174.327 C 1.437 175.561,1.287 176.724,1.244 176.911 C 1.202 177.097,1.091 178.150,0.998 179.250 C 0.905 180.350,0.800 181.475,0.764 181.750 C -0.153 188.844,-0.163 211.399,0.749 218.167 C 0.792 218.487,0.902 219.612,0.994 220.667 C 1.085 221.721,1.233 223.071,1.322 223.667 C 1.411 224.262,1.529 225.200,1.585 225.750 C 1.712 226.993,2.219 230.318,2.768 233.500 C 2.998 234.829,3.257 236.404,3.344 237.000 C 3.432 237.596,3.546 238.196,3.598 238.333 C 3.650 238.471,3.797 239.146,3.925 239.833 C 4.408 242.437,5.845 248.603,6.730 251.876 C 6.860 252.357,7.088 253.200,7.237 253.750 C 8.070 256.827,9.805 262.300,11.227 266.333 C 12.912 271.117,13.950 273.843,15.002 276.250 C 15.082 276.433,15.743 277.971,16.471 279.667 C 18.202 283.697,18.541 284.430,20.599 288.583 C 23.309 294.055,27.082 300.935,28.916 303.750 C 29.382 304.466,29.788 305.128,30.583 306.470 C 30.675 306.624,31.267 307.538,31.899 308.501 C 32.531 309.463,33.317 310.662,33.646 311.167 C 33.975 311.671,34.302 312.158,34.372 312.250 C 34.816 312.829,36.333 315.034,36.333 315.100 C 36.333 315.145,36.411 315.271,36.505 315.382 C 36.599 315.493,37.499 316.706,38.504 318.078 C 39.509 319.450,40.511 320.800,40.730 321.078 C 40.950 321.356,41.790 322.434,42.596 323.474 C 43.924 325.186,48.053 330.200,48.667 330.845 C 48.804 330.989,49.137 331.365,49.405 331.679 C 50.271 332.691,52.385 335.051,53.499 336.250 C 54.969 337.831,62.135 345.000,63.584 346.338 C 65.633 348.231,66.736 349.226,67.828 350.167 C 68.413 350.671,69.010 351.196,69.155 351.333 C 69.517 351.677,73.140 354.705,74.667 355.940 C 76.017 357.032,81.549 361.257,82.165 361.667 C 82.372 361.804,82.625 361.993,82.729 362.087 C 82.976 362.311,84.660 363.537,85.013 363.750 C 85.165 363.842,85.832 364.292,86.497 364.750 C 88.288 365.986,91.964 368.423,92.917 369.007 C 93.375 369.288,94.537 369.999,95.500 370.586 C 96.462 371.173,97.362 371.731,97.500 371.827 C 98.296 372.379,102.360 374.673,106.500 376.908 C 109.013 378.264,114.873 381.135,117.500 382.297 C 118.737 382.844,120.087 383.447,120.500 383.635 C 120.912 383.824,121.737 384.176,122.333 384.416 C 123.417 384.854,124.289 385.223,124.917 385.507 C 126.594 386.268,135.865 389.622,138.083 390.271 C 138.542 390.405,139.067 390.577,139.250 390.653 C 139.433 390.729,140.146 390.956,140.833 391.158 C 141.521 391.359,142.571 391.671,143.167 391.851 C 144.842 392.357,145.802 392.630,147.250 393.015 C 147.983 393.209,148.771 393.433,149.000 393.511 C 149.229 393.590,150.054 393.802,150.833 393.984 C 151.612 394.165,153.037 394.500,154.000 394.728 C 156.413 395.300,159.564 396.000,160.484 396.168 C 160.905 396.245,161.887 396.427,162.667 396.571 C 165.918 397.175,170.486 397.908,173.167 398.258 C 174.221 398.396,175.308 398.542,175.583 398.583 C 175.858 398.624,176.908 398.737,177.917 398.832 C 178.925 398.928,180.275 399.078,180.917 399.165 C 181.558 399.253,183.058 399.372,184.250 399.430 C 185.442 399.488,186.897 399.590,187.484 399.657 C 190.322 399.983,207.976 400.017,211.917 399.704 C 213.292 399.595,215.167 399.466,216.083 399.416 C 217.000 399.367,218.313 399.254,219.000 399.165 C 219.688 399.076,221.412 398.886,222.833 398.742 C 226.240 398.397,227.761 398.181,234.083 397.144 C 235.183 396.963,236.481 396.751,236.967 396.671 C 237.453 396.592,238.203 396.444,238.634 396.344 C 239.064 396.243,240.317 395.979,241.417 395.756 C 243.465 395.341,247.956 394.301,249.000 394.000 C 249.321 393.907,249.883 393.762,250.250 393.678 C 251.542 393.380,254.106 392.681,256.083 392.088 C 257.183 391.758,258.608 391.335,259.250 391.149 C 259.892 390.962,260.567 390.748,260.750 390.672 C 260.933 390.596,261.608 390.372,262.250 390.174 C 264.746 389.404,273.621 386.175,275.083 385.504 C 276.052 385.060,276.994 384.667,277.089 384.667 C 277.148 384.667,277.682 384.442,278.276 384.167 C 278.870 383.892,279.390 383.667,279.430 383.667 C 279.471 383.667,279.822 383.523,280.210 383.347 C 280.599 383.171,281.442 382.790,282.083 382.500 C 287.107 380.229,294.092 376.711,296.855 375.060 C 297.371 374.752,297.859 374.497,297.938 374.493 C 298.018 374.489,298.683 374.118,299.417 373.669 C 300.150 373.220,301.275 372.556,301.917 372.193 C 302.558 371.831,303.796 371.075,304.667 370.514 C 305.537 369.953,306.362 369.444,306.500 369.384 C 307.653 368.874,321.056 359.548,321.667 358.830 C 321.712 358.776,322.049 358.511,322.414 358.241 C 323.239 357.632,327.219 354.474,327.333 354.339 C 327.379 354.285,328.129 353.644,329.000 352.915 C 329.871 352.185,330.665 351.513,330.764 351.419 C 330.864 351.326,331.425 350.837,332.011 350.333 C 335.244 347.553,343.096 339.919,346.500 336.248 C 348.643 333.936,349.431 333.065,350.333 332.014 C 350.837 331.426,351.327 330.864,351.421 330.764 C 351.805 330.358,355.164 326.330,356.089 325.167 C 356.635 324.479,357.126 323.879,357.180 323.833 C 357.320 323.715,358.892 321.604,361.452 318.099 C 362.663 316.440,363.807 314.884,363.994 314.640 C 364.568 313.891,369.190 306.938,369.349 306.583 C 369.432 306.400,369.886 305.650,370.359 304.917 C 371.335 303.402,374.293 298.430,374.521 297.920 C 374.604 297.735,374.847 297.283,375.061 296.917 C 376.243 294.889,379.959 287.628,381.245 284.833 C 381.688 283.871,382.223 282.708,382.434 282.250 C 382.646 281.792,383.277 280.329,383.837 279.000 C 384.397 277.671,384.921 276.433,385.002 276.250 C 385.742 274.567,387.240 270.708,388.138 268.167 C 389.403 264.590,389.836 263.335,390.182 262.250 C 390.387 261.608,390.612 260.933,390.682 260.750 C 390.752 260.567,390.962 259.892,391.149 259.250 C 391.335 258.608,391.825 256.958,392.237 255.583 C 392.648 254.208,393.107 252.596,393.256 252.000 C 393.405 251.404,393.634 250.504,393.765 250.000 C 393.896 249.496,394.145 248.483,394.318 247.750 C 394.491 247.017,394.904 245.261,395.237 243.848 C 395.569 242.435,395.960 240.635,396.105 239.848 C 396.250 239.061,396.473 237.892,396.600 237.250 C 396.890 235.781,397.373 232.838,398.007 228.667 C 398.567 224.983,398.587 224.823,398.834 222.083 C 398.933 220.983,399.088 219.596,399.179 219.000 C 399.342 217.928,399.533 215.149,399.835 209.500 C 399.920 207.896,399.990 203.621,399.990 200.000 C 399.990 196.379,399.920 192.104,399.835 190.500 C 399.611 186.311,399.333 182.151,399.243 181.667 C 399.201 181.438,399.090 180.350,398.995 179.250 C 398.809 177.074,398.299 172.963,397.920 170.583 C 397.504 167.968,396.852 164.133,396.575 162.667 C 396.428 161.887,396.201 160.671,396.071 159.963 C 395.661 157.734,394.101 151.170,393.188 147.833 C 393.000 147.146,392.798 146.396,392.739 146.167 C 392.643 145.791,392.131 144.046,391.151 140.750 C 390.960 140.108,390.749 139.433,390.681 139.250 C 390.614 139.067,390.238 137.942,389.845 136.750 C 388.775 133.499,386.826 128.099,386.235 126.750 C 386.115 126.475,385.673 125.388,385.253 124.333 C 384.833 123.279,384.421 122.267,384.337 122.083 C 384.180 121.740,383.655 120.529,383.216 119.500 C 382.942 118.857,382.636 118.182,381.325 115.333 C 380.441 113.413,377.123 106.815,376.254 105.250 C 375.999 104.792,375.377 103.667,374.870 102.750 C 371.453 96.562,367.962 91.040,362.755 83.583 C 362.077 82.613,358.052 77.243,357.819 76.998 C 357.690 76.862,357.362 76.450,357.092 76.083 C 356.822 75.717,356.559 75.379,356.508 75.333 C 356.458 75.287,355.966 74.688,355.417 74.000 C 354.867 73.313,354.368 72.712,354.309 72.667 C 354.249 72.621,353.874 72.164,353.475 71.652 C 352.890 70.902,351.593 69.396,350.415 68.101 C 350.323 68.000,349.760 67.360,349.165 66.679 C 345.537 62.530,336.799 53.812,332.852 50.404 C 332.541 50.136,332.204 49.839,332.102 49.744 C 331.902 49.558,328.135 46.316,327.583 45.856 C 326.927 45.309,323.940 42.908,323.351 42.454 C 323.020 42.200,322.629 41.891,322.481 41.767 C 322.333 41.643,321.620 41.101,320.898 40.563 C 320.175 40.024,319.509 39.526,319.417 39.455 C 317.529 38.009,312.751 34.669,309.833 32.759 C 308.596 31.948,307.380 31.146,307.132 30.976 C 306.883 30.806,306.639 30.667,306.588 30.667 C 306.538 30.667,306.122 30.404,305.665 30.082 C 304.788 29.466,298.121 25.533,297.676 25.370 C 297.534 25.317,297.117 25.087,296.750 24.857 C 295.301 23.950,285.573 19.015,282.917 17.840 C 282.458 17.637,281.778 17.328,281.406 17.152 C 281.033 16.977,280.682 16.833,280.626 16.833 C 280.570 16.833,279.975 16.585,279.304 16.282 C 278.633 15.979,277.746 15.593,277.333 15.426 C 275.908 14.847,275.415 14.644,275.083 14.496 C 274.900 14.414,273.850 14.003,272.750 13.582 C 271.650 13.161,270.487 12.711,270.167 12.582 C 269.104 12.154,265.449 10.873,263.250 10.159 C 262.058 9.772,260.847 9.353,260.558 9.228 C 260.269 9.102,259.934 9.000,259.814 9.000 C 259.693 9.000,259.292 8.894,258.922 8.764 C 258.300 8.546,254.633 7.484,252.500 6.905 C 251.996 6.768,251.358 6.588,251.083 6.504 C 250.808 6.421,249.908 6.192,249.083 5.996 C 248.258 5.800,246.833 5.454,245.917 5.228 C 242.810 4.461,237.653 3.420,234.083 2.839 C 232.983 2.660,231.371 2.397,230.500 2.255 C 228.344 1.902,225.001 1.467,222.167 1.170 C 221.296 1.079,219.908 0.926,219.083 0.830 C 211.963 0.004,196.902 -0.225,187.333 0.346 M192.917 66.577 C 199.281 66.804,200.989 66.805,208.167 66.590 C 233.439 65.831,241.123 66.298,249.667 69.113 C 256.952 71.513,264.556 77.603,267.953 83.757 C 271.255 89.741,272.417 96.008,272.802 109.905 L 272.917 114.061 274.333 114.454 C 276.637 115.093,279.169 115.630,283.245 116.344 C 287.560 117.099,290.462 117.770,292.917 118.581 C 317.437 126.680,334.062 150.041,334.077 176.417 C 334.080 181.890,333.991 183.019,333.232 187.169 L 332.948 188.721 315.432 188.610 C 305.799 188.549,292.321 188.450,285.483 188.389 L 273.049 188.279 272.861 185.931 C 272.758 184.640,272.631 182.758,272.579 181.750 C 271.936 169.276,268.844 164.946,260.583 164.947 C 252.086 164.949,249.878 167.863,249.492 179.580 C 249.402 182.328,249.255 185.403,249.165 186.413 C 249.076 187.423,249.002 188.351,249.001 188.474 C 249.000 188.705,164.365 188.597,155.168 188.354 L 151.254 188.250 151.139 187.446 C 151.014 186.570,150.571 180.683,150.410 177.750 C 149.891 168.300,147.138 164.971,139.833 164.959 C 130.809 164.945,127.358 170.286,127.526 184.010 L 127.583 188.667 96.958 188.667 L 66.333 188.667 66.339 185.875 C 66.377 167.434,69.573 152.948,75.911 142.500 C 85.632 126.473,106.627 115.008,126.271 115.000 L 127.292 115.000 127.405 109.375 C 127.803 89.423,130.193 82.594,139.333 75.280 C 149.964 66.774,158.703 65.355,192.917 66.577 M171.333 90.998 C 155.652 91.801,152.187 95.791,152.168 113.069 L 152.167 114.555 182.444 114.444 C 199.097 114.383,220.671 114.333,230.386 114.333 L 248.051 114.333 247.947 110.458 C 247.600 97.541,245.289 93.671,236.917 91.979 C 235.375 91.668,234.290 91.632,222.417 91.497 C 215.358 91.418,206.171 91.274,202.000 91.179 C 191.138 90.932,174.552 90.834,171.333 90.998 M127.500 215.971 C 127.500 227.724,129.673 232.604,136.014 235.089 C 138.870 236.208,145.302 234.875,147.723 232.662 C 149.837 230.731,150.295 228.749,150.669 219.917 C 150.837 215.934,151.075 212.946,151.277 212.268 C 151.368 211.961,151.647 211.955,161.144 212.059 C 166.519 212.118,188.476 212.215,209.938 212.274 L 248.960 212.383 249.059 213.233 C 249.310 215.386,249.533 219.886,249.452 221.167 C 249.208 225.057,249.851 228.220,251.693 232.185 L 252.360 233.620 254.305 234.223 C 264.060 237.245,268.801 235.601,270.809 228.500 C 271.550 225.880,271.768 224.365,272.747 215.000 C 272.895 213.579,273.048 212.323,273.087 212.208 C 273.142 212.041,279.214 212.008,303.026 212.041 L 332.895 212.083 333.010 212.583 C 334.421 218.745,334.596 269.876,333.242 280.561 C 330.982 298.395,321.878 313.583,307.583 323.364 C 298.582 329.523,289.709 332.282,274.833 333.545 C 271.299 333.845,128.723 333.843,125.583 333.543 C 119.551 332.966,117.214 332.649,113.500 331.903 C 87.293 326.636,72.954 311.166,68.017 282.833 C 65.863 270.466,65.472 257.731,66.178 222.958 L 66.401 212.000 96.951 212.000 L 127.500 212.000 127.500 215.971 " stroke="none" fill="#ab9393" fill-rule="evenodd"></path><path id="path2" d="M180.208 66.282 C 180.369 66.323,180.631 66.323,180.792 66.282 C 180.952 66.240,180.821 66.205,180.500 66.205 C 180.179 66.205,180.048 66.240,180.208 66.282 M223.533 66.291 C 224.331 66.321,225.681 66.321,226.533 66.291 C 227.386 66.261,226.733 66.236,225.083 66.236 C 223.433 66.235,222.736 66.260,223.533 66.291 M165.375 66.448 C 165.535 66.490,165.798 66.490,165.958 66.448 C 166.119 66.406,165.987 66.372,165.667 66.372 C 165.346 66.372,165.215 66.406,165.375 66.448 M185.208 66.453 C 185.460 66.491,185.873 66.491,186.125 66.453 C 186.377 66.415,186.171 66.383,185.667 66.383 C 185.162 66.383,184.956 66.415,185.208 66.453 M215.292 66.454 C 215.590 66.491,216.077 66.491,216.375 66.454 C 216.673 66.417,216.429 66.387,215.833 66.387 C 215.237 66.387,214.994 66.417,215.292 66.454 M232.208 66.448 C 232.369 66.490,232.631 66.490,232.792 66.448 C 232.952 66.406,232.821 66.372,232.500 66.372 C 232.179 66.372,232.048 66.406,232.208 66.448 M190.208 66.615 C 190.369 66.657,190.631 66.657,190.792 66.615 C 190.952 66.573,190.821 66.539,190.500 66.539 C 190.179 66.539,190.048 66.573,190.208 66.615 M210.294 66.618 C 210.501 66.658,210.801 66.656,210.960 66.615 C 211.120 66.573,210.950 66.540,210.583 66.542 C 210.217 66.544,210.086 66.578,210.294 66.618 M179.129 90.789 C 179.521 90.824,180.121 90.824,180.463 90.788 C 180.804 90.752,180.483 90.723,179.750 90.724 C 179.017 90.724,178.737 90.754,179.129 90.789 M171.708 90.948 C 171.869 90.990,172.131 90.990,172.292 90.948 C 172.452 90.906,172.321 90.872,172.000 90.872 C 171.679 90.872,171.548 90.906,171.708 90.948 M190.708 90.955 C 191.052 90.991,191.615 90.991,191.958 90.955 C 192.302 90.919,192.021 90.889,191.333 90.889 C 190.646 90.889,190.365 90.919,190.708 90.955 M198.960 91.118 C 199.168 91.158,199.468 91.156,199.627 91.115 C 199.786 91.073,199.617 91.040,199.250 91.042 C 198.883 91.044,198.753 91.078,198.960 91.118 M207.794 91.285 C 208.001 91.324,208.301 91.323,208.460 91.281 C 208.620 91.239,208.450 91.207,208.083 91.209 C 207.717 91.211,207.586 91.245,207.794 91.285 M219.883 91.458 C 220.690 91.488,221.965 91.488,222.717 91.457 C 223.468 91.426,222.808 91.401,221.250 91.402 C 219.692 91.402,219.077 91.427,219.883 91.458 M155.991 95.458 L 155.417 96.083 156.042 95.509 C 156.623 94.974,156.743 94.833,156.616 94.833 C 156.588 94.833,156.307 95.115,155.991 95.458 M127.705 100.667 C 127.705 100.987,127.740 101.119,127.782 100.958 C 127.823 100.798,127.823 100.535,127.782 100.375 C 127.740 100.215,127.705 100.346,127.705 100.667 M152.214 108.250 C 152.216 108.708,152.248 108.876,152.286 108.623 C 152.325 108.369,152.324 107.994,152.284 107.789 C 152.244 107.584,152.213 107.792,152.214 108.250 M237.886 114.458 C 239.794 114.485,242.869 114.485,244.719 114.458 C 246.570 114.431,245.008 114.409,241.250 114.409 C 237.492 114.409,235.978 114.431,237.886 114.458 M83.246 133.208 L 82.083 134.417 83.292 133.254 C 84.414 132.175,84.576 132.000,84.454 132.000 C 84.428 132.000,83.885 132.544,83.246 133.208 M146.833 166.885 C 146.833 166.914,147.077 167.158,147.375 167.427 L 147.917 167.917 147.427 167.375 C 146.971 166.870,146.833 166.757,146.833 166.885 M268.167 167.219 C 268.167 167.248,268.410 167.491,268.708 167.760 L 269.250 168.250 268.760 167.708 C 268.304 167.203,268.167 167.090,268.167 167.219 M334.045 173.333 C 334.045 173.746,334.078 173.915,334.118 173.708 C 334.157 173.502,334.157 173.165,334.118 172.958 C 334.078 172.752,334.045 172.921,334.045 173.333 M249.389 179.333 C 249.389 180.021,249.419 180.302,249.455 179.958 C 249.491 179.615,249.491 179.052,249.455 178.708 C 249.419 178.365,249.389 178.646,249.389 179.333 M150.539 179.500 C 150.539 179.821,150.573 179.952,150.615 179.792 C 150.657 179.631,150.657 179.369,150.615 179.208 C 150.573 179.048,150.539 179.179,150.539 179.500 M334.045 179.667 C 334.045 180.079,334.078 180.248,334.118 180.042 C 334.157 179.835,334.157 179.498,334.118 179.292 C 334.078 179.085,334.045 179.254,334.045 179.667 M127.398 182.583 C 127.398 183.775,127.425 184.241,127.457 183.618 C 127.489 182.996,127.489 182.021,127.457 181.451 C 127.424 180.882,127.398 181.392,127.398 182.583 M272.539 181.000 C 272.539 181.321,272.573 181.452,272.615 181.292 C 272.657 181.131,272.657 180.869,272.615 180.708 C 272.573 180.548,272.539 180.679,272.539 181.000 M66.394 184.750 C 66.395 185.667,66.423 186.020,66.456 185.536 C 66.490 185.052,66.490 184.302,66.456 183.869 C 66.421 183.437,66.394 183.833,66.394 184.750 M272.705 183.667 C 272.705 183.987,272.740 184.119,272.782 183.958 C 272.823 183.798,272.823 183.535,272.782 183.375 C 272.740 183.215,272.705 183.346,272.705 183.667 M273.042 188.000 C 273.079 188.137,273.291 188.264,273.513 188.281 C 273.831 188.305,273.846 188.292,273.583 188.220 C 273.400 188.169,273.188 188.043,273.112 187.939 C 273.021 187.814,272.997 187.835,273.042 188.000 M177.708 188.458 C 178.969 188.486,181.031 188.486,182.292 188.458 C 183.552 188.430,182.521 188.406,180.000 188.406 C 177.479 188.406,176.448 188.430,177.708 188.458 M297.542 188.456 C 298.069 188.490,298.931 188.490,299.458 188.456 C 299.985 188.423,299.554 188.396,298.500 188.396 C 297.446 188.396,297.015 188.423,297.542 188.456 M240.886 188.625 C 242.427 188.652,244.902 188.652,246.386 188.625 C 247.869 188.597,246.608 188.575,243.583 188.575 C 240.558 188.575,239.344 188.597,240.886 188.625 M323.383 188.624 C 324.097 188.655,325.222 188.655,325.883 188.624 C 326.543 188.592,325.958 188.566,324.583 188.567 C 323.208 188.567,322.668 188.593,323.383 188.624 M127.402 215.083 C 127.402 216.733,127.427 217.386,127.458 216.533 C 127.488 215.681,127.488 214.331,127.457 213.533 C 127.427 212.736,127.402 213.433,127.402 215.083 M188.708 212.291 C 190.152 212.319,192.515 212.319,193.958 212.291 C 195.402 212.264,194.221 212.241,191.333 212.241 C 188.446 212.241,187.265 212.264,188.708 212.291 M229.625 212.458 C 232.306 212.484,236.694 212.484,239.375 212.458 C 242.056 212.432,239.862 212.411,234.500 212.411 C 229.137 212.411,226.944 212.432,229.625 212.458 M66.209 222.917 C 66.211 223.283,66.245 223.414,66.285 223.206 C 66.324 222.999,66.323 222.699,66.281 222.540 C 66.239 222.380,66.207 222.550,66.209 222.917 M150.545 223.333 C 150.545 223.746,150.578 223.915,150.618 223.708 C 150.657 223.502,150.657 223.165,150.618 222.958 C 150.578 222.752,150.545 222.921,150.545 223.333 M333.872 225.333 C 333.872 225.654,333.906 225.785,333.948 225.625 C 333.990 225.465,333.990 225.202,333.948 225.042 C 333.906 224.881,333.872 225.012,333.872 225.333 M334.067 233.167 C 334.067 234.588,334.093 235.169,334.124 234.458 C 334.155 233.748,334.155 232.585,334.124 231.875 C 334.093 231.165,334.067 231.746,334.067 233.167 M66.048 231.917 C 66.049 232.375,66.081 232.543,66.120 232.289 C 66.158 232.036,66.157 231.661,66.117 231.456 C 66.078 231.251,66.046 231.458,66.048 231.917 M261.711 235.786 C 261.964 235.825,262.339 235.824,262.544 235.784 C 262.749 235.744,262.542 235.713,262.083 235.714 C 261.625 235.716,261.457 235.748,261.711 235.786 M65.899 241.250 C 65.899 242.533,65.926 243.036,65.957 242.368 C 65.989 241.699,65.989 240.649,65.957 240.034 C 65.925 239.420,65.899 239.967,65.899 241.250 M334.070 253.667 C 334.070 255.454,334.094 256.185,334.124 255.292 C 334.154 254.398,334.154 252.935,334.124 252.042 C 334.094 251.148,334.070 251.879,334.070 253.667 M65.894 257.250 C 65.895 258.167,65.923 258.520,65.956 258.036 C 65.990 257.552,65.990 256.802,65.956 256.369 C 65.921 255.937,65.894 256.333,65.894 257.250 M333.883 264.333 C 333.883 264.837,333.915 265.044,333.953 264.792 C 333.991 264.540,333.991 264.127,333.953 263.875 C 333.915 263.623,333.883 263.829,333.883 264.333 M333.542 275.583 C 333.544 275.950,333.578 276.080,333.618 275.873 C 333.658 275.666,333.656 275.366,333.615 275.206 C 333.573 275.047,333.540 275.217,333.542 275.583 M315.833 316.417 C 315.150 317.104,314.629 317.667,314.675 317.667 C 314.721 317.667,315.317 317.104,316.000 316.417 C 316.683 315.729,317.204 315.167,317.158 315.167 C 317.112 315.167,316.516 315.729,315.833 316.417 M272.542 333.615 C 272.702 333.657,272.965 333.657,273.125 333.615 C 273.285 333.573,273.154 333.539,272.833 333.539 C 272.512 333.539,272.381 333.573,272.542 333.615 " stroke="none" fill="#724c54" fill-rule="evenodd"></path><path id="path3" d="M221.042 66.282 C 221.202 66.323,221.465 66.323,221.625 66.282 C 221.785 66.240,221.654 66.205,221.333 66.205 C 221.012 66.205,220.881 66.240,221.042 66.282 M191.544 66.620 C 191.797 66.658,192.172 66.657,192.377 66.617 C 192.582 66.578,192.375 66.546,191.917 66.548 C 191.458 66.549,191.291 66.581,191.544 66.620 M208.542 66.619 C 208.794 66.658,209.206 66.658,209.458 66.619 C 209.710 66.581,209.504 66.550,209.000 66.550 C 208.496 66.550,208.290 66.581,208.542 66.619 M202.708 66.782 C 202.869 66.823,203.131 66.823,203.292 66.782 C 203.452 66.740,203.321 66.705,203.000 66.705 C 202.679 66.705,202.548 66.740,202.708 66.782 M173.127 90.951 C 173.334 90.991,173.634 90.990,173.794 90.948 C 173.953 90.906,173.783 90.874,173.417 90.875 C 173.050 90.877,172.920 90.911,173.127 90.951 M187.875 90.955 C 188.219 90.991,188.781 90.991,189.125 90.955 C 189.469 90.919,189.188 90.889,188.500 90.889 C 187.813 90.889,187.531 90.919,187.875 90.955 M197.542 91.115 C 197.702 91.157,197.965 91.157,198.125 91.115 C 198.285 91.073,198.154 91.039,197.833 91.039 C 197.512 91.039,197.381 91.073,197.542 91.115 M214.958 91.456 C 215.440 91.490,216.227 91.490,216.708 91.456 C 217.190 91.423,216.796 91.395,215.833 91.395 C 214.871 91.395,214.477 91.423,214.958 91.456 M272.548 104.583 C 272.549 105.042,272.581 105.209,272.620 104.956 C 272.658 104.703,272.657 104.328,272.617 104.123 C 272.578 103.918,272.546 104.125,272.548 104.583 M272.732 110.750 C 272.733 112.033,272.759 112.536,272.791 111.868 C 272.822 111.199,272.822 110.149,272.790 109.534 C 272.758 108.920,272.732 109.467,272.732 110.750 M127.402 112.167 C 127.402 113.771,127.427 114.427,127.457 113.625 C 127.488 112.823,127.488 111.510,127.457 110.708 C 127.427 109.906,127.402 110.563,127.402 112.167 M152.205 109.833 C 152.205 110.154,152.240 110.285,152.282 110.125 C 152.323 109.965,152.323 109.702,152.282 109.542 C 152.240 109.381,152.205 109.513,152.205 109.833 M200.708 114.458 C 205.269 114.483,212.731 114.483,217.292 114.458 C 221.852 114.434,218.121 114.413,209.000 114.413 C 199.879 114.413,196.148 114.434,200.708 114.458 M314.833 131.713 C 314.833 131.738,315.415 132.319,316.125 133.004 L 317.417 134.250 316.171 132.958 C 315.014 131.759,314.833 131.591,314.833 131.713 M66.539 178.500 C 66.539 178.821,66.573 178.952,66.615 178.792 C 66.657 178.631,66.657 178.369,66.615 178.208 C 66.573 178.048,66.539 178.179,66.539 178.500 M249.379 181.500 C 249.379 181.912,249.411 182.081,249.451 181.875 C 249.491 181.669,249.491 181.331,249.451 181.125 C 249.411 180.919,249.379 181.088,249.379 181.500 M161.470 188.458 C 163.791 188.484,167.541 188.484,169.803 188.458 C 172.066 188.432,170.167 188.411,165.583 188.411 C 161.000 188.411,159.149 188.432,161.470 188.458 M290.884 188.458 C 291.874 188.487,293.449 188.487,294.384 188.458 C 295.319 188.428,294.508 188.404,292.583 188.404 C 290.658 188.404,289.894 188.428,290.884 188.458 M215.054 188.625 C 218.338 188.650,223.663 188.650,226.887 188.625 C 230.112 188.600,227.425 188.579,220.917 188.579 C 214.408 188.579,211.770 188.600,215.054 188.625 M312.719 188.625 C 314.076 188.653,316.251 188.653,317.552 188.625 C 318.853 188.596,317.742 188.573,315.083 188.574 C 312.425 188.574,311.361 188.597,312.719 188.625 M81.638 212.125 C 90.102 212.149,103.902 212.149,112.305 212.125 C 120.708 212.101,113.783 212.082,96.917 212.082 C 80.050 212.082,73.175 212.101,81.638 212.125 M154.042 212.125 C 155.577 212.152,158.090 212.152,159.625 212.125 C 161.160 212.097,159.904 212.075,156.833 212.075 C 153.762 212.075,152.506 212.097,154.042 212.125 M273.109 212.125 C 273.039 212.238,293.599 212.237,322.167 212.124 C 328.079 212.100,319.477 212.063,303.052 212.040 C 286.626 212.018,273.152 212.056,273.109 212.125 M200.042 212.291 C 201.027 212.321,202.640 212.321,203.625 212.291 C 204.610 212.262,203.804 212.237,201.833 212.237 C 199.862 212.237,199.056 212.262,200.042 212.291 M246.958 212.455 C 247.348 212.490,247.985 212.490,248.375 212.455 C 248.765 212.420,248.446 212.392,247.667 212.392 C 246.887 212.392,246.569 212.420,246.958 212.455 M249.397 219.917 C 249.397 221.017,249.424 221.445,249.457 220.868 C 249.490 220.292,249.489 219.392,249.456 218.868 C 249.423 218.345,249.397 218.817,249.397 219.917 M66.205 221.500 C 66.205 221.821,66.240 221.952,66.282 221.792 C 66.323 221.631,66.323 221.369,66.282 221.208 C 66.240 221.048,66.205 221.179,66.205 221.500 M150.542 221.750 C 150.544 222.117,150.578 222.247,150.618 222.040 C 150.658 221.832,150.656 221.532,150.615 221.373 C 150.573 221.214,150.540 221.383,150.542 221.750 M249.372 223.667 C 249.372 223.987,249.406 224.119,249.448 223.958 C 249.490 223.798,249.490 223.535,249.448 223.375 C 249.406 223.215,249.372 223.346,249.372 223.667 M333.875 224.083 C 333.877 224.450,333.911 224.580,333.951 224.373 C 333.991 224.166,333.990 223.866,333.948 223.706 C 333.906 223.547,333.874 223.717,333.875 224.083 M334.045 229.667 C 334.045 230.079,334.078 230.248,334.118 230.042 C 334.157 229.835,334.157 229.498,334.118 229.292 C 334.078 229.085,334.045 229.254,334.045 229.667 M66.045 230.333 C 66.045 230.746,66.078 230.915,66.118 230.708 C 66.157 230.502,66.157 230.165,66.118 229.958 C 66.078 229.752,66.045 229.921,66.045 230.333 M65.883 237.500 C 65.883 238.004,65.915 238.210,65.953 237.958 C 65.991 237.706,65.991 237.294,65.953 237.042 C 65.915 236.790,65.883 236.996,65.883 237.500 M334.052 258.250 C 334.053 258.800,334.084 259.005,334.121 258.705 C 334.158 258.406,334.157 257.956,334.119 257.705 C 334.081 257.455,334.051 257.700,334.052 258.250 M65.872 259.667 C 65.872 259.987,65.906 260.119,65.948 259.958 C 65.990 259.798,65.990 259.535,65.948 259.375 C 65.906 259.215,65.872 259.346,65.872 259.667 M333.883 266.333 C 333.883 266.837,333.915 267.044,333.953 266.792 C 333.991 266.540,333.991 266.127,333.953 265.875 C 333.915 265.623,333.883 265.829,333.883 266.333 " stroke="none" fill="#805d65" fill-rule="evenodd"></path><path id="path4" d="M217.708 91.448 C 217.869 91.490,218.131 91.490,218.292 91.448 C 218.452 91.406,218.321 91.372,218.000 91.372 C 217.679 91.372,217.548 91.406,217.708 91.448 M272.667 113.490 C 272.667 113.760,272.726 114.017,272.799 114.062 C 272.871 114.107,272.900 113.886,272.864 113.572 C 272.782 112.871,272.667 112.824,272.667 113.490 M227.708 114.458 C 228.969 114.486,231.031 114.486,232.292 114.458 C 233.552 114.430,232.521 114.406,230.000 114.406 C 227.479 114.406,226.448 114.430,227.708 114.458 M174.208 188.453 C 174.460 188.491,174.873 188.491,175.125 188.453 C 175.377 188.415,175.171 188.383,174.667 188.383 C 174.162 188.383,173.956 188.415,174.208 188.453 M234.050 188.624 C 234.856 188.655,236.131 188.655,236.883 188.624 C 237.635 188.593,236.975 188.568,235.417 188.568 C 233.858 188.568,233.243 188.594,234.050 188.624 M320.375 188.621 C 320.719 188.657,321.281 188.657,321.625 188.621 C 321.969 188.585,321.688 188.556,321.000 188.556 C 320.313 188.556,320.031 188.585,320.375 188.621 M196.961 212.287 C 197.261 212.325,197.711 212.324,197.961 212.286 C 198.212 212.248,197.967 212.217,197.417 212.218 C 196.867 212.219,196.662 212.250,196.961 212.287 M244.621 212.454 C 244.917 212.490,245.442 212.491,245.788 212.455 C 246.134 212.419,245.892 212.389,245.250 212.388 C 244.608 212.387,244.325 212.417,244.621 212.454 " stroke="none" fill="#74515c" fill-rule="evenodd"></path></g></svg>