<svg id="svg" version="1.1" xmlns="http://www.w3.org/2000/svg" xmlns:xlink="http://www.w3.org/1999/xlink" width="400" height="399.90234375" viewBox="0, 0, 400,399.90234375"><g id="svgg"><path id="path0" d="M195.750 63.437 C 193.347 63.626,189.452 64.019,188.500 64.169 C 173.853 66.475,168.999 67.704,160.000 71.386 C 150.547 75.254,137.669 83.206,131.345 89.080 C 130.743 89.639,129.645 90.595,128.905 91.204 C 115.995 101.836,102.897 123.736,98.011 142.860 C 93.046 162.293,93.742 177.477,100.428 195.620 C 102.097 200.149,103.525 203.546,106.086 209.083 C 108.155 213.554,111.609 220.118,113.571 223.304 C 114.794 225.291,116.675 228.342,117.752 230.083 C 118.828 231.825,120.401 234.375,121.246 235.750 C 124.366 240.822,128.565 247.638,129.718 249.500 C 134.838 257.769,145.945 272.986,156.664 286.417 C 164.440 296.160,168.035 300.565,171.089 304.091 C 175.128 308.752,180.894 315.437,184.167 319.250 C 185.496 320.799,187.108 322.635,187.750 323.330 C 188.392 324.026,190.339 326.242,192.077 328.256 C 195.311 332.003,199.627 336.500,199.989 336.500 C 200.436 336.500,205.838 330.857,210.602 325.414 C 211.163 324.774,212.180 323.612,212.862 322.833 C 216.223 318.997,223.287 310.645,232.172 300.000 C 234.506 297.204,237.530 293.604,238.891 292.000 C 241.707 288.683,255.895 269.912,261.083 262.639 C 266.285 255.348,269.902 250.108,275.332 242.000 C 289.384 221.019,300.700 196.595,303.982 180.167 C 307.341 163.348,303.502 140.819,294.069 122.000 C 282.465 98.849,264.755 82.236,240.667 71.908 C 226.524 65.843,208.467 62.438,195.750 63.437 M203.934 122.006 C 233.663 124.387,253.882 152.611,246.437 181.333 C 241.574 200.091,228.567 212.620,209.333 217.073 C 194.496 220.508,177.294 215.222,166.295 203.849 C 154.012 191.147,150.073 178.363,153.016 160.750 C 157.017 136.804,179.082 120.014,203.934 122.006 " stroke="none" fill="#fc9404" fill-rule="evenodd"></path><path id="path1" d="M191.500 0.087 C 191.362 0.121,189.713 0.231,187.833 0.331 C 183.240 0.575,181.663 0.679,181.167 0.772 C 180.938 0.815,179.925 0.919,178.917 1.004 C 177.908 1.088,176.858 1.196,176.583 1.244 C 176.308 1.292,174.921 1.480,173.500 1.662 C 172.079 1.843,170.242 2.103,169.417 2.239 C 165.143 2.943,163.794 3.173,162.500 3.421 C 157.496 4.380,155.557 4.810,150.417 6.105 C 146.486 7.095,145.227 7.458,138.083 9.662 C 136.892 10.029,132.724 11.454,132.250 11.656 C 132.067 11.734,131.542 11.929,131.083 12.089 C 129.906 12.499,127.379 13.483,126.551 13.854 C 126.166 14.026,125.782 14.167,125.697 14.167 C 125.563 14.167,124.793 14.471,123.583 15.001 C 123.400 15.081,122.688 15.387,122.000 15.680 C 121.313 15.973,120.361 16.390,119.886 16.606 C 119.410 16.823,118.985 17.000,118.940 17.000 C 118.896 17.000,118.047 17.381,117.055 17.848 C 116.062 18.314,114.912 18.848,114.500 19.034 C 111.108 20.568,104.307 24.145,100.000 26.661 C 98.946 27.276,97.971 27.830,97.833 27.892 C 97.696 27.954,96.946 28.410,96.167 28.907 C 95.388 29.403,94.225 30.124,93.583 30.508 C 91.521 31.742,85.015 36.156,81.902 38.431 C 78.038 41.257,69.841 47.822,68.500 49.166 C 68.454 49.212,68.079 49.545,67.667 49.905 C 62.366 54.533,55.363 61.505,50.413 67.081 C 49.682 67.905,49.008 68.661,48.917 68.762 C 48.670 69.033,46.053 72.155,44.583 73.931 C 42.253 76.747,36.667 84.180,36.667 84.464 C 36.667 84.560,36.603 84.664,36.524 84.694 C 36.023 84.890,29.591 94.873,26.448 100.333 C 23.228 105.927,19.500 113.252,17.158 118.583 C 13.391 127.158,10.418 135.241,8.085 143.250 C 7.658 144.717,7.164 146.398,6.988 146.986 C 6.811 147.575,6.667 148.227,6.667 148.435 C 6.667 148.643,6.600 148.855,6.519 148.905 C 6.438 148.955,6.320 149.344,6.256 149.770 C 6.192 150.195,6.076 150.702,5.999 150.897 C 5.773 151.462,4.544 156.791,3.900 160.000 C 3.169 163.640,2.270 169.026,1.843 172.333 C 1.647 173.846,1.419 175.496,1.336 176.000 C 1.252 176.504,1.139 177.554,1.083 178.333 C 1.028 179.112,0.915 180.237,0.832 180.833 C 0.749 181.429,0.638 182.629,0.587 183.500 C 0.535 184.371,0.382 186.920,0.246 189.164 C -0.232 197.084,0.096 213.965,0.826 219.000 C 0.912 219.596,1.028 220.721,1.083 221.500 C 1.139 222.279,1.252 223.329,1.336 223.833 C 1.419 224.338,1.647 225.987,1.843 227.500 C 2.282 230.899,3.195 236.349,3.895 239.750 C 4.027 240.392,4.250 241.479,4.391 242.167 C 4.745 243.890,5.791 248.308,5.990 248.917 C 6.080 249.192,6.204 249.737,6.265 250.129 C 6.327 250.520,6.442 250.881,6.522 250.930 C 6.602 250.979,6.667 251.195,6.667 251.409 C 6.667 251.623,6.809 252.275,6.983 252.857 C 7.157 253.440,7.724 255.379,8.242 257.167 C 8.761 258.954,9.246 260.532,9.321 260.672 C 9.396 260.813,9.514 261.185,9.583 261.500 C 9.652 261.815,9.769 262.187,9.843 262.328 C 9.916 262.468,10.321 263.614,10.741 264.874 C 11.618 267.501,12.373 269.603,13.214 271.750 C 13.537 272.575,14.076 273.957,14.413 274.820 C 14.750 275.684,15.164 276.696,15.333 277.070 C 15.502 277.444,15.880 278.313,16.173 279.000 C 16.752 280.357,17.383 281.793,17.749 282.583 C 20.322 288.135,22.775 292.989,25.120 297.167 C 26.500 299.625,31.161 307.435,31.535 307.917 C 31.607 308.008,32.438 309.246,33.383 310.667 C 35.533 313.898,36.415 315.167,37.904 317.167 C 38.553 318.037,39.114 318.822,39.151 318.910 C 39.224 319.084,43.679 324.827,44.586 325.917 C 45.609 327.145,47.364 329.246,47.718 329.667 C 48.456 330.541,51.761 334.284,52.429 335.000 C 56.535 339.403,61.789 344.653,64.760 347.323 C 65.213 347.731,65.958 348.406,66.417 348.824 C 66.875 349.242,67.732 349.997,68.321 350.501 C 68.910 351.004,69.511 351.529,69.657 351.667 C 70.077 352.062,72.812 354.335,73.969 355.251 C 74.548 355.709,75.223 356.255,75.469 356.466 C 76.078 356.986,80.388 360.313,81.142 360.846 C 81.477 361.082,82.612 361.901,83.667 362.666 C 86.032 364.383,92.390 368.656,93.748 369.441 C 94.299 369.759,95.388 370.427,96.167 370.925 C 96.946 371.422,97.696 371.881,97.833 371.944 C 97.971 372.007,98.608 372.370,99.250 372.751 C 100.673 373.595,102.766 374.787,104.000 375.457 C 104.504 375.731,105.363 376.197,105.909 376.494 C 107.231 377.212,113.137 380.171,114.500 380.799 C 115.096 381.073,116.258 381.613,117.083 381.998 C 117.908 382.383,119.812 383.218,121.314 383.855 C 122.816 384.491,124.368 385.159,124.763 385.339 C 125.158 385.519,125.562 385.667,125.660 385.667 C 125.758 385.667,125.968 385.740,126.127 385.829 C 126.286 385.918,127.354 386.340,128.500 386.767 C 129.646 387.193,130.820 387.645,131.109 387.771 C 131.397 387.897,131.739 388.000,131.867 388.000 C 131.995 388.000,132.171 388.068,132.258 388.151 C 132.345 388.234,132.679 388.378,133.000 388.471 C 133.321 388.564,134.896 389.086,136.500 389.631 C 138.104 390.176,139.942 390.778,140.583 390.968 C 141.225 391.159,142.537 391.548,143.500 391.833 C 146.888 392.838,147.423 392.992,148.083 393.152 C 148.450 393.240,149.350 393.466,150.083 393.652 C 152.039 394.151,156.063 395.108,157.500 395.418 C 163.409 396.692,173.021 398.254,177.417 398.656 C 178.517 398.757,179.942 398.912,180.583 399.001 C 181.225 399.090,182.650 399.209,183.750 399.266 C 184.850 399.323,186.237 399.427,186.833 399.496 C 189.256 399.780,208.598 399.870,211.667 399.613 C 212.537 399.540,214.600 399.374,216.250 399.244 C 223.136 398.704,227.039 398.213,234.167 396.987 C 235.313 396.790,236.788 396.544,237.445 396.439 C 238.102 396.335,238.696 396.194,238.764 396.125 C 238.833 396.056,239.098 396.000,239.355 396.000 C 239.837 396.000,243.077 395.294,247.750 394.171 C 248.575 393.972,249.625 393.735,250.083 393.642 C 250.542 393.550,250.988 393.405,251.075 393.321 C 251.162 393.236,251.387 393.166,251.575 393.166 C 251.763 393.165,252.704 392.935,253.667 392.653 C 254.629 392.372,256.204 391.919,257.167 391.646 C 258.129 391.373,259.067 391.090,259.250 391.017 C 259.433 390.944,261.383 390.296,263.583 389.578 C 265.783 388.859,267.655 388.210,267.742 388.135 C 267.829 388.061,268.016 388.000,268.158 387.999 C 268.300 387.998,268.631 387.886,268.894 387.749 C 269.157 387.612,269.436 387.500,269.515 387.500 C 269.645 387.500,274.285 385.705,275.083 385.345 C 275.267 385.263,276.017 384.954,276.750 384.659 C 277.483 384.364,278.472 383.945,278.948 383.728 C 279.423 383.511,279.853 383.333,279.902 383.333 C 279.952 383.333,280.576 383.065,281.288 382.738 C 282.000 382.410,283.108 381.905,283.750 381.615 C 285.987 380.605,294.260 376.436,295.614 375.638 C 296.364 375.195,297.020 374.833,297.070 374.833 C 297.204 374.833,303.856 370.937,305.333 369.994 C 306.021 369.555,307.033 368.912,307.583 368.565 C 309.978 367.055,315.737 363.143,317.000 362.167 C 317.321 361.919,317.976 361.443,318.456 361.109 C 318.935 360.775,319.460 360.394,319.622 360.263 C 319.784 360.131,320.442 359.630,321.083 359.149 C 321.725 358.667,323.011 357.668,323.940 356.928 C 324.870 356.189,325.916 355.358,326.264 355.083 C 326.915 354.570,331.350 350.833,331.500 350.672 C 331.546 350.623,331.883 350.327,332.250 350.015 C 335.267 347.448,342.685 340.213,346.363 336.250 C 346.873 335.700,347.573 334.950,347.918 334.583 C 348.487 333.979,353.487 328.220,354.143 327.414 C 355.177 326.144,355.925 325.238,355.999 325.167 C 356.046 325.121,356.306 324.783,356.575 324.417 C 356.845 324.050,357.109 323.712,357.162 323.667 C 357.361 323.494,360.439 319.486,361.000 318.669 C 361.137 318.468,361.668 317.730,362.180 317.027 C 364.215 314.232,368.654 307.668,369.637 306.000 C 369.934 305.496,370.482 304.596,370.854 304.000 C 371.745 302.573,374.298 298.202,375.039 296.833 C 375.362 296.237,375.874 295.300,376.177 294.750 C 377.124 293.032,380.401 286.507,381.325 284.500 C 381.810 283.446,382.380 282.208,382.591 281.750 C 383.436 279.916,383.832 279.001,384.576 277.167 C 385.004 276.112,385.453 275.025,385.573 274.750 C 385.693 274.475,386.220 273.125,386.743 271.750 C 387.267 270.375,387.758 269.100,387.836 268.917 C 388.036 268.445,389.740 263.480,390.181 262.083 C 390.383 261.442,390.612 260.788,390.689 260.631 C 390.766 260.473,390.900 260.061,390.986 259.714 C 391.072 259.367,391.449 258.071,391.823 256.833 C 393.239 252.155,395.339 243.711,396.112 239.593 C 396.251 238.854,396.473 237.688,396.607 237.000 C 397.418 232.821,398.550 225.154,398.834 221.917 C 398.931 220.817,399.082 219.429,399.171 218.833 C 399.259 218.237,399.375 216.775,399.428 215.583 C 399.482 214.392,399.556 213.318,399.595 213.198 C 400.009 211.897,400.016 188.104,399.602 186.821 C 399.560 186.690,399.482 185.571,399.428 184.333 C 399.374 183.096,399.258 181.558,399.169 180.917 C 399.081 180.275,398.895 178.625,398.755 177.250 C 398.287 172.631,397.335 166.511,396.098 160.167 C 395.513 157.164,394.973 154.857,393.240 147.939 C 392.885 146.522,390.911 139.851,390.669 139.250 C 390.595 139.067,390.222 137.942,389.839 136.750 C 389.147 134.594,388.351 132.278,387.919 131.167 C 387.795 130.846,387.265 129.458,386.742 128.083 C 386.220 126.708,385.698 125.358,385.584 125.083 C 384.839 123.292,384.441 122.351,384.235 121.891 C 384.106 121.603,384.000 121.325,384.000 121.274 C 384.000 121.223,383.767 120.672,383.483 120.049 C 383.198 119.426,382.795 118.542,382.586 118.083 C 378.252 108.559,373.576 99.942,368.252 91.667 C 367.161 89.971,366.227 88.546,366.176 88.500 C 366.125 88.454,365.754 87.929,365.351 87.333 C 364.262 85.721,363.222 84.236,362.180 82.806 C 361.669 82.104,361.137 81.362,361.000 81.158 C 360.863 80.954,360.595 80.591,360.405 80.352 C 360.215 80.112,359.432 79.092,358.665 78.083 C 357.898 77.075,357.227 76.212,357.175 76.167 C 357.123 76.121,356.483 75.333,355.752 74.417 C 354.189 72.456,354.316 72.609,352.241 70.167 C 350.760 68.424,349.409 66.887,347.334 64.583 C 344.925 61.909,334.190 51.396,332.585 50.140 C 332.311 49.926,331.970 49.637,331.827 49.500 C 330.860 48.570,327.492 45.731,325.500 44.167 C 324.629 43.483,323.879 42.879,323.833 42.824 C 323.758 42.733,320.750 40.426,319.571 39.556 C 319.303 39.358,318.746 38.944,318.333 38.637 C 313.325 34.908,306.596 30.508,300.197 26.779 C 298.519 25.801,297.107 25.000,297.062 25.000 C 297.016 25.000,296.364 24.640,295.614 24.199 C 293.132 22.742,284.435 18.473,280.417 16.740 C 280.142 16.622,279.504 16.342,279.000 16.118 C 278.496 15.893,277.483 15.468,276.750 15.171 C 276.017 14.875,275.192 14.537,274.917 14.420 C 274.422 14.209,274.111 14.087,270.286 12.598 C 269.206 12.177,268.228 11.833,268.111 11.833 C 267.995 11.833,267.829 11.773,267.742 11.699 C 267.655 11.625,265.783 10.975,263.583 10.256 C 261.383 9.536,259.433 8.889,259.250 8.819 C 258.776 8.636,253.896 7.245,250.917 6.445 C 249.799 6.144,246.531 5.357,244.250 4.839 C 240.989 4.097,240.551 4.002,239.667 3.842 C 239.162 3.750,238.188 3.569,237.500 3.438 C 236.813 3.307,234.862 2.968,233.167 2.684 C 231.471 2.401,229.671 2.097,229.167 2.011 C 228.662 1.924,227.537 1.771,226.667 1.671 C 225.796 1.570,224.596 1.417,224.000 1.329 C 223.404 1.241,222.054 1.093,221.000 1.000 C 219.946 0.907,218.821 0.794,218.500 0.748 C 215.332 0.292,192.886 -0.257,191.500 0.087 M209.000 63.655 C 219.943 64.894,228.653 67.016,237.906 70.699 C 262.713 80.572,281.479 97.394,293.371 120.417 C 298.518 130.382,301.524 139.242,303.745 151.000 C 304.730 156.212,305.216 161.778,305.230 168.000 C 305.243 173.630,304.935 176.554,303.834 181.250 C 303.145 184.193,302.878 185.225,302.242 187.418 C 298.858 199.079,292.815 212.620,284.133 228.000 C 280.968 233.606,275.982 241.355,269.257 251.121 C 268.612 252.059,267.528 253.634,266.850 254.621 C 261.907 261.818,243.966 286.064,240.719 289.938 C 240.094 290.683,236.583 294.878,232.917 299.260 C 229.250 303.643,225.762 307.802,225.167 308.503 C 224.571 309.205,223.146 310.894,222.000 312.258 C 211.277 325.022,202.236 335.073,200.392 336.281 C 199.666 336.757,198.151 335.312,191.826 328.105 C 189.584 325.550,187.049 322.663,186.192 321.688 C 185.336 320.714,183.091 318.117,181.204 315.917 C 179.318 313.717,177.469 311.576,177.095 311.159 C 176.722 310.742,176.035 309.955,175.568 309.409 C 175.101 308.863,173.263 306.739,171.485 304.687 C 169.706 302.636,166.974 299.374,165.415 297.437 C 156.686 286.599,154.806 284.247,152.147 280.833 C 142.156 268.006,133.436 255.775,128.504 247.667 C 127.472 245.971,126.456 244.321,126.246 244.000 C 126.036 243.679,124.666 241.467,123.202 239.083 C 121.738 236.700,119.659 233.325,118.582 231.583 C 117.505 229.842,115.934 227.292,115.092 225.917 C 114.249 224.542,113.325 223.042,113.039 222.583 C 107.811 214.212,100.776 198.203,97.733 187.750 C 97.600 187.292,97.423 186.692,97.340 186.417 C 97.028 185.378,96.330 182.327,95.854 179.917 C 93.363 167.318,94.916 151.071,100.096 135.541 C 104.378 122.704,111.793 109.811,121.063 99.083 C 123.300 96.495,127.101 92.592,128.583 91.361 C 129.408 90.677,130.683 89.574,131.417 88.912 C 136.696 84.143,145.372 78.401,153.349 74.398 C 164.860 68.622,174.418 65.909,190.583 63.830 C 194.358 63.344,205.337 63.240,209.000 63.655 M197.583 122.023 C 179.959 122.827,163.816 133.492,156.560 149.124 C 152.274 158.359,150.917 173.287,153.504 182.750 C 156.298 192.967,165.246 204.747,174.619 210.545 C 192.575 221.652,213.837 220.193,230.833 206.687 C 244.686 195.679,251.392 173.381,246.052 156.083 C 239.413 134.574,220.092 120.996,197.583 122.023 " stroke="none" fill="#fcdca3" fill-rule="evenodd"></path><path id="path2" d="M124.742 95.042 L 124.083 95.750 124.792 95.091 C 125.450 94.478,125.577 94.333,125.450 94.333 C 125.423 94.333,125.105 94.652,124.742 95.042 M198.542 121.953 C 198.794 121.991,199.206 121.991,199.458 121.953 C 199.710 121.915,199.504 121.883,199.000 121.883 C 198.496 121.883,198.290 121.915,198.542 121.953 M200.711 121.953 C 200.964 121.991,201.339 121.990,201.544 121.951 C 201.749 121.911,201.542 121.880,201.083 121.881 C 200.625 121.882,200.457 121.915,200.711 121.953 M233.667 135.583 C 234.257 136.179,234.778 136.667,234.824 136.667 C 234.870 136.667,234.424 136.179,233.833 135.583 C 233.243 134.987,232.722 134.500,232.676 134.500 C 232.630 134.500,233.076 134.987,233.667 135.583 M94.705 164.500 C 94.705 164.821,94.740 164.952,94.782 164.792 C 94.823 164.631,94.823 164.369,94.782 164.208 C 94.740 164.048,94.705 164.179,94.705 164.500 M305.212 166.000 C 305.212 166.412,305.245 166.581,305.284 166.375 C 305.324 166.169,305.324 165.831,305.284 165.625 C 305.245 165.419,305.212 165.587,305.212 166.000 M247.872 167.667 C 247.872 167.987,247.906 168.119,247.948 167.958 C 247.990 167.798,247.990 167.535,247.948 167.375 C 247.906 167.215,247.872 167.346,247.872 167.667 M247.872 170.667 C 247.872 170.987,247.906 171.119,247.948 170.958 C 247.990 170.798,247.990 170.535,247.948 170.375 C 247.906 170.215,247.872 170.346,247.872 170.667 M165.667 203.219 C 165.667 203.248,165.910 203.491,166.208 203.760 L 166.750 204.250 166.260 203.708 C 165.804 203.203,165.667 203.090,165.667 203.219 M167.667 205.219 C 167.667 205.248,167.910 205.491,168.208 205.760 L 168.750 206.250 168.260 205.708 C 167.804 205.203,167.667 205.090,167.667 205.219 M202.578 334.208 L 201.583 335.250 202.625 334.255 C 203.198 333.708,203.667 333.239,203.667 333.214 C 203.667 333.090,203.502 333.241,202.578 334.208 M197.833 334.719 C 197.833 334.748,198.077 334.991,198.375 335.260 L 198.917 335.750 198.427 335.208 C 197.971 334.703,197.833 334.590,197.833 334.719 " stroke="none" fill="#fcc768" fill-rule="evenodd"></path><path id="path3" d="M305.042 163.250 C 305.044 163.617,305.078 163.747,305.118 163.540 C 305.158 163.332,305.156 163.032,305.115 162.873 C 305.073 162.714,305.040 162.883,305.042 163.250 M94.734 168.000 C 94.734 169.421,94.759 170.002,94.791 169.292 C 94.822 168.581,94.822 167.419,94.791 166.708 C 94.759 165.998,94.734 166.579,94.734 168.000 M305.226 168.750 C 305.225 169.575,305.254 169.934,305.288 169.547 C 305.323 169.160,305.324 168.485,305.289 168.047 C 305.255 167.609,305.226 167.925,305.226 168.750 M152.212 168.167 C 152.212 168.579,152.245 168.748,152.284 168.542 C 152.324 168.335,152.324 167.998,152.284 167.792 C 152.245 167.585,152.212 167.754,152.212 168.167 " stroke="none" fill="#fcbc4a" fill-rule="evenodd"></path><path id="path4" d="" stroke="none" fill="#fcbc54" fill-rule="evenodd"></path></g></svg>