<svg id="svg" version="1.1" xmlns="http://www.w3.org/2000/svg" xmlns:xlink="http://www.w3.org/1999/xlink" width="400" height="400" viewBox="0, 0, 400,400"><g id="svgg"><path id="path0" d="M197.233 65.292 C 195.706 67.091,194.327 69.415,193.005 72.417 C 190.606 77.865,189.482 79.869,188.161 81.057 C 186.999 82.102,186.229 82.319,182.750 82.586 C 172.398 83.381,167.783 85.304,167.761 88.833 C 167.745 91.552,169.806 94.160,178.227 102.077 L 180.871 104.563 180.754 105.906 C 180.642 107.201,180.351 109.251,179.652 113.667 C 178.833 118.842,178.668 120.185,178.669 121.667 C 178.673 126.301,181.509 127.797,186.250 125.667 C 186.433 125.584,187.146 125.284,187.833 124.998 C 188.521 124.713,190.021 123.984,191.167 123.379 C 195.584 121.046,196.086 120.829,199.083 119.946 C 199.450 119.838,200.575 119.752,201.583 119.755 C 204.572 119.764,205.518 120.185,209.888 123.449 C 213.870 126.424,216.571 127.058,220.696 125.986 C 222.179 125.601,222.564 120.414,221.487 115.322 C 219.325 105.092,219.585 104.201,226.809 97.091 C 233.184 90.817,234.242 88.519,231.805 86.239 C 230.006 84.556,227.339 83.752,219.667 82.579 C 212.685 81.511,212.087 81.172,210.258 77.257 C 209.841 76.366,209.500 75.601,209.500 75.559 C 209.500 75.516,209.357 75.167,209.182 74.783 C 209.006 74.398,208.566 73.408,208.202 72.583 C 204.929 65.159,203.755 64.167,198.243 64.167 C 198.212 64.167,197.758 64.673,197.233 65.292 M141.824 96.314 C 140.986 96.589,140.690 96.842,139.898 97.955 C 139.457 98.576,138.980 99.200,138.839 99.343 C 137.898 100.296,133.105 103.250,132.702 103.127 C 132.624 103.103,132.282 103.327,131.942 103.624 L 131.324 104.165 131.669 105.624 C 131.859 106.427,132.123 107.590,132.257 108.208 C 132.842 110.917,133.038 111.811,133.249 112.750 C 133.373 113.300,133.638 114.500,133.838 115.417 C 134.037 116.333,134.343 117.694,134.517 118.439 C 134.691 119.185,134.833 119.910,134.833 120.050 C 134.833 120.442,135.941 120.560,138.917 120.485 C 142.656 120.390,146.707 120.473,148.083 120.673 C 152.256 121.280,152.343 121.216,153.527 116.667 C 154.172 114.187,155.748 108.728,156.004 108.083 C 156.260 107.441,156.506 105.365,156.385 104.866 C 156.258 104.339,149.511 99.332,145.815 97.022 C 144.648 96.292,142.857 95.974,141.824 96.314 M254.695 96.545 C 254.352 96.655,253.489 97.372,252.445 98.415 C 250.788 100.068,249.857 100.776,248.000 101.790 C 245.793 102.996,244.000 104.081,244.000 104.210 C 244.000 104.288,244.678 106.353,245.507 108.800 C 246.335 111.248,247.431 114.487,247.941 116.000 C 249.070 119.348,249.006 119.225,249.906 119.753 C 251.988 120.973,256.212 121.287,260.167 120.516 C 263.447 119.877,264.749 119.359,264.984 118.600 C 265.257 117.715,266.282 114.310,266.668 113.000 C 267.160 111.333,267.338 110.738,268.334 107.438 C 268.801 105.891,269.161 104.525,269.133 104.401 C 269.106 104.278,266.422 102.412,263.170 100.255 L 257.257 96.333 256.254 96.350 C 255.702 96.360,255.000 96.447,254.695 96.545 M295.550 118.817 C 295.073 119.080,293.649 120.035,292.386 120.939 C 287.893 124.155,286.453 124.945,285.908 124.493 C 285.680 124.304,285.022 125.159,284.274 126.617 C 283.093 128.917,286.302 141.362,288.387 142.570 C 291.637 144.454,302.871 143.642,304.348 141.417 C 305.866 139.130,308.227 131.642,308.446 128.421 C 308.551 126.867,308.484 126.770,306.500 125.584 C 304.612 124.456,302.444 122.737,300.091 120.501 C 297.455 117.997,297.206 117.904,295.550 118.817 M102.413 118.808 C 101.853 118.989,101.429 119.372,100.718 120.341 C 99.481 122.026,99.030 122.390,93.542 126.116 L 92.167 127.050 92.181 128.567 C 92.277 138.894,98.332 145.112,106.960 143.742 C 112.459 142.869,114.370 140.594,116.542 132.333 C 117.839 127.402,117.645 126.896,113.549 124.523 C 111.177 123.149,109.095 121.183,108.882 120.116 C 108.676 119.090,104.292 118.204,102.413 118.808 M166.167 143.167 C 149.163 144.789,143.657 149.703,142.169 164.583 C 142.069 165.592,141.910 167.129,141.817 168.000 C 141.343 172.419,141.448 184.084,142.094 199.083 C 142.395 206.061,142.363 219.602,141.972 251.083 C 141.399 297.324,141.985 328.529,143.520 333.449 C 143.717 334.080,144.109 334.235,146.167 334.496 C 146.946 334.595,148.108 334.746,148.750 334.831 C 149.392 334.916,154.642 335.008,160.417 335.034 L 170.917 335.083 172.000 334.685 C 174.034 333.937,174.705 333.315,175.403 331.534 C 177.155 327.065,177.423 319.853,176.587 299.667 C 176.042 286.489,176.123 279.549,176.858 276.362 L 177.052 275.524 178.318 275.423 C 179.014 275.368,180.146 275.252,180.833 275.165 C 181.521 275.079,183.846 274.929,186.000 274.833 C 188.154 274.737,191.165 274.585,192.692 274.496 C 197.694 274.203,208.891 274.292,213.500 274.662 C 219.170 275.116,221.090 275.551,222.467 276.694 C 222.898 277.052,223.403 277.383,223.590 277.431 C 224.416 277.643,224.575 283.474,224.186 299.275 C 223.713 318.486,224.142 330.030,225.425 332.587 C 226.175 334.080,230.905 335.328,237.119 335.671 C 240.010 335.830,247.856 335.648,248.693 335.402 C 248.844 335.357,249.894 335.211,251.026 335.078 C 253.233 334.817,256.820 334.235,256.936 334.120 C 258.639 332.417,259.238 292.297,258.448 232.917 C 258.185 213.132,258.172 208.035,258.343 192.833 C 258.678 163.065,258.282 157.601,255.369 151.863 C 253.332 147.849,248.619 145.033,242.917 144.422 C 242.367 144.363,241.579 144.245,241.167 144.160 C 239.018 143.717,233.620 143.605,213.750 143.588 C 196.258 143.573,192.492 143.527,188.083 143.273 C 180.294 142.824,170.263 142.776,166.167 143.167 M223.493 190.589 C 229.151 191.290,232.142 194.083,229.736 196.419 C 228.036 198.070,226.690 198.267,215.417 198.516 C 187.878 199.124,177.046 198.697,171.776 196.795 C 170.592 196.368,170.583 196.347,170.829 194.612 C 171.226 191.818,172.115 190.830,174.500 190.532 C 176.840 190.240,221.091 190.292,223.493 190.589 M106.000 208.026 C 103.258 208.170,100.497 208.737,98.667 209.532 C 97.076 210.222,96.711 210.403,95.500 211.098 C 91.204 213.565,88.703 217.286,87.781 222.583 C 87.205 225.891,87.167 227.138,87.153 243.019 C 87.146 251.763,87.076 262.967,86.998 267.917 C 86.920 272.867,86.773 282.167,86.671 288.583 C 86.110 324.110,88.284 330.949,101.000 333.640 C 103.909 334.256,104.404 334.329,106.833 334.501 C 108.162 334.595,110.263 334.747,111.500 334.838 C 115.393 335.125,130.063 335.069,131.234 334.762 C 134.245 333.975,134.754 332.532,134.705 324.917 C 134.688 322.350,134.652 296.475,134.625 267.417 C 134.597 238.358,134.513 214.171,134.438 213.667 C 133.967 210.505,132.799 208.668,130.921 208.136 C 130.172 207.924,109.674 207.833,106.000 208.026 M278.500 208.023 C 268.696 208.233,267.557 208.724,266.385 213.250 C 265.905 215.105,265.916 329.214,266.396 330.750 C 266.860 332.233,267.243 332.897,268.019 333.561 C 268.688 334.133,269.182 334.361,270.833 334.858 C 271.981 335.203,295.492 335.096,298.083 334.734 C 306.410 333.570,311.434 328.839,313.112 320.583 C 313.589 318.238,313.586 224.577,313.109 222.250 C 312.208 217.851,310.492 214.920,307.390 212.480 C 303.597 209.496,294.479 207.566,285.583 207.864 C 285.217 207.876,282.029 207.948,278.500 208.023 M215.833 233.377 C 219.647 234.154,222.167 236.376,222.167 238.961 C 222.167 240.235,217.558 241.787,212.583 242.189 C 208.891 242.487,184.532 242.077,182.792 241.687 C 178.382 240.700,176.955 237.005,180.241 235.080 C 182.342 233.848,184.540 233.549,192.500 233.409 C 196.029 233.347,199.854 233.238,201.000 233.168 C 204.605 232.947,214.397 233.085,215.833 233.377 M114.624 249.903 C 118.393 250.907,118.467 251.195,118.488 264.833 C 118.505 275.755,118.315 276.157,113.131 276.164 L 111.346 276.167 111.179 275.542 C 110.341 272.408,110.190 268.382,110.474 256.804 C 110.599 251.716,110.489 252.092,112.310 250.542 C 113.453 249.567,113.409 249.580,114.624 249.903 M287.000 250.277 C 290.659 250.955,290.618 250.824,290.771 262.417 C 290.886 271.213,290.802 272.563,289.977 275.118 L 289.638 276.167 286.741 276.167 C 283.457 276.167,283.768 276.306,283.192 274.571 C 282.250 271.737,282.249 271.723,282.260 262.750 C 282.270 253.682,282.249 253.923,283.283 251.033 L 283.718 249.816 284.651 249.915 C 285.164 249.970,286.221 250.133,287.000 250.277 M198.333 282.849 C 194.713 282.918,191.075 283.053,190.250 283.148 C 188.224 283.382,185.661 283.784,185.561 283.883 C 185.296 284.149,184.911 288.723,184.506 296.417 C 184.281 300.691,184.279 317.380,184.503 321.833 C 184.790 327.538,185.010 330.834,185.218 332.574 C 185.452 334.530,185.188 334.365,188.583 334.664 C 202.860 335.920,213.770 335.092,215.367 332.632 C 216.872 330.314,217.729 304.710,216.662 293.954 C 215.958 286.856,215.686 285.780,214.302 284.595 C 212.757 283.272,210.173 282.635,206.596 282.695 C 205.672 282.710,201.954 282.779,198.333 282.849 " stroke="none" fill="#fc04ec" fill-rule="evenodd"></path><path id="path1" d="M192.000 0.093 C 191.862 0.123,190.137 0.230,188.167 0.329 C 184.206 0.530,182.297 0.657,181.667 0.763 C 181.438 0.801,180.387 0.908,179.333 1.001 C 178.279 1.093,176.854 1.244,176.167 1.336 C 175.479 1.428,173.754 1.659,172.333 1.849 C 169.027 2.292,163.512 3.223,160.167 3.903 C 159.479 4.043,158.354 4.271,157.667 4.410 C 156.979 4.549,155.967 4.773,155.417 4.908 C 153.257 5.437,148.869 6.539,148.000 6.770 C 147.496 6.905,146.801 7.087,146.457 7.175 C 143.567 7.915,133.932 10.981,132.558 11.598 C 132.269 11.727,131.976 11.833,131.906 11.833 C 131.836 11.833,131.209 12.054,130.514 12.324 C 129.819 12.595,128.350 13.160,127.250 13.582 C 126.150 14.003,125.063 14.427,124.833 14.525 C 124.604 14.622,124.192 14.798,123.917 14.915 C 123.642 15.032,122.929 15.330,122.333 15.578 C 121.737 15.826,121.025 16.129,120.750 16.250 C 120.475 16.372,119.200 16.935,117.917 17.502 C 109.611 21.168,98.771 27.094,90.861 32.293 C 89.502 33.186,88.269 33.992,88.120 34.083 C 86.634 35.002,79.742 40.045,76.577 42.531 C 75.117 43.677,70.860 47.138,70.571 47.413 C 70.472 47.507,69.953 47.958,69.417 48.417 C 68.881 48.875,68.276 49.400,68.072 49.583 C 67.868 49.767,67.503 50.087,67.262 50.295 C 65.503 51.811,62.505 54.659,59.149 58.000 C 55.043 62.088,52.935 64.298,49.770 67.833 C 49.233 68.434,45.689 72.636,45.000 73.490 C 41.245 78.143,37.364 83.307,35.412 86.250 C 34.865 87.075,34.377 87.787,34.330 87.833 C 34.234 87.925,30.869 93.047,30.552 93.583 C 30.444 93.767,30.001 94.479,29.569 95.167 C 24.115 103.833,18.055 115.914,14.061 126.083 C 13.377 127.825,12.737 129.438,12.639 129.667 C 12.380 130.270,10.378 136.016,9.881 137.583 C 9.648 138.317,9.398 139.067,9.324 139.250 C 9.251 139.433,8.734 141.158,8.176 143.083 C 7.618 145.008,7.093 146.808,7.010 147.083 C 6.888 147.488,6.167 150.269,5.908 151.333 C 5.874 151.471,5.618 152.521,5.338 153.667 C 4.900 155.454,4.516 157.228,3.660 161.417 C 3.048 164.410,2.029 170.637,1.670 173.583 C 1.569 174.408,1.451 175.346,1.406 175.667 C 1.362 175.987,1.217 177.365,1.083 178.728 C 0.950 180.091,0.804 181.441,0.759 181.728 C 0.153 185.607,-0.220 203.170,0.170 209.496 C 0.593 216.373,0.763 218.512,1.192 222.333 C 1.289 223.204,1.404 224.254,1.446 224.667 C 1.576 225.948,2.479 231.963,2.921 234.500 C 3.153 235.829,3.382 237.179,3.429 237.500 C 3.477 237.821,3.556 238.196,3.605 238.333 C 3.654 238.471,3.802 239.146,3.935 239.833 C 4.068 240.521,4.279 241.608,4.404 242.250 C 4.662 243.570,6.081 249.525,6.411 250.667 C 6.530 251.079,6.745 251.867,6.889 252.417 C 7.431 254.484,9.078 260.115,9.327 260.750 C 9.399 260.933,9.649 261.683,9.883 262.417 C 11.069 266.135,13.805 273.545,14.990 276.250 C 15.070 276.433,15.715 277.933,16.424 279.583 C 18.744 284.986,22.331 292.309,24.522 296.116 C 25.060 297.051,25.500 297.854,25.500 297.900 C 25.500 297.999,29.369 304.519,30.039 305.549 C 30.290 305.935,30.548 306.362,30.614 306.500 C 30.680 306.637,30.795 306.825,30.870 306.917 C 30.945 307.008,31.562 307.946,32.241 309.000 C 32.919 310.054,33.709 311.254,33.995 311.667 C 38.088 317.568,39.342 319.295,42.243 323.023 C 44.460 325.872,45.494 327.163,45.763 327.415 C 45.861 327.508,46.311 328.032,46.763 328.581 C 51.454 334.286,59.696 342.856,65.501 348.068 C 66.921 349.343,68.383 350.656,68.750 350.986 C 69.117 351.315,69.829 351.921,70.333 352.332 C 70.837 352.743,71.287 353.119,71.333 353.168 C 72.919 354.861,84.707 363.669,89.956 367.083 C 93.531 369.409,98.805 372.646,101.083 373.913 C 105.499 376.369,106.951 377.141,110.500 378.919 C 114.331 380.839,115.267 381.290,117.190 382.147 C 121.014 383.851,122.876 384.667,122.941 384.667 C 122.984 384.667,123.333 384.807,123.717 384.980 C 124.542 385.349,126.527 386.122,129.750 387.330 C 131.033 387.811,132.233 388.268,132.417 388.345 C 132.921 388.559,140.075 390.913,141.500 391.334 C 142.188 391.537,143.050 391.798,143.417 391.914 C 144.622 392.295,145.230 392.468,146.917 392.915 C 147.833 393.157,148.958 393.463,149.417 393.595 C 151.326 394.142,158.364 395.751,160.667 396.167 C 161.079 396.241,162.054 396.424,162.833 396.572 C 164.249 396.843,167.922 397.468,170.750 397.922 C 172.772 398.246,177.168 398.785,179.417 398.986 C 180.425 399.075,181.400 399.181,181.583 399.221 C 181.767 399.260,182.854 399.344,184.000 399.407 C 185.146 399.470,186.871 399.583,187.833 399.657 C 192.729 400.034,207.211 400.036,212.167 399.659 C 213.129 399.586,214.779 399.474,215.833 399.411 C 216.887 399.348,217.900 399.267,218.083 399.231 C 218.267 399.196,219.617 399.055,221.083 398.918 C 222.550 398.781,223.900 398.640,224.083 398.604 C 224.267 398.568,224.904 398.486,225.500 398.422 C 226.835 398.278,231.392 397.600,233.417 397.245 C 238.046 396.432,240.473 395.963,243.167 395.357 C 248.680 394.119,253.615 392.828,257.917 391.499 C 258.558 391.301,259.308 391.080,259.583 391.008 C 260.788 390.693,266.312 388.815,269.250 387.723 C 270.782 387.153,275.824 385.196,276.250 385.005 C 276.433 384.923,277.971 384.257,279.667 383.524 C 283.950 381.675,290.344 378.598,293.917 376.668 C 295.652 375.731,296.734 375.135,297.250 374.834 C 297.525 374.673,298.125 374.331,298.583 374.075 C 299.042 373.818,299.792 373.392,300.250 373.129 C 300.708 372.865,301.421 372.457,301.833 372.221 C 304.132 370.907,311.247 366.322,314.167 364.272 C 314.762 363.853,315.387 363.415,315.555 363.297 C 317.944 361.623,322.570 358.141,324.651 356.450 C 325.530 355.735,326.364 355.060,326.504 354.950 C 337.399 346.377,351.257 331.885,360.483 319.417 C 360.958 318.775,361.437 318.133,361.548 317.990 C 361.768 317.707,362.116 317.219,363.055 315.875 C 363.391 315.394,363.945 314.606,364.286 314.125 C 366.505 310.992,370.692 304.501,371.839 302.417 C 372.141 301.867,372.479 301.304,372.590 301.167 C 372.700 301.029,373.000 300.542,373.256 300.083 C 376.585 294.122,376.742 293.829,378.713 289.915 C 384.191 279.040,388.757 267.526,391.832 256.833 C 392.030 256.146,392.260 255.396,392.343 255.167 C 392.693 254.203,395.011 244.960,395.518 242.500 C 397.195 234.377,398.438 226.497,398.990 220.500 C 399.087 219.446,399.199 218.417,399.239 218.213 C 399.280 218.010,399.363 216.810,399.426 215.547 C 399.489 214.283,399.563 213.210,399.590 213.162 C 399.842 212.723,400.043 195.938,399.854 191.167 C 399.787 189.474,399.229 181.635,399.078 180.250 C 399.027 179.792,398.909 178.667,398.816 177.750 C 398.722 176.833,398.614 175.858,398.577 175.583 C 398.540 175.308,398.432 174.446,398.337 173.667 C 398.242 172.887,398.090 171.800,397.999 171.250 C 397.908 170.700,397.682 169.275,397.497 168.083 C 397.120 165.658,396.766 163.653,396.411 161.917 C 396.280 161.275,395.977 159.775,395.738 158.583 C 395.377 156.779,394.408 152.507,394.076 151.250 C 394.027 151.067,393.694 149.792,393.335 148.417 C 392.976 147.042,392.484 145.279,392.242 144.500 C 392.001 143.721,391.691 142.671,391.555 142.167 C 390.654 138.828,386.267 126.484,385.009 123.750 C 384.925 123.567,384.260 122.029,383.532 120.333 C 381.026 114.497,377.071 106.496,374.772 102.611 C 374.348 101.893,374.000 101.278,374.000 101.244 C 374.000 101.125,371.673 97.186,370.510 95.338 C 369.863 94.309,369.333 93.434,369.333 93.393 C 369.333 93.353,369.190 93.117,369.016 92.868 C 368.841 92.620,368.160 91.592,367.502 90.583 C 363.755 84.839,355.959 74.341,353.393 71.583 C 353.222 71.400,352.680 70.762,352.188 70.167 C 350.732 68.403,348.928 66.369,346.500 63.751 C 345.904 63.109,343.617 60.783,341.417 58.583 C 336.896 54.062,335.492 52.733,332.167 49.831 C 331.387 49.151,330.712 48.551,330.667 48.499 C 330.461 48.262,326.358 44.882,324.167 43.143 C 319.742 39.633,316.107 36.984,311.083 33.609 C 306.422 30.477,302.646 28.164,297.268 25.145 C 294.201 23.423,287.243 19.847,284.917 18.796 C 284.183 18.465,282.908 17.883,282.083 17.503 C 281.258 17.123,280.321 16.699,280.000 16.561 C 279.679 16.423,279.267 16.244,279.083 16.163 C 278.900 16.081,278.262 15.817,277.667 15.575 C 277.071 15.333,276.358 15.036,276.083 14.915 C 275.635 14.718,273.806 13.997,270.667 12.778 C 267.864 11.691,261.938 9.663,258.667 8.672 C 257.167 8.218,255.311 7.694,250.667 6.411 C 250.162 6.272,249.487 6.085,249.167 5.997 C 248.052 5.689,243.022 4.541,241.583 4.266 C 241.308 4.213,240.558 4.064,239.917 3.935 C 235.256 2.995,227.817 1.763,225.750 1.588 C 225.108 1.534,224.171 1.416,223.667 1.326 C 223.162 1.236,221.925 1.090,220.917 1.001 C 219.908 0.911,218.821 0.807,218.500 0.768 C 217.755 0.679,215.938 0.557,210.750 0.248 C 207.104 0.031,192.824 -0.087,192.000 0.093 M202.228 64.591 C 204.326 65.155,205.201 66.088,206.928 69.604 C 207.609 70.990,208.167 72.170,208.167 72.224 C 208.167 72.279,208.349 72.720,208.571 73.204 C 208.793 73.688,209.213 74.646,209.504 75.333 C 211.904 81.011,212.355 81.353,218.750 82.343 C 224.462 83.227,225.139 83.354,227.233 83.938 C 232.410 85.383,234.076 87.578,232.416 90.764 C 231.578 92.371,231.039 92.990,226.919 97.083 C 220.236 103.723,219.592 105.326,220.926 112.000 C 221.695 115.851,221.824 116.543,222.020 117.914 C 222.352 120.239,222.001 124.887,221.423 125.823 C 221.224 126.145,219.336 126.406,217.250 126.399 C 214.187 126.389,213.179 125.972,209.250 123.084 C 205.622 120.417,204.245 119.833,201.584 119.833 C 200.140 119.833,197.132 120.420,196.590 120.808 C 196.495 120.876,195.977 121.108,195.440 121.323 C 194.903 121.538,193.778 122.087,192.940 122.544 C 181.754 128.642,177.858 127.974,178.640 120.093 C 178.821 118.261,179.814 111.727,180.326 108.992 C 180.421 108.484,180.547 107.284,180.606 106.326 L 180.712 104.583 178.898 102.818 C 177.900 101.847,176.065 100.109,174.821 98.955 C 163.272 88.249,165.504 83.713,182.917 82.499 C 187.897 82.152,189.049 81.174,191.744 75.000 C 192.254 73.832,193.463 71.214,194.052 70.000 C 194.253 69.587,194.473 69.225,194.542 69.194 C 194.610 69.164,194.667 69.046,194.667 68.933 C 194.667 68.628,196.292 66.217,197.250 65.100 L 198.083 64.128 199.667 64.228 C 200.537 64.283,201.690 64.447,202.228 64.591 M145.261 96.548 C 146.023 96.945,151.104 100.487,153.939 102.597 L 156.500 104.504 156.500 105.549 C 156.500 106.604,156.408 107.030,155.592 109.750 C 154.495 113.409,154.258 114.242,153.566 116.881 C 152.374 121.427,152.741 121.222,146.833 120.666 C 145.466 120.537,143.403 120.508,140.828 120.581 C 135.696 120.726,134.888 120.640,134.744 119.938 C 134.685 119.651,134.495 118.779,134.322 118.000 C 134.149 117.221,133.810 115.683,133.568 114.583 C 133.327 113.483,132.914 111.608,132.652 110.417 C 132.389 109.225,132.057 107.688,131.914 107.000 C 131.771 106.313,131.582 105.520,131.494 105.238 C 131.173 104.213,131.679 103.274,132.653 103.086 C 133.115 102.997,136.218 101.210,137.594 100.239 C 138.507 99.596,138.938 99.117,140.380 97.143 C 141.079 96.185,143.903 95.840,145.261 96.548 M257.241 96.330 C 257.608 96.469,268.822 103.809,269.227 104.174 C 269.349 104.284,269.020 105.641,268.500 107.167 C 268.422 107.396,268.195 108.146,267.996 108.833 C 267.797 109.521,267.447 110.683,267.218 111.417 C 266.989 112.150,266.540 113.650,266.220 114.750 C 265.900 115.850,265.526 117.125,265.389 117.583 C 265.251 118.042,265.099 118.586,265.050 118.793 C 264.691 120.304,255.666 121.625,252.083 120.690 C 250.109 120.175,248.978 119.439,248.695 118.486 C 248.602 118.173,247.614 115.254,246.499 112.000 C 243.813 104.160,243.806 104.138,243.865 104.081 C 243.975 103.976,248.890 101.167,248.964 101.167 C 249.231 101.167,251.478 99.303,252.468 98.261 C 254.264 96.371,255.758 95.766,257.241 96.330 M297.964 118.452 C 298.213 118.608,299.395 119.677,300.591 120.827 C 302.641 122.796,305.763 125.204,307.250 125.961 C 309.117 126.912,309.083 127.891,306.924 135.550 C 306.138 138.339,304.446 141.848,303.702 142.231 C 300.070 144.099,289.597 144.121,287.740 142.264 C 287.130 141.654,285.865 138.098,284.918 134.333 C 284.677 133.371,284.411 132.321,284.329 132.000 C 283.381 128.311,284.295 124.325,286.056 124.466 C 286.458 124.498,286.955 124.373,287.488 124.105 C 288.257 123.719,288.868 123.305,293.417 120.089 C 296.126 118.173,297.015 117.853,297.964 118.452 M105.333 118.668 C 108.269 118.968,108.442 119.043,109.016 120.259 C 109.735 121.779,110.693 122.607,114.667 125.145 C 115.263 125.526,116.087 126.131,116.500 126.490 L 117.250 127.142 117.234 128.613 C 117.185 133.002,113.823 141.267,111.640 142.363 C 107.095 144.644,101.378 144.494,97.833 142.000 C 94.510 139.662,92.399 134.877,92.061 128.917 L 91.957 127.083 94.187 125.583 C 95.413 124.758,96.454 124.046,96.500 124.000 C 96.546 123.954,97.071 123.581,97.667 123.170 C 99.170 122.135,99.598 121.733,100.421 120.583 C 101.909 118.508,102.295 118.357,105.333 118.668 M184.500 142.988 C 187.021 143.085,190.283 143.240,191.750 143.332 C 193.277 143.428,202.752 143.501,213.917 143.502 C 236.659 143.505,239.653 143.620,244.725 144.681 C 252.007 146.205,255.632 149.678,257.146 156.583 C 258.471 162.627,258.581 165.273,258.400 186.833 C 258.219 208.475,258.227 213.643,258.474 231.917 C 258.579 239.708,258.750 252.458,258.854 260.250 C 259.269 291.467,258.706 325.114,257.675 330.750 C 257.591 331.208,257.476 331.958,257.420 332.417 C 257.194 334.272,257.255 334.234,253.583 334.816 C 242.639 336.552,231.562 336.076,226.566 333.656 C 224.724 332.763,224.456 331.390,223.985 320.417 C 223.781 315.679,223.812 311.964,224.177 297.562 C 224.505 284.614,224.249 277.645,223.438 277.433 C 223.243 277.383,222.845 277.115,222.553 276.839 C 220.611 275.003,212.459 274.158,199.085 274.409 C 189.486 274.588,177.472 275.306,177.053 275.725 C 176.364 276.414,176.186 290.668,176.727 301.750 C 177.693 321.520,176.952 331.129,174.276 333.546 C 172.944 334.749,171.089 335.229,167.750 335.235 C 152.797 335.261,147.502 335.039,144.430 334.260 C 143.189 333.945,142.975 332.806,142.345 323.167 C 141.680 312.985,141.565 275.261,142.073 234.083 C 142.369 210.127,142.355 207.139,141.899 196.417 C 140.278 158.294,142.597 149.283,155.083 145.191 C 159.087 143.880,162.630 143.263,167.750 142.987 C 169.492 142.894,170.992 142.784,171.083 142.744 C 171.324 142.640,179.144 142.782,184.500 142.988 M173.692 190.744 C 172.005 191.152,171.375 192.034,170.903 194.643 C 170.579 196.432,170.489 196.281,172.213 196.814 C 174.198 197.428,174.482 197.487,177.083 197.828 C 185.329 198.910,222.057 198.912,226.630 197.830 C 232.706 196.393,231.187 191.872,224.250 190.745 C 222.155 190.405,175.098 190.404,173.692 190.744 M130.083 207.902 C 132.156 208.099,133.374 209.319,134.194 212.021 L 134.566 213.250 134.675 271.333 C 134.788 331.728,134.795 331.049,134.059 332.614 C 132.998 334.870,132.341 335.047,124.750 335.131 C 113.982 335.250,105.851 334.758,100.593 333.669 C 93.456 332.190,89.503 327.986,87.912 320.183 C 86.510 313.301,86.299 305.871,86.744 279.083 C 86.901 269.642,87.050 254.042,87.075 244.417 C 87.123 226.277,87.166 225.034,87.848 221.834 C 89.134 215.805,92.094 212.300,98.083 209.713 C 102.028 208.008,104.089 207.770,114.000 207.874 C 118.079 207.917,122.842 207.904,124.583 207.846 C 127.718 207.741,128.464 207.749,130.083 207.902 M292.500 207.995 C 305.579 209.045,311.852 213.519,313.244 222.791 C 313.613 225.248,313.629 317.549,313.261 319.917 C 312.184 326.842,308.782 331.255,302.573 333.783 C 300.123 334.779,298.125 334.950,286.179 335.182 C 268.657 335.523,267.271 335.185,266.248 330.326 C 265.860 328.478,265.874 215.706,266.263 213.643 C 266.855 210.505,268.232 208.928,270.917 208.313 C 272.497 207.951,288.934 207.709,292.500 207.995 M202.167 233.177 C 200.563 233.255,196.100 233.390,192.250 233.477 C 184.955 233.641,183.780 233.756,181.703 234.512 C 177.563 236.019,177.381 239.292,181.340 241.059 C 182.830 241.724,183.936 241.808,195.126 242.103 C 212.261 242.556,216.810 242.209,220.661 240.156 C 222.112 239.383,222.179 239.274,221.892 238.171 C 220.735 233.728,215.924 232.510,202.167 233.177 M112.458 250.542 C 111.097 251.651,110.862 251.970,110.678 252.952 C 110.417 254.346,110.263 269.033,110.490 270.833 C 110.863 273.787,111.013 274.749,111.204 275.387 L 111.393 276.024 113.738 275.970 C 118.498 275.862,118.610 275.546,118.436 262.802 C 118.277 251.168,118.306 251.277,115.121 250.151 C 113.431 249.553,113.723 249.510,112.458 250.542 M283.095 251.853 L 282.455 253.750 282.301 260.667 C 282.097 269.841,282.231 271.513,283.444 274.962 L 283.870 276.174 286.711 276.129 L 289.552 276.083 289.859 275.178 C 290.997 271.830,291.136 254.245,290.043 252.018 C 289.498 250.907,287.951 250.307,284.992 250.061 L 283.735 249.957 283.095 251.853 M211.750 283.117 C 215.054 284.188,216.010 285.848,216.488 291.347 C 216.588 292.485,216.762 294.354,216.876 295.500 C 217.165 298.404,217.164 319.688,216.874 322.917 C 216.759 324.200,216.587 326.201,216.493 327.363 C 216.318 329.508,215.972 331.546,215.643 332.372 C 215.212 333.457,212.868 334.410,209.333 334.938 C 204.980 335.589,186.278 335.120,185.447 334.338 C 184.210 333.176,183.823 298.798,184.925 288.000 C 185.312 284.200,185.348 284.004,185.677 283.828 C 187.551 282.825,209.041 282.239,211.750 283.117 " stroke="none" fill="#fc7cec" fill-rule="evenodd"></path><path id="path2" d="M199.375 64.282 C 199.535 64.323,199.798 64.323,199.958 64.282 C 200.119 64.240,199.987 64.205,199.667 64.205 C 199.346 64.205,199.215 64.240,199.375 64.282 M228.662 95.292 L 227.583 96.417 228.708 95.338 C 229.753 94.336,229.910 94.167,229.787 94.167 C 229.761 94.167,229.255 94.673,228.662 95.292 M180.705 105.333 C 180.705 105.654,180.740 105.785,180.782 105.625 C 180.823 105.465,180.823 105.202,180.782 105.042 C 180.740 104.881,180.705 105.013,180.705 105.333 M201.128 119.787 C 201.428 119.825,201.878 119.824,202.128 119.786 C 202.378 119.748,202.133 119.717,201.583 119.718 C 201.033 119.719,200.828 119.750,201.128 119.787 M142.628 120.454 C 142.928 120.491,143.378 120.490,143.628 120.452 C 143.878 120.414,143.633 120.384,143.083 120.385 C 142.533 120.386,142.328 120.417,142.628 120.454 M149.708 120.948 C 149.869 120.990,150.131 120.990,150.292 120.948 C 150.452 120.906,150.321 120.872,150.000 120.872 C 149.679 120.872,149.548 120.906,149.708 120.948 M257.375 120.948 C 257.535 120.990,257.798 120.990,257.958 120.948 C 258.119 120.906,257.987 120.872,257.667 120.872 C 257.346 120.872,257.215 120.906,257.375 120.948 M181.795 126.621 C 182.094 126.658,182.544 126.657,182.795 126.619 C 183.045 126.581,182.800 126.551,182.250 126.552 C 181.700 126.553,181.495 126.584,181.795 126.621 M92.056 128.167 C 92.056 128.854,92.085 129.135,92.121 128.792 C 92.157 128.448,92.157 127.885,92.121 127.542 C 92.085 127.198,92.056 127.479,92.056 128.167 M188.625 143.287 C 188.923 143.324,189.410 143.324,189.708 143.287 C 190.006 143.250,189.762 143.220,189.167 143.220 C 188.571 143.220,188.327 143.250,188.625 143.287 M206.461 143.621 C 206.761 143.658,207.211 143.657,207.461 143.619 C 207.712 143.581,207.467 143.551,206.917 143.552 C 206.367 143.553,206.162 143.584,206.461 143.621 M236.375 143.786 C 236.627 143.824,237.040 143.824,237.292 143.786 C 237.544 143.748,237.338 143.717,236.833 143.717 C 236.329 143.717,236.123 143.748,236.375 143.786 M258.383 168.167 C 258.383 168.671,258.415 168.877,258.453 168.625 C 258.491 168.373,258.491 167.960,258.453 167.708 C 258.415 167.456,258.383 167.662,258.383 168.167 M141.548 171.583 C 141.549 172.042,141.581 172.209,141.620 171.956 C 141.658 171.703,141.657 171.328,141.617 171.123 C 141.578 170.918,141.546 171.125,141.548 171.583 M141.555 187.417 C 141.555 188.058,141.586 188.300,141.622 187.955 C 141.658 187.609,141.657 187.084,141.620 186.788 C 141.583 186.492,141.554 186.775,141.555 187.417 M258.400 189.333 C 258.400 190.662,258.425 191.206,258.457 190.542 C 258.489 189.877,258.489 188.790,258.457 188.125 C 258.425 187.460,258.400 188.004,258.400 189.333 M216.294 198.451 C 216.501 198.491,216.801 198.490,216.960 198.448 C 217.120 198.406,216.950 198.374,216.583 198.375 C 216.217 198.377,216.086 198.411,216.294 198.451 M142.048 199.750 C 142.049 200.208,142.081 200.376,142.120 200.123 C 142.158 199.869,142.157 199.494,142.117 199.289 C 142.078 199.084,142.046 199.292,142.048 199.750 M258.209 202.750 C 258.211 203.117,258.245 203.247,258.285 203.040 C 258.324 202.832,258.323 202.532,258.281 202.373 C 258.239 202.214,258.207 202.383,258.209 202.750 M266.039 216.000 C 266.039 216.321,266.073 216.452,266.115 216.292 C 266.157 216.131,266.157 215.869,266.115 215.708 C 266.073 215.548,266.039 215.679,266.039 216.000 M258.400 228.833 C 258.400 230.162,258.425 230.706,258.457 230.042 C 258.489 229.377,258.489 228.290,258.457 227.625 C 258.425 226.960,258.400 227.504,258.400 228.833 M194.788 233.454 C 195.084 233.490,195.609 233.491,195.955 233.455 C 196.300 233.419,196.058 233.389,195.417 233.388 C 194.775 233.387,194.492 233.417,194.788 233.454 M142.067 237.250 C 142.067 238.625,142.093 239.165,142.124 238.451 C 142.155 237.736,142.155 236.611,142.124 235.951 C 142.092 235.290,142.066 235.875,142.067 237.250 M193.621 242.120 C 193.917 242.157,194.442 242.158,194.788 242.122 C 195.134 242.086,194.892 242.055,194.250 242.055 C 193.608 242.054,193.325 242.083,193.621 242.120 M134.582 280.750 C 134.582 297.250,134.601 304.025,134.625 295.805 C 134.649 287.585,134.649 274.085,134.625 265.805 C 134.601 257.525,134.582 264.250,134.582 280.750 M87.052 259.417 C 87.053 259.967,87.084 260.172,87.121 259.872 C 87.158 259.572,87.157 259.122,87.119 258.872 C 87.081 258.622,87.051 258.867,87.052 259.417 M282.230 260.500 C 282.230 261.554,282.257 261.985,282.290 261.458 C 282.323 260.931,282.323 260.069,282.290 259.542 C 282.257 259.015,282.230 259.446,282.230 260.500 M86.895 270.333 C 86.895 271.296,86.923 271.690,86.956 271.208 C 86.990 270.727,86.990 269.940,86.956 269.458 C 86.923 268.977,86.895 269.371,86.895 270.333 M141.714 271.083 C 141.716 271.542,141.748 271.709,141.786 271.456 C 141.825 271.203,141.824 270.828,141.784 270.623 C 141.744 270.418,141.713 270.625,141.714 271.083 M258.907 279.000 C 258.907 281.704,258.930 282.810,258.958 281.458 C 258.986 280.106,258.986 277.894,258.958 276.542 C 258.930 275.190,258.907 276.296,258.907 279.000 M195.955 274.454 C 196.250 274.490,196.775 274.491,197.121 274.455 C 197.467 274.419,197.225 274.389,196.583 274.388 C 195.942 274.387,195.659 274.417,195.955 274.454 M208.208 274.453 C 208.460 274.491,208.873 274.491,209.125 274.453 C 209.377 274.415,209.171 274.383,208.667 274.383 C 208.162 274.383,207.956 274.415,208.208 274.453 M184.794 274.951 C 185.001 274.991,185.301 274.990,185.460 274.948 C 185.620 274.906,185.450 274.874,185.083 274.875 C 184.717 274.877,184.586 274.911,184.794 274.951 M224.403 285.583 C 224.403 287.325,224.428 288.015,224.458 287.116 C 224.488 286.218,224.488 284.793,224.457 283.950 C 224.427 283.107,224.403 283.842,224.403 285.583 M258.906 292.583 C 258.906 294.967,258.929 295.918,258.958 294.698 C 258.986 293.479,258.986 291.529,258.958 290.365 C 258.929 289.202,258.906 290.200,258.906 292.583 M184.712 290.500 C 184.712 290.912,184.745 291.081,184.784 290.875 C 184.824 290.669,184.824 290.331,184.784 290.125 C 184.745 289.919,184.712 290.087,184.712 290.500 M86.552 291.917 C 86.553 292.467,86.584 292.672,86.621 292.372 C 86.658 292.072,86.657 291.622,86.619 291.372 C 86.581 291.122,86.551 291.367,86.552 291.917 M141.709 297.083 C 141.711 297.450,141.745 297.580,141.785 297.373 C 141.824 297.166,141.823 296.866,141.781 296.706 C 141.739 296.547,141.707 296.717,141.709 297.083 M216.879 297.333 C 216.879 297.746,216.911 297.915,216.951 297.708 C 216.991 297.502,216.991 297.165,216.951 296.958 C 216.911 296.752,216.879 296.921,216.879 297.333 M176.548 298.583 C 176.549 299.042,176.581 299.209,176.620 298.956 C 176.658 298.703,176.657 298.328,176.617 298.123 C 176.578 297.918,176.546 298.125,176.548 298.583 M86.539 304.667 C 86.539 304.987,86.573 305.119,86.615 304.958 C 86.657 304.798,86.657 304.535,86.615 304.375 C 86.573 304.215,86.539 304.346,86.539 304.667 M223.904 313.583 C 223.904 315.508,223.928 316.273,223.958 315.283 C 223.987 314.292,223.987 312.717,223.958 311.783 C 223.928 310.848,223.904 311.658,223.904 313.583 M177.039 312.833 C 177.039 313.154,177.073 313.285,177.115 313.125 C 177.157 312.965,177.157 312.702,177.115 312.542 C 177.073 312.381,177.039 312.512,177.039 312.833 M142.053 316.000 C 142.053 316.596,142.084 316.840,142.121 316.542 C 142.158 316.244,142.158 315.756,142.121 315.458 C 142.084 315.160,142.053 315.404,142.053 316.000 M258.379 320.167 C 258.379 320.579,258.411 320.748,258.451 320.542 C 258.491 320.335,258.491 319.998,258.451 319.792 C 258.411 319.585,258.379 319.754,258.379 320.167 M216.881 320.917 C 216.882 321.375,216.915 321.543,216.953 321.289 C 216.991 321.036,216.990 320.661,216.951 320.456 C 216.911 320.251,216.880 320.458,216.881 320.917 M184.709 327.917 C 184.711 328.283,184.745 328.414,184.785 328.206 C 184.824 327.999,184.823 327.699,184.781 327.540 C 184.739 327.380,184.707 327.550,184.709 327.917 M120.715 335.124 C 121.338 335.156,122.313 335.156,122.882 335.123 C 123.451 335.091,122.942 335.064,121.750 335.065 C 120.558 335.065,120.093 335.092,120.715 335.124 M285.877 335.120 C 286.131 335.158,286.506 335.157,286.711 335.117 C 286.916 335.078,286.708 335.046,286.250 335.048 C 285.792 335.049,285.624 335.081,285.877 335.120 M236.792 335.787 C 237.090 335.824,237.577 335.824,237.875 335.787 C 238.173 335.750,237.929 335.720,237.333 335.720 C 236.737 335.720,236.494 335.750,236.792 335.787 M243.042 335.788 C 243.385 335.824,243.948 335.824,244.292 335.788 C 244.635 335.752,244.354 335.723,243.667 335.723 C 242.979 335.723,242.698 335.752,243.042 335.788 " stroke="none" fill="#fc49ec" fill-rule="evenodd"></path><path id="path3" d="M181.625 82.618 C 181.831 82.657,182.169 82.657,182.375 82.618 C 182.581 82.578,182.412 82.545,182.000 82.545 C 181.588 82.545,181.419 82.578,181.625 82.618 M179.333 103.219 C 179.333 103.248,179.577 103.491,179.875 103.760 L 180.417 104.250 179.927 103.708 C 179.471 103.203,179.333 103.090,179.333 103.219 M103.292 118.618 C 103.498 118.657,103.835 118.657,104.042 118.618 C 104.248 118.578,104.079 118.545,103.667 118.545 C 103.254 118.545,103.085 118.578,103.292 118.618 M178.557 121.750 C 178.558 122.483,178.587 122.763,178.622 122.371 C 178.657 121.979,178.657 121.379,178.621 121.037 C 178.585 120.696,178.557 121.017,178.557 121.750 M172.958 142.791 C 173.990 142.820,175.677 142.820,176.708 142.791 C 177.740 142.762,176.896 142.738,174.833 142.738 C 172.771 142.738,171.927 142.762,172.958 142.791 M200.384 143.625 C 201.467 143.654,203.192 143.654,204.218 143.624 C 205.244 143.595,204.358 143.571,202.250 143.571 C 200.142 143.572,199.302 143.595,200.384 143.625 M296.708 143.615 C 296.869 143.657,297.131 143.657,297.292 143.615 C 297.452 143.573,297.321 143.539,297.000 143.539 C 296.679 143.539,296.548 143.573,296.708 143.615 M141.395 178.833 C 141.395 179.796,141.423 180.190,141.456 179.708 C 141.490 179.227,141.490 178.440,141.456 177.958 C 141.423 177.477,141.395 177.871,141.395 178.833 M222.042 198.286 C 222.294 198.324,222.706 198.324,222.958 198.286 C 223.210 198.248,223.004 198.217,222.500 198.217 C 221.996 198.217,221.790 198.248,222.042 198.286 M183.042 198.448 C 183.202 198.490,183.465 198.490,183.625 198.448 C 183.785 198.406,183.654 198.372,183.333 198.372 C 183.012 198.372,182.881 198.406,183.042 198.448 M214.208 198.455 C 214.552 198.491,215.115 198.491,215.458 198.455 C 215.802 198.419,215.521 198.389,214.833 198.389 C 214.146 198.389,213.865 198.419,214.208 198.455 M258.214 204.083 C 258.216 204.542,258.248 204.709,258.286 204.456 C 258.325 204.203,258.324 203.828,258.284 203.623 C 258.244 203.418,258.213 203.625,258.214 204.083 M142.223 204.667 C 142.223 205.354,142.252 205.635,142.288 205.292 C 142.324 204.948,142.324 204.385,142.288 204.042 C 142.252 203.698,142.223 203.979,142.223 204.667 M115.792 207.951 C 115.998 207.991,116.335 207.991,116.542 207.951 C 116.748 207.911,116.579 207.879,116.167 207.879 C 115.754 207.879,115.585 207.911,115.792 207.951 M279.792 207.951 C 279.998 207.991,280.335 207.991,280.542 207.951 C 280.748 207.911,280.579 207.879,280.167 207.879 C 279.754 207.879,279.585 207.911,279.792 207.951 M272.958 208.123 C 273.440 208.157,274.227 208.157,274.708 208.123 C 275.190 208.089,274.796 208.062,273.833 208.062 C 272.871 208.062,272.477 208.089,272.958 208.123 M292.958 208.118 C 293.165 208.157,293.502 208.157,293.708 208.118 C 293.915 208.078,293.746 208.045,293.333 208.045 C 292.921 208.045,292.752 208.078,292.958 208.118 M92.000 213.583 C 91.595 213.996,91.301 214.333,91.347 214.333 C 91.393 214.333,91.762 213.996,92.167 213.583 C 92.572 213.171,92.865 212.833,92.819 212.833 C 92.774 212.833,92.405 213.171,92.000 213.583 M258.205 215.833 C 258.205 216.154,258.240 216.285,258.282 216.125 C 258.323 215.965,258.323 215.702,258.282 215.542 C 258.240 215.381,258.205 215.512,258.205 215.833 M142.236 222.000 C 142.236 223.787,142.261 224.519,142.291 223.625 C 142.321 222.731,142.321 221.269,142.291 220.375 C 142.261 219.481,142.236 220.213,142.236 222.000 M87.074 233.833 C 87.074 236.813,87.097 238.031,87.125 236.542 C 87.152 235.052,87.152 232.615,87.125 231.125 C 87.097 229.635,87.074 230.854,87.074 233.833 M199.292 242.287 C 199.590 242.324,200.077 242.324,200.375 242.287 C 200.673 242.250,200.429 242.220,199.833 242.220 C 199.237 242.220,198.994 242.250,199.292 242.287 M210.542 242.282 C 210.702 242.323,210.965 242.323,211.125 242.282 C 211.285 242.240,211.154 242.205,210.833 242.205 C 210.512 242.205,210.381 242.240,210.542 242.282 M87.073 254.167 C 87.073 256.596,87.096 257.590,87.125 256.375 C 87.153 255.160,87.153 253.173,87.125 251.958 C 87.096 250.744,87.073 251.737,87.073 254.167 M258.705 253.833 C 258.705 254.154,258.740 254.285,258.782 254.125 C 258.823 253.965,258.823 253.702,258.782 253.542 C 258.740 253.381,258.705 253.512,258.705 253.833 M282.205 262.833 C 282.205 263.154,282.240 263.285,282.282 263.125 C 282.323 262.965,282.323 262.702,282.282 262.542 C 282.240 262.381,282.205 262.512,282.205 262.833 M258.906 269.917 C 258.906 272.300,258.929 273.252,258.958 272.032 C 258.986 270.812,258.986 268.862,258.958 267.698 C 258.929 266.535,258.906 267.533,258.906 269.917 M141.712 269.667 C 141.712 270.079,141.745 270.248,141.784 270.042 C 141.824 269.835,141.824 269.498,141.784 269.292 C 141.745 269.085,141.712 269.254,141.712 269.667 M111.708 276.119 C 111.960 276.158,112.373 276.158,112.625 276.119 C 112.877 276.081,112.671 276.050,112.167 276.050 C 111.662 276.050,111.456 276.081,111.708 276.119 M202.792 282.784 C 202.998 282.824,203.335 282.824,203.542 282.784 C 203.748 282.745,203.579 282.712,203.167 282.712 C 202.754 282.712,202.585 282.745,202.792 282.784 M86.548 290.250 C 86.549 290.708,86.581 290.876,86.620 290.623 C 86.658 290.369,86.657 289.994,86.617 289.789 C 86.578 289.584,86.546 289.792,86.548 290.250 M258.903 299.833 C 258.903 301.529,258.927 302.223,258.958 301.375 C 258.988 300.527,258.988 299.140,258.958 298.292 C 258.927 297.444,258.903 298.137,258.903 299.833 M141.705 298.167 C 141.705 298.487,141.740 298.619,141.782 298.458 C 141.823 298.298,141.823 298.035,141.782 297.875 C 141.740 297.715,141.705 297.846,141.705 298.167 M184.243 309.000 C 184.243 312.804,184.265 314.360,184.291 312.458 C 184.318 310.556,184.318 307.444,184.291 305.542 C 184.265 303.640,184.243 305.196,184.243 309.000 M86.539 305.667 C 86.539 305.987,86.573 306.119,86.615 305.958 C 86.657 305.798,86.657 305.535,86.615 305.375 C 86.573 305.215,86.539 305.346,86.539 305.667 M223.888 309.083 C 223.889 309.725,223.919 309.967,223.955 309.621 C 223.991 309.275,223.990 308.750,223.954 308.455 C 223.917 308.159,223.887 308.442,223.888 309.083 M177.056 311.167 C 177.056 311.854,177.085 312.135,177.121 311.792 C 177.157 311.448,177.157 310.885,177.121 310.542 C 177.085 310.198,177.056 310.479,177.056 311.167 M134.718 315.750 C 134.719 316.300,134.750 316.505,134.787 316.205 C 134.825 315.906,134.824 315.456,134.786 315.205 C 134.748 314.955,134.717 315.200,134.718 315.750 M223.883 317.833 C 223.883 318.337,223.915 318.544,223.953 318.292 C 223.991 318.040,223.991 317.627,223.953 317.375 C 223.915 317.123,223.883 317.329,223.883 317.833 M142.217 321.000 C 142.217 321.504,142.248 321.710,142.286 321.458 C 142.324 321.206,142.324 320.794,142.286 320.542 C 142.248 320.290,142.217 320.496,142.217 321.000 M177.048 320.917 C 177.049 321.375,177.081 321.543,177.120 321.289 C 177.158 321.036,177.157 320.661,177.117 320.456 C 177.078 320.251,177.046 320.458,177.048 320.917 M142.705 328.667 C 142.705 328.987,142.740 329.119,142.782 328.958 C 142.823 328.798,142.823 328.535,142.782 328.375 C 142.740 328.215,142.705 328.346,142.705 328.667 M116.875 335.123 C 117.402 335.156,118.265 335.156,118.792 335.123 C 119.319 335.090,118.888 335.063,117.833 335.063 C 116.779 335.063,116.348 335.090,116.875 335.123 M152.875 335.124 C 153.860 335.154,155.473 335.154,156.458 335.124 C 157.444 335.095,156.637 335.071,154.667 335.071 C 152.696 335.071,151.890 335.095,152.875 335.124 M160.463 335.122 C 160.855 335.157,161.455 335.157,161.796 335.121 C 162.137 335.085,161.817 335.057,161.083 335.057 C 160.350 335.058,160.071 335.087,160.463 335.122 M287.797 335.123 C 288.282 335.157,289.032 335.156,289.464 335.122 C 289.896 335.088,289.500 335.060,288.583 335.061 C 287.667 335.061,287.313 335.089,287.797 335.123 M246.794 335.618 C 247.001 335.658,247.301 335.656,247.460 335.615 C 247.620 335.573,247.450 335.540,247.083 335.542 C 246.717 335.544,246.586 335.578,246.794 335.618 " stroke="none" fill="#fc5fec" fill-rule="evenodd"></path><path id="path4" d="M136.627 120.618 C 136.834 120.658,137.134 120.656,137.294 120.615 C 137.453 120.573,137.283 120.540,136.917 120.542 C 136.550 120.544,136.420 120.578,136.627 120.618 M138.792 120.618 C 138.998 120.657,139.335 120.657,139.542 120.618 C 139.748 120.578,139.579 120.545,139.167 120.545 C 138.754 120.545,138.585 120.578,138.792 120.618 M146.627 120.618 C 146.834 120.658,147.134 120.656,147.294 120.615 C 147.453 120.573,147.283 120.540,146.917 120.542 C 146.550 120.544,146.420 120.578,146.627 120.618 M308.539 127.667 C 308.539 127.987,308.573 128.119,308.615 127.958 C 308.657 127.798,308.657 127.535,308.615 127.375 C 308.573 127.215,308.539 127.346,308.539 127.667 M283.883 128.333 C 283.883 128.837,283.915 129.044,283.953 128.792 C 283.991 128.540,283.991 128.127,283.953 127.875 C 283.915 127.623,283.883 127.829,283.883 128.333 M166.460 143.118 C 166.668 143.158,166.968 143.156,167.127 143.115 C 167.286 143.073,167.117 143.040,166.750 143.042 C 166.383 143.044,166.253 143.078,166.460 143.118 M184.461 143.121 C 184.761 143.158,185.211 143.157,185.461 143.119 C 185.712 143.081,185.467 143.051,184.917 143.052 C 184.367 143.053,184.162 143.084,184.461 143.121 M195.542 143.623 C 195.977 143.657,196.690 143.657,197.125 143.623 C 197.560 143.588,197.204 143.560,196.333 143.560 C 195.463 143.560,195.106 143.588,195.542 143.623 M210.531 143.625 C 212.061 143.652,214.611 143.652,216.198 143.625 C 217.785 143.597,216.533 143.575,213.417 143.575 C 210.300 143.575,209.001 143.597,210.531 143.625 M230.965 143.624 C 231.541 143.656,232.441 143.656,232.965 143.623 C 233.488 143.590,233.017 143.563,231.917 143.564 C 230.817 143.564,230.388 143.591,230.965 143.624 M141.872 166.833 C 141.872 167.154,141.906 167.285,141.948 167.125 C 141.990 166.965,141.990 166.702,141.948 166.542 C 141.906 166.381,141.872 166.512,141.872 166.833 M258.372 169.500 C 258.372 169.821,258.406 169.952,258.448 169.792 C 258.490 169.631,258.490 169.369,258.448 169.208 C 258.406 169.048,258.372 169.179,258.372 169.500 M258.387 186.000 C 258.387 186.596,258.417 186.840,258.454 186.542 C 258.491 186.244,258.491 185.756,258.454 185.458 C 258.417 185.160,258.387 185.404,258.387 186.000 M187.208 190.458 C 193.602 190.482,204.065 190.482,210.458 190.458 C 216.852 190.434,211.621 190.414,198.833 190.414 C 186.046 190.414,180.815 190.434,187.208 190.458 M141.887 195.167 C 141.887 195.762,141.917 196.006,141.954 195.708 C 141.991 195.410,141.991 194.923,141.954 194.625 C 141.917 194.327,141.887 194.571,141.887 195.167 M179.960 198.285 C 180.168 198.324,180.468 198.323,180.627 198.281 C 180.786 198.239,180.617 198.207,180.250 198.209 C 179.883 198.211,179.753 198.245,179.960 198.285 M223.877 198.286 C 224.131 198.325,224.506 198.324,224.711 198.284 C 224.916 198.244,224.708 198.213,224.250 198.214 C 223.792 198.216,223.624 198.248,223.877 198.286 M192.803 198.792 C 195.124 198.818,198.874 198.818,201.137 198.792 C 203.399 198.765,201.500 198.744,196.917 198.744 C 192.333 198.744,190.482 198.765,192.803 198.792 M258.205 201.667 C 258.205 201.987,258.240 202.119,258.282 201.958 C 258.323 201.798,258.323 201.535,258.282 201.375 C 258.240 201.215,258.205 201.346,258.205 201.667 M106.708 207.953 C 106.960 207.991,107.373 207.991,107.625 207.953 C 107.877 207.915,107.671 207.883,107.167 207.883 C 106.662 207.883,106.456 207.915,106.708 207.953 M113.042 207.956 C 113.477 207.990,114.190 207.990,114.625 207.956 C 115.060 207.922,114.704 207.893,113.833 207.893 C 112.962 207.893,112.606 207.922,113.042 207.956 M123.542 207.953 C 123.794 207.991,124.206 207.991,124.458 207.953 C 124.710 207.915,124.504 207.883,124.000 207.883 C 123.496 207.883,123.290 207.915,123.542 207.953 M281.965 207.957 C 282.541 207.990,283.441 207.989,283.965 207.956 C 284.488 207.923,284.017 207.897,282.917 207.897 C 281.817 207.897,281.388 207.924,281.965 207.957 M288.375 207.956 C 288.810 207.990,289.523 207.990,289.958 207.956 C 290.394 207.922,290.037 207.893,289.167 207.893 C 288.296 207.893,287.940 207.922,288.375 207.956 M258.385 232.083 C 258.386 232.633,258.417 232.838,258.454 232.539 C 258.491 232.239,258.490 231.789,258.452 231.539 C 258.414 231.288,258.384 231.533,258.385 232.083 M203.375 233.119 C 203.627 233.158,204.040 233.158,204.292 233.119 C 204.544 233.081,204.338 233.050,203.833 233.050 C 203.329 233.050,203.123 233.081,203.375 233.119 M185.794 233.618 C 186.001 233.658,186.301 233.656,186.460 233.615 C 186.620 233.573,186.450 233.540,186.083 233.542 C 185.717 233.544,185.586 233.578,185.794 233.618 M178.372 237.833 C 178.372 238.154,178.406 238.285,178.448 238.125 C 178.490 237.965,178.490 237.702,178.448 237.542 C 178.406 237.381,178.372 237.512,178.372 237.833 M142.048 240.417 C 142.049 240.875,142.081 241.043,142.120 240.789 C 142.158 240.536,142.157 240.161,142.117 239.956 C 142.078 239.751,142.046 239.958,142.048 240.417 M258.572 244.250 C 258.572 246.542,258.596 247.502,258.624 246.385 C 258.653 245.267,258.653 243.392,258.625 242.218 C 258.596 241.044,258.572 241.958,258.572 244.250 M134.574 245.917 C 134.574 248.667,134.597 249.815,134.625 248.469 C 134.653 247.122,134.653 244.872,134.625 243.469 C 134.597 242.065,134.574 243.167,134.574 245.917 M185.375 241.957 C 186.085 241.988,187.248 241.988,187.958 241.957 C 188.669 241.926,188.088 241.900,186.667 241.900 C 185.246 241.900,184.665 241.926,185.375 241.957 M192.375 242.115 C 192.535 242.157,192.798 242.157,192.958 242.115 C 193.119 242.073,192.987 242.039,192.667 242.039 C 192.346 242.039,192.215 242.073,192.375 242.115 M141.906 254.583 C 141.906 256.967,141.929 257.918,141.958 256.698 C 141.986 255.479,141.986 253.529,141.958 252.365 C 141.929 251.202,141.906 252.200,141.906 254.583 M282.218 257.750 C 282.219 258.300,282.250 258.505,282.287 258.205 C 282.325 257.906,282.324 257.456,282.286 257.205 C 282.248 256.955,282.217 257.200,282.218 257.750 M118.375 258.250 C 118.377 258.617,118.411 258.747,118.451 258.540 C 118.491 258.332,118.490 258.032,118.448 257.873 C 118.406 257.714,118.374 257.883,118.375 258.250 M290.730 261.750 C 290.731 262.850,290.758 263.278,290.790 262.702 C 290.823 262.125,290.823 261.225,290.790 260.702 C 290.757 260.178,290.730 260.650,290.730 261.750 M87.042 260.917 C 87.044 261.283,87.078 261.414,87.118 261.206 C 87.158 260.999,87.156 260.699,87.115 260.540 C 87.073 260.380,87.040 260.550,87.042 260.917 M290.712 270.667 C 290.712 271.079,290.745 271.248,290.784 271.042 C 290.824 270.835,290.824 270.498,290.784 270.292 C 290.745 270.085,290.712 270.254,290.712 270.667 M141.705 272.333 C 141.705 272.654,141.740 272.785,141.782 272.625 C 141.823 272.465,141.823 272.202,141.782 272.042 C 141.740 271.881,141.705 272.012,141.705 272.333 M86.895 273.667 C 86.895 274.629,86.923 275.023,86.956 274.542 C 86.990 274.060,86.990 273.273,86.956 272.792 C 86.923 272.310,86.895 272.704,86.895 273.667 M194.627 274.451 C 194.834 274.491,195.134 274.490,195.294 274.448 C 195.453 274.406,195.283 274.374,194.917 274.375 C 194.550 274.377,194.420 274.411,194.627 274.451 M181.792 275.118 C 181.998 275.157,182.335 275.157,182.542 275.118 C 182.748 275.078,182.579 275.045,182.167 275.045 C 181.754 275.045,181.585 275.078,181.792 275.118 M113.625 276.121 C 113.923 276.158,114.410 276.158,114.708 276.121 C 115.006 276.084,114.763 276.053,114.167 276.053 C 113.571 276.053,113.327 276.084,113.625 276.121 M176.239 286.833 C 176.239 289.171,176.263 290.127,176.291 288.958 C 176.320 287.790,176.320 285.877,176.291 284.708 C 176.263 283.540,176.239 284.496,176.239 286.833 M192.788 282.954 C 193.084 282.990,193.609 282.991,193.955 282.955 C 194.300 282.919,194.058 282.889,193.417 282.888 C 192.775 282.887,192.492 282.917,192.788 282.954 M258.899 286.083 C 258.899 287.367,258.926 287.870,258.957 287.201 C 258.989 286.532,258.989 285.482,258.957 284.868 C 258.925 284.253,258.899 284.800,258.899 286.083 M185.039 287.000 C 185.039 287.321,185.073 287.452,185.115 287.292 C 185.157 287.131,185.157 286.869,185.115 286.708 C 185.073 286.548,185.039 286.679,185.039 287.000 M224.375 289.250 C 224.377 289.617,224.411 289.747,224.451 289.540 C 224.491 289.332,224.490 289.032,224.448 288.873 C 224.406 288.714,224.374 288.883,224.375 289.250 M86.542 293.417 C 86.544 293.783,86.578 293.914,86.618 293.706 C 86.658 293.499,86.656 293.199,86.615 293.040 C 86.573 292.880,86.540 293.050,86.542 293.417 M184.556 294.167 C 184.556 294.854,184.585 295.135,184.621 294.792 C 184.657 294.448,184.657 293.885,184.621 293.542 C 184.585 293.198,184.556 293.479,184.556 294.167 M217.062 303.167 C 217.062 304.129,217.089 304.523,217.123 304.042 C 217.157 303.560,217.157 302.773,217.123 302.292 C 217.089 301.810,217.062 302.204,217.062 303.167 M176.723 303.500 C 176.723 304.188,176.752 304.469,176.788 304.125 C 176.824 303.781,176.824 303.219,176.788 302.875 C 176.752 302.531,176.723 302.813,176.723 303.500 M141.900 307.750 C 141.900 309.125,141.926 309.665,141.957 308.951 C 141.989 308.236,141.988 307.111,141.957 306.451 C 141.925 305.790,141.900 306.375,141.900 307.750 M258.562 314.417 C 258.563 315.425,258.590 315.816,258.623 315.286 C 258.657 314.755,258.656 313.930,258.623 313.452 C 258.589 312.974,258.562 313.408,258.562 314.417 M217.062 314.917 C 217.063 315.925,217.090 316.316,217.123 315.786 C 217.157 315.255,217.156 314.430,217.123 313.952 C 217.089 313.474,217.062 313.908,217.062 314.917 M177.045 314.000 C 177.045 314.412,177.078 314.581,177.118 314.375 C 177.157 314.169,177.157 313.831,177.118 313.625 C 177.078 313.419,177.045 313.587,177.045 314.000 M134.728 318.667 C 134.728 319.629,134.756 320.023,134.790 319.542 C 134.823 319.060,134.823 318.273,134.790 317.792 C 134.756 317.310,134.728 317.704,134.728 318.667 M177.039 318.833 C 177.039 319.154,177.073 319.285,177.115 319.125 C 177.157 318.965,177.157 318.702,177.115 318.542 C 177.073 318.381,177.039 318.512,177.039 318.833 M184.556 324.167 C 184.556 324.854,184.585 325.135,184.621 324.792 C 184.657 324.448,184.657 323.885,184.621 323.542 C 184.585 323.198,184.556 323.479,184.556 324.167 M176.705 325.167 C 176.705 325.487,176.740 325.619,176.782 325.458 C 176.823 325.298,176.823 325.035,176.782 324.875 C 176.740 324.715,176.705 324.846,176.705 325.167 M258.039 325.500 C 258.039 325.821,258.073 325.952,258.115 325.792 C 258.157 325.631,258.157 325.369,258.115 325.208 C 258.073 325.048,258.039 325.179,258.039 325.500 M134.705 328.833 C 134.705 329.154,134.740 329.285,134.782 329.125 C 134.823 328.965,134.823 328.702,134.782 328.542 C 134.740 328.381,134.705 328.512,134.705 328.833 M109.295 334.787 C 109.594 334.825,110.044 334.824,110.295 334.786 C 110.545 334.748,110.300 334.717,109.750 334.718 C 109.200 334.719,108.995 334.750,109.295 334.787 M147.542 334.782 C 147.702 334.823,147.965 334.823,148.125 334.782 C 148.285 334.740,148.154 334.705,147.833 334.705 C 147.512 334.705,147.381 334.740,147.542 334.782 M189.127 334.785 C 189.334 334.824,189.634 334.823,189.794 334.781 C 189.953 334.739,189.783 334.707,189.417 334.709 C 189.050 334.711,188.920 334.745,189.127 334.785 M124.547 335.123 C 124.985 335.157,125.660 335.157,126.047 335.122 C 126.434 335.087,126.075 335.059,125.250 335.059 C 124.425 335.060,124.109 335.088,124.547 335.123 M127.627 335.118 C 127.834 335.158,128.134 335.156,128.294 335.115 C 128.453 335.073,128.283 335.040,127.917 335.042 C 127.550 335.044,127.420 335.078,127.627 335.118 M166.631 335.290 C 167.115 335.324,167.865 335.323,168.297 335.289 C 168.730 335.255,168.333 335.227,167.417 335.228 C 166.500 335.228,166.146 335.256,166.631 335.290 M196.875 335.290 C 197.402 335.323,198.265 335.323,198.792 335.290 C 199.319 335.257,198.887 335.230,197.833 335.230 C 196.779 335.230,196.348 335.257,196.875 335.290 M203.297 335.290 C 203.782 335.324,204.532 335.323,204.964 335.289 C 205.396 335.255,205.000 335.227,204.083 335.228 C 203.167 335.228,202.813 335.256,203.297 335.290 M249.708 335.282 C 249.869 335.323,250.131 335.323,250.292 335.282 C 250.452 335.240,250.321 335.205,250.000 335.205 C 249.679 335.205,249.548 335.240,249.708 335.282 M275.458 335.291 C 276.581 335.320,278.419 335.320,279.542 335.291 C 280.665 335.262,279.746 335.239,277.500 335.239 C 275.254 335.239,274.335 335.262,275.458 335.291 " stroke="none" fill="#fc2dec" fill-rule="evenodd"></path></g></svg>