<svg id="svg" version="1.1" xmlns="http://www.w3.org/2000/svg" xmlns:xlink="http://www.w3.org/1999/xlink" width="400" height="400.0976800976801" viewBox="0, 0, 400,400.0976800976801"><g id="svgg"><path id="path0" d="M188.833 0.250 C 186.954 0.370,184.592 0.517,183.583 0.576 C 182.575 0.636,181.629 0.720,181.481 0.763 C 181.332 0.806,180.057 0.950,178.647 1.083 C 173.948 1.526,169.103 2.232,163.167 3.340 C 162.204 3.519,160.929 3.742,160.333 3.835 C 159.737 3.928,159.137 4.046,159.000 4.097 C 158.862 4.148,158.075 4.332,157.250 4.505 C 156.425 4.679,154.362 5.163,152.667 5.581 C 150.971 5.999,149.471 6.365,149.333 6.395 C 149.196 6.425,148.971 6.491,148.833 6.541 C 148.696 6.591,147.796 6.831,146.833 7.074 C 145.871 7.318,144.896 7.582,144.667 7.662 C 143.999 7.895,141.369 8.679,141.046 8.741 C 140.285 8.888,129.915 12.479,128.333 13.143 C 128.104 13.240,127.392 13.517,126.750 13.760 C 126.108 14.002,125.278 14.343,124.906 14.517 C 124.533 14.691,124.138 14.833,124.028 14.833 C 123.919 14.833,123.699 14.905,123.539 14.993 C 123.165 15.199,120.997 16.167,120.910 16.167 C 120.873 16.167,120.447 16.346,119.963 16.565 C 119.479 16.784,118.708 17.128,118.250 17.329 C 109.971 20.968,98.972 26.944,91.583 31.817 C 90.667 32.422,89.823 32.941,89.708 32.971 C 89.594 33.000,89.500 33.085,89.500 33.159 C 89.500 33.232,89.275 33.386,89.000 33.500 C 88.725 33.614,88.500 33.773,88.500 33.854 C 88.500 33.934,88.430 34.000,88.344 34.000 C 88.211 34.000,84.906 36.243,84.667 36.496 C 84.621 36.545,84.246 36.809,83.833 37.083 C 83.421 37.357,82.633 37.920,82.083 38.335 C 81.533 38.750,80.925 39.200,80.733 39.336 C 80.540 39.472,79.796 40.033,79.081 40.583 C 78.365 41.133,77.285 41.951,76.681 42.401 C 76.077 42.850,75.546 43.265,75.500 43.323 C 75.454 43.381,75.042 43.725,74.584 44.089 C 74.126 44.453,72.963 45.412,72.000 46.221 C 71.038 47.029,70.100 47.812,69.917 47.959 C 69.335 48.427,67.318 50.215,66.243 51.214 C 65.673 51.744,64.944 52.403,64.623 52.677 C 62.005 54.913,54.798 62.219,50.913 66.575 C 50.182 67.395,49.471 68.184,49.333 68.329 C 49.196 68.474,48.770 68.966,48.387 69.421 C 48.004 69.877,47.081 70.962,46.336 71.833 C 45.141 73.230,44.187 74.416,42.638 76.434 C 41.981 77.289,41.289 78.159,40.958 78.544 C 40.798 78.731,40.665 78.929,40.664 78.984 C 40.663 79.039,40.456 79.324,40.206 79.617 C 39.955 79.911,39.268 80.811,38.678 81.617 C 38.089 82.424,37.395 83.360,37.137 83.699 C 36.878 84.037,36.667 84.393,36.667 84.490 C 36.667 84.587,36.604 84.667,36.527 84.667 C 36.450 84.667,36.300 84.835,36.194 85.042 C 36.087 85.248,35.744 85.754,35.432 86.167 C 35.119 86.579,34.504 87.479,34.065 88.167 C 33.627 88.854,33.224 89.454,33.171 89.500 C 33.073 89.584,31.156 92.549,30.208 94.083 C 27.676 98.181,24.475 103.770,22.667 107.250 C 21.905 108.717,21.219 110.029,21.143 110.167 C 20.931 110.548,18.000 116.692,18.000 116.755 C 18.000 116.808,17.574 117.755,16.482 120.125 C 16.197 120.744,15.868 121.513,15.751 121.833 C 15.635 122.154,15.355 122.829,15.130 123.333 C 14.904 123.837,14.585 124.625,14.421 125.083 C 14.256 125.542,13.993 126.217,13.835 126.583 C 13.678 126.950,13.270 128.000,12.929 128.917 C 12.589 129.833,12.207 130.846,12.080 131.167 C 11.683 132.175,10.400 135.847,9.839 137.583 C 7.468 144.916,4.989 154.312,3.838 160.333 C 3.759 160.746,3.649 161.308,3.592 161.583 C 3.442 162.317,3.153 163.866,3.095 164.250 C 3.067 164.433,2.886 165.521,2.693 166.667 C 2.121 170.067,1.862 171.793,1.581 174.083 C 1.435 175.275,1.282 176.475,1.241 176.750 C 1.200 177.025,1.088 178.075,0.991 179.083 C 0.894 180.092,0.787 181.142,0.753 181.417 C 0.110 186.546,-0.166 205.079,0.294 212.167 C 0.622 217.213,0.697 218.224,0.770 218.583 C 0.807 218.767,0.907 219.742,0.994 220.750 C 1.136 222.424,1.699 227.086,1.929 228.500 C 1.981 228.821,2.126 229.758,2.251 230.583 C 2.605 232.913,2.985 235.176,3.162 236.000 C 3.250 236.412,3.363 237.050,3.412 237.417 C 3.461 237.783,3.574 238.421,3.663 238.833 C 3.752 239.246,3.948 240.183,4.099 240.917 C 4.392 242.338,4.975 244.887,5.515 247.104 C 5.696 247.849,5.877 248.599,5.916 248.771 C 5.955 248.943,6.107 249.533,6.252 250.083 C 6.398 250.633,6.621 251.496,6.747 252.000 C 7.045 253.190,7.520 254.878,8.085 256.750 C 8.334 257.575,8.573 258.400,8.616 258.583 C 8.659 258.767,8.752 259.067,8.822 259.250 C 8.892 259.433,9.527 261.346,10.231 263.500 C 10.936 265.654,11.585 267.547,11.673 267.706 C 11.761 267.865,11.833 268.069,11.833 268.159 C 11.833 268.329,13.961 273.844,14.537 275.167 C 14.716 275.579,14.922 276.067,14.995 276.250 C 15.294 277.011,16.419 279.657,16.860 280.637 C 17.120 281.216,17.333 281.720,17.333 281.757 C 17.333 282.026,22.187 291.918,23.495 294.314 C 27.875 302.341,31.721 308.542,36.683 315.583 C 37.136 316.225,37.636 316.938,37.794 317.167 C 38.376 318.006,42.929 323.955,43.980 325.250 C 45.063 326.584,46.436 328.247,46.750 328.604 C 46.842 328.709,47.179 329.121,47.500 329.521 C 48.010 330.157,48.856 331.125,49.667 332.002 C 49.804 332.150,50.442 332.866,51.083 333.592 C 53.359 336.168,53.965 336.800,58.582 341.417 C 63.838 346.673,65.803 348.492,70.908 352.833 C 71.178 353.062,71.703 353.518,72.074 353.846 C 72.446 354.173,73.313 354.884,74.000 355.426 C 75.528 356.630,75.744 356.803,76.399 357.346 C 76.684 357.583,77.367 358.107,77.917 358.512 C 78.467 358.917,78.954 359.286,79.000 359.333 C 79.046 359.380,79.383 359.640,79.750 359.912 C 80.117 360.183,80.504 360.482,80.611 360.577 C 80.872 360.810,84.446 363.374,84.802 363.583 C 84.957 363.675,85.722 364.200,86.501 364.751 C 87.886 365.730,90.336 367.367,92.167 368.535 C 92.671 368.857,93.742 369.543,94.547 370.060 C 95.353 370.577,96.073 371.000,96.147 371.000 C 96.222 371.000,96.594 371.225,96.974 371.500 C 97.353 371.775,97.696 372.000,97.736 372.000 C 97.776 372.000,98.420 372.375,99.167 372.833 C 99.913 373.292,100.551 373.667,100.583 373.667 C 100.615 373.667,101.416 374.106,102.363 374.642 C 103.309 375.178,104.608 375.904,105.250 376.255 C 106.675 377.035,114.534 380.953,115.917 381.574 C 116.467 381.821,117.116 382.130,117.359 382.261 C 117.602 382.393,117.921 382.500,118.067 382.500 C 118.214 382.500,118.333 382.575,118.333 382.667 C 118.333 382.758,118.412 382.833,118.509 382.833 C 118.606 382.833,119.000 382.975,119.384 383.148 C 119.769 383.321,121.096 383.888,122.333 384.407 C 123.571 384.926,124.733 385.419,124.917 385.503 C 125.218 385.642,127.067 386.353,130.000 387.460 C 131.752 388.121,135.625 389.474,137.333 390.021 C 138.204 390.300,139.067 390.588,139.250 390.663 C 139.864 390.912,145.228 392.480,147.228 392.995 C 148.315 393.275,149.259 393.537,149.325 393.578 C 149.391 393.619,149.701 393.697,150.014 393.751 C 150.327 393.806,150.958 393.956,151.417 394.086 C 151.875 394.215,153.112 394.520,154.167 394.764 C 155.221 395.009,156.533 395.313,157.083 395.441 C 158.075 395.671,160.505 396.158,162.750 396.575 C 163.392 396.694,165.342 397.026,167.083 397.312 C 168.825 397.597,170.475 397.872,170.750 397.921 C 171.458 398.048,174.964 398.515,175.695 398.579 C 176.031 398.609,176.594 398.679,176.945 398.736 C 177.296 398.793,178.408 398.912,179.417 398.999 C 180.425 399.087,181.512 399.197,181.833 399.243 C 182.154 399.289,183.692 399.409,185.250 399.509 C 186.808 399.609,188.683 399.740,189.417 399.801 C 191.182 399.947,208.688 399.944,210.500 399.798 C 211.279 399.735,213.229 399.605,214.833 399.509 C 216.438 399.412,218.237 399.262,218.833 399.175 C 219.429 399.087,220.854 398.934,222.000 398.833 C 223.146 398.733,224.533 398.581,225.083 398.497 C 225.633 398.412,227.208 398.185,228.583 397.992 C 231.384 397.598,235.535 396.900,239.833 396.099 C 241.389 395.809,242.142 395.639,246.583 394.574 C 248.233 394.178,249.865 393.804,250.210 393.742 C 250.555 393.680,250.878 393.562,250.928 393.481 C 250.979 393.400,251.162 393.333,251.336 393.333 C 251.663 393.333,253.824 392.756,256.000 392.087 C 256.688 391.875,257.962 391.502,258.833 391.257 C 259.704 391.012,260.567 390.747,260.750 390.668 C 260.933 390.589,261.608 390.363,262.250 390.165 C 264.765 389.389,273.380 386.255,275.083 385.496 C 275.267 385.415,277.067 384.638,279.083 383.771 C 285.103 381.183,295.157 376.285,296.417 375.328 C 296.508 375.259,297.258 374.844,298.083 374.406 C 298.908 373.969,299.883 373.411,300.250 373.167 C 300.617 372.924,301.367 372.472,301.917 372.165 C 305.690 370.053,317.208 362.406,319.417 360.547 C 319.508 360.470,319.882 360.184,320.247 359.912 C 320.612 359.639,321.485 358.967,322.185 358.417 C 322.886 357.867,323.661 357.271,323.907 357.094 C 324.153 356.916,324.518 356.627,324.719 356.452 C 325.079 356.137,325.415 355.863,327.399 354.263 C 327.959 353.812,328.544 353.324,328.700 353.180 C 328.856 353.035,329.081 352.840,329.200 352.747 C 329.591 352.439,331.915 350.448,332.000 350.348 C 332.046 350.294,332.642 349.762,333.325 349.166 C 335.603 347.179,337.218 345.633,341.504 341.342 C 346.327 336.513,348.708 333.955,351.953 330.118 C 352.666 329.274,353.332 328.508,353.432 328.417 C 353.680 328.190,356.747 324.382,357.631 323.202 C 358.024 322.679,358.474 322.099,358.631 321.914 C 359.043 321.430,362.165 317.232,362.842 316.252 C 363.158 315.795,363.492 315.336,363.583 315.231 C 363.675 315.126,363.842 314.900,363.955 314.729 C 364.067 314.557,364.646 313.722,365.242 312.872 C 365.837 312.023,366.412 311.165,366.518 310.966 C 366.625 310.767,366.781 310.525,366.865 310.427 C 367.615 309.561,373.010 300.686,375.078 296.917 C 375.431 296.275,376.009 295.225,376.363 294.583 C 377.267 292.947,381.669 284.042,382.419 282.333 C 384.017 278.690,384.675 277.141,385.286 275.583 C 385.609 274.758,386.006 273.783,386.167 273.417 C 386.328 273.050,386.848 271.700,387.324 270.417 C 387.800 269.133,388.243 267.971,388.310 267.833 C 388.376 267.696,389.020 265.783,389.740 263.583 C 390.460 261.383,391.109 259.433,391.182 259.250 C 391.461 258.543,393.333 251.840,393.333 251.545 C 393.333 251.373,393.403 251.162,393.487 251.075 C 393.572 250.988,393.717 250.542,393.809 250.083 C 393.901 249.625,394.141 248.575,394.341 247.750 C 395.501 242.973,396.081 240.298,396.581 237.417 C 396.709 236.683,397.000 235.033,397.229 233.750 C 397.630 231.506,398.385 226.482,398.583 224.750 C 398.636 224.292,398.714 223.654,398.757 223.333 C 398.801 223.012,398.912 221.925,399.005 220.917 C 399.098 219.908,399.208 218.783,399.251 218.417 C 399.294 218.050,399.410 216.625,399.510 215.250 C 399.609 213.875,399.740 212.262,399.800 211.667 C 399.946 210.231,399.948 190.457,399.803 188.750 C 399.741 188.017,399.606 186.104,399.503 184.500 C 399.400 182.896,399.279 181.396,399.234 181.167 C 399.188 180.938,399.082 179.963,398.997 179.000 C 398.912 178.037,398.797 176.912,398.742 176.500 C 398.688 176.088,398.612 175.525,398.575 175.250 C 398.538 174.975,398.394 173.887,398.256 172.833 C 397.997 170.863,397.776 169.452,397.159 165.833 C 396.964 164.688,396.740 163.375,396.662 162.917 C 396.528 162.133,396.372 161.351,395.744 158.333 C 395.392 156.640,393.024 146.854,392.840 146.333 C 392.759 146.104,392.577 145.504,392.435 145.000 C 391.606 142.053,388.821 133.383,388.341 132.250 C 388.263 132.067,388.030 131.429,387.824 130.833 C 387.617 130.237,387.039 128.737,386.539 127.500 C 386.039 126.263,385.614 125.175,385.595 125.083 C 385.575 124.992,385.427 124.617,385.265 124.250 C 385.103 123.883,384.724 122.983,384.423 122.250 C 384.122 121.517,383.679 120.490,383.438 119.969 C 383.197 119.448,383.000 118.980,383.000 118.931 C 383.000 118.881,382.709 118.220,382.354 117.462 C 381.999 116.704,381.357 115.333,380.929 114.417 C 379.843 112.091,378.234 108.939,375.869 104.500 C 375.454 103.721,374.451 101.942,373.641 100.548 C 372.830 99.153,372.167 97.934,372.167 97.839 C 372.167 97.744,372.104 97.667,372.027 97.667 C 371.950 97.667,371.799 97.474,371.692 97.239 C 371.585 97.004,370.923 95.898,370.220 94.781 C 369.518 93.664,368.860 92.600,368.759 92.417 C 368.534 92.011,365.291 87.117,365.170 87.000 C 365.122 86.954,364.778 86.467,364.406 85.917 C 363.183 84.110,361.602 81.900,360.590 80.583 C 360.449 80.400,359.905 79.688,359.381 79.000 C 358.857 78.313,358.382 77.712,358.324 77.667 C 358.267 77.621,358.002 77.283,357.735 76.916 C 357.035 75.953,354.709 73.032,354.012 72.241 C 353.685 71.869,353.154 71.236,352.833 70.834 C 352.512 70.433,351.875 69.684,351.417 69.170 C 350.958 68.656,350.118 67.710,349.550 67.068 C 348.981 66.427,348.269 65.639,347.967 65.319 C 347.664 64.998,346.937 64.214,346.350 63.576 C 342.534 59.425,335.442 52.563,331.249 48.963 C 328.407 46.524,325.057 43.748,323.853 42.833 C 323.189 42.329,322.556 41.838,322.448 41.742 C 322.339 41.646,321.801 41.234,321.253 40.825 C 320.705 40.417,320.143 39.991,320.003 39.877 C 319.864 39.764,318.813 38.997,317.667 38.173 C 316.521 37.349,315.454 36.579,315.296 36.462 C 313.859 35.402,308.849 32.062,305.634 30.022 C 304.350 29.207,297.171 25.000,297.065 25.000 C 297.015 25.000,296.474 24.710,295.862 24.355 C 291.403 21.768,277.541 15.167,276.570 15.167 C 276.440 15.167,276.333 15.098,276.333 15.013 C 276.333 14.929,276.090 14.808,275.792 14.744 C 275.494 14.680,275.063 14.532,274.833 14.414 C 274.381 14.182,271.920 13.218,270.583 12.750 C 270.125 12.589,269.525 12.358,269.250 12.236 C 268.637 11.965,268.254 11.831,263.278 10.151 C 261.094 9.413,259.161 8.781,258.983 8.747 C 258.610 8.675,255.954 7.881,255.333 7.656 C 255.104 7.573,254.467 7.394,253.917 7.258 C 253.367 7.121,251.454 6.631,249.667 6.167 C 246.418 5.325,241.155 4.106,239.583 3.831 C 239.125 3.751,237.925 3.536,236.917 3.352 C 234.000 2.822,231.173 2.335,230.000 2.160 C 229.404 2.071,228.692 1.962,228.417 1.918 C 227.521 1.773,223.788 1.322,222.167 1.162 C 221.296 1.076,219.946 0.931,219.167 0.839 C 218.387 0.748,217.112 0.631,216.333 0.580 C 215.554 0.529,213.754 0.407,212.333 0.309 C 208.315 0.032,192.863 -0.007,188.833 0.250 M274.500 73.462 C 278.721 74.365,280.372 75.919,281.139 79.713 C 281.393 80.964,281.417 84.011,281.417 114.792 L 281.417 148.500 283.333 148.500 C 284.387 148.499,286.637 148.423,288.333 148.331 C 303.329 147.510,314.144 148.164,316.529 150.037 C 318.958 151.945,319.540 180.372,318.730 257.500 L 318.627 267.250 273.905 267.292 L 229.183 267.334 229.216 251.542 C 229.251 235.411,229.192 233.297,228.572 228.500 C 226.496 212.432,219.456 208.554,191.466 208.061 L 185.015 207.948 184.926 207.516 C 184.240 204.168,183.897 161.538,184.512 156.000 C 185.288 149.016,188.707 147.646,204.083 148.157 C 207.108 148.258,212.263 148.388,215.539 148.446 L 221.494 148.552 221.539 113.568 L 221.583 78.583 221.953 77.498 C 223.214 73.792,224.042 73.579,237.917 73.406 C 243.142 73.340,249.329 73.233,251.667 73.167 C 260.401 72.921,272.716 73.080,274.500 73.462 M237.444 99.958 C 237.383 106.077,237.334 119.415,237.333 129.598 L 237.333 148.113 243.542 148.224 C 246.956 148.285,253.356 148.384,257.764 148.444 L 265.779 148.554 265.890 129.652 C 265.951 119.256,266.050 105.819,266.111 99.792 L 266.221 88.833 251.888 88.833 L 237.555 88.833 237.444 99.958 M250.500 177.941 C 249.629 177.963,244.004 178.060,238.000 178.158 C 222.983 178.403,222.047 178.487,219.236 179.836 C 213.077 182.792,213.753 189.707,220.425 192.003 C 222.930 192.865,223.774 192.921,233.000 192.838 C 250.713 192.680,256.710 192.779,258.343 193.259 C 258.545 193.319,258.705 194.040,259.056 196.460 C 259.648 200.554,259.988 202.820,260.225 204.244 L 260.417 205.405 262.109 205.938 C 270.521 208.587,273.482 205.673,273.497 194.730 L 273.500 192.876 277.208 192.782 C 284.506 192.597,286.354 191.526,287.111 187.046 C 287.443 185.081,287.189 181.595,286.687 181.221 C 283.563 178.895,268.248 177.507,250.500 177.941 M158.250 192.672 C 163.345 193.043,169.435 194.293,170.169 195.117 C 170.234 195.190,170.383 199.375,170.501 204.417 C 170.618 209.458,170.759 215.508,170.815 217.861 C 170.871 220.214,170.956 222.179,171.005 222.227 C 171.053 222.276,172.291 222.433,173.755 222.576 C 175.219 222.719,176.735 222.882,177.125 222.937 L 177.833 223.038 177.833 274.602 L 177.833 326.167 165.458 326.167 C 158.652 326.167,145.152 326.217,135.458 326.278 L 117.833 326.388 117.833 275.195 L 117.833 224.002 118.542 223.481 C 120.018 222.394,121.259 222.092,122.488 222.521 C 123.270 222.793,123.706 222.524,124.401 221.338 L 124.995 220.324 124.959 210.703 C 124.892 193.042,124.848 193.108,137.167 192.818 C 140.696 192.736,144.071 192.645,144.667 192.617 C 147.467 192.484,156.163 192.519,158.250 192.672 M140.854 213.437 C 140.865 216.451,140.921 219.704,140.979 220.667 L 141.083 222.417 147.750 222.358 C 151.417 222.326,154.429 222.289,154.443 222.275 C 154.526 222.197,154.831 208.275,154.751 208.196 C 154.698 208.143,151.545 208.068,147.744 208.029 L 140.833 207.958 140.854 213.437 M205.191 221.840 C 209.435 222.267,212.259 223.855,213.580 226.557 C 214.763 228.976,214.675 224.911,214.627 275.011 L 214.583 320.250 214.222 321.195 C 212.152 326.607,207.087 327.920,194.125 326.402 L 191.667 326.114 191.667 274.576 L 191.667 223.038 192.125 222.958 C 192.377 222.914,193.714 222.682,195.095 222.441 C 199.061 221.750,202.350 221.555,205.191 221.840 M98.177 222.245 C 99.226 222.380,100.965 222.657,102.042 222.861 L 104.000 223.232 104.000 274.666 L 104.000 326.100 101.625 326.382 C 88.099 327.989,82.914 326.494,81.222 320.500 C 80.747 318.816,80.745 230.520,81.221 228.845 C 82.787 223.325,88.695 221.025,98.177 222.245 M318.070 281.958 C 319.238 289.286,318.396 308.034,316.814 309.940 C 316.030 310.884,311.624 311.664,307.058 311.665 L 303.867 311.667 303.800 315.875 L 303.733 320.083 303.106 321.917 C 301.884 325.488,301.902 325.473,297.750 326.347 C 290.761 327.817,288.473 325.071,288.079 314.735 L 287.964 311.721 277.204 311.610 C 271.287 311.550,261.414 311.490,255.264 311.477 C 249.115 311.465,240.746 311.408,236.667 311.352 L 229.250 311.250 229.295 302.417 C 229.319 297.558,229.386 290.827,229.443 287.458 L 229.546 281.333 273.758 281.333 L 317.971 281.333 318.070 281.958 " stroke="none" fill="#2cccbc" fill-rule="evenodd"></path><path id="path1" d="M256.417 73.174 C 254.125 73.252,246.700 73.394,239.917 73.490 C 224.046 73.715,223.878 73.746,222.355 76.780 C 221.488 78.507,221.501 77.908,221.501 114.622 L 221.500 148.661 217.292 148.572 C 214.977 148.523,210.521 148.412,207.390 148.325 C 189.329 147.823,186.503 148.547,184.909 154.092 C 184.185 156.610,184.140 197.481,184.852 205.518 L 185.053 207.785 186.901 207.892 C 187.918 207.951,190.238 207.999,192.056 207.999 C 214.397 208.004,223.848 211.622,227.142 221.429 C 229.024 227.033,229.203 229.417,229.286 250.042 L 229.356 267.167 273.986 267.167 L 318.616 267.167 318.767 245.458 C 319.194 183.648,318.797 160.683,317.157 152.285 C 316.738 150.144,316.735 150.139,315.220 149.615 C 310.668 148.041,303.483 147.669,290.000 148.310 C 288.029 148.404,285.274 148.519,283.878 148.567 L 281.340 148.653 281.295 114.452 L 281.249 80.250 280.885 78.972 C 279.329 73.512,275.209 72.536,256.417 73.174 M266.254 98.292 C 266.201 103.585,266.079 117.066,265.983 128.249 C 265.887 139.432,265.795 148.594,265.779 148.609 C 265.747 148.640,237.275 148.219,237.208 148.187 C 237.134 148.151,237.164 131.589,237.278 109.961 L 237.388 88.838 242.153 88.792 C 244.773 88.766,251.289 88.727,256.633 88.706 L 266.349 88.667 266.254 98.292 M269.606 178.090 C 277.095 178.535,282.439 179.345,285.136 180.443 C 287.354 181.346,287.239 181.098,287.246 185.000 C 287.256 191.486,285.029 192.968,275.226 192.996 L 273.702 193.000 273.599 195.625 C 273.183 206.290,270.326 208.741,261.625 205.895 C 260.610 205.563,260.317 205.395,260.260 205.111 C 260.220 204.913,260.067 203.925,259.921 202.917 C 259.774 201.908,259.581 200.633,259.492 200.083 C 259.403 199.533,259.142 197.813,258.911 196.260 C 258.681 194.707,258.471 193.416,258.446 193.390 C 258.038 192.982,252.072 192.804,243.333 192.939 C 227.290 193.185,224.003 193.092,221.167 192.311 C 213.143 190.100,212.680 182.003,220.417 179.204 C 222.470 178.462,223.741 178.368,234.500 178.162 C 240.137 178.054,244.781 177.936,244.819 177.900 C 245.031 177.698,265.670 177.856,269.606 178.090 M138.250 192.834 C 124.790 193.150,124.847 193.069,125.048 211.583 L 125.142 220.250 124.654 221.083 C 123.690 222.732,123.358 222.945,122.327 222.581 C 121.111 222.152,120.350 222.340,118.710 223.478 L 117.837 224.083 117.835 275.125 L 117.833 326.168 147.792 326.125 L 177.750 326.083 177.750 274.583 L 177.750 223.083 174.387 222.750 C 172.538 222.567,170.977 222.369,170.920 222.310 C 170.862 222.251,170.703 217.226,170.567 211.143 C 170.432 205.060,170.267 198.961,170.202 197.589 L 170.083 195.095 168.583 194.578 C 163.539 192.838,156.171 192.414,138.250 192.834 M152.722 207.992 C 153.898 208.072,154.885 208.163,154.916 208.194 C 154.994 208.273,154.674 220.565,154.565 221.625 L 154.476 222.500 147.759 222.500 L 141.042 222.500 140.936 221.625 C 140.787 220.401,140.597 208.422,140.721 208.098 C 140.839 207.790,148.747 207.720,152.722 207.992 M197.500 222.162 C 195.459 222.448,192.704 222.930,192.125 223.102 C 191.848 223.185,191.833 225.781,191.833 274.581 L 191.833 325.974 192.292 326.062 C 193.458 326.288,197.989 326.720,201.250 326.916 C 208.953 327.380,213.516 324.888,214.417 319.724 C 214.800 317.526,214.794 231.607,214.410 229.408 C 213.330 223.215,207.574 220.748,197.500 222.162 M90.500 222.182 C 85.766 222.705,82.767 224.751,81.472 228.340 L 81.083 229.417 81.040 273.914 C 80.991 322.801,80.937 320.066,81.999 322.222 C 84.211 326.716,90.593 327.929,102.619 326.140 L 103.833 325.959 103.833 274.658 C 103.833 225.944,103.819 223.351,103.542 223.265 C 100.806 222.417,93.706 221.827,90.500 222.182 M229.591 281.542 C 229.555 281.656,229.477 288.360,229.417 296.439 L 229.308 311.128 233.862 311.227 C 236.367 311.281,247.154 311.366,257.833 311.414 C 268.512 311.463,279.706 311.551,282.708 311.611 L 288.167 311.719 288.168 313.401 C 288.179 325.718,290.940 328.390,300.670 325.498 C 301.881 325.138,301.707 325.382,302.754 322.583 C 303.625 320.255,303.833 318.778,303.833 314.940 L 303.833 311.583 307.375 311.583 C 311.375 311.583,312.549 311.425,315.083 310.546 C 317.070 309.857,316.778 310.113,317.155 308.732 C 318.470 303.909,318.894 291.557,318.056 282.458 L 317.952 281.333 273.804 281.333 C 238.632 281.333,229.643 281.376,229.591 281.542 " stroke="none" fill="#04947c" fill-rule="evenodd"></path><path id="path2" d="M259.377 73.120 C 259.631 73.158,260.006 73.157,260.211 73.117 C 260.416 73.078,260.208 73.046,259.750 73.048 C 259.292 73.049,259.124 73.081,259.377 73.120 M253.044 73.286 C 253.297 73.325,253.672 73.324,253.877 73.284 C 254.082 73.244,253.875 73.213,253.417 73.214 C 252.958 73.216,252.791 73.248,253.044 73.286 M245.458 73.451 C 245.665 73.491,246.002 73.491,246.208 73.451 C 246.415 73.411,246.246 73.379,245.833 73.379 C 245.421 73.379,245.252 73.411,245.458 73.451 M229.292 73.622 C 229.681 73.657,230.319 73.657,230.708 73.622 C 231.098 73.587,230.779 73.558,230.000 73.558 C 229.221 73.558,228.902 73.587,229.292 73.622 M250.970 88.792 C 253.291 88.818,257.041 88.818,259.303 88.792 C 261.566 88.765,259.667 88.744,255.083 88.744 C 250.500 88.744,248.649 88.765,250.970 88.792 M266.226 94.750 C 266.225 95.575,266.254 95.934,266.288 95.547 C 266.323 95.160,266.324 94.485,266.289 94.047 C 266.255 93.609,266.226 93.925,266.226 94.750 M266.064 117.583 C 266.064 118.683,266.091 119.112,266.124 118.535 C 266.156 117.959,266.156 117.059,266.123 116.535 C 266.090 116.012,266.063 116.483,266.064 117.583 M237.242 123.333 C 237.242 126.862,237.264 128.306,237.291 126.542 C 237.318 124.777,237.318 121.890,237.291 120.125 C 237.264 118.360,237.242 119.804,237.242 123.333 M265.896 136.417 C 265.896 137.425,265.924 137.816,265.957 137.286 C 265.990 136.755,265.990 135.930,265.956 135.452 C 265.922 134.974,265.895 135.408,265.896 136.417 M198.044 148.120 C 198.297 148.158,198.672 148.157,198.877 148.117 C 199.082 148.078,198.875 148.046,198.417 148.048 C 197.958 148.049,197.791 148.081,198.044 148.120 M204.375 148.286 C 204.627 148.324,205.040 148.324,205.292 148.286 C 205.544 148.248,205.338 148.217,204.833 148.217 C 204.329 148.217,204.123 148.248,204.375 148.286 M238.792 148.290 C 239.273 148.323,240.060 148.323,240.542 148.290 C 241.023 148.256,240.629 148.228,239.667 148.228 C 238.704 148.228,238.310 148.256,238.792 148.290 M291.460 148.285 C 291.668 148.324,291.968 148.323,292.127 148.281 C 292.286 148.239,292.117 148.207,291.750 148.209 C 291.383 148.211,291.253 148.245,291.460 148.285 M250.458 148.451 C 250.665 148.491,251.002 148.491,251.208 148.451 C 251.415 148.411,251.246 148.379,250.833 148.379 C 250.421 148.379,250.252 148.411,250.458 148.451 M219.458 148.622 C 219.848 148.657,220.485 148.657,220.875 148.622 C 221.265 148.587,220.946 148.558,220.167 148.558 C 219.387 148.558,219.069 148.587,219.458 148.622 M262.294 148.618 C 262.501 148.658,262.801 148.656,262.960 148.615 C 263.120 148.573,262.950 148.540,262.583 148.542 C 262.217 148.544,262.086 148.578,262.294 148.618 M281.711 148.620 C 281.964 148.658,282.339 148.657,282.544 148.617 C 282.749 148.578,282.542 148.546,282.083 148.548 C 281.625 148.549,281.457 148.581,281.711 148.620 M318.375 165.750 C 318.377 166.117,318.411 166.247,318.451 166.040 C 318.491 165.832,318.490 165.532,318.448 165.373 C 318.406 165.214,318.374 165.383,318.375 165.750 M184.389 168.333 C 184.389 169.021,184.419 169.302,184.455 168.958 C 184.491 168.615,184.491 168.052,184.455 167.708 C 184.419 167.365,184.389 167.646,184.389 168.333 M245.375 177.955 C 245.719 177.991,246.281 177.991,246.625 177.955 C 246.969 177.919,246.688 177.889,246.000 177.889 C 245.313 177.889,245.031 177.919,245.375 177.955 M265.377 177.953 C 265.631 177.991,266.006 177.990,266.211 177.951 C 266.416 177.911,266.208 177.880,265.750 177.881 C 265.292 177.882,265.124 177.915,265.377 177.953 M231.294 178.285 C 231.501 178.324,231.801 178.323,231.960 178.281 C 232.120 178.239,231.950 178.207,231.583 178.209 C 231.217 178.211,231.086 178.245,231.294 178.285 M216.573 181.542 L 216.083 182.083 216.625 181.594 C 217.130 181.138,217.243 181.000,217.115 181.000 C 217.086 181.000,216.842 181.244,216.573 181.542 M318.894 184.250 C 318.895 185.167,318.923 185.520,318.956 185.036 C 318.990 184.552,318.990 183.802,318.956 183.369 C 318.921 182.937,318.894 183.333,318.894 184.250 M246.292 192.790 C 246.956 192.822,248.044 192.822,248.708 192.790 C 249.373 192.759,248.829 192.733,247.500 192.733 C 246.171 192.733,245.627 192.759,246.292 192.790 M133.542 192.955 C 133.885 192.991,134.448 192.991,134.792 192.955 C 135.135 192.919,134.854 192.889,134.167 192.889 C 133.479 192.889,133.198 192.919,133.542 192.955 M274.625 192.957 C 275.198 192.989,276.135 192.989,276.708 192.957 C 277.281 192.924,276.813 192.898,275.667 192.898 C 274.521 192.898,274.052 192.924,274.625 192.957 M229.367 193.124 C 230.164 193.154,231.514 193.155,232.367 193.124 C 233.219 193.094,232.567 193.069,230.917 193.069 C 229.267 193.069,228.569 193.093,229.367 193.124 M273.548 194.750 C 273.549 195.208,273.581 195.376,273.620 195.123 C 273.658 194.869,273.657 194.494,273.617 194.289 C 273.578 194.084,273.546 194.292,273.548 194.750 M184.372 196.333 C 184.372 196.654,184.406 196.785,184.448 196.625 C 184.490 196.465,184.490 196.202,184.448 196.042 C 184.406 195.881,184.372 196.012,184.372 196.333 M170.223 197.500 C 170.223 198.188,170.252 198.469,170.288 198.125 C 170.324 197.781,170.324 197.219,170.288 196.875 C 170.252 196.531,170.223 196.813,170.223 197.500 M185.629 207.956 C 186.021 207.991,186.621 207.990,186.963 207.954 C 187.304 207.919,186.983 207.890,186.250 207.890 C 185.517 207.891,185.237 207.920,185.629 207.956 M140.741 213.083 C 140.741 215.925,140.763 217.111,140.791 215.719 C 140.819 214.327,140.819 212.002,140.791 210.552 C 140.764 209.103,140.741 210.242,140.741 213.083 M195.625 208.118 C 195.831 208.157,196.169 208.157,196.375 208.118 C 196.581 208.078,196.412 208.045,196.000 208.045 C 195.588 208.045,195.419 208.078,195.625 208.118 M154.875 209.417 C 154.877 209.783,154.911 209.914,154.951 209.706 C 154.991 209.499,154.990 209.199,154.948 209.040 C 154.906 208.880,154.874 209.050,154.875 209.417 M170.545 211.333 C 170.545 211.746,170.578 211.915,170.618 211.708 C 170.657 211.502,170.657 211.165,170.618 210.958 C 170.578 210.752,170.545 210.921,170.545 211.333 M154.717 215.167 C 154.717 215.671,154.748 215.877,154.786 215.625 C 154.824 215.373,154.824 214.960,154.786 214.708 C 154.748 214.456,154.717 214.662,154.717 215.167 M125.050 216.500 C 125.050 217.004,125.081 217.210,125.119 216.958 C 125.158 216.706,125.158 216.294,125.119 216.042 C 125.081 215.790,125.050 215.996,125.050 216.500 M170.723 218.500 C 170.723 219.188,170.752 219.469,170.788 219.125 C 170.824 218.781,170.824 218.219,170.788 217.875 C 170.752 217.531,170.723 217.813,170.723 218.500 M140.872 220.667 C 140.872 220.987,140.906 221.119,140.948 220.958 C 140.990 220.798,140.990 220.535,140.948 220.375 C 140.906 220.215,140.872 220.346,140.872 220.667 M191.749 274.583 C 191.749 302.908,191.768 314.471,191.792 300.278 C 191.815 286.085,191.815 262.910,191.792 248.778 C 191.768 234.646,191.749 246.258,191.749 274.583 M318.900 226.083 C 318.900 227.458,318.926 227.999,318.957 227.284 C 318.989 226.569,318.988 225.444,318.957 224.784 C 318.925 224.124,318.900 224.708,318.900 226.083 M229.039 232.833 C 229.039 233.154,229.073 233.285,229.115 233.125 C 229.157 232.965,229.157 232.702,229.115 232.542 C 229.073 232.381,229.039 232.512,229.039 232.833 M229.209 235.917 C 229.211 236.283,229.245 236.414,229.285 236.206 C 229.324 235.999,229.323 235.699,229.281 235.540 C 229.239 235.380,229.207 235.550,229.209 235.917 M318.725 243.833 C 318.725 244.612,318.754 244.931,318.789 244.542 C 318.824 244.152,318.824 243.515,318.789 243.125 C 318.754 242.735,318.725 243.054,318.725 243.833 M251.625 267.292 C 263.931 267.315,284.069 267.315,296.375 267.292 C 308.681 267.268,298.612 267.249,274.000 267.249 C 249.387 267.249,239.319 267.268,251.625 267.292 M103.915 298.917 C 103.915 313.858,103.934 319.946,103.958 312.445 C 103.982 304.944,103.982 292.719,103.958 285.279 C 103.934 277.838,103.915 283.975,103.915 298.917 M318.375 287.583 C 318.377 287.950,318.411 288.080,318.451 287.873 C 318.491 287.666,318.490 287.366,318.448 287.206 C 318.406 287.047,318.374 287.217,318.375 287.583 M229.400 296.250 C 229.400 297.625,229.426 298.165,229.457 297.451 C 229.489 296.736,229.488 295.611,229.457 294.951 C 229.425 294.290,229.400 294.875,229.400 296.250 M318.375 298.750 C 318.377 299.117,318.411 299.247,318.451 299.040 C 318.491 298.832,318.490 298.532,318.448 298.373 C 318.406 298.214,318.374 298.383,318.375 298.750 M231.214 311.290 C 231.745 311.323,232.570 311.323,233.048 311.289 C 233.526 311.256,233.092 311.229,232.083 311.229 C 231.075 311.229,230.684 311.257,231.214 311.290 M255.625 311.458 C 256.748 311.487,258.585 311.487,259.708 311.458 C 260.831 311.429,259.912 311.405,257.667 311.405 C 255.421 311.405,254.502 311.429,255.625 311.458 M279.629 311.622 C 280.021 311.657,280.621 311.657,280.963 311.621 C 281.304 311.585,280.983 311.557,280.250 311.557 C 279.517 311.558,279.237 311.587,279.629 311.622 M304.125 311.618 C 304.331 311.657,304.669 311.657,304.875 311.618 C 305.081 311.578,304.912 311.545,304.500 311.545 C 304.087 311.545,303.919 311.578,304.125 311.618 " stroke="none" fill="#04ac94" fill-rule="evenodd"></path><path id="path3" d="M256.375 73.121 C 256.719 73.157,257.281 73.157,257.625 73.121 C 257.969 73.085,257.688 73.056,257.000 73.056 C 256.313 73.056,256.031 73.085,256.375 73.121 M249.042 73.288 C 249.385 73.324,249.948 73.324,250.292 73.288 C 250.635 73.252,250.354 73.223,249.667 73.223 C 248.979 73.223,248.698 73.252,249.042 73.288 M241.381 73.457 C 241.912 73.490,242.737 73.490,243.214 73.456 C 243.692 73.422,243.258 73.395,242.250 73.396 C 241.242 73.396,240.851 73.424,241.381 73.457 M281.415 110.500 C 281.415 125.946,281.434 132.265,281.458 124.542 C 281.482 116.819,281.482 104.181,281.458 96.458 C 281.434 88.735,281.415 95.054,281.415 110.500 M237.410 96.250 C 237.410 100.375,237.432 102.039,237.458 99.947 C 237.485 97.855,237.485 94.480,237.458 92.447 C 237.432 90.414,237.410 92.125,237.410 96.250 M266.226 90.250 C 266.225 91.075,266.254 91.434,266.288 91.047 C 266.323 90.660,266.324 89.985,266.289 89.547 C 266.255 89.109,266.226 89.425,266.226 90.250 M266.073 107.250 C 266.073 109.817,266.096 110.843,266.125 109.532 C 266.153 108.220,266.153 106.120,266.125 104.865 C 266.096 103.610,266.073 104.683,266.073 107.250 M265.905 128.583 C 265.905 130.692,265.929 131.531,265.958 130.449 C 265.987 129.367,265.987 127.642,265.958 126.616 C 265.928 125.590,265.905 126.475,265.905 128.583 M237.241 142.750 C 237.241 145.775,237.264 147.036,237.291 145.552 C 237.319 144.068,237.319 141.593,237.291 140.052 C 237.264 138.511,237.241 139.725,237.241 142.750 M301.042 147.953 C 301.294 147.991,301.706 147.991,301.958 147.953 C 302.210 147.915,302.004 147.883,301.500 147.883 C 300.996 147.883,300.790 147.915,301.042 147.953 M196.042 148.115 C 196.202 148.157,196.465 148.157,196.625 148.115 C 196.785 148.073,196.654 148.039,196.333 148.039 C 196.012 148.039,195.881 148.073,196.042 148.115 M200.292 148.118 C 200.498 148.157,200.835 148.157,201.042 148.118 C 201.248 148.078,201.079 148.045,200.667 148.045 C 200.254 148.045,200.085 148.078,200.292 148.118 M206.794 148.285 C 207.001 148.324,207.301 148.323,207.460 148.281 C 207.620 148.239,207.450 148.207,207.083 148.209 C 206.717 148.211,206.586 148.245,206.794 148.285 M243.625 148.289 C 244.015 148.324,244.652 148.324,245.042 148.289 C 245.431 148.254,245.112 148.225,244.333 148.225 C 243.554 148.225,243.235 148.254,243.625 148.289 M211.544 148.453 C 211.797 148.491,212.172 148.490,212.377 148.451 C 212.582 148.411,212.375 148.380,211.917 148.381 C 211.458 148.382,211.291 148.415,211.544 148.453 M253.042 148.455 C 253.385 148.491,253.948 148.491,254.292 148.455 C 254.635 148.419,254.354 148.389,253.667 148.389 C 252.979 148.389,252.698 148.419,253.042 148.455 M286.708 148.448 C 286.869 148.490,287.131 148.490,287.292 148.448 C 287.452 148.406,287.321 148.372,287.000 148.372 C 286.679 148.372,286.548 148.406,286.708 148.448 M264.292 148.621 C 264.590 148.658,265.077 148.658,265.375 148.621 C 265.673 148.584,265.429 148.553,264.833 148.553 C 264.237 148.553,263.994 148.584,264.292 148.621 M184.406 161.083 C 184.406 163.467,184.429 164.418,184.458 163.198 C 184.486 161.979,184.486 160.029,184.458 158.865 C 184.429 157.702,184.406 158.700,184.406 161.083 M318.542 168.250 C 318.544 168.617,318.578 168.747,318.618 168.540 C 318.658 168.332,318.656 168.032,318.615 167.873 C 318.573 167.714,318.540 167.883,318.542 168.250 M318.723 173.167 C 318.723 173.854,318.752 174.135,318.788 173.792 C 318.824 173.448,318.824 172.885,318.788 172.542 C 318.752 172.198,318.723 172.479,318.723 173.167 M184.245 183.750 C 184.245 189.067,184.266 191.266,184.292 188.637 C 184.317 186.008,184.317 181.658,184.292 178.970 C 184.266 176.282,184.245 178.433,184.245 183.750 M249.208 177.956 C 249.735 177.990,250.598 177.990,251.125 177.956 C 251.652 177.923,251.221 177.896,250.167 177.896 C 249.112 177.896,248.681 177.923,249.208 177.956 M262.047 177.956 C 262.485 177.990,263.160 177.990,263.547 177.955 C 263.934 177.920,263.575 177.892,262.750 177.892 C 261.925 177.893,261.609 177.922,262.047 177.956 M240.544 178.120 C 240.797 178.158,241.172 178.157,241.377 178.117 C 241.582 178.078,241.375 178.046,240.917 178.048 C 240.458 178.049,240.291 178.081,240.544 178.120 M318.892 179.417 C 318.892 180.242,318.920 180.600,318.955 180.213 C 318.990 179.827,318.990 179.152,318.956 178.713 C 318.922 178.275,318.893 178.592,318.892 179.417 M233.377 178.286 C 233.631 178.325,234.006 178.324,234.211 178.284 C 234.416 178.244,234.208 178.213,233.750 178.214 C 233.292 178.216,233.124 178.248,233.377 178.286 M214.879 185.667 C 214.879 186.079,214.911 186.248,214.951 186.042 C 214.991 185.835,214.991 185.498,214.951 185.292 C 214.911 185.085,214.879 185.254,214.879 185.667 M319.079 203.667 C 319.079 211.137,319.100 214.194,319.125 210.458 C 319.150 206.723,319.150 200.610,319.125 196.875 C 319.100 193.140,319.079 196.196,319.079 203.667 M146.464 192.623 C 146.948 192.657,147.698 192.656,148.131 192.622 C 148.563 192.588,148.167 192.560,147.250 192.561 C 146.333 192.561,145.980 192.589,146.464 192.623 M155.121 192.620 C 155.417 192.657,155.942 192.658,156.288 192.622 C 156.634 192.586,156.392 192.555,155.750 192.555 C 155.108 192.554,154.825 192.583,155.121 192.620 M140.463 192.789 C 140.855 192.824,141.455 192.824,141.796 192.788 C 142.137 192.752,141.817 192.723,141.083 192.724 C 140.350 192.724,140.071 192.754,140.463 192.789 M242.292 192.789 C 242.681 192.824,243.319 192.824,243.708 192.789 C 244.098 192.754,243.779 192.725,243.000 192.725 C 242.221 192.725,241.902 192.754,242.292 192.789 M250.958 192.787 C 251.256 192.824,251.744 192.824,252.042 192.787 C 252.340 192.750,252.096 192.720,251.500 192.720 C 250.904 192.720,250.660 192.750,250.958 192.787 M225.794 192.951 C 226.001 192.991,226.301 192.990,226.460 192.948 C 226.620 192.906,226.450 192.874,226.083 192.875 C 225.717 192.877,225.586 192.911,225.794 192.951 M236.295 192.954 C 236.594 192.991,237.044 192.990,237.295 192.952 C 237.545 192.914,237.300 192.884,236.750 192.885 C 236.200 192.886,235.995 192.917,236.295 192.954 M184.389 198.833 C 184.389 199.521,184.419 199.802,184.455 199.458 C 184.491 199.115,184.491 198.552,184.455 198.208 C 184.419 197.865,184.389 198.146,184.389 198.833 M170.372 202.333 C 170.372 202.654,170.406 202.785,170.448 202.625 C 170.490 202.465,170.490 202.202,170.448 202.042 C 170.406 201.881,170.372 202.012,170.372 202.333 M184.539 202.667 C 184.539 202.987,184.573 203.119,184.615 202.958 C 184.657 202.798,184.657 202.535,184.615 202.375 C 184.573 202.215,184.539 202.346,184.539 202.667 M124.906 207.583 C 124.905 209.875,124.929 210.836,124.958 209.718 C 124.987 208.600,124.987 206.725,124.958 205.551 C 124.929 204.377,124.906 205.292,124.906 207.583 M145.032 207.958 C 146.013 207.987,147.663 207.987,148.699 207.958 C 149.735 207.929,148.933 207.904,146.917 207.904 C 144.900 207.904,144.052 207.928,145.032 207.958 M193.292 208.121 C 193.590 208.158,194.077 208.158,194.375 208.121 C 194.673 208.084,194.429 208.053,193.833 208.053 C 193.237 208.053,192.994 208.084,193.292 208.121 M170.539 209.500 C 170.539 209.821,170.573 209.952,170.615 209.792 C 170.657 209.631,170.657 209.369,170.615 209.208 C 170.573 209.048,170.539 209.179,170.539 209.500 M154.718 212.417 C 154.719 212.967,154.750 213.172,154.787 212.872 C 154.825 212.572,154.824 212.122,154.786 211.872 C 154.748 211.622,154.717 211.867,154.718 212.417 M170.712 215.333 C 170.712 215.746,170.745 215.915,170.784 215.708 C 170.824 215.502,170.824 215.165,170.784 214.958 C 170.745 214.752,170.712 214.921,170.712 215.333 M154.555 219.417 C 154.555 220.058,154.586 220.300,154.622 219.955 C 154.658 219.609,154.657 219.084,154.620 218.788 C 154.583 218.492,154.554 218.775,154.555 219.417 M125.039 219.667 C 125.039 219.987,125.073 220.119,125.115 219.958 C 125.157 219.798,125.157 219.535,125.115 219.375 C 125.073 219.215,125.039 219.346,125.039 219.667 M145.708 222.458 C 147.244 222.486,149.756 222.486,151.292 222.458 C 152.827 222.431,151.571 222.408,148.500 222.408 C 145.429 222.408,144.173 222.431,145.708 222.458 M80.915 274.583 C 80.915 298.783,80.935 308.659,80.958 296.528 C 80.982 284.398,80.982 264.598,80.958 252.528 C 80.935 240.459,80.915 250.383,80.915 274.583 M318.902 235.167 C 318.902 236.771,318.927 237.427,318.957 236.625 C 318.988 235.823,318.988 234.510,318.957 233.708 C 318.927 232.906,318.902 233.563,318.902 235.167 M229.217 238.333 C 229.217 238.838,229.248 239.044,229.286 238.792 C 229.324 238.540,229.324 238.127,229.286 237.875 C 229.248 237.623,229.217 237.829,229.217 238.333 M318.739 251.167 C 318.739 253.596,318.763 254.590,318.791 253.375 C 318.820 252.160,318.820 250.173,318.791 248.958 C 318.763 247.744,318.739 248.737,318.739 251.167 M229.235 257.917 C 229.235 259.475,229.260 260.135,229.291 259.383 C 229.321 258.631,229.321 257.356,229.291 256.550 C 229.260 255.743,229.235 256.358,229.235 257.917 M229.396 289.833 C 229.396 290.887,229.423 291.319,229.456 290.792 C 229.490 290.265,229.490 289.402,229.456 288.875 C 229.423 288.348,229.396 288.779,229.396 289.833 M318.571 293.250 C 318.571 295.175,318.595 295.940,318.624 294.949 C 318.654 293.959,318.654 292.384,318.624 291.449 C 318.595 290.515,318.570 291.325,318.571 293.250 M229.228 309.583 C 229.228 310.500,229.256 310.854,229.290 310.369 C 229.324 309.885,229.323 309.135,229.289 308.703 C 229.255 308.270,229.227 308.667,229.228 309.583 M244.292 311.458 C 245.415 311.487,247.252 311.487,248.375 311.458 C 249.498 311.429,248.579 311.405,246.333 311.405 C 244.088 311.405,243.169 311.429,244.292 311.458 M274.632 311.624 C 275.208 311.656,276.108 311.656,276.632 311.623 C 277.155 311.590,276.683 311.563,275.583 311.564 C 274.483 311.564,274.055 311.591,274.632 311.624 M288.060 313.167 C 288.060 314.037,288.088 314.394,288.123 313.958 C 288.157 313.523,288.157 312.810,288.123 312.375 C 288.088 311.940,288.060 312.296,288.060 313.167 M123.721 326.292 C 127.004 326.317,132.329 326.317,135.554 326.292 C 138.778 326.266,136.092 326.246,129.583 326.246 C 123.075 326.246,120.437 326.266,123.721 326.292 M199.542 326.948 C 199.702 326.990,199.965 326.990,200.125 326.948 C 200.285 326.906,200.154 326.872,199.833 326.872 C 199.512 326.872,199.381 326.906,199.542 326.948 " stroke="none" fill="#04beac" fill-rule="evenodd"></path><path id="path4" d="M251.295 73.287 C 251.594 73.325,252.044 73.324,252.295 73.286 C 252.545 73.248,252.300 73.217,251.750 73.218 C 251.200 73.219,250.995 73.250,251.295 73.287 M244.294 73.451 C 244.501 73.491,244.801 73.490,244.960 73.448 C 245.120 73.406,244.950 73.374,244.583 73.375 C 244.217 73.377,244.086 73.411,244.294 73.451 M264.047 88.789 C 264.485 88.824,265.160 88.823,265.547 88.788 C 265.934 88.754,265.575 88.725,264.750 88.726 C 263.925 88.726,263.609 88.755,264.047 88.789 M266.217 92.500 C 266.217 93.004,266.248 93.210,266.286 92.958 C 266.324 92.706,266.324 92.294,266.286 92.042 C 266.248 91.790,266.217 91.996,266.217 92.500 M266.064 113.750 C 266.064 114.850,266.091 115.278,266.124 114.702 C 266.156 114.125,266.156 113.225,266.123 112.702 C 266.090 112.178,266.063 112.650,266.064 113.750 M237.238 133.500 C 237.238 135.654,237.262 136.535,237.291 135.458 C 237.320 134.381,237.320 132.619,237.291 131.542 C 237.262 130.465,237.238 131.346,237.238 133.500 M265.889 133.500 C 265.889 134.188,265.919 134.469,265.955 134.125 C 265.991 133.781,265.991 133.219,265.955 132.875 C 265.919 132.531,265.889 132.813,265.889 133.500 M241.708 148.286 C 241.960 148.324,242.373 148.324,242.625 148.286 C 242.877 148.248,242.671 148.217,242.167 148.217 C 241.662 148.217,241.456 148.248,241.708 148.286 M251.708 148.448 C 251.869 148.490,252.131 148.490,252.292 148.448 C 252.452 148.406,252.321 148.372,252.000 148.372 C 251.679 148.372,251.548 148.406,251.708 148.448 M184.385 166.250 C 184.386 166.800,184.417 167.005,184.454 166.705 C 184.491 166.406,184.490 165.956,184.452 165.705 C 184.414 165.455,184.384 165.700,184.385 166.250 M247.460 177.951 C 247.668 177.991,247.968 177.990,248.127 177.948 C 248.286 177.906,248.117 177.874,247.750 177.875 C 247.383 177.877,247.253 177.911,247.460 177.951 M318.885 181.750 C 318.886 182.300,318.917 182.505,318.954 182.205 C 318.991 181.906,318.990 181.456,318.952 181.205 C 318.914 180.955,318.884 181.200,318.885 181.750 M150.200 192.624 C 150.997 192.654,152.347 192.655,153.200 192.624 C 154.052 192.594,153.400 192.569,151.750 192.569 C 150.100 192.569,149.402 192.593,150.200 192.624 M273.539 193.500 C 273.539 193.821,273.573 193.952,273.615 193.792 C 273.657 193.631,273.657 193.369,273.615 193.208 C 273.573 193.048,273.539 193.179,273.539 193.500 M141.463 207.956 C 141.855 207.991,142.455 207.990,142.796 207.954 C 143.137 207.919,142.817 207.890,142.083 207.890 C 141.350 207.891,141.071 207.920,141.463 207.956 M154.705 213.833 C 154.705 214.154,154.740 214.285,154.782 214.125 C 154.823 213.965,154.823 213.702,154.782 213.542 C 154.740 213.381,154.705 213.512,154.705 213.833 M170.712 216.667 C 170.712 217.079,170.745 217.248,170.784 217.042 C 170.824 216.835,170.824 216.498,170.784 216.292 C 170.745 216.085,170.712 216.254,170.712 216.667 M125.052 218.250 C 125.053 218.800,125.084 219.005,125.121 218.705 C 125.158 218.406,125.157 217.956,125.119 217.705 C 125.081 217.455,125.051 217.700,125.052 218.250 M103.833 247.550 L 103.917 271.917 103.959 247.676 C 103.982 234.343,103.945 223.378,103.876 223.309 C 103.807 223.240,103.787 234.148,103.833 247.550 M318.897 230.417 C 318.897 231.517,318.924 231.945,318.957 231.368 C 318.990 230.792,318.989 229.892,318.956 229.368 C 318.923 228.845,318.897 229.317,318.897 230.417 M229.205 237.000 C 229.205 237.321,229.240 237.452,229.282 237.292 C 229.323 237.131,229.323 236.869,229.282 236.708 C 229.240 236.548,229.205 236.679,229.205 237.000 M318.717 246.000 C 318.717 246.504,318.748 246.710,318.786 246.458 C 318.824 246.206,318.824 245.794,318.786 245.542 C 318.748 245.290,318.717 245.496,318.717 246.000 M229.237 263.917 C 229.237 265.750,229.261 266.523,229.291 265.634 C 229.321 264.745,229.321 263.245,229.291 262.301 C 229.261 261.356,229.237 262.083,229.237 263.917 M229.388 292.750 C 229.389 293.392,229.419 293.634,229.455 293.288 C 229.491 292.942,229.490 292.417,229.454 292.121 C 229.417 291.825,229.387 292.108,229.388 292.750 M229.542 311.282 C 229.702 311.323,229.965 311.323,230.125 311.282 C 230.285 311.240,230.154 311.205,229.833 311.205 C 229.512 311.205,229.381 311.240,229.542 311.282 M251.125 311.456 C 251.606 311.490,252.394 311.490,252.875 311.456 C 253.356 311.423,252.963 311.395,252.000 311.395 C 251.037 311.395,250.644 311.423,251.125 311.456 M277.877 311.620 C 278.131 311.658,278.506 311.657,278.711 311.617 C 278.916 311.578,278.708 311.546,278.250 311.548 C 277.792 311.549,277.624 311.581,277.877 311.620 " stroke="none" fill="#04ac9c" fill-rule="evenodd"></path></g></svg>