<svg id="svg" version="1.1" xmlns="http://www.w3.org/2000/svg" xmlns:xlink="http://www.w3.org/1999/xlink" width="400" height="400" viewBox="0, 0, 400,400"><g id="svgg"><path id="path0" d="M192.667 0.093 C 192.529 0.123,190.654 0.233,188.500 0.337 C 186.346 0.441,183.833 0.597,182.917 0.683 C 182.000 0.770,180.463 0.911,179.500 0.997 C 178.537 1.084,177.225 1.230,176.583 1.322 C 175.942 1.415,174.667 1.571,173.750 1.670 C 172.833 1.770,171.671 1.922,171.167 2.010 C 170.662 2.097,169.050 2.358,167.583 2.590 C 164.433 3.088,164.118 3.146,159.000 4.177 C 156.210 4.739,150.945 5.966,148.917 6.527 C 144.920 7.634,144.265 7.820,142.833 8.257 C 139.134 9.386,135.861 10.448,134.075 11.100 C 132.971 11.503,132.007 11.833,131.934 11.833 C 131.860 11.833,131.564 11.936,131.275 12.061 C 130.986 12.187,129.325 12.833,127.583 13.499 C 125.842 14.164,124.192 14.805,123.917 14.923 C 114.531 18.962,108.124 22.063,102.712 25.189 C 101.939 25.635,101.275 26.000,101.235 26.000 C 101.195 26.000,100.230 26.563,99.089 27.250 C 97.948 27.938,96.943 28.500,96.854 28.500 C 96.766 28.500,96.669 28.559,96.639 28.632 C 96.608 28.705,96.283 28.940,95.917 29.155 C 90.952 32.067,81.530 38.627,75.941 43.063 C 73.230 45.214,68.670 49.067,65.846 51.591 C 62.101 54.938,54.255 62.820,51.333 66.170 C 50.829 66.748,50.229 67.420,50.000 67.663 C 49.771 67.906,48.985 68.812,48.254 69.677 C 47.523 70.542,46.884 71.287,46.832 71.333 C 46.781 71.379,46.254 72.015,45.661 72.747 C 45.068 73.478,44.446 74.228,44.279 74.413 C 43.942 74.786,39.065 81.148,38.208 82.333 C 36.580 84.583,35.529 86.110,33.259 89.519 C 31.879 91.592,30.659 93.430,30.548 93.603 C 30.140 94.239,28.208 97.469,27.669 98.417 C 27.512 98.692,27.110 99.344,26.775 99.867 C 26.441 100.390,26.167 100.864,26.167 100.921 C 26.167 100.978,25.877 101.526,25.523 102.138 C 21.399 109.260,16.963 118.660,13.260 128.119 C 12.751 129.421,12.333 130.566,12.333 130.663 C 12.333 130.759,12.259 130.968,12.168 131.127 C 11.894 131.609,9.307 139.277,8.585 141.750 C 8.344 142.575,7.959 143.887,7.729 144.667 C 6.654 148.309,4.904 155.375,4.180 159.000 C 3.987 159.962,3.754 161.087,3.662 161.500 C 3.469 162.361,3.240 163.650,2.731 166.750 C 2.109 170.542,1.809 172.578,1.576 174.583 C 1.438 175.775,1.293 176.862,1.254 177.000 C 1.215 177.137,1.137 177.963,1.080 178.833 C 1.023 179.704,0.911 180.829,0.832 181.333 C 0.752 181.838,0.641 183.037,0.585 184.000 C 0.529 184.963,0.407 186.912,0.315 188.333 C 0.034 192.651,-0.060 204.215,0.151 208.250 C 0.380 212.597,0.652 216.986,0.752 217.917 C 0.791 218.283,0.901 219.446,0.995 220.500 C 1.090 221.554,1.242 222.867,1.332 223.417 C 1.422 223.967,1.607 225.392,1.743 226.583 C 2.168 230.309,3.431 237.622,4.477 242.417 C 5.106 245.296,5.217 245.767,5.870 248.333 C 6.232 249.754,6.629 251.329,6.752 251.833 C 6.875 252.338,7.136 253.313,7.332 254.000 C 7.528 254.688,7.752 255.500,7.830 255.806 C 7.908 256.112,8.045 256.562,8.136 256.806 C 8.227 257.050,8.466 257.813,8.667 258.500 C 9.230 260.418,11.317 266.684,11.590 267.275 C 11.724 267.564,11.833 267.873,11.833 267.961 C 11.833 268.223,14.288 274.653,14.998 276.250 C 15.079 276.433,15.610 277.671,16.177 279.000 C 16.744 280.329,17.431 281.904,17.703 282.500 C 17.975 283.096,18.386 283.996,18.616 284.500 C 19.320 286.038,23.073 293.489,23.948 295.083 C 25.609 298.110,27.403 301.278,28.055 302.333 C 28.422 302.929,29.104 304.040,29.570 304.802 C 30.036 305.563,30.529 306.363,30.667 306.579 C 30.804 306.794,31.136 307.332,31.405 307.774 C 31.673 308.216,31.957 308.654,32.036 308.747 C 32.114 308.840,32.835 309.892,33.638 311.083 C 36.034 314.641,36.987 316.017,37.965 317.333 C 42.784 323.819,44.843 326.402,49.462 331.750 C 54.070 337.087,61.883 344.931,67.751 350.113 C 69.541 351.694,69.697 351.827,70.500 352.477 C 70.912 352.810,71.287 353.121,71.333 353.167 C 71.694 353.529,76.855 357.716,77.750 358.372 C 77.842 358.440,78.159 358.689,78.456 358.927 C 80.751 360.765,89.634 367.002,92.143 368.537 C 92.634 368.838,93.212 369.196,93.426 369.333 C 94.810 370.219,100.872 373.860,101.193 373.998 C 101.408 374.090,101.696 374.239,101.833 374.329 C 102.476 374.749,105.020 376.181,105.917 376.628 C 106.467 376.903,108.456 377.905,110.338 378.855 C 114.326 380.870,116.082 381.699,119.833 383.338 C 120.704 383.719,121.731 384.173,122.116 384.348 C 122.500 384.523,122.861 384.667,122.917 384.667 C 123.007 384.667,123.991 385.079,124.917 385.505 C 125.344 385.701,128.781 387.022,130.833 387.778 C 135.817 389.614,144.425 392.359,148.022 393.261 C 148.606 393.407,149.458 393.625,149.917 393.746 C 151.271 394.104,156.488 395.339,157.750 395.601 C 162.786 396.647,163.874 396.845,169.583 397.762 C 171.888 398.132,177.095 398.798,178.583 398.913 C 179.317 398.969,180.404 399.084,181.000 399.168 C 181.596 399.251,182.833 399.362,183.750 399.413 C 185.538 399.514,187.390 399.655,188.333 399.763 C 190.040 399.957,205.926 400.022,209.250 399.847 C 220.311 399.267,229.294 398.193,238.583 396.340 C 242.000 395.659,243.129 395.420,244.667 395.055 C 245.629 394.827,247.017 394.499,247.750 394.327 C 248.483 394.154,249.533 393.893,250.083 393.745 C 250.633 393.597,251.496 393.374,252.000 393.250 C 252.923 393.022,254.507 392.579,256.125 392.095 C 256.606 391.951,257.356 391.731,257.792 391.605 C 259.554 391.097,266.123 388.933,267.750 388.325 C 268.208 388.154,269.708 387.594,271.083 387.080 C 272.458 386.567,273.846 386.034,274.167 385.895 C 274.487 385.757,274.900 385.580,275.083 385.501 C 275.267 385.422,276.092 385.079,276.917 384.738 C 277.742 384.398,278.813 383.943,279.297 383.726 C 279.781 383.510,280.207 383.333,280.243 383.333 C 280.280 383.333,280.822 383.104,281.447 382.823 C 282.072 382.542,282.733 382.247,282.917 382.167 C 283.824 381.771,293.568 376.932,294.583 376.373 C 295.225 376.020,296.275 375.443,296.917 375.092 C 300.328 373.224,310.047 367.313,310.500 366.831 C 310.590 366.735,311.407 366.191,311.870 365.919 C 312.533 365.529,316.620 362.621,319.333 360.609 C 323.359 357.623,329.146 352.939,331.895 350.442 C 332.616 349.786,333.267 349.212,333.340 349.165 C 334.961 348.134,345.443 337.606,349.598 332.835 C 349.957 332.424,350.357 331.974,350.488 331.835 C 351.165 331.121,354.604 327.038,355.754 325.583 C 356.478 324.667,357.172 323.813,357.295 323.687 C 359.016 321.920,366.891 310.618,370.606 304.583 C 374.328 298.535,379.826 288.235,382.169 282.917 C 382.250 282.733,382.545 282.080,382.825 281.465 C 383.104 280.850,383.333 280.308,383.333 280.261 C 383.333 280.214,383.549 279.704,383.812 279.129 C 384.075 278.554,384.532 277.483,384.827 276.750 C 385.123 276.017,385.467 275.192,385.592 274.917 C 385.890 274.266,387.255 270.706,387.414 270.167 C 387.482 269.938,387.638 269.525,387.761 269.250 C 388.015 268.684,388.816 266.384,389.997 262.833 C 390.712 260.682,391.007 259.738,391.949 256.583 C 392.086 256.125,392.261 255.563,392.339 255.333 C 392.417 255.104,392.676 254.167,392.915 253.250 C 393.155 252.333,393.417 251.358,393.498 251.083 C 393.653 250.554,394.594 246.709,395.149 244.333 C 395.331 243.554,395.640 242.092,395.834 241.083 C 396.029 240.075,396.256 239.025,396.339 238.750 C 396.422 238.475,396.538 237.838,396.598 237.333 C 396.657 236.829,396.742 236.356,396.786 236.281 C 396.830 236.207,396.901 235.907,396.944 235.615 C 396.987 235.322,397.135 234.408,397.272 233.583 C 397.958 229.464,398.721 223.829,398.988 220.917 C 399.080 219.908,399.193 218.858,399.239 218.583 C 399.285 218.308,399.402 216.846,399.499 215.333 C 399.597 213.821,399.727 212.058,399.789 211.417 C 400.051 208.724,399.887 186.853,399.602 186.355 C 399.568 186.297,399.488 185.201,399.423 183.919 C 399.357 182.636,399.273 181.537,399.235 181.475 C 399.196 181.413,399.088 180.400,398.994 179.223 C 398.704 175.578,397.599 167.985,396.574 162.583 C 396.453 161.942,396.241 160.817,396.104 160.083 C 395.967 159.350,395.700 158.075,395.509 157.250 C 395.319 156.425,395.080 155.375,394.977 154.917 C 394.875 154.458,394.494 152.921,394.130 151.500 C 393.766 150.079,393.370 148.504,393.250 148.000 C 393.130 147.496,392.756 146.146,392.418 145.000 C 392.081 143.854,391.708 142.579,391.591 142.167 C 391.315 141.201,390.839 139.677,390.679 139.250 C 390.610 139.067,390.387 138.392,390.183 137.750 C 389.635 136.031,388.212 131.935,387.663 130.500 C 385.981 126.106,385.636 125.215,385.500 124.917 C 385.417 124.733,385.153 124.096,384.914 123.500 C 384.674 122.904,384.325 122.082,384.138 121.672 C 383.951 121.262,383.726 120.737,383.639 120.505 C 382.820 118.331,377.529 107.411,376.005 104.750 C 375.795 104.383,375.247 103.408,374.789 102.583 C 372.389 98.268,370.185 94.638,367.205 90.090 C 366.060 88.343,366.286 88.674,363.951 85.333 C 361.952 82.473,358.549 77.831,358.331 77.667 C 358.271 77.621,357.965 77.238,357.652 76.816 C 357.112 76.088,354.516 72.843,354.332 72.667 C 354.284 72.621,353.910 72.171,353.500 71.667 C 353.090 71.162,352.716 70.712,352.669 70.667 C 352.622 70.621,352.097 70.021,351.503 69.333 C 350.909 68.646,350.384 68.046,350.337 68.000 C 350.289 67.954,349.651 67.242,348.920 66.417 C 344.737 61.699,336.435 53.475,332.010 49.667 C 331.424 49.163,330.862 48.668,330.760 48.568 C 330.659 48.467,330.015 47.920,329.330 47.350 C 328.644 46.781,327.746 46.029,327.333 45.679 C 325.356 44.002,316.904 37.533,315.339 36.500 C 315.131 36.362,314.683 36.053,314.344 35.813 C 313.517 35.226,308.543 31.906,307.083 30.966 C 305.571 29.993,299.471 26.341,298.500 25.828 C 298.087 25.610,297.337 25.192,296.833 24.899 C 293.759 23.112,285.946 19.220,281.417 17.219 C 279.858 16.531,278.269 15.825,277.884 15.651 C 277.500 15.476,277.139 15.333,277.083 15.333 C 277.027 15.333,276.667 15.193,276.283 15.020 C 273.775 13.898,265.873 10.975,262.417 9.891 C 261.683 9.661,260.933 9.409,260.750 9.332 C 260.567 9.254,259.892 9.038,259.250 8.852 C 258.608 8.667,257.146 8.242,256.000 7.910 C 253.577 7.206,252.175 6.816,250.667 6.422 C 250.071 6.267,249.321 6.071,249.000 5.986 C 247.456 5.577,243.365 4.644,241.500 4.274 C 240.354 4.047,239.192 3.814,238.917 3.757 C 236.320 3.212,230.593 2.265,227.333 1.840 C 225.821 1.643,224.096 1.408,223.500 1.317 C 222.904 1.226,221.629 1.084,220.667 1.000 C 219.704 0.917,218.054 0.772,217.000 0.678 C 211.151 0.158,194.229 -0.249,192.667 0.093 M254.750 68.668 C 260.564 68.833,266.902 69.182,269.750 69.495 C 270.575 69.586,272.030 69.742,272.983 69.842 C 278.672 70.441,283.901 71.721,286.667 73.193 C 292.140 76.106,295.456 79.313,297.839 84.000 C 299.994 88.237,301.901 89.779,307.417 91.745 C 312.297 93.485,314.117 94.333,316.611 96.028 C 323.260 100.548,326.911 108.724,327.285 119.936 L 327.380 122.789 330.732 123.322 C 334.769 123.965,335.925 124.161,336.583 124.313 C 337.069 124.425,337.089 124.468,337.279 125.839 C 337.927 130.511,337.016 146.169,335.493 156.538 C 334.316 164.544,333.321 170.022,332.576 172.584 C 332.289 173.572,332.295 173.570,328.917 174.082 C 322.518 175.053,309.396 174.452,308.072 173.127 C 306.952 172.007,306.002 139.889,306.917 134.083 C 306.960 133.808,307.073 132.421,307.168 131.000 C 307.262 129.579,307.419 127.854,307.516 127.166 L 307.693 125.916 309.388 124.807 C 311.001 123.752,314.182 121.706,314.935 121.240 C 315.354 120.981,315.340 120.504,314.811 117.000 C 313.666 109.405,310.883 105.842,304.202 103.417 C 303.594 103.196,303.067 103.044,303.033 103.079 C 302.760 103.351,302.653 138.558,302.776 187.083 C 302.998 274.334,303.088 268.506,301.416 275.417 C 298.641 286.890,290.106 294.673,277.167 297.530 L 275.417 297.917 200.083 297.857 C 126.172 297.798,124.717 297.791,123.000 297.471 C 105.718 294.254,98.165 283.631,97.067 261.000 C 97.007 259.762,96.949 223.750,96.938 180.972 C 96.926 138.194,96.872 103.150,96.817 103.095 C 96.687 102.964,94.085 104.019,92.487 104.850 C 87.969 107.201,85.755 111.356,85.259 118.417 C 85.201 119.242,85.117 120.154,85.072 120.443 C 84.989 120.978,88.932 123.889,90.979 124.806 C 91.327 124.961,91.997 125.383,92.469 125.743 L 93.327 126.397 93.249 128.324 C 93.206 129.383,93.131 132.237,93.082 134.667 C 93.033 137.096,92.885 144.258,92.752 150.583 C 92.620 156.908,92.461 164.521,92.399 167.500 C 92.259 174.235,92.549 173.525,89.720 174.059 C 75.378 176.765,69.500 175.286,66.638 168.250 C 65.974 166.619,65.448 162.778,64.914 155.667 C 64.495 150.095,64.194 147.218,63.501 142.167 C 62.514 134.984,62.285 130.165,62.750 126.432 C 63.043 124.082,62.873 124.321,64.369 124.158 C 65.037 124.085,66.671 123.908,68.000 123.765 C 71.697 123.367,72.652 123.237,72.775 123.114 C 72.836 123.052,72.947 121.820,73.021 120.376 C 73.159 117.661,73.179 117.479,73.606 114.833 C 75.164 105.177,79.599 98.191,86.873 93.933 C 90.132 92.025,92.973 90.951,95.702 90.593 C 98.037 90.287,97.946 90.371,101.082 85.667 C 108.712 74.223,114.479 70.793,127.833 69.754 C 128.521 69.701,129.833 69.581,130.750 69.489 C 137.737 68.784,160.517 68.456,176.750 68.828 C 191.512 69.166,204.683 69.231,212.500 69.005 C 229.204 68.522,245.100 68.395,254.750 68.668 M250.583 78.326 C 247.833 78.395,243.764 78.510,241.540 78.581 L 237.497 78.709 236.661 79.773 C 235.463 81.297,234.081 83.448,232.833 85.731 C 230.962 89.153,230.059 89.772,226.086 90.358 C 225.395 90.460,217.929 90.588,207.833 90.671 C 198.438 90.748,187.825 90.864,184.250 90.928 C 170.331 91.179,167.392 89.657,164.719 80.815 L 164.083 78.713 162.000 78.609 C 157.431 78.382,134.284 78.289,131.167 78.486 C 114.910 79.509,109.912 84.245,107.846 100.583 C 106.867 108.327,106.772 112.196,106.758 144.833 L 106.746 174.417 106.273 181.750 C 105.048 200.715,105.996 210.510,109.406 214.151 C 112.062 216.985,123.625 219.549,139.917 220.915 C 140.558 220.969,141.833 221.085,142.750 221.174 C 146.785 221.566,157.827 222.154,168.250 222.533 C 175.727 222.804,209.156 222.804,217.250 222.531 C 233.424 221.988,243.567 221.431,255.667 220.424 C 257.362 220.282,259.012 220.129,259.333 220.083 C 259.654 220.037,261.079 219.887,262.500 219.751 C 273.600 218.684,284.405 216.836,289.189 215.187 C 290.024 214.899,292.367 213.993,292.457 213.923 C 292.712 213.725,293.424 207.427,293.748 202.500 C 294.374 193.007,294.496 169.671,294.006 153.000 C 293.721 143.284,293.496 132.297,293.329 119.917 C 293.137 105.668,292.899 101.488,292.019 96.917 C 288.944 80.948,281.370 77.550,250.583 78.326 M122.917 231.690 C 109.273 233.413,103.904 246.332,108.169 267.181 C 110.106 276.654,113.145 279.396,123.833 281.315 C 138.063 283.869,148.010 281.468,152.963 274.285 C 158.465 266.303,157.845 251.753,151.686 244.333 C 144.690 235.905,132.379 230.494,122.917 231.690 M275.833 231.749 C 268.294 232.667,258.027 236.541,252.936 240.389 C 247.176 244.743,244.743 250.125,244.550 258.941 C 244.156 276.940,251.922 283.437,271.917 281.836 C 290.480 280.350,294.500 274.116,292.668 249.667 C 291.632 235.849,286.554 230.444,275.833 231.749 M277.997 303.792 C 277.995 304.135,277.922 305.092,277.833 305.917 C 277.745 306.742,277.516 308.992,277.325 310.917 C 277.135 312.842,276.871 315.467,276.739 316.750 C 276.447 319.588,276.032 323.856,275.774 326.667 L 275.583 328.750 274.748 329.197 C 270.657 331.390,260.384 332.185,254.833 330.737 C 248.255 329.022,247.206 325.476,247.901 307.293 L 248.053 303.335 260.151 303.292 C 266.806 303.268,273.544 303.230,275.125 303.207 L 278.000 303.167 277.997 303.792 M143.083 304.263 C 147.941 304.317,151.933 304.378,151.955 304.399 C 151.976 304.420,151.881 306.758,151.743 309.594 C 151.606 312.430,151.383 317.184,151.248 320.159 C 150.922 327.347,150.963 327.086,150.019 327.961 C 144.665 332.922,129.340 332.531,123.731 327.290 L 122.704 326.330 122.605 322.623 C 122.255 309.549,122.157 304.318,122.256 304.157 C 122.336 304.027,124.084 304.002,128.309 304.070 C 131.577 304.122,138.225 304.209,143.083 304.263 " stroke="none" fill="#fc8b94" fill-rule="evenodd"></path><path id="path1" d="M146.583 68.833 C 128.116 69.217,117.650 70.635,113.167 73.362 C 108.539 76.176,105.232 79.569,101.240 85.595 C 98.208 90.173,97.954 90.430,96.333 90.572 C 90.527 91.081,83.235 95.460,79.231 100.842 C 75.430 105.950,73.000 114.278,73.000 122.193 C 73.000 123.074,72.945 123.333,72.760 123.333 C 71.653 123.333,63.230 124.397,63.137 124.549 C 62.872 124.977,62.750 127.151,62.757 131.333 C 62.764 135.763,62.911 137.548,63.753 143.500 C 64.134 146.187,64.794 152.223,64.911 154.083 C 65.495 163.374,66.045 166.850,67.379 169.667 C 70.002 175.207,76.548 176.447,89.909 173.934 C 91.069 173.716,92.050 173.505,92.090 173.466 C 92.129 173.427,92.274 167.999,92.413 161.406 C 92.733 146.144,92.963 135.683,93.094 130.497 L 93.196 126.411 92.244 125.706 C 91.720 125.318,91.221 125.000,91.134 125.000 C 91.048 125.000,89.622 124.121,87.966 123.048 L 84.956 121.095 85.068 119.339 C 85.493 112.732,87.165 108.581,90.417 106.069 C 91.907 104.917,96.489 102.766,96.796 103.074 C 97.057 103.334,97.178 143.312,97.084 198.167 C 96.970 264.937,96.943 263.267,98.266 271.167 C 100.835 286.513,108.602 294.805,122.750 297.308 L 124.750 297.662 199.226 297.821 C 273.003 297.979,273.720 297.978,275.721 297.651 C 288.670 295.539,298.088 287.579,301.143 276.167 C 302.950 269.413,302.907 271.487,302.665 203.667 C 302.472 149.637,302.589 103.355,302.920 103.025 C 303.186 102.758,306.857 104.311,308.582 105.420 C 312.177 107.731,314.096 111.342,315.001 117.500 C 315.582 121.452,316.219 120.515,310.422 124.237 C 307.399 126.178,307.744 125.511,307.342 130.184 C 306.192 143.546,306.759 172.163,308.191 173.058 C 311.102 174.877,331.646 174.892,332.336 173.075 C 333.249 170.676,335.327 158.174,336.256 149.500 C 337.440 138.445,337.808 126.177,337.001 124.669 C 336.880 124.443,336.208 124.281,333.882 123.918 C 329.609 123.252,327.502 122.892,327.436 122.816 C 327.404 122.780,327.292 121.325,327.187 119.583 C 326.255 104.101,321.366 96.950,308.500 92.250 C 301.827 89.812,300.163 88.564,297.914 84.310 C 293.641 76.223,287.544 72.256,276.583 70.429 C 266.521 68.752,241.969 68.191,215.000 69.021 C 206.327 69.289,194.088 69.298,182.667 69.046 C 169.899 68.764,154.340 68.672,146.583 68.833 M157.628 78.444 L 164.174 78.553 164.269 78.985 C 165.715 85.534,168.746 89.288,173.432 90.335 C 175.130 90.714,180.751 91.089,182.167 90.918 C 182.671 90.857,192.121 90.742,203.167 90.662 C 231.330 90.460,230.026 90.684,232.833 85.570 C 234.183 83.111,234.906 81.974,236.286 80.140 L 237.372 78.697 239.228 78.593 C 257.352 77.574,272.688 78.191,278.990 80.195 C 290.113 83.731,292.955 90.840,293.332 116.083 C 293.417 121.767,293.566 129.942,293.664 134.250 C 293.761 138.558,293.948 146.846,294.078 152.667 C 294.787 184.270,294.437 201.895,292.897 212.050 L 292.625 213.849 291.789 214.272 C 284.652 217.889,258.061 221.118,225.500 222.323 C 212.078 222.820,207.729 222.895,192.333 222.894 C 176.876 222.893,172.996 222.823,160.833 222.329 C 133.212 221.205,113.758 218.260,109.693 214.587 C 106.942 212.102,105.669 206.013,105.667 195.333 C 105.666 190.858,106.208 178.240,106.440 177.333 C 106.499 177.104,106.600 162.292,106.665 144.417 C 106.789 110.308,106.821 108.811,107.586 102.000 C 109.273 86.985,113.287 81.336,123.749 79.254 C 129.112 78.187,134.446 78.059,157.628 78.444 M131.167 231.992 C 141.566 234.214,152.132 242.018,154.836 249.473 C 158.504 259.586,156.961 270.799,151.105 276.589 C 145.801 281.833,136.177 283.722,125.250 281.664 C 112.942 279.347,110.216 277.165,108.275 268.083 C 103.796 247.127,108.614 234.248,121.872 231.740 C 123.787 231.378,128.946 231.518,131.167 231.992 M281.446 231.670 C 288.849 232.871,292.040 238.518,292.907 251.947 C 294.369 274.611,289.915 280.724,271.000 282.012 C 253.242 283.221,245.686 277.827,244.488 263.085 C 243.352 249.118,248.427 240.870,261.333 235.709 C 269.540 232.428,276.948 230.940,281.446 231.670 M250.726 303.458 L 248.202 303.508 248.059 306.463 C 247.098 326.350,248.445 329.875,257.500 331.182 C 263.209 332.006,275.500 330.183,275.500 328.512 C 275.500 328.442,275.833 325.054,276.239 320.984 C 276.645 316.914,277.170 311.596,277.404 309.167 C 277.639 306.737,277.873 304.431,277.926 304.042 L 278.020 303.333 265.635 303.370 C 258.823 303.391,252.114 303.430,250.726 303.458 M122.411 310.443 C 122.478 313.912,122.587 318.880,122.652 321.484 L 122.771 326.219 123.882 327.271 C 129.336 332.439,144.605 332.783,149.986 327.859 L 150.835 327.083 151.003 323.500 C 151.096 321.529,151.242 318.529,151.328 316.833 C 151.646 310.587,151.887 304.498,151.819 304.438 C 151.781 304.404,145.121 304.322,137.019 304.256 L 122.288 304.136 122.411 310.443 " stroke="none" fill="#e40404" fill-rule="evenodd"></path><path id="path2" d="M238.386 68.625 C 240.478 68.651,243.853 68.651,245.886 68.625 C 247.920 68.598,246.208 68.577,242.083 68.577 C 237.958 68.577,236.295 68.598,238.386 68.625 M149.208 68.791 C 149.919 68.822,151.081 68.822,151.792 68.791 C 152.502 68.759,151.921 68.734,150.500 68.734 C 149.079 68.734,148.498 68.759,149.208 68.791 M165.542 68.791 C 166.435 68.821,167.898 68.821,168.792 68.791 C 169.685 68.761,168.954 68.736,167.167 68.736 C 165.379 68.736,164.648 68.761,165.542 68.791 M225.381 68.790 C 225.912 68.823,226.737 68.823,227.214 68.789 C 227.692 68.756,227.258 68.729,226.250 68.729 C 225.242 68.729,224.851 68.757,225.381 68.790 M255.042 68.788 C 255.385 68.824,255.948 68.824,256.292 68.788 C 256.635 68.752,256.354 68.723,255.667 68.723 C 254.979 68.723,254.698 68.752,255.042 68.788 M178.125 68.951 C 178.331 68.991,178.669 68.991,178.875 68.951 C 179.081 68.911,178.912 68.879,178.500 68.879 C 178.088 68.879,177.919 68.911,178.125 68.951 M218.460 68.951 C 218.668 68.991,218.968 68.990,219.127 68.948 C 219.286 68.906,219.117 68.874,218.750 68.875 C 218.383 68.877,218.253 68.911,218.460 68.951 M186.958 69.118 C 187.165 69.157,187.502 69.157,187.708 69.118 C 187.915 69.078,187.746 69.045,187.333 69.045 C 186.921 69.045,186.752 69.078,186.958 69.118 M211.042 69.115 C 211.202 69.157,211.465 69.157,211.625 69.115 C 211.785 69.073,211.654 69.039,211.333 69.039 C 211.012 69.039,210.881 69.073,211.042 69.115 M134.875 69.282 C 135.035 69.323,135.298 69.323,135.458 69.282 C 135.619 69.240,135.487 69.205,135.167 69.205 C 134.846 69.205,134.715 69.240,134.875 69.282 M194.534 69.290 C 195.149 69.322,196.199 69.322,196.868 69.291 C 197.536 69.259,197.033 69.233,195.750 69.232 C 194.467 69.232,193.920 69.258,194.534 69.290 M202.715 69.290 C 203.338 69.323,204.313 69.322,204.882 69.290 C 205.451 69.257,204.942 69.231,203.750 69.231 C 202.558 69.232,202.093 69.258,202.715 69.290 M135.455 78.287 C 135.750 78.324,136.275 78.324,136.621 78.288 C 136.967 78.252,136.725 78.222,136.083 78.221 C 135.442 78.221,135.159 78.250,135.455 78.287 M142.464 78.290 C 142.948 78.324,143.698 78.323,144.131 78.289 C 144.563 78.255,144.167 78.227,143.250 78.228 C 142.333 78.228,141.980 78.256,142.464 78.290 M250.544 78.286 C 250.797 78.325,251.172 78.324,251.377 78.284 C 251.582 78.244,251.375 78.213,250.917 78.214 C 250.458 78.216,250.291 78.248,250.544 78.286 M130.792 78.451 C 130.998 78.491,131.335 78.491,131.542 78.451 C 131.748 78.411,131.579 78.379,131.167 78.379 C 130.754 78.379,130.585 78.411,130.792 78.451 M152.458 78.457 C 153.123 78.489,154.210 78.489,154.875 78.457 C 155.540 78.425,154.996 78.400,153.667 78.400 C 152.337 78.400,151.794 78.425,152.458 78.457 M244.463 78.456 C 244.855 78.491,245.455 78.490,245.796 78.454 C 246.137 78.419,245.817 78.390,245.083 78.390 C 244.350 78.391,244.071 78.420,244.463 78.456 M267.794 78.451 C 268.001 78.491,268.301 78.490,268.460 78.448 C 268.620 78.406,268.450 78.374,268.083 78.375 C 267.717 78.377,267.586 78.411,267.794 78.451 M239.542 78.619 C 239.794 78.658,240.206 78.658,240.458 78.619 C 240.710 78.581,240.504 78.550,240.000 78.550 C 239.496 78.550,239.290 78.581,239.542 78.619 M224.042 90.448 C 224.202 90.490,224.465 90.490,224.625 90.448 C 224.785 90.406,224.654 90.372,224.333 90.372 C 224.012 90.372,223.881 90.406,224.042 90.448 M219.042 90.619 C 219.294 90.658,219.706 90.658,219.958 90.619 C 220.210 90.581,220.004 90.550,219.500 90.550 C 218.996 90.550,218.790 90.581,219.042 90.619 M178.128 90.954 C 178.428 90.991,178.878 90.990,179.128 90.952 C 179.378 90.914,179.133 90.884,178.583 90.885 C 178.033 90.886,177.828 90.917,178.128 90.954 M183.047 90.956 C 183.485 90.990,184.160 90.990,184.547 90.955 C 184.934 90.920,184.575 90.892,183.750 90.892 C 182.925 90.893,182.609 90.922,183.047 90.956 M293.039 105.667 C 293.039 105.987,293.073 106.119,293.115 105.958 C 293.157 105.798,293.157 105.535,293.115 105.375 C 293.073 105.215,293.039 105.346,293.039 105.667 M96.896 107.417 C 96.896 108.425,96.924 108.816,96.957 108.286 C 96.990 107.755,96.990 106.930,96.956 106.452 C 96.922 105.974,96.895 106.408,96.896 107.417 M106.879 111.667 C 106.879 112.079,106.911 112.248,106.951 112.042 C 106.991 111.835,106.991 111.498,106.951 111.292 C 106.911 111.085,106.879 111.254,106.879 111.667 M302.723 112.833 C 302.723 113.521,302.752 113.802,302.788 113.458 C 302.824 113.115,302.824 112.552,302.788 112.208 C 302.752 111.865,302.723 112.146,302.723 112.833 M106.714 116.417 C 106.716 116.875,106.748 117.043,106.786 116.789 C 106.825 116.536,106.824 116.161,106.784 115.956 C 106.744 115.751,106.713 115.958,106.714 116.417 M327.205 120.000 C 327.205 120.321,327.240 120.452,327.282 120.292 C 327.323 120.131,327.323 119.869,327.282 119.708 C 327.240 119.548,327.205 119.679,327.205 120.000 M293.392 122.000 C 293.392 122.779,293.420 123.098,293.455 122.708 C 293.490 122.319,293.490 121.681,293.455 121.292 C 293.420 120.902,293.392 121.221,293.392 122.000 M337.379 128.667 C 337.379 129.079,337.411 129.248,337.451 129.042 C 337.491 128.835,337.491 128.498,337.451 128.292 C 337.411 128.085,337.379 128.254,337.379 128.667 M62.561 130.750 C 62.561 131.667,62.589 132.020,62.623 131.536 C 62.657 131.052,62.656 130.302,62.622 129.869 C 62.588 129.437,62.560 129.833,62.561 130.750 M93.045 130.833 C 93.045 131.246,93.078 131.415,93.118 131.208 C 93.157 131.002,93.157 130.665,93.118 130.458 C 93.078 130.252,93.045 130.421,93.045 130.833 M97.082 168.667 C 97.082 189.887,97.101 198.569,97.125 187.958 C 97.149 177.348,97.149 159.985,97.125 149.375 C 97.101 138.765,97.082 147.446,97.082 168.667 M307.205 130.667 C 307.205 130.987,307.240 131.119,307.282 130.958 C 307.323 130.798,307.323 130.535,307.282 130.375 C 307.240 130.215,307.205 130.346,307.205 130.667 M293.557 132.417 C 293.558 133.150,293.587 133.429,293.622 133.037 C 293.657 132.645,293.657 132.045,293.621 131.704 C 293.585 131.363,293.557 131.683,293.557 132.417 M302.569 136.250 C 302.569 137.900,302.594 138.552,302.624 137.700 C 302.655 136.847,302.654 135.497,302.624 134.700 C 302.593 133.902,302.569 134.600,302.569 136.250 M337.385 134.250 C 337.386 134.800,337.417 135.005,337.454 134.705 C 337.491 134.406,337.490 133.956,337.452 133.705 C 337.414 133.455,337.384 133.700,337.385 134.250 M293.727 139.500 C 293.727 140.371,293.755 140.727,293.789 140.292 C 293.824 139.856,293.824 139.144,293.789 138.708 C 293.755 138.273,293.727 138.629,293.727 139.500 M92.879 139.167 C 92.879 139.579,92.911 139.748,92.951 139.542 C 92.991 139.335,92.991 138.998,92.951 138.792 C 92.911 138.585,92.879 138.754,92.879 139.167 M306.723 140.833 C 306.723 141.521,306.752 141.802,306.788 141.458 C 306.824 141.115,306.824 140.552,306.788 140.208 C 306.752 139.865,306.723 140.146,306.723 140.833 M336.872 142.833 C 336.872 143.154,336.906 143.285,336.948 143.125 C 336.990 142.965,336.990 142.702,336.948 142.542 C 336.906 142.381,336.872 142.512,336.872 142.833 M293.881 146.250 C 293.882 146.708,293.915 146.876,293.953 146.623 C 293.991 146.369,293.990 145.994,293.951 145.789 C 293.911 145.584,293.880 145.792,293.881 146.250 M92.725 147.333 C 92.725 148.112,92.754 148.431,92.789 148.042 C 92.824 147.652,92.824 147.015,92.789 146.625 C 92.754 146.235,92.725 146.554,92.725 147.333 M294.056 154.000 C 294.056 154.688,294.085 154.969,294.121 154.625 C 294.157 154.281,294.157 153.719,294.121 153.375 C 294.085 153.031,294.056 153.313,294.056 154.000 M92.562 154.917 C 92.563 155.925,92.590 156.316,92.623 155.786 C 92.657 155.255,92.656 154.430,92.623 153.952 C 92.589 153.474,92.562 153.908,92.562 154.917 M306.721 157.417 C 306.722 158.058,306.752 158.300,306.788 157.955 C 306.824 157.609,306.824 157.084,306.787 156.788 C 306.750 156.492,306.721 156.775,306.721 157.417 M65.205 159.167 C 65.205 159.487,65.240 159.619,65.282 159.458 C 65.323 159.298,65.323 159.035,65.282 158.875 C 65.240 158.715,65.205 158.846,65.205 159.167 M294.233 162.167 C 294.233 163.496,294.259 164.040,294.290 163.375 C 294.322 162.710,294.322 161.623,294.290 160.958 C 294.259 160.294,294.233 160.837,294.233 162.167 M92.385 162.417 C 92.386 162.967,92.417 163.172,92.454 162.872 C 92.491 162.572,92.490 162.122,92.452 161.872 C 92.414 161.622,92.384 161.867,92.385 162.417 M92.220 170.667 C 92.220 171.262,92.250 171.506,92.287 171.208 C 92.324 170.910,92.324 170.423,92.287 170.125 C 92.250 169.827,92.220 170.071,92.220 170.667 M294.409 179.083 C 294.409 182.567,294.431 184.015,294.458 182.303 C 294.485 180.590,294.485 177.740,294.458 175.969 C 294.431 174.199,294.409 175.600,294.409 179.083 M315.542 174.448 C 315.702 174.490,315.965 174.490,316.125 174.448 C 316.285 174.406,316.154 174.372,315.833 174.372 C 315.512 174.372,315.381 174.406,315.542 174.448 M324.375 174.448 C 324.535 174.490,324.798 174.490,324.958 174.448 C 325.119 174.406,324.987 174.372,324.667 174.372 C 324.346 174.372,324.215 174.406,324.375 174.448 M319.464 174.623 C 319.948 174.657,320.698 174.656,321.131 174.622 C 321.563 174.588,321.167 174.560,320.250 174.561 C 319.333 174.561,318.980 174.589,319.464 174.623 M78.458 175.284 C 78.665 175.324,79.002 175.324,79.208 175.284 C 79.415 175.245,79.246 175.212,78.833 175.212 C 78.421 175.212,78.252 175.245,78.458 175.284 M302.572 180.167 C 302.572 182.321,302.595 183.202,302.624 182.125 C 302.653 181.048,302.653 179.285,302.624 178.208 C 302.595 177.131,302.572 178.012,302.572 180.167 M106.372 177.667 C 106.372 177.987,106.406 178.119,106.448 177.958 C 106.490 177.798,106.490 177.535,106.448 177.375 C 106.406 177.215,106.372 177.346,106.372 177.667 M106.209 180.250 C 106.211 180.617,106.245 180.747,106.285 180.540 C 106.324 180.332,106.323 180.032,106.281 179.873 C 106.239 179.714,106.207 179.883,106.209 180.250 M105.724 190.417 C 105.724 191.150,105.754 191.429,105.789 191.037 C 105.824 190.645,105.824 190.045,105.788 189.704 C 105.752 189.363,105.723 189.683,105.724 190.417 M294.227 193.000 C 294.227 193.871,294.255 194.227,294.289 193.792 C 294.324 193.356,294.324 192.644,294.289 192.208 C 294.255 191.773,294.227 192.129,294.227 193.000 M294.042 197.750 C 294.044 198.117,294.078 198.247,294.118 198.040 C 294.158 197.832,294.156 197.532,294.115 197.373 C 294.073 197.214,294.040 197.383,294.042 197.750 M105.720 199.833 C 105.720 200.429,105.750 200.673,105.787 200.375 C 105.824 200.077,105.824 199.590,105.787 199.292 C 105.750 198.994,105.720 199.237,105.720 199.833 M293.705 203.833 C 293.705 204.154,293.740 204.285,293.782 204.125 C 293.823 203.965,293.823 203.702,293.782 203.542 C 293.740 203.381,293.705 203.512,293.705 203.833 M302.737 222.583 C 302.737 224.417,302.761 225.189,302.791 224.301 C 302.821 223.412,302.821 221.912,302.791 220.967 C 302.761 220.023,302.737 220.750,302.737 222.583 M256.208 220.448 C 256.369 220.490,256.631 220.490,256.792 220.448 C 256.952 220.406,256.821 220.372,256.500 220.372 C 256.179 220.372,256.048 220.406,256.208 220.448 M138.875 220.948 C 139.035 220.990,139.298 220.990,139.458 220.948 C 139.619 220.906,139.487 220.872,139.167 220.872 C 138.846 220.872,138.715 220.906,138.875 220.948 M250.127 220.951 C 250.334 220.991,250.634 220.990,250.794 220.948 C 250.953 220.906,250.783 220.874,250.417 220.875 C 250.050 220.877,249.920 220.911,250.127 220.951 M240.208 221.615 C 240.369 221.657,240.631 221.657,240.792 221.615 C 240.952 221.573,240.821 221.539,240.500 221.539 C 240.179 221.539,240.048 221.573,240.208 221.615 M155.627 222.118 C 155.834 222.158,156.134 222.156,156.294 222.115 C 156.453 222.073,156.283 222.040,155.917 222.042 C 155.550 222.044,155.420 222.078,155.627 222.118 M230.458 222.118 C 230.665 222.157,231.002 222.157,231.208 222.118 C 231.415 222.078,231.246 222.045,230.833 222.045 C 230.421 222.045,230.252 222.078,230.458 222.118 M168.044 222.620 C 168.297 222.658,168.672 222.657,168.877 222.617 C 169.082 222.578,168.875 222.546,168.417 222.548 C 167.958 222.549,167.791 222.581,168.044 222.620 M216.542 222.619 C 216.794 222.658,217.206 222.658,217.458 222.619 C 217.710 222.581,217.504 222.550,217.000 222.550 C 216.496 222.550,216.290 222.581,216.542 222.619 M173.292 222.787 C 173.590 222.824,174.077 222.824,174.375 222.787 C 174.673 222.750,174.429 222.720,173.833 222.720 C 173.237 222.720,172.994 222.750,173.292 222.787 M210.625 222.787 C 210.923 222.824,211.410 222.824,211.708 222.787 C 212.006 222.750,211.762 222.720,211.167 222.720 C 210.571 222.720,210.327 222.750,210.625 222.787 M183.875 222.956 C 184.310 222.990,185.023 222.990,185.458 222.956 C 185.894 222.922,185.537 222.893,184.667 222.893 C 183.796 222.893,183.440 222.922,183.875 222.956 M199.125 222.956 C 199.606 222.990,200.394 222.990,200.875 222.956 C 201.356 222.923,200.963 222.895,200.000 222.895 C 199.037 222.895,198.644 222.923,199.125 222.956 M112.409 236.542 L 111.750 237.250 112.458 236.591 C 112.848 236.229,113.167 235.910,113.167 235.883 C 113.167 235.757,113.022 235.883,112.409 236.542 M293.048 255.583 C 293.049 256.042,293.081 256.209,293.120 255.956 C 293.158 255.703,293.157 255.328,293.117 255.123 C 293.078 254.918,293.046 255.125,293.048 255.583 M244.379 257.833 C 244.379 258.246,244.411 258.415,244.451 258.208 C 244.491 258.002,244.491 257.665,244.451 257.458 C 244.411 257.252,244.379 257.421,244.379 257.833 M156.712 259.500 C 156.712 259.912,156.745 260.081,156.784 259.875 C 156.824 259.669,156.824 259.331,156.784 259.125 C 156.745 258.919,156.712 259.087,156.712 259.500 M97.048 259.750 C 97.049 260.208,97.081 260.376,97.120 260.123 C 97.158 259.869,97.157 259.494,97.117 259.289 C 97.078 259.084,97.046 259.292,97.048 259.750 M244.379 261.500 C 244.379 261.912,244.411 262.081,244.451 261.875 C 244.491 261.669,244.491 261.331,244.451 261.125 C 244.411 260.919,244.379 261.087,244.379 261.500 M156.714 262.250 C 156.716 262.708,156.748 262.876,156.786 262.623 C 156.825 262.369,156.824 261.994,156.784 261.789 C 156.744 261.584,156.713 261.792,156.714 262.250 M293.042 262.917 C 293.044 263.283,293.078 263.414,293.118 263.206 C 293.158 262.999,293.156 262.699,293.115 262.540 C 293.073 262.380,293.040 262.550,293.042 262.917 M150.792 297.792 C 155.123 297.816,162.210 297.816,166.542 297.792 C 170.873 297.767,167.329 297.747,158.667 297.747 C 150.004 297.747,146.460 297.767,150.792 297.792 M239.886 297.958 C 241.886 297.985,245.111 297.985,247.053 297.958 C 248.995 297.931,247.358 297.910,243.417 297.910 C 239.475 297.910,237.886 297.932,239.886 297.958 M248.109 303.458 C 248.066 303.527,248.830 303.564,249.807 303.540 C 252.966 303.462,253.309 303.396,250.718 303.364 C 249.326 303.347,248.151 303.390,248.109 303.458 M136.131 304.290 C 136.615 304.324,137.365 304.323,137.797 304.289 C 138.230 304.255,137.833 304.227,136.917 304.228 C 136.000 304.228,135.646 304.256,136.131 304.290 M151.872 304.833 C 151.872 305.154,151.906 305.285,151.948 305.125 C 151.990 304.965,151.990 304.702,151.948 304.542 C 151.906 304.381,151.872 304.512,151.872 304.833 M248.052 305.417 C 248.053 305.967,248.084 306.172,248.121 305.872 C 248.158 305.572,248.157 305.122,248.119 304.872 C 248.081 304.622,248.051 304.867,248.052 305.417 M151.714 308.417 C 151.716 308.875,151.748 309.043,151.786 308.789 C 151.825 308.536,151.824 308.161,151.784 307.956 C 151.744 307.751,151.713 307.958,151.714 308.417 M122.383 311.667 C 122.383 312.171,122.415 312.377,122.453 312.125 C 122.491 311.873,122.491 311.460,122.453 311.208 C 122.415 310.956,122.383 311.162,122.383 311.667 M247.736 316.000 C 247.736 317.787,247.761 318.519,247.791 317.625 C 247.821 316.731,247.821 315.269,247.791 314.375 C 247.761 313.481,247.736 314.212,247.736 316.000 M122.559 319.917 C 122.559 320.742,122.587 321.100,122.622 320.713 C 122.657 320.327,122.657 319.652,122.623 319.213 C 122.588 318.775,122.560 319.092,122.559 319.917 M136.880 331.456 C 137.318 331.490,137.993 331.490,138.380 331.455 C 138.767 331.420,138.408 331.392,137.583 331.392 C 136.758 331.393,136.442 331.422,136.880 331.456 M263.375 331.448 C 263.535 331.490,263.798 331.490,263.958 331.448 C 264.119 331.406,263.987 331.372,263.667 331.372 C 263.346 331.372,263.215 331.406,263.375 331.448 " stroke="none" fill="#f42d51" fill-rule="evenodd"></path><path id="path3" d="M233.875 68.615 C 234.035 68.657,234.298 68.657,234.458 68.615 C 234.619 68.573,234.487 68.539,234.167 68.539 C 233.846 68.539,233.715 68.573,233.875 68.615 M147.127 68.785 C 147.334 68.824,147.634 68.823,147.794 68.781 C 147.953 68.739,147.783 68.707,147.417 68.709 C 147.050 68.711,146.920 68.745,147.127 68.785 M170.708 68.786 C 170.960 68.824,171.373 68.824,171.625 68.786 C 171.877 68.748,171.671 68.717,171.167 68.717 C 170.662 68.717,170.456 68.748,170.708 68.786 M223.708 68.782 C 223.869 68.823,224.131 68.823,224.292 68.782 C 224.452 68.740,224.321 68.705,224.000 68.705 C 223.679 68.705,223.548 68.740,223.708 68.782 M198.875 69.290 C 199.402 69.323,200.265 69.323,200.792 69.290 C 201.319 69.257,200.887 69.230,199.833 69.230 C 198.779 69.230,198.348 69.257,198.875 69.290 M138.201 78.290 C 138.816 78.322,139.866 78.322,140.534 78.291 C 141.203 78.259,140.700 78.233,139.417 78.232 C 138.133 78.232,137.586 78.258,138.201 78.290 M251.875 78.282 C 252.035 78.323,252.298 78.323,252.458 78.282 C 252.619 78.240,252.487 78.205,252.167 78.205 C 251.846 78.205,251.715 78.240,251.875 78.282 M302.875 104.417 C 302.877 104.783,302.911 104.914,302.951 104.706 C 302.991 104.499,302.990 104.199,302.948 104.040 C 302.906 103.880,302.874 104.050,302.875 104.417 M293.218 109.750 C 293.219 110.300,293.250 110.505,293.287 110.205 C 293.325 109.906,293.324 109.456,293.286 109.205 C 293.248 108.955,293.217 109.200,293.218 109.750 M96.875 109.750 C 96.877 110.117,96.911 110.247,96.951 110.040 C 96.991 109.832,96.990 109.532,96.948 109.373 C 96.906 109.214,96.874 109.383,96.875 109.750 M302.735 116.833 C 302.735 118.438,302.760 119.094,302.791 118.292 C 302.821 117.490,302.821 116.177,302.791 115.375 C 302.760 114.573,302.735 115.229,302.735 116.833 M106.728 118.750 C 106.728 119.667,106.756 120.020,106.790 119.536 C 106.824 119.052,106.823 118.302,106.789 117.869 C 106.755 117.437,106.727 117.833,106.728 118.750 M293.379 124.000 C 293.379 124.412,293.411 124.581,293.451 124.375 C 293.491 124.169,293.491 123.831,293.451 123.625 C 293.411 123.419,293.379 123.587,293.379 124.000 M93.059 132.917 C 93.059 133.742,93.087 134.100,93.122 133.713 C 93.157 133.327,93.157 132.652,93.123 132.213 C 93.088 131.775,93.060 132.092,93.059 132.917 M62.539 132.833 C 62.539 133.154,62.573 133.285,62.615 133.125 C 62.657 132.965,62.657 132.702,62.615 132.542 C 62.573 132.381,62.539 132.512,62.539 132.833 M302.569 142.000 C 302.569 143.604,302.594 144.260,302.624 143.458 C 302.655 142.656,302.655 141.344,302.624 140.542 C 302.594 139.740,302.569 140.396,302.569 142.000 M92.872 140.333 C 92.872 140.654,92.906 140.785,92.948 140.625 C 92.990 140.465,92.990 140.202,92.948 140.042 C 92.906 139.881,92.872 140.012,92.872 140.333 M293.709 141.583 C 293.711 141.950,293.745 142.080,293.785 141.873 C 293.824 141.666,293.823 141.366,293.781 141.206 C 293.739 141.047,293.707 141.217,293.709 141.583 M293.875 147.583 C 293.877 147.950,293.911 148.080,293.951 147.873 C 293.991 147.666,293.990 147.366,293.948 147.206 C 293.906 147.047,293.874 147.217,293.875 147.583 M106.745 161.833 C 106.745 167.746,106.766 170.165,106.792 167.208 C 106.817 164.252,106.817 159.415,106.792 156.458 C 106.766 153.502,106.745 155.921,106.745 161.833 M92.542 157.250 C 92.544 157.617,92.578 157.747,92.618 157.540 C 92.658 157.332,92.656 157.032,92.615 156.873 C 92.573 156.714,92.540 156.883,92.542 157.250 M92.372 163.833 C 92.372 164.154,92.406 164.285,92.448 164.125 C 92.490 163.965,92.490 163.702,92.448 163.542 C 92.406 163.381,92.372 163.512,92.372 163.833 M294.205 165.000 C 294.205 165.321,294.240 165.452,294.282 165.292 C 294.323 165.131,294.323 164.869,294.282 164.708 C 294.240 164.548,294.205 164.679,294.205 165.000 M302.571 172.667 C 302.571 174.729,302.595 175.573,302.624 174.542 C 302.654 173.510,302.654 171.823,302.624 170.792 C 302.595 169.760,302.571 170.604,302.571 172.667 M302.742 213.000 C 302.742 216.529,302.764 217.973,302.791 216.208 C 302.818 214.444,302.818 211.556,302.791 209.792 C 302.764 208.027,302.742 209.471,302.742 213.000 M175.547 222.789 C 175.985 222.824,176.660 222.823,177.047 222.788 C 177.434 222.754,177.075 222.725,176.250 222.726 C 175.425 222.726,175.109 222.755,175.547 222.789 M208.047 222.789 C 208.485 222.824,209.160 222.823,209.547 222.788 C 209.934 222.754,209.575 222.725,208.750 222.726 C 207.925 222.726,207.609 222.755,208.047 222.789 M189.219 222.958 C 190.944 222.985,193.719 222.985,195.386 222.958 C 197.053 222.931,195.642 222.909,192.250 222.909 C 188.858 222.909,187.494 222.931,189.219 222.958 M96.902 251.250 C 96.902 252.900,96.927 253.552,96.958 252.700 C 96.988 251.847,96.988 250.497,96.957 249.700 C 96.927 248.902,96.902 249.600,96.902 251.250 M302.896 257.417 C 302.896 258.425,302.924 258.816,302.957 258.286 C 302.990 257.755,302.990 256.930,302.956 256.452 C 302.922 255.974,302.895 256.408,302.896 257.417 M156.712 260.833 C 156.712 261.246,156.745 261.415,156.784 261.208 C 156.824 261.002,156.824 260.665,156.784 260.458 C 156.745 260.252,156.712 260.421,156.712 260.833 M302.709 264.917 C 302.711 265.283,302.745 265.414,302.785 265.206 C 302.824 264.999,302.823 264.699,302.781 264.540 C 302.739 264.380,302.707 264.550,302.709 264.917 M133.628 282.454 C 133.928 282.491,134.378 282.490,134.628 282.452 C 134.878 282.414,134.633 282.384,134.083 282.385 C 133.533 282.386,133.328 282.417,133.628 282.454 M133.958 297.791 C 135.631 297.819,138.369 297.819,140.042 297.791 C 141.715 297.764,140.346 297.742,137.000 297.742 C 133.654 297.742,132.285 297.764,133.958 297.791 M232.466 297.957 C 233.227 297.988,234.427 297.988,235.133 297.957 C 235.839 297.926,235.217 297.901,233.750 297.901 C 232.283 297.901,231.706 297.927,232.466 297.957 M275.455 303.287 C 275.750 303.324,276.275 303.324,276.621 303.288 C 276.967 303.252,276.725 303.222,276.083 303.221 C 275.442 303.221,275.159 303.250,275.455 303.287 M122.220 305.167 C 122.220 305.762,122.250 306.006,122.287 305.708 C 122.324 305.410,122.324 304.923,122.287 304.625 C 122.250 304.327,122.220 304.571,122.220 305.167 M138.961 304.287 C 139.261 304.325,139.711 304.324,139.961 304.286 C 140.212 304.248,139.967 304.217,139.417 304.218 C 138.867 304.219,138.662 304.250,138.961 304.287 M247.705 312.333 C 247.705 312.654,247.740 312.785,247.782 312.625 C 247.823 312.465,247.823 312.202,247.782 312.042 C 247.740 311.881,247.705 312.012,247.705 312.333 " stroke="none" fill="#f85066" fill-rule="evenodd"></path><path id="path4" d="M232.794 68.618 C 233.001 68.658,233.301 68.656,233.460 68.615 C 233.620 68.573,233.450 68.540,233.083 68.542 C 232.717 68.544,232.586 68.578,232.794 68.618 M172.294 68.785 C 172.501 68.824,172.801 68.823,172.960 68.781 C 173.120 68.739,172.950 68.707,172.583 68.709 C 172.217 68.711,172.086 68.745,172.294 68.785 M140.792 68.951 C 140.998 68.991,141.335 68.991,141.542 68.951 C 141.748 68.911,141.579 68.879,141.167 68.879 C 140.754 68.879,140.585 68.911,140.792 68.951 M180.542 68.955 C 180.885 68.991,181.448 68.991,181.792 68.955 C 182.135 68.919,181.854 68.889,181.167 68.889 C 180.479 68.889,180.198 68.919,180.542 68.955 M215.958 68.954 C 216.256 68.991,216.744 68.991,217.042 68.954 C 217.340 68.917,217.096 68.887,216.500 68.887 C 215.904 68.887,215.660 68.917,215.958 68.954 M261.042 68.948 C 261.202 68.990,261.465 68.990,261.625 68.948 C 261.785 68.906,261.654 68.872,261.333 68.872 C 261.012 68.872,260.881 68.906,261.042 68.948 M253.380 78.289 C 253.818 78.324,254.493 78.323,254.880 78.288 C 255.267 78.254,254.908 78.225,254.083 78.226 C 253.258 78.226,252.942 78.255,253.380 78.289 M262.042 78.288 C 262.385 78.324,262.948 78.324,263.292 78.288 C 263.635 78.252,263.354 78.223,262.667 78.223 C 261.979 78.223,261.698 78.252,262.042 78.288 M161.961 78.621 C 162.261 78.658,162.711 78.657,162.961 78.619 C 163.212 78.581,162.967 78.551,162.417 78.552 C 161.867 78.553,161.662 78.584,161.961 78.621 M221.127 90.618 C 221.334 90.658,221.634 90.656,221.794 90.615 C 221.953 90.573,221.783 90.540,221.417 90.542 C 221.050 90.544,220.920 90.578,221.127 90.618 M191.708 90.790 C 192.235 90.823,193.098 90.823,193.625 90.790 C 194.152 90.757,193.721 90.730,192.667 90.730 C 191.612 90.730,191.181 90.757,191.708 90.790 M186.292 90.951 C 186.498 90.991,186.835 90.991,187.042 90.951 C 187.248 90.911,187.079 90.879,186.667 90.879 C 186.254 90.879,186.085 90.911,186.292 90.951 M302.888 106.083 C 302.889 106.725,302.919 106.967,302.955 106.621 C 302.991 106.275,302.990 105.750,302.954 105.455 C 302.917 105.159,302.887 105.442,302.888 106.083 M107.205 106.667 C 107.205 106.987,107.240 107.119,107.282 106.958 C 107.323 106.798,107.323 106.535,107.282 106.375 C 107.240 106.215,107.205 106.346,107.205 106.667 M96.892 111.750 C 96.892 112.575,96.920 112.934,96.955 112.547 C 96.990 112.160,96.990 111.485,96.956 111.047 C 96.922 110.609,96.893 110.925,96.892 111.750 M293.214 111.417 C 293.216 111.875,293.248 112.043,293.286 111.789 C 293.325 111.536,293.324 111.161,293.284 110.956 C 293.244 110.751,293.213 110.958,293.214 111.417 M85.039 120.000 C 85.039 120.321,85.073 120.452,85.115 120.292 C 85.157 120.131,85.157 119.869,85.115 119.708 C 85.073 119.548,85.039 119.679,85.039 120.000 M302.733 122.083 C 302.734 123.458,302.759 123.999,302.791 123.284 C 302.822 122.569,302.822 121.444,302.790 120.784 C 302.759 120.124,302.733 120.708,302.733 122.083 M106.718 121.250 C 106.719 121.800,106.750 122.005,106.787 121.705 C 106.825 121.406,106.824 120.956,106.786 120.705 C 106.748 120.455,106.717 120.700,106.718 121.250 M293.388 125.750 C 293.389 126.392,293.419 126.634,293.455 126.288 C 293.491 125.942,293.490 125.417,293.454 125.121 C 293.417 124.825,293.387 125.108,293.388 125.750 M93.163 126.966 L 93.243 127.750 93.300 127.103 C 93.331 126.747,93.294 126.394,93.219 126.319 C 93.144 126.244,93.118 126.535,93.163 126.966 M306.872 134.667 C 306.872 134.987,306.906 135.119,306.948 134.958 C 306.990 134.798,306.990 134.535,306.948 134.375 C 306.906 134.215,306.872 134.346,306.872 134.667 M93.050 135.167 C 93.050 135.671,93.081 135.877,93.119 135.625 C 93.158 135.373,93.158 134.960,93.119 134.708 C 93.081 134.456,93.050 134.662,93.050 135.167 M293.539 135.000 C 293.539 135.321,293.573 135.452,293.615 135.292 C 293.657 135.131,293.657 134.869,293.615 134.708 C 293.573 134.548,293.539 134.679,293.539 135.000 M306.705 138.500 C 306.705 138.821,306.740 138.952,306.782 138.792 C 306.823 138.631,306.823 138.369,306.782 138.208 C 306.740 138.048,306.705 138.179,306.705 138.500 M92.879 141.500 C 92.879 141.912,92.911 142.081,92.951 141.875 C 92.991 141.669,92.991 141.331,92.951 141.125 C 92.911 140.919,92.879 141.087,92.879 141.500 M293.705 142.667 C 293.705 142.987,293.740 143.119,293.782 142.958 C 293.823 142.798,293.823 142.535,293.782 142.375 C 293.740 142.215,293.705 142.346,293.705 142.667 M302.579 156.917 C 302.579 163.608,302.600 166.322,302.625 162.946 C 302.650 159.571,302.650 154.096,302.625 150.779 C 302.600 147.463,302.579 150.225,302.579 156.917 M106.734 148.583 C 106.734 150.050,106.760 150.628,106.791 149.867 C 106.822 149.106,106.822 147.906,106.790 147.200 C 106.759 146.494,106.734 147.117,106.734 148.583 M306.569 149.167 C 306.569 150.862,306.594 151.556,306.624 150.708 C 306.654 149.860,306.654 148.473,306.624 147.625 C 306.594 146.777,306.569 147.471,306.569 149.167 M293.887 149.167 C 293.887 149.762,293.917 150.006,293.954 149.708 C 293.991 149.410,293.991 148.923,293.954 148.625 C 293.917 148.327,293.887 148.571,293.887 149.167 M92.705 149.833 C 92.705 150.154,92.740 150.285,92.782 150.125 C 92.823 149.965,92.823 149.702,92.782 149.542 C 92.740 149.381,92.705 149.512,92.705 149.833 M92.539 158.333 C 92.539 158.654,92.573 158.785,92.615 158.625 C 92.657 158.465,92.657 158.202,92.615 158.042 C 92.573 157.881,92.539 158.012,92.539 158.333 M92.388 165.417 C 92.389 166.058,92.419 166.300,92.455 165.955 C 92.491 165.609,92.490 165.084,92.454 164.788 C 92.417 164.492,92.387 164.775,92.388 165.417 M294.209 166.083 C 294.211 166.450,294.245 166.580,294.285 166.373 C 294.324 166.166,294.323 165.866,294.281 165.706 C 294.239 165.547,294.207 165.717,294.209 166.083 M302.739 202.417 C 302.739 204.800,302.763 205.752,302.791 204.532 C 302.820 203.312,302.820 201.362,302.791 200.198 C 302.763 199.035,302.739 200.033,302.739 202.417 M150.542 221.782 C 150.702 221.823,150.965 221.823,151.125 221.782 C 151.285 221.740,151.154 221.705,150.833 221.705 C 150.512 221.705,150.381 221.740,150.542 221.782 M236.375 221.782 C 236.535 221.823,236.798 221.823,236.958 221.782 C 237.119 221.740,236.987 221.705,236.667 221.705 C 236.346 221.705,236.215 221.740,236.375 221.782 M160.211 222.286 C 160.464 222.325,160.839 222.324,161.044 222.284 C 161.249 222.244,161.042 222.213,160.583 222.214 C 160.125 222.216,159.957 222.248,160.211 222.286 M225.042 222.286 C 225.294 222.324,225.706 222.324,225.958 222.286 C 226.210 222.248,226.004 222.217,225.500 222.217 C 224.996 222.217,224.790 222.248,225.042 222.286 M170.042 222.615 C 170.202 222.657,170.465 222.657,170.625 222.615 C 170.785 222.573,170.654 222.539,170.333 222.539 C 170.012 222.539,169.881 222.573,170.042 222.615 M214.708 222.615 C 214.869 222.657,215.131 222.657,215.292 222.615 C 215.452 222.573,215.321 222.539,215.000 222.539 C 214.679 222.539,214.548 222.573,214.708 222.615 M177.958 222.784 C 178.165 222.824,178.502 222.824,178.708 222.784 C 178.915 222.745,178.746 222.712,178.333 222.712 C 177.921 222.712,177.752 222.745,177.958 222.784 M206.042 222.786 C 206.294 222.824,206.706 222.824,206.958 222.786 C 207.210 222.748,207.004 222.717,206.500 222.717 C 205.996 222.717,205.790 222.748,206.042 222.786 M96.905 244.417 C 96.905 246.617,96.929 247.494,96.958 246.365 C 96.987 245.237,96.987 243.437,96.958 242.365 C 96.929 241.294,96.905 242.217,96.905 244.417 M302.909 249.000 C 302.909 252.713,302.931 254.231,302.958 252.375 C 302.985 250.519,302.985 247.481,302.958 245.625 C 302.931 243.769,302.909 245.287,302.909 249.000 M292.709 250.583 C 292.711 250.950,292.745 251.080,292.785 250.873 C 292.824 250.666,292.823 250.366,292.781 250.206 C 292.739 250.047,292.707 250.217,292.709 250.583 M96.881 254.917 C 96.882 255.375,96.915 255.543,96.953 255.289 C 96.991 255.036,96.990 254.661,96.951 254.456 C 96.911 254.251,96.880 254.458,96.881 254.917 M293.048 257.583 C 293.049 258.042,293.081 258.209,293.120 257.956 C 293.158 257.703,293.157 257.328,293.117 257.123 C 293.078 256.918,293.046 257.125,293.048 257.583 M244.379 259.667 C 244.379 260.079,244.411 260.248,244.451 260.042 C 244.491 259.835,244.491 259.498,244.451 259.292 C 244.411 259.085,244.379 259.254,244.379 259.667 M302.890 260.417 C 302.891 261.150,302.920 261.429,302.956 261.037 C 302.991 260.645,302.990 260.045,302.954 259.704 C 302.919 259.363,302.890 259.683,302.890 260.417 M293.045 261.333 C 293.045 261.746,293.078 261.915,293.118 261.708 C 293.157 261.502,293.157 261.165,293.118 260.958 C 293.078 260.752,293.045 260.921,293.045 261.333 M271.042 281.948 C 271.202 281.990,271.465 281.990,271.625 281.948 C 271.785 281.906,271.654 281.872,271.333 281.872 C 271.012 281.872,270.881 281.906,271.042 281.948 M126.134 297.791 C 127.078 297.821,128.578 297.821,129.467 297.791 C 130.356 297.761,129.583 297.737,127.750 297.737 C 125.917 297.737,125.189 297.761,126.134 297.791 M226.375 297.958 C 227.269 297.988,228.731 297.988,229.625 297.958 C 230.519 297.928,229.787 297.903,228.000 297.903 C 226.213 297.903,225.481 297.928,226.375 297.958 M272.880 303.289 C 273.318 303.324,273.993 303.323,274.380 303.288 C 274.767 303.254,274.408 303.225,273.583 303.226 C 272.758 303.226,272.442 303.255,272.880 303.289 M123.633 304.124 C 124.394 304.155,125.594 304.155,126.300 304.124 C 127.006 304.093,126.383 304.067,124.917 304.067 C 123.450 304.068,122.872 304.093,123.633 304.124 M141.292 304.290 C 141.865 304.323,142.802 304.323,143.375 304.290 C 143.948 304.258,143.479 304.231,142.333 304.231 C 141.188 304.231,140.719 304.258,141.292 304.290 M122.218 307.083 C 122.219 307.633,122.250 307.838,122.287 307.539 C 122.325 307.239,122.324 306.789,122.286 306.539 C 122.248 306.288,122.217 306.533,122.218 307.083 " stroke="none" fill="#fc6474" fill-rule="evenodd"></path></g></svg>