<svg id="svg" version="1.1" xmlns="http://www.w3.org/2000/svg" xmlns:xlink="http://www.w3.org/1999/xlink" width="400" height="400" viewBox="0, 0, 400,400"><g id="svgg"><path id="path0" d="M224.000 46.277 C 223.771 46.313,222.833 46.460,221.917 46.603 C 211.036 48.300,206.143 53.141,204.592 63.740 C 204.445 64.743,204.305 65.584,204.280 65.609 C 204.255 65.634,203.124 64.913,201.767 64.006 C 194.639 59.241,191.506 59.577,184.500 65.858 C 181.251 68.771,180.421 69.225,176.637 70.161 C 171.653 71.394,169.037 73.801,165.338 80.561 C 160.259 89.844,160.109 90.003,153.934 92.677 C 150.868 94.005,149.546 95.207,147.718 98.333 C 147.262 99.112,146.472 100.462,145.961 101.333 C 145.450 102.204,144.517 103.517,143.887 104.250 C 140.706 107.954,140.551 108.474,141.153 113.473 C 141.663 117.716,141.668 117.662,140.708 118.167 C 137.971 119.607,135.313 123.517,133.497 128.776 C 130.872 136.379,129.702 141.917,130.584 142.564 C 131.196 143.012,131.811 141.333,133.393 134.904 C 134.243 131.449,135.029 129.338,137.082 124.998 L 138.540 121.917 139.793 121.028 L 141.046 120.140 140.936 120.973 C 140.768 122.243,140.523 122.806,140.117 122.865 C 139.836 122.906,139.753 123.042,139.730 123.500 C 139.553 127.138,139.142 129.166,136.527 139.333 C 134.290 148.027,134.237 150.199,136.198 152.891 C 137.497 154.674,138.228 156.301,138.734 158.535 C 138.848 159.038,138.667 159.196,135.509 161.345 C 130.641 164.659,129.609 166.993,129.167 175.700 C 128.934 180.294,128.670 181.357,126.878 184.917 C 125.538 187.578,125.166 188.657,125.169 189.879 C 125.173 191.444,125.079 191.392,128.278 191.583 L 131.070 191.750 130.993 194.083 C 130.826 199.173,130.839 199.330,131.533 200.374 C 134.350 204.615,139.269 206.564,155.417 209.838 C 157.708 210.303,160.408 210.870,161.417 211.098 C 175.073 214.188,177.731 212.139,181.098 195.917 C 181.530 193.837,182.333 189.157,182.333 188.722 C 182.333 188.347,183.655 184.049,184.247 182.500 L 184.470 181.917 184.652 182.386 C 185.304 184.070,185.253 187.581,184.481 194.250 C 184.092 197.613,184.029 201.884,184.323 205.000 C 185.119 213.424,185.166 214.808,184.931 222.583 C 184.809 226.636,184.829 227.186,185.242 231.083 C 185.484 233.375,185.761 236.000,185.856 236.917 C 186.539 243.503,185.240 245.520,176.250 251.836 C 172.929 254.168,163.665 260.919,146.083 273.815 C 111.183 299.415,95.600 311.384,96.105 312.202 C 96.866 313.432,99.217 312.889,101.583 310.935 C 103.847 309.067,103.219 309.534,130.417 289.444 C 138.850 283.215,146.688 277.392,147.833 276.504 C 152.951 272.540,157.800 268.976,161.104 266.749 C 163.619 265.054,163.776 264.897,163.389 264.470 C 163.127 264.180,163.160 264.167,164.159 264.167 L 165.204 264.167 165.106 264.708 C 165.053 265.006,164.960 265.565,164.901 265.950 C 164.801 266.599,164.761 266.644,164.354 266.563 C 163.822 266.456,163.570 266.714,162.384 268.583 C 161.918 269.317,159.758 272.729,157.583 276.167 C 155.409 279.604,153.458 282.679,153.249 283.000 C 153.040 283.321,149.853 288.346,146.167 294.167 C 142.481 299.987,139.294 305.012,139.085 305.333 C 138.875 305.654,137.971 307.077,137.075 308.494 C 136.179 309.912,135.129 311.503,134.742 312.029 C 134.064 312.950,134.038 313.029,134.045 314.201 C 134.053 315.656,133.999 315.775,131.606 319.543 C 126.208 328.044,124.731 332.433,126.224 335.530 C 127.525 338.231,129.873 339.029,136.667 339.079 C 143.014 339.126,143.414 339.282,145.658 342.588 C 147.222 344.893,148.186 345.839,150.194 347.037 C 151.072 347.561,152.156 348.277,152.603 348.629 C 153.721 349.507,153.613 349.461,155.444 349.849 C 158.987 350.601,160.338 350.842,162.747 351.153 C 174.200 352.631,180.393 350.122,178.782 344.657 C 178.308 343.049,177.801 342.503,174.747 340.313 C 173.190 339.197,171.320 337.724,170.591 337.040 C 169.802 336.299,167.913 334.899,165.924 333.582 C 162.394 331.242,160.811 329.929,159.556 328.297 C 158.861 327.395,158.743 327.310,158.303 327.398 L 157.817 327.495 157.923 326.456 C 158.020 325.494,158.080 325.373,158.722 324.835 C 159.104 324.514,159.662 324.002,159.961 323.695 C 160.948 322.684,165.143 316.207,169.371 309.167 C 175.566 298.850,178.314 295.082,187.241 284.667 C 188.615 283.063,189.939 281.525,190.183 281.250 C 206.536 262.762,208.350 260.013,211.566 248.833 C 215.706 234.439,216.065 233.421,217.877 230.943 C 218.359 230.283,227.670 238.475,231.056 242.539 C 233.234 245.152,233.736 247.816,234.835 262.583 C 235.512 271.674,235.857 274.326,237.261 281.250 C 238.009 284.935,239.980 293.013,241.837 300.000 C 242.808 303.658,245.315 313.761,245.744 315.750 C 245.981 316.850,246.244 318.050,246.328 318.417 C 246.588 319.555,247.130 322.326,247.501 324.417 C 247.697 325.517,248.264 327.926,248.762 329.772 C 249.811 333.663,249.876 334.629,249.382 339.040 C 248.164 349.918,249.832 353.720,255.833 353.742 C 258.855 353.753,259.652 353.461,264.000 350.740 C 267.462 348.573,269.526 348.489,272.782 350.379 C 275.894 352.186,276.972 352.501,280.024 352.497 C 285.647 352.489,294.270 349.635,299.917 345.914 C 303.283 343.696,303.917 342.685,303.917 339.526 L 303.917 337.469 303.417 337.069 C 301.186 335.286,296.688 334.158,287.833 333.161 C 285.276 332.873,282.424 332.456,282.042 332.314 L 281.667 332.175 281.645 298.546 C 281.634 280.050,281.575 245.417,281.514 221.583 L 281.404 178.250 282.077 177.605 C 282.447 177.250,283.193 176.658,283.734 176.289 C 285.796 174.886,286.503 173.991,286.497 172.797 C 286.492 171.541,285.751 171.470,283.260 172.488 C 282.351 172.859,281.589 173.145,281.567 173.123 C 281.452 173.008,281.146 165.491,281.144 162.750 C 281.141 158.060,281.529 156.822,284.071 153.417 C 287.389 148.972,288.382 146.458,288.404 142.445 C 288.419 139.660,288.788 140.036,284.697 138.672 L 281.550 137.623 281.441 135.369 C 281.382 134.129,281.333 131.666,281.333 129.896 C 281.333 126.311,281.395 126.494,280.113 126.262 C 279.763 126.199,279.375 126.108,279.250 126.060 C 278.932 125.938,278.858 126.632,278.599 132.137 C 278.477 134.732,278.311 136.915,278.230 136.987 C 278.149 137.059,276.573 138.139,274.726 139.388 L 271.369 141.658 264.726 141.850 C 250.325 142.266,240.909 141.827,240.489 140.720 C 238.680 135.964,238.080 118.847,239.525 113.250 C 240.778 108.399,240.149 106.438,235.875 101.871 C 232.494 98.258,231.681 96.746,231.671 94.045 C 231.666 92.828,231.284 93.015,235.078 92.370 L 237.738 91.917 238.111 90.615 C 238.316 89.898,238.748 88.145,239.072 86.718 C 239.771 83.638,239.623 83.852,241.778 82.835 C 243.040 82.240,243.499 81.942,243.497 81.720 C 243.488 80.847,242.964 77.882,242.592 76.597 C 242.077 74.819,242.035 72.566,242.415 67.039 C 242.846 60.788,242.841 60.825,243.264 60.457 C 243.472 60.276,243.804 59.752,244.001 59.293 L 244.361 58.458 243.639 57.026 C 240.472 50.744,236.436 47.384,230.898 46.418 C 229.575 46.187,225.151 46.097,224.000 46.277 M208.155 82.467 C 211.137 87.516,209.952 93.597,205.109 98.097 C 203.225 99.847,203.314 100.015,203.991 95.997 C 204.261 94.394,204.864 90.796,205.331 88.000 C 206.549 80.701,206.810 80.190,208.155 82.467 M271.727 152.729 C 273.441 153.517,274.919 153.965,276.259 154.103 C 277.498 154.230,277.756 154.468,278.221 155.917 C 279.589 160.180,279.539 174.275,278.150 176.154 C 277.806 176.619,271.071 181.167,270.726 181.167 C 270.651 181.167,269.613 180.165,268.420 178.941 C 266.120 176.582,265.644 176.263,263.977 175.970 C 262.528 175.715,261.386 175.995,260.402 176.846 C 258.781 178.249,257.075 177.413,247.250 170.402 C 242.806 167.231,241.959 166.679,241.027 166.345 C 239.782 165.900,239.542 162.845,240.589 160.771 C 241.234 159.494,240.956 159.557,246.917 159.333 C 257.995 158.917,259.484 158.491,264.667 154.247 C 267.663 151.795,269.049 151.496,271.727 152.729 M278.459 256.092 C 278.418 329.011,278.409 330.749,278.104 330.696 C 276.159 330.361,275.478 329.481,275.715 327.608 C 275.932 325.898,275.671 323.632,274.850 320.121 C 274.589 319.000,274.207 317.333,274.003 316.417 C 272.998 311.897,272.346 309.139,270.575 301.917 C 267.399 288.960,266.078 279.548,265.092 262.833 C 264.623 254.883,264.468 252.533,264.323 251.167 C 263.429 242.732,261.996 238.764,257.553 232.417 C 249.228 220.523,242.679 209.971,242.239 207.744 C 242.010 206.581,250.349 199.914,254.833 197.674 C 257.337 196.424,258.368 196.081,262.917 194.985 C 268.181 193.716,273.117 189.226,273.508 185.351 C 273.670 183.747,273.796 183.490,274.740 182.840 C 275.615 182.238,278.197 181.158,278.375 181.320 C 278.444 181.383,278.482 215.030,278.459 256.092 M252.292 187.250 C 253.421 188.717,254.752 190.367,255.249 190.917 C 256.363 192.150,256.641 193.753,255.708 193.567 C 255.328 193.491,254.897 193.727,253.167 194.958 C 252.021 195.773,249.658 197.451,247.917 198.687 C 246.175 199.923,243.727 201.661,242.477 202.550 C 239.754 204.486,240.031 204.460,239.119 202.875 C 235.092 195.878,234.731 192.184,237.460 185.917 C 237.700 185.367,237.925 184.879,237.961 184.833 C 238.044 184.729,244.600 184.555,247.827 184.571 L 250.238 184.583 252.292 187.250 " stroke="none" fill="#fb2404" fill-rule="evenodd"></path><path id="path1" d="M188.917 0.245 C 187.175 0.361,184.813 0.511,183.667 0.579 C 182.521 0.646,181.534 0.732,181.474 0.768 C 181.413 0.804,180.438 0.908,179.307 0.999 C 178.176 1.090,176.725 1.241,176.083 1.334 C 175.442 1.428,174.054 1.615,173.000 1.751 C 169.115 2.253,164.082 3.095,160.167 3.900 C 159.479 4.041,158.354 4.269,157.667 4.407 C 156.979 4.544,156.117 4.732,155.750 4.825 C 155.383 4.918,153.808 5.300,152.250 5.674 C 150.692 6.048,149.192 6.423,148.917 6.507 C 148.642 6.591,147.292 6.966,145.917 7.340 C 142.707 8.213,140.403 8.925,136.167 10.350 C 134.287 10.982,132.412 11.613,132.000 11.751 C 131.587 11.889,131.120 12.077,130.961 12.168 C 130.801 12.259,130.576 12.334,130.461 12.334 C 130.345 12.335,130.063 12.432,129.833 12.550 C 129.604 12.668,128.817 12.978,128.083 13.240 C 127.350 13.502,126.675 13.771,126.583 13.838 C 126.492 13.905,126.229 14.014,126.000 14.081 C 125.771 14.149,125.358 14.303,125.083 14.424 C 124.808 14.545,123.908 14.918,123.083 15.253 C 122.258 15.588,121.109 16.081,120.530 16.348 C 119.951 16.615,119.445 16.833,119.406 16.833 C 119.367 16.833,118.766 17.096,118.072 17.417 C 117.377 17.738,116.768 18.000,116.719 18.000 C 116.505 18.000,106.899 22.814,105.035 23.856 C 103.909 24.485,102.956 25.000,102.917 25.000 C 102.810 25.000,96.440 28.743,94.917 29.701 C 93.043 30.879,92.671 31.119,90.417 32.595 C 89.317 33.316,88.290 33.983,88.136 34.078 C 87.981 34.173,87.049 34.813,86.065 35.500 C 85.080 36.188,84.005 36.938,83.676 37.167 C 83.164 37.522,80.039 39.874,76.921 42.250 C 75.468 43.357,73.151 45.209,72.332 45.917 C 71.908 46.283,71.120 46.958,70.581 47.417 C 70.041 47.875,69.296 48.513,68.925 48.835 C 68.554 49.157,68.031 49.607,67.763 49.835 C 67.495 50.063,67.154 50.362,67.004 50.500 C 66.854 50.637,65.911 51.496,64.908 52.408 C 62.551 54.550,54.550 62.551,52.408 64.908 C 50.063 67.488,50.015 67.542,48.413 69.417 C 47.865 70.058,47.379 70.621,47.333 70.667 C 46.997 71.002,43.436 75.367,42.454 76.647 C 42.200 76.979,41.876 77.388,41.735 77.557 C 41.245 78.141,36.871 84.083,35.953 85.412 C 30.182 93.764,25.715 101.244,21.419 109.750 C 19.353 113.840,18.221 116.220,16.744 119.583 C 16.624 119.858,16.324 120.533,16.078 121.083 C 15.833 121.633,15.412 122.646,15.144 123.333 C 14.876 124.021,14.587 124.733,14.502 124.917 C 14.417 125.100,14.003 126.150,13.583 127.250 C 13.162 128.350,12.739 129.438,12.641 129.667 C 12.375 130.296,10.113 136.774,9.761 137.917 C 9.592 138.467,9.395 139.067,9.323 139.250 C 9.070 139.897,7.488 145.255,6.886 147.500 C 6.089 150.478,6.061 150.588,5.256 154.000 C 4.562 156.943,4.244 158.382,3.894 160.167 C 2.919 165.138,2.251 169.122,1.758 172.917 C 1.400 175.673,1.349 176.107,1.166 177.917 C 1.074 178.833,0.924 180.146,0.833 180.833 C 0.743 181.521,0.591 183.433,0.497 185.083 C 0.402 186.733,0.252 189.239,0.163 190.651 C -0.046 193.947,-0.048 206.063,0.160 209.278 C 0.247 210.638,0.398 213.063,0.494 214.667 C 0.589 216.271,0.743 218.258,0.836 219.083 C 0.928 219.908,1.078 221.296,1.168 222.167 C 1.258 223.037,1.366 224.012,1.409 224.333 C 1.452 224.654,1.566 225.592,1.662 226.417 C 1.862 228.125,2.008 229.096,2.579 232.500 C 2.801 233.829,3.021 235.142,3.066 235.417 C 3.211 236.298,3.635 238.545,3.900 239.833 C 4.041 240.521,4.271 241.646,4.410 242.333 C 4.676 243.651,4.748 243.953,5.839 248.333 C 7.469 254.878,8.982 259.976,11.058 265.917 C 11.379 266.833,11.836 268.146,12.076 268.833 C 12.315 269.521,12.582 270.233,12.668 270.417 C 12.754 270.600,13.168 271.650,13.588 272.750 C 14.008 273.850,14.466 275.012,14.604 275.333 C 14.743 275.654,14.917 276.067,14.993 276.250 C 15.510 277.512,16.066 278.831,16.272 279.291 C 16.406 279.589,16.874 280.639,17.313 281.625 C 18.900 285.188,19.430 286.305,21.090 289.583 C 23.034 293.423,24.378 295.975,24.903 296.824 C 25.104 297.150,25.474 297.815,25.724 298.301 C 26.382 299.579,31.627 308.256,32.041 308.750 C 32.117 308.842,32.899 310.004,33.778 311.333 C 35.923 314.577,38.988 318.876,40.743 321.105 C 41.114 321.575,41.567 322.168,41.750 322.423 C 42.128 322.948,45.523 327.206,45.666 327.333 C 45.717 327.379,46.357 328.129,47.088 329.000 C 47.819 329.871,48.496 330.658,48.593 330.750 C 48.690 330.842,49.251 331.479,49.840 332.167 C 54.124 337.169,62.317 345.371,67.737 350.083 C 68.370 350.633,69.009 351.198,69.157 351.338 C 70.581 352.684,79.648 359.928,81.414 361.131 C 81.780 361.380,82.698 362.052,83.455 362.625 C 84.211 363.198,84.864 363.667,84.904 363.667 C 84.945 363.667,85.693 364.173,86.565 364.792 C 89.102 366.590,97.006 371.667,97.270 371.667 C 97.313 371.667,97.438 371.744,97.549 371.839 C 97.795 372.050,99.383 372.991,100.742 373.733 C 101.297 374.035,102.800 374.867,104.083 375.582 C 106.685 377.031,112.072 379.777,115.000 381.146 C 118.094 382.594,118.519 382.787,119.833 383.347 C 120.521 383.639,121.472 384.056,121.948 384.273 C 122.423 384.489,122.858 384.667,122.915 384.667 C 123.010 384.667,123.760 384.984,125.109 385.595 C 125.397 385.726,125.676 385.833,125.728 385.833 C 125.780 385.833,126.706 386.180,127.786 386.605 C 131.241 387.962,139.820 390.917,142.250 391.588 C 142.800 391.740,143.587 391.964,144.000 392.087 C 144.971 392.375,148.134 393.256,149.417 393.595 C 151.175 394.060,151.538 394.150,154.000 394.725 C 155.329 395.036,156.973 395.421,157.654 395.580 C 158.334 395.739,159.497 395.978,160.237 396.111 C 160.978 396.244,162.108 396.451,162.750 396.572 C 165.562 397.100,171.475 398.052,174.250 398.425 C 183.963 399.729,204.763 400.478,211.167 399.754 C 211.487 399.718,213.063 399.608,214.667 399.511 C 216.271 399.413,218.146 399.259,218.833 399.170 C 219.521 399.081,220.983 398.927,222.083 398.829 C 224.146 398.645,227.990 398.123,232.500 397.414 C 235.029 397.016,235.453 396.940,238.000 396.428 C 238.688 396.290,240.037 396.019,241.000 395.827 C 244.511 395.126,253.629 392.881,255.167 392.339 C 255.396 392.259,256.258 391.993,257.083 391.749 C 257.908 391.505,258.808 391.239,259.083 391.157 C 260.076 390.862,267.258 388.487,267.583 388.346 C 267.767 388.267,268.292 388.071,268.750 387.910 C 270.161 387.416,275.216 385.457,276.250 385.003 C 276.433 384.922,278.046 384.223,279.833 383.449 C 286.103 380.735,292.478 377.582,297.316 374.803 C 298.085 374.362,298.754 374.000,298.802 374.000 C 298.849 374.000,299.457 373.644,300.153 373.209 C 300.848 372.774,301.754 372.230,302.167 372.000 C 302.936 371.571,303.478 371.242,305.976 369.687 C 307.591 368.682,313.704 364.654,313.833 364.509 C 313.879 364.458,314.254 364.192,314.667 363.918 C 315.626 363.281,317.957 361.579,320.917 359.355 C 332.587 350.585,344.120 339.547,354.026 327.667 C 356.026 325.269,360.815 319.109,361.667 317.839 C 361.804 317.634,362.292 316.954,362.750 316.327 C 363.208 315.701,363.996 314.582,364.500 313.840 C 365.004 313.099,365.875 311.831,366.435 311.022 C 367.453 309.552,371.911 302.479,372.351 301.638 C 372.479 301.393,372.987 300.493,373.481 299.638 C 375.408 296.300,375.856 295.491,377.244 292.833 C 379.710 288.116,381.880 283.552,383.823 279.000 C 384.390 277.671,384.920 276.433,385.001 276.250 C 385.667 274.741,385.833 274.331,385.833 274.197 C 385.833 274.111,386.029 273.601,386.268 273.062 C 386.870 271.709,388.151 268.210,389.494 264.250 C 390.115 262.417,390.665 260.804,390.716 260.667 C 390.766 260.529,390.964 259.873,391.154 259.208 C 391.344 258.544,391.656 257.456,391.846 256.792 C 392.036 256.127,392.258 255.396,392.339 255.167 C 392.420 254.938,392.790 253.588,393.162 252.167 C 393.533 250.746,393.910 249.321,393.999 249.000 C 394.428 247.453,395.769 241.533,396.161 239.449 C 396.251 238.973,396.430 238.021,396.560 237.333 C 396.689 236.646,397.029 234.658,397.315 232.917 C 397.600 231.175,397.908 229.300,397.999 228.750 C 398.293 226.968,398.816 222.638,399.002 220.428 C 399.103 219.242,399.213 218.227,399.247 218.171 C 399.282 218.115,399.362 216.985,399.426 215.660 C 399.490 214.334,399.570 213.200,399.605 213.140 C 399.894 212.635,400.037 194.783,399.790 189.917 C 399.586 185.898,399.048 179.301,398.675 176.250 C 398.196 172.328,397.203 165.914,396.598 162.833 C 396.463 162.146,396.244 160.983,396.111 160.250 C 395.797 158.518,394.830 154.320,393.750 150.000 C 393.624 149.496,393.437 148.746,393.335 148.333 C 393.102 147.395,392.248 144.410,391.832 143.083 C 391.660 142.533,391.359 141.521,391.164 140.833 C 390.969 140.146,390.748 139.433,390.672 139.250 C 390.597 139.067,390.332 138.279,390.085 137.500 C 389.373 135.255,387.602 130.300,386.422 127.250 C 385.724 125.446,385.463 124.806,384.997 123.750 C 384.916 123.567,384.539 122.667,384.158 121.750 C 383.203 119.449,383.383 119.853,381.197 115.083 C 380.309 113.145,376.406 105.434,375.671 104.167 C 375.325 103.571,374.758 102.558,374.411 101.917 C 373.905 100.983,371.588 97.099,369.260 93.281 C 367.826 90.930,363.730 84.916,361.555 81.967 C 358.759 78.178,354.690 73.007,352.993 71.085 C 352.668 70.718,352.189 70.154,351.929 69.833 C 351.309 69.069,349.717 67.278,347.270 64.591 C 345.333 62.464,338.312 55.402,336.161 53.417 C 333.648 51.097,333.028 50.537,332.012 49.667 C 331.424 49.163,330.824 48.634,330.679 48.492 C 330.279 48.098,325.775 44.390,324.103 43.078 C 323.289 42.439,322.389 41.724,322.103 41.488 C 321.817 41.252,320.571 40.316,319.333 39.407 C 318.096 38.498,317.008 37.693,316.917 37.618 C 316.216 37.045,309.041 32.184,307.165 31.011 C 306.662 30.697,305.762 30.126,305.167 29.743 C 303.857 28.901,297.737 25.333,297.602 25.333 C 297.549 25.333,296.998 25.021,296.378 24.638 C 294.786 23.658,285.752 19.126,282.667 17.760 C 280.308 16.717,279.132 16.197,277.750 15.588 C 277.475 15.467,276.837 15.201,276.333 14.997 C 275.829 14.794,275.192 14.532,274.917 14.416 C 273.700 13.903,271.345 13.009,270.940 12.908 C 270.696 12.846,270.456 12.730,270.405 12.648 C 270.355 12.567,270.198 12.500,270.057 12.500 C 269.916 12.500,269.564 12.394,269.275 12.264 C 267.533 11.479,256.667 7.961,253.583 7.183 C 253.217 7.091,252.467 6.893,251.917 6.744 C 250.239 6.290,249.100 5.990,248.750 5.910 C 248.567 5.868,247.479 5.607,246.333 5.331 C 244.200 4.816,240.903 4.092,239.417 3.811 C 238.958 3.725,238.058 3.554,237.417 3.432 C 236.262 3.212,231.315 2.382,228.417 1.922 C 227.592 1.791,226.392 1.640,225.750 1.587 C 225.108 1.533,224.171 1.416,223.667 1.326 C 223.162 1.236,221.925 1.093,220.917 1.007 C 219.908 0.921,218.933 0.818,218.750 0.778 C 218.567 0.737,217.592 0.654,216.583 0.592 C 215.575 0.531,213.662 0.404,212.333 0.310 C 208.522 0.042,192.620 -0.002,188.917 0.245 M230.333 46.242 C 236.147 47.124,240.151 50.252,243.439 56.482 C 244.532 58.553,244.496 59.567,243.297 60.515 C 242.993 60.756,242.932 61.175,242.655 64.932 C 242.075 72.806,242.066 74.325,242.588 76.250 C 243.177 78.422,243.279 78.966,243.418 80.676 L 243.534 82.101 241.706 82.952 L 239.879 83.803 239.607 84.860 C 239.457 85.441,239.179 86.592,238.989 87.417 C 238.643 88.917,237.843 91.878,237.762 91.960 C 237.727 91.995,234.694 92.539,232.353 92.929 L 231.790 93.023 231.876 94.637 C 232.013 97.209,232.737 98.467,236.155 102.065 C 239.971 106.082,240.927 109.017,239.701 112.954 C 237.963 118.537,238.970 140.123,241.015 141.111 C 242.235 141.700,258.186 142.061,267.519 141.710 L 271.288 141.569 272.436 140.826 C 273.067 140.418,274.639 139.357,275.930 138.469 L 278.277 136.854 278.496 132.886 C 278.616 130.703,278.760 128.232,278.816 127.395 L 278.917 125.873 280.052 126.170 C 280.677 126.332,281.213 126.492,281.243 126.525 C 281.274 126.557,281.363 129.052,281.441 132.070 L 281.583 137.556 284.908 138.664 C 288.768 139.950,288.507 139.679,288.522 142.417 C 288.542 146.140,287.354 149.128,284.110 153.520 C 281.169 157.501,281.007 158.302,281.325 167.250 C 281.439 170.458,281.544 173.096,281.558 173.111 C 281.572 173.127,282.296 172.836,283.166 172.465 C 285.841 171.325,286.500 171.404,286.500 172.862 C 286.500 174.205,286.101 174.730,283.917 176.259 C 283.275 176.709,282.458 177.340,282.100 177.663 L 281.451 178.250 281.583 230.917 C 281.655 259.883,281.760 294.532,281.816 307.914 L 281.917 332.244 282.583 332.363 C 282.950 332.428,284.787 332.677,286.667 332.916 C 297.667 334.317,300.244 334.925,303.125 336.797 L 304.000 337.366 304.000 339.348 C 304.000 343.083,303.321 343.985,298.250 346.984 C 291.960 350.704,283.256 353.116,278.286 352.517 C 276.090 352.252,275.022 351.852,272.750 350.440 C 269.360 348.335,267.661 348.519,262.912 351.511 C 259.899 353.410,257.593 354.142,255.259 353.943 C 249.882 353.483,248.371 350.253,249.195 340.975 C 249.791 334.268,249.759 333.551,248.697 329.750 C 248.210 328.008,247.559 325.196,247.249 323.500 C 246.050 316.924,244.916 312.135,240.997 297.083 C 236.359 279.274,235.712 275.515,234.500 259.333 C 233.798 249.962,233.062 245.556,231.907 243.819 C 230.099 241.100,221.867 233.307,218.472 231.102 L 218.027 230.813 217.322 232.031 C 216.935 232.702,216.447 233.550,216.238 233.917 C 215.804 234.679,214.694 238.173,213.088 243.833 C 208.349 260.533,208.396 260.453,192.147 279.106 C 179.356 293.791,176.416 297.688,169.411 309.250 C 165.049 316.448,163.369 319.097,161.166 322.250 C 158.190 326.507,158.298 327.498,162.090 330.775 C 162.636 331.247,164.283 332.416,165.750 333.373 C 168.465 335.145,170.459 336.659,171.491 337.735 C 171.807 338.064,172.123 338.333,172.193 338.333 C 172.848 338.333,174.136 339.056,174.219 339.470 C 174.289 339.820,174.697 340.203,175.911 341.058 C 180.583 344.347,180.151 349.088,175.018 350.856 C 170.012 352.580,156.005 351.163,152.385 348.566 C 151.672 348.054,150.562 347.329,149.919 346.954 C 148.298 346.010,146.974 344.700,145.711 342.792 C 143.497 339.449,143.182 339.321,136.750 339.156 C 130.912 339.006,129.821 338.809,127.917 337.561 C 124.144 335.089,125.018 329.844,130.704 320.845 C 133.960 315.691,133.914 315.782,133.933 314.340 L 133.949 313.083 135.683 310.470 C 136.636 309.033,139.210 305.021,141.402 301.554 C 146.986 292.722,151.841 285.060,153.160 283.000 C 153.776 282.037,156.360 277.969,158.902 273.958 C 163.323 266.983,163.898 266.195,164.425 266.397 C 164.650 266.483,164.739 266.261,165.070 264.792 C 165.171 264.340,165.161 264.333,164.360 264.333 C 163.605 264.333,163.551 264.361,163.618 264.710 C 163.680 265.034,163.354 265.313,161.250 266.735 C 158.271 268.750,154.142 271.771,149.167 275.577 C 147.104 277.155,142.642 280.496,139.250 283.003 C 135.858 285.509,128.771 290.746,123.500 294.641 C 118.229 298.536,113.242 302.223,112.417 302.835 C 105.013 308.325,103.411 309.535,102.232 310.526 C 99.624 312.719,98.427 313.224,96.977 312.742 C 95.546 312.267,95.626 312.092,98.333 309.763 C 104.497 304.460,121.713 291.530,155.750 266.641 C 157.950 265.032,162.563 261.657,166.000 259.140 C 169.438 256.623,173.675 253.561,175.417 252.335 C 185.988 244.897,186.778 243.426,185.435 233.667 C 184.918 229.909,184.629 225.381,184.734 222.700 C 185.056 214.483,185.047 213.854,184.511 207.845 C 183.875 200.702,183.875 199.339,184.514 193.194 C 185.065 187.896,185.119 184.141,184.665 182.750 L 184.446 182.083 183.489 185.042 C 182.962 186.669,182.481 188.394,182.421 188.875 C 181.685 194.683,179.265 204.599,177.893 207.427 C 175.455 212.449,171.708 213.385,162.250 211.333 C 160.600 210.975,157.525 210.337,155.417 209.915 C 146.445 208.120,141.355 206.809,138.583 205.580 C 138.308 205.458,137.633 205.158,137.083 204.914 C 134.538 203.784,131.942 201.559,131.118 199.799 L 130.705 198.917 130.872 195.547 C 131.085 191.275,131.393 191.721,128.170 191.639 C 125.229 191.564,125.267 191.578,125.060 190.504 C 124.863 189.480,125.318 188.007,126.765 184.982 C 128.742 180.847,128.789 180.624,129.323 172.667 C 129.733 166.575,130.919 164.485,135.978 160.942 C 139.004 158.823,138.798 159.123,138.357 157.477 C 137.941 155.920,137.252 154.467,136.355 153.250 C 135.020 151.440,134.672 150.519,134.669 148.789 C 134.666 147.268,135.266 143.925,136.181 140.365 C 136.645 138.560,137.278 136.097,137.587 134.892 C 138.754 130.344,139.434 126.855,139.630 124.419 C 139.744 123.000,139.774 122.909,140.208 122.701 C 140.460 122.581,140.671 122.355,140.677 122.199 C 140.682 122.044,140.745 121.564,140.816 121.132 C 140.908 120.574,140.892 120.382,140.762 120.465 C 138.686 121.799,138.661 121.827,137.710 123.830 C 134.910 129.729,134.350 131.240,133.171 136.083 C 131.861 141.461,131.118 143.253,130.500 142.523 C 129.823 141.724,130.098 139.829,131.691 134.333 C 134.563 124.425,136.855 120.256,140.591 118.148 L 141.492 117.639 141.399 116.611 C 141.347 116.046,141.199 114.671,141.069 113.556 C 140.483 108.517,140.711 107.743,143.835 104.167 C 145.020 102.811,145.542 102.036,146.753 99.833 C 149.394 95.034,150.453 94.067,155.411 91.929 C 159.712 90.074,160.553 89.154,164.417 82.083 C 169.125 73.467,171.284 71.344,176.630 70.075 C 180.032 69.267,181.423 68.548,183.839 66.349 C 191.440 59.430,194.497 59.038,201.954 64.026 C 204.466 65.706,204.333 65.650,204.333 65.032 C 204.333 64.444,204.892 61.381,205.256 59.976 C 206.957 53.403,210.640 49.577,217.167 47.606 C 221.779 46.212,226.744 45.698,230.333 46.242 M206.832 81.708 C 206.695 81.915,206.520 82.233,206.442 82.417 C 206.272 82.815,203.504 99.223,203.591 99.312 C 203.777 99.503,207.199 95.780,207.840 94.688 C 210.271 90.550,210.279 85.637,207.858 82.120 C 207.240 81.222,207.172 81.194,206.832 81.708 M268.048 152.233 C 267.027 152.565,266.091 153.155,264.583 154.417 C 260.058 158.205,258.088 158.861,250.083 159.247 C 247.333 159.379,244.213 159.538,243.149 159.599 L 241.214 159.711 240.784 160.564 C 239.612 162.893,239.749 165.975,241.037 166.258 C 241.669 166.397,243.287 167.462,248.047 170.871 C 256.847 177.174,258.739 178.100,260.254 176.845 C 262.901 174.654,265.619 175.574,269.535 179.987 L 270.632 181.223 273.941 179.088 C 277.805 176.594,278.385 176.073,278.644 174.867 C 279.425 171.227,279.277 160.710,278.392 156.917 C 277.861 154.643,277.529 154.253,276.000 154.114 C 274.868 154.010,273.414 153.560,271.377 152.681 C 269.925 152.055,268.986 151.928,268.048 152.233 M277.167 181.730 C 274.079 183.021,273.726 183.390,273.501 185.575 C 273.064 189.811,268.280 193.745,261.552 195.401 C 256.786 196.574,254.256 197.730,250.250 200.564 C 248.068 202.107,244.148 205.377,242.784 206.791 L 242.151 207.447 242.505 208.349 C 243.775 211.584,249.542 220.795,256.842 231.250 C 262.966 240.020,264.287 244.493,264.917 258.583 C 265.704 276.205,267.316 288.274,270.749 302.250 C 271.514 305.367,272.415 309.117,272.750 310.583 C 273.085 312.050,273.797 315.162,274.331 317.500 C 274.866 319.837,275.399 322.162,275.516 322.667 C 275.634 323.178,275.743 324.836,275.762 326.417 C 275.780 327.975,275.804 329.335,275.814 329.439 C 275.832 329.619,277.163 330.321,277.958 330.571 L 278.333 330.689 278.333 256.011 C 278.333 214.938,278.277 181.337,278.208 181.340 C 278.140 181.344,277.671 181.520,277.167 181.730 M240.425 184.827 L 237.933 184.917 237.289 186.500 C 234.867 192.454,235.482 197.004,239.591 203.512 L 240.014 204.183 241.049 203.456 C 241.618 203.057,243.921 201.428,246.167 199.836 C 248.412 198.244,251.150 196.307,252.250 195.531 C 253.350 194.755,254.429 193.981,254.647 193.810 C 254.866 193.640,255.260 193.500,255.522 193.500 C 256.458 193.500,256.220 192.172,255.041 190.809 C 254.514 190.200,253.221 188.572,252.167 187.192 L 250.250 184.681 246.583 184.709 C 244.567 184.724,241.795 184.777,240.425 184.827 " stroke="none" fill="#fbc393" fill-rule="evenodd"></path><path id="path2" d="M226.960 46.118 C 227.168 46.158,227.468 46.156,227.627 46.115 C 227.786 46.073,227.617 46.040,227.250 46.042 C 226.883 46.044,226.753 46.078,226.960 46.118 M209.573 51.875 L 209.083 52.417 209.625 51.927 C 209.923 51.658,210.167 51.414,210.167 51.385 C 210.167 51.257,210.029 51.370,209.573 51.875 M236.167 102.219 C 236.167 102.248,236.410 102.491,236.708 102.760 L 237.250 103.250 236.760 102.708 C 236.304 102.203,236.167 102.090,236.167 102.219 M238.705 119.500 C 238.705 119.821,238.740 119.952,238.782 119.792 C 238.823 119.631,238.823 119.369,238.782 119.208 C 238.740 119.048,238.705 119.179,238.705 119.500 M138.324 119.958 L 137.750 120.583 138.375 120.009 C 138.957 119.474,139.077 119.333,138.949 119.333 C 138.922 119.333,138.640 119.615,138.324 119.958 M238.712 125.667 C 238.712 126.079,238.745 126.248,238.784 126.042 C 238.824 125.835,238.824 125.498,238.784 125.292 C 238.745 125.085,238.712 125.254,238.712 125.667 M281.379 134.000 C 281.379 134.412,281.411 134.581,281.451 134.375 C 281.491 134.169,281.491 133.831,281.451 133.625 C 281.411 133.419,281.379 133.587,281.379 134.000 M278.375 135.583 C 278.377 135.950,278.411 136.080,278.451 135.873 C 278.491 135.666,278.490 135.366,278.448 135.206 C 278.406 135.047,278.374 135.217,278.375 135.583 M267.377 141.786 C 267.631 141.825,268.006 141.824,268.211 141.784 C 268.416 141.744,268.208 141.713,267.750 141.714 C 267.292 141.716,267.124 141.748,267.377 141.786 M251.708 141.958 C 253.610 141.985,256.723 141.985,258.625 141.958 C 260.527 141.931,258.971 141.910,255.167 141.910 C 251.362 141.910,249.806 141.931,251.708 141.958 M134.714 148.750 C 134.716 149.208,134.748 149.376,134.786 149.123 C 134.825 148.869,134.824 148.494,134.784 148.289 C 134.744 148.084,134.713 148.292,134.714 148.750 M252.875 159.115 C 253.035 159.157,253.298 159.157,253.458 159.115 C 253.619 159.073,253.487 159.039,253.167 159.039 C 252.846 159.039,252.715 159.073,252.875 159.115 M241.708 159.615 C 241.869 159.657,242.131 159.657,242.292 159.615 C 242.452 159.573,242.321 159.539,242.000 159.539 C 241.679 159.539,241.548 159.573,241.708 159.615 M281.042 162.417 C 281.044 162.783,281.078 162.914,281.118 162.706 C 281.158 162.499,281.156 162.199,281.115 162.040 C 281.073 161.880,281.040 162.050,281.042 162.417 M281.205 167.167 C 281.205 167.487,281.240 167.619,281.282 167.458 C 281.323 167.298,281.323 167.035,281.282 166.875 C 281.240 166.715,281.205 166.846,281.205 167.167 M281.773 177.809 C 281.351 178.250,281.321 178.370,281.376 179.434 L 281.435 180.583 281.467 179.426 C 281.496 178.421,281.559 178.207,281.948 177.801 C 282.194 177.544,282.358 177.333,282.312 177.333 C 282.267 177.333,282.024 177.548,281.773 177.809 M278.333 255.967 L 278.417 330.750 278.459 256.092 C 278.482 215.030,278.444 181.377,278.375 181.309 C 278.306 181.240,278.287 214.836,278.333 255.967 M245.963 184.622 C 246.355 184.657,246.955 184.657,247.296 184.621 C 247.637 184.585,247.317 184.557,246.583 184.557 C 245.850 184.558,245.571 184.587,245.963 184.622 M239.375 184.789 C 239.810 184.824,240.523 184.824,240.958 184.789 C 241.394 184.755,241.037 184.727,240.167 184.727 C 239.296 184.727,238.940 184.755,239.375 184.789 M185.060 186.333 C 185.060 187.204,185.088 187.560,185.123 187.125 C 185.157 186.690,185.157 185.977,185.123 185.542 C 185.088 185.106,185.060 185.463,185.060 186.333 M127.375 191.615 C 127.535 191.657,127.798 191.657,127.958 191.615 C 128.119 191.573,127.987 191.539,127.667 191.539 C 127.346 191.539,127.215 191.573,127.375 191.615 M256.052 192.750 C 256.053 193.300,256.084 193.505,256.121 193.205 C 256.158 192.906,256.157 192.456,256.119 192.205 C 256.081 191.955,256.051 192.200,256.052 192.750 M130.872 196.000 C 130.872 196.321,130.906 196.452,130.948 196.292 C 130.990 196.131,130.990 195.869,130.948 195.708 C 130.906 195.548,130.872 195.679,130.872 196.000 M184.039 198.667 C 184.039 198.987,184.073 199.119,184.115 198.958 C 184.157 198.798,184.157 198.535,184.115 198.375 C 184.073 198.215,184.039 198.346,184.039 198.667 M184.042 201.417 C 184.044 201.783,184.078 201.914,184.118 201.706 C 184.158 201.499,184.156 201.199,184.115 201.040 C 184.073 200.880,184.040 201.050,184.042 201.417 M185.064 216.167 C 185.064 217.313,185.091 217.781,185.123 217.208 C 185.156 216.635,185.156 215.698,185.123 215.125 C 185.091 214.552,185.064 215.021,185.064 216.167 M184.723 223.667 C 184.723 224.354,184.752 224.635,184.788 224.292 C 184.824 223.948,184.824 223.385,184.788 223.042 C 184.752 222.698,184.723 222.979,184.723 223.667 M281.573 250.083 C 281.573 252.558,281.596 253.594,281.624 252.385 C 281.653 251.176,281.653 249.151,281.625 247.885 C 281.596 246.619,281.573 247.608,281.573 250.083 M281.745 322.917 C 281.745 328.050,281.766 330.174,281.792 327.637 C 281.817 325.100,281.817 320.900,281.792 318.304 C 281.766 315.707,281.745 317.783,281.745 322.917 M157.833 327.083 C 157.833 327.313,157.898 327.500,157.977 327.500 C 158.056 327.500,158.085 327.313,158.041 327.083 C 157.997 326.854,157.932 326.667,157.897 326.667 C 157.862 326.667,157.833 326.854,157.833 327.083 M279.544 352.620 C 279.797 352.658,280.172 352.657,280.377 352.617 C 280.582 352.578,280.375 352.546,279.917 352.548 C 279.458 352.549,279.291 352.581,279.544 352.620 " stroke="none" fill="#fc7741" fill-rule="evenodd"></path><path id="path3" d="M225.544 46.120 C 225.797 46.158,226.172 46.157,226.377 46.117 C 226.582 46.078,226.375 46.046,225.917 46.048 C 225.458 46.049,225.291 46.081,225.544 46.120 M228.125 46.118 C 228.331 46.157,228.669 46.157,228.875 46.118 C 229.081 46.078,228.912 46.045,228.500 46.045 C 228.088 46.045,227.919 46.078,228.125 46.118 M242.372 67.833 C 242.372 68.154,242.406 68.285,242.448 68.125 C 242.490 67.965,242.490 67.702,242.448 67.542 C 242.406 67.381,242.372 67.512,242.372 67.833 M170.158 73.458 L 169.583 74.083 170.208 73.509 C 170.552 73.193,170.833 72.912,170.833 72.884 C 170.833 72.757,170.692 72.877,170.158 73.458 M209.714 88.250 C 209.716 88.708,209.748 88.876,209.786 88.623 C 209.825 88.369,209.824 87.994,209.784 87.789 C 209.744 87.584,209.713 87.792,209.714 88.250 M231.718 94.083 C 231.719 94.633,231.750 94.838,231.787 94.539 C 231.825 94.239,231.824 93.789,231.786 93.539 C 231.748 93.288,231.717 93.533,231.718 94.083 M205.409 97.708 L 204.750 98.417 205.458 97.758 C 206.117 97.145,206.243 97.000,206.117 97.000 C 206.090 97.000,205.771 97.319,205.409 97.708 M238.709 120.583 C 238.711 120.950,238.745 121.080,238.785 120.873 C 238.824 120.666,238.823 120.366,238.781 120.206 C 238.739 120.047,238.707 120.217,238.709 120.583 M238.709 124.417 C 238.711 124.783,238.745 124.914,238.785 124.706 C 238.824 124.499,238.823 124.199,238.781 124.040 C 238.739 123.880,238.707 124.050,238.709 124.417 M281.383 132.500 C 281.383 133.004,281.415 133.210,281.453 132.958 C 281.491 132.706,281.491 132.294,281.453 132.042 C 281.415 131.790,281.383 131.996,281.383 132.500 M266.208 141.782 C 266.369 141.823,266.631 141.823,266.792 141.782 C 266.952 141.740,266.821 141.705,266.500 141.705 C 266.179 141.705,266.048 141.740,266.208 141.782 M242.708 159.615 C 242.869 159.657,243.131 159.657,243.292 159.615 C 243.452 159.573,243.321 159.539,243.000 159.539 C 242.679 159.539,242.548 159.573,242.708 159.615 M281.212 166.000 C 281.212 166.412,281.245 166.581,281.284 166.375 C 281.324 166.169,281.324 165.831,281.284 165.625 C 281.245 165.419,281.212 165.587,281.212 166.000 M279.039 171.167 C 279.039 171.487,279.073 171.619,279.115 171.458 C 279.157 171.298,279.157 171.035,279.115 170.875 C 279.073 170.715,279.039 170.846,279.039 171.167 M248.375 184.621 C 248.719 184.657,249.281 184.657,249.625 184.621 C 249.969 184.585,249.688 184.556,249.000 184.556 C 248.313 184.556,248.031 184.585,248.375 184.621 M241.960 184.785 C 242.168 184.824,242.468 184.823,242.627 184.781 C 242.786 184.739,242.617 184.707,242.250 184.709 C 241.883 184.711,241.753 184.745,241.960 184.785 M125.048 189.917 C 125.049 190.375,125.081 190.543,125.120 190.289 C 125.158 190.036,125.157 189.661,125.117 189.456 C 125.078 189.251,125.046 189.458,125.048 189.917 M235.705 193.000 C 235.705 193.321,235.740 193.452,235.782 193.292 C 235.823 193.131,235.823 192.869,235.782 192.708 C 235.740 192.548,235.705 192.679,235.705 193.000 M184.039 202.500 C 184.039 202.821,184.073 202.952,184.115 202.792 C 184.157 202.631,184.157 202.369,184.115 202.208 C 184.073 202.048,184.039 202.179,184.039 202.500 M184.717 221.667 C 184.717 222.171,184.748 222.377,184.786 222.125 C 184.824 221.873,184.824 221.460,184.786 221.208 C 184.748 220.956,184.717 221.162,184.717 221.667 M184.718 225.750 C 184.719 226.300,184.750 226.505,184.787 226.205 C 184.825 225.906,184.824 225.456,184.786 225.205 C 184.748 224.955,184.717 225.200,184.718 225.750 M281.572 241.500 C 281.572 243.838,281.596 244.794,281.625 243.625 C 281.653 242.456,281.653 240.544,281.625 239.375 C 281.596 238.206,281.572 239.162,281.572 241.500 M185.883 239.167 C 185.883 239.671,185.915 239.877,185.953 239.625 C 185.991 239.373,185.991 238.960,185.953 238.708 C 185.915 238.456,185.883 238.662,185.883 239.167 M228.826 240.208 C 229.517 240.944,229.667 241.077,229.667 240.951 C 229.667 240.925,229.310 240.568,228.875 240.160 L 228.083 239.417 228.826 240.208 M264.705 255.833 C 264.705 256.154,264.740 256.285,264.782 256.125 C 264.823 255.965,264.823 255.702,264.782 255.542 C 264.740 255.381,264.705 255.512,264.705 255.833 M163.625 264.284 C 163.831 264.324,164.169 264.324,164.375 264.284 C 164.581 264.245,164.412 264.212,164.000 264.212 C 163.587 264.212,163.419 264.245,163.625 264.284 M281.745 302.750 C 281.745 308.800,281.766 311.251,281.792 308.196 C 281.817 305.142,281.817 300.192,281.792 297.196 C 281.766 294.201,281.745 296.700,281.745 302.750 M138.125 339.122 C 138.515 339.157,139.152 339.157,139.542 339.122 C 139.931 339.087,139.612 339.058,138.833 339.058 C 138.054 339.058,137.735 339.087,138.125 339.122 M248.885 345.083 C 248.886 345.633,248.917 345.838,248.954 345.539 C 248.991 345.239,248.990 344.789,248.952 344.539 C 248.914 344.288,248.884 344.533,248.885 345.083 M165.960 351.618 C 166.168 351.658,166.468 351.656,166.627 351.615 C 166.786 351.573,166.617 351.540,166.250 351.542 C 165.883 351.544,165.753 351.578,165.960 351.618 M170.708 351.615 C 170.869 351.657,171.131 351.657,171.292 351.615 C 171.452 351.573,171.321 351.539,171.000 351.539 C 170.679 351.539,170.548 351.573,170.708 351.615 M255.288 353.954 C 255.584 353.990,256.109 353.991,256.455 353.955 C 256.800 353.919,256.558 353.889,255.917 353.888 C 255.275 353.887,254.992 353.917,255.288 353.954 " stroke="none" fill="#fc8a55" fill-rule="evenodd"></path><path id="path4" d="M158.925 324.674 C 157.981 325.388,157.426 327.589,158.271 327.265 C 158.420 327.208,158.641 327.243,158.761 327.343 C 158.933 327.486,159.000 327.397,159.073 326.929 C 159.125 326.601,159.211 326.055,159.264 325.714 C 159.318 325.374,159.470 324.886,159.602 324.631 C 159.907 324.041,159.749 324.051,158.925 324.674 M172.258 338.471 C 172.575 338.746,174.130 339.833,174.208 339.833 C 174.730 339.833,173.990 338.958,173.225 338.672 C 172.246 338.305,172.012 338.257,172.258 338.471 " stroke="none" fill="#858280" fill-rule="evenodd"></path></g></svg>